<?xml version="1.0" encoding="UTF-8"?>
<!DOCTYPE svg PUBLIC "-//W3C//DTD SVG 1.1//EN" "http://www.w3.org/Graphics/SVG/1.1/DTD/svg11.dtd">
<!-- Creator: CorelDRAW -->
<svg xmlns="http://www.w3.org/2000/svg" xml:space="preserve" width="7.8904mm" height="7.3661mm" version="1.1" style="shape-rendering:geometricPrecision; text-rendering:geometricPrecision; image-rendering:optimizeQuality; fill-rule:evenodd; clip-rule:evenodd"
viewBox="0 0 745.54 696"
 xmlns:xlink="http://www.w3.org/1999/xlink"
 xmlns:xodm="http://www.corel.com/coreldraw/odm/2003">
 <defs>
  <style type="text/css">
   <![CDATA[
    .fil0 {fill:#031138}
   ]]>
  </style>
 </defs>
 <g id="Слой_x0020_1">
  <metadata id="CorelCorpID_0Corel-Layer"/>
  <g id="_105553250851136">
   <path class="fil0" d="M472.18 602.65c17.83,1.47 26.17,18.63 139.78,18.63 65.87,0 100.44,-17.94 108.73,-18.63 0,46.82 8.51,47.96 -37.26,59.04 -49.31,11.93 -124.69,11.93 -174.01,0 -8.98,-2.18 -29.65,-8 -34.68,-13.47 -4.55,-4.94 -2.57,-37.03 -2.57,-45.57zm0 -74.55c5.69,0.46 17.5,5.79 23.6,7.46 56.46,15.34 143.41,15.15 200.07,0.32 7.13,-1.86 18.89,-7.28 24.84,-7.78 0,46.82 8.51,47.95 -37.26,59.04 -49.31,11.93 -124.69,11.93 -174.01,0 -45.7,-11.07 -37.25,-11.97 -37.25,-59.04zm0 -74.56c17.83,1.48 26.17,18.64 139.78,18.64 27.4,0 58.49,-4.2 83.89,-10.86 7.13,-1.87 18.89,-7.29 24.84,-7.79 0,46.82 8.51,47.96 -37.26,59.04 -49.31,11.94 -124.69,11.94 -174.01,0 -45.7,-11.07 -37.25,-11.97 -37.25,-59.04zm0 -74.55c17.83,1.47 26.17,18.63 139.78,18.63 27.4,0 58.49,-4.2 83.89,-10.86 7.13,-1.86 18.89,-7.28 24.84,-7.78 0,46.82 8.51,47.96 -37.26,59.04 -49.31,11.93 -124.69,11.93 -174.01,0 -8.98,-2.18 -29.65,-8 -34.68,-13.47 -4.55,-4.94 -2.57,-37.03 -2.57,-45.57zm0 -74.55c5.69,0.46 17.5,5.79 23.6,7.45 52.57,14.29 120.6,14.06 174.55,5.87 10.03,-1.51 17,-3.31 25.52,-5.54 7.13,-1.86 18.89,-7.29 24.84,-7.78 0,46.82 8.51,47.95 -37.26,59.04 -49.31,11.93 -124.69,11.93 -174.01,0 -8.98,-2.18 -29.65,-8.01 -34.68,-13.47 -4.55,-4.95 -2.57,-37.04 -2.57,-45.57zm124.25 -55.92c33.24,0 111.19,7.64 122.7,24.85 -11.51,17.2 -89.46,24.85 -122.7,24.85 -20.93,0 -46,-2.12 -67.47,-5.54 -11.4,-1.81 -21.32,-3.82 -30.59,-6.69 -17.62,-5.45 -12.01,-3.56 -26.19,-11.07 10.63,-15.86 64.84,-22.98 87.05,-24.76l37.2 -1.63zm-149.11 21.74l0 378.98c0,20.8 36.8,32.54 53.42,36.67 55.85,13.86 174.4,16.46 224.59,-11.84 6.86,-3.86 20.21,-14.61 20.21,-24.83l0 -378.98c0,-10.58 -13.19,-20.75 -20.23,-24.82 -8.48,-4.88 -21.85,-9.03 -33.19,-11.85 -54.91,-13.62 -136.46,-13.62 -191.37,0 -16.65,4.14 -53.42,15.77 -53.42,36.67z"/>
   <path class="fil0" d="M223.66 419.37l0 229.87c0,10.22 13.36,20.97 20.21,24.83 38.9,21.94 108.88,21.77 155.31,21.77 15.35,0 23.29,-2.68 23.29,-13.97 0,-20.11 -33.48,-10.88 -49.7,-10.88 -24.76,0 -106.93,-6.74 -121.68,-22.77 -4.55,-4.94 -2.58,-37.03 -2.58,-45.57 5.7,0.47 17.5,5.8 23.6,7.46 45.07,12.25 80.73,11.18 127.07,11.18 15.35,0 23.29,-2.67 23.29,-13.97 0,-20.1 -33.48,-10.88 -49.7,-10.88 -24.76,0 -106.93,-6.73 -121.68,-22.76 -4.55,-4.95 -2.58,-37.04 -2.58,-45.57 7.97,0.66 42.86,18.63 108.73,18.63 17.33,0 65.23,4.58 65.23,-10.88 0,-24.42 -26.79,-13.97 -49.7,-13.97 -24.76,0 -106.93,-6.74 -121.68,-22.76 -4.55,-4.95 -2.58,-37.04 -2.58,-45.58 7.97,0.66 42.86,18.64 108.73,18.64 17.33,0 65.23,4.57 65.23,-10.88 0,-24.43 -26.79,-13.97 -49.7,-13.97 -27.95,0 -71.35,-3.96 -98.06,-12.23 -17.62,-5.45 -12.01,-3.56 -26.2,-11.07 10.63,-15.87 64.84,-22.98 87.06,-24.77l35.65 -1.63c30.58,0 51.25,9.53 51.25,-13.97 0,-15.45 -47.9,-10.88 -65.23,-10.88 -30.72,0 -88.31,7.32 -113.35,21.78 -7.04,4.07 -20.23,14.24 -20.23,24.82z"/>
   <path class="fil0" d="M-0 493.92l0 155.32c0,10.22 13.35,20.97 20.21,24.83 38.9,21.94 108.88,21.77 155.3,21.77 15.36,0 23.3,-2.68 23.3,-13.97 0,-20.11 -33.48,-10.88 -49.7,-10.88 -13.62,0 -33,-1.43 -45.33,-2.83 -15.62,-1.77 -28.17,-3.19 -41.68,-6.46 -45.71,-11.07 -37.26,-11.97 -37.26,-59.04 7.97,0.66 42.86,18.63 108.73,18.63 17.32,0 65.23,4.58 65.23,-10.88 0,-24.42 -26.79,-13.97 -49.7,-13.97 -24.76,0 -106.94,-6.73 -121.68,-22.76 -4.55,-4.95 -2.58,-37.04 -2.58,-45.57 5.69,0.46 17.5,5.79 23.6,7.46 45.07,12.25 80.73,11.18 127.06,11.18 15.36,0 23.3,-2.67 23.3,-13.97 0,-20.11 -33.48,-10.88 -49.7,-10.88 -35.4,0 -78.71,-4.66 -112.07,-16.85 -5.23,-1.91 -7.78,-4.11 -12.19,-6.45 7.96,-11.88 36.1,-17.45 54.12,-20.43l68.58 -5.97c30.59,0 51.26,9.53 51.26,-13.97 0,-15.46 -47.91,-10.88 -65.23,-10.88 -25.58,0 -133.58,8.89 -133.58,46.59z"/>
   <path class="fil0" d="M509.45 186.38c0,7.51 4.9,12.43 12.43,12.43 9.36,0 41.22,-35.78 49.31,-43.87l116.48 -116.49c5.61,-5.6 20.59,-17.11 20.59,-26.02 0,-7.51 -4.91,-12.43 -12.43,-12.43 -9.36,0 -41.22,35.79 -49.31,43.88l-116.49 116.49c-5.6,5.6 -20.58,17.11 -20.58,26.01z"/>
   <path class="fil0" d="M559.15 49.71c0,-15.69 24.86,-15.69 24.86,0 0,15.68 -24.86,15.68 -24.86,0zm-24.85 -3.11c0,54.14 74.56,54.14 74.56,0 0,-19.01 -16.33,-34.18 -40.39,-34.18 -17.08,0 -34.17,17.09 -34.17,34.18z"/>
   <path class="fil0" d="M646.13 136.68c0,-15.68 24.86,-15.68 24.86,0 0,15.69 -24.86,15.69 -24.86,0zm-24.85 -3.1c0,54.13 74.56,54.13 74.56,0 0,-19.02 -16.33,-34.18 -40.38,-34.18 -17.09,0 -34.18,17.08 -34.18,34.18z"/>
  </g>
 </g>
</svg>
