<?xml version="1.0" encoding="UTF-8"?>
<!DOCTYPE svg PUBLIC "-//W3C//DTD SVG 1.1//EN" "http://www.w3.org/Graphics/SVG/1.1/DTD/svg11.dtd">
<!-- Creator: CorelDRAW -->
<svg xmlns="http://www.w3.org/2000/svg" xml:space="preserve" width="7.647mm" height="7.3854mm" version="1.1" style="shape-rendering:geometricPrecision; text-rendering:geometricPrecision; image-rendering:optimizeQuality; fill-rule:evenodd; clip-rule:evenodd"
viewBox="0 0 55.02 53.14"
 xmlns:xlink="http://www.w3.org/1999/xlink"
 xmlns:xodm="http://www.corel.com/coreldraw/odm/2003">
 <defs>
  <style type="text/css">
   <![CDATA[
    .fil0 {fill:black}
   ]]>
  </style>
 </defs>
 <g id="Слой_x0020_1">
  <metadata id="CorelCorpID_0Corel-Layer"/>
  <g id="_105553119131968">
   <path class="fil0" d="M1.93 31.06l8.06 0 0 18.7 -8.06 0 0 -18.7zm19.88 12.04c0,0.85 0.58,1.07 1.5,1.07l10.85 0c1.14,0 4.9,-1.45 6.12,-1.93 1.84,-0.73 6.5,-2.19 7.92,-2.83 1.6,-0.73 4.87,-1.34 4.87,1.33 0,1.13 -1.1,1.78 -1.9,2.19 -2.14,1.08 -3.5,1.72 -5.76,2.62l-9.04 3.42c-0.54,0.21 -5.71,2.19 -6.19,2.19 -3.99,0 -3.03,0.29 -6.45,-1.07 -1.03,-0.41 -2.06,-0.78 -3.1,-1.2l-6.25 -2.35 -2.47 0 0 -12.25 6.12 0c0.48,0 5.55,2.76 6.73,3.37 0.51,0.26 0.48,0.29 1.22,0.29 1.94,-0.01 3.87,-0.01 5.81,-0.01 1.22,0 2.71,-0.23 3.37,0.93 0.53,0.93 0.51,1.8 -0.17,2.59 -0.93,1.08 -3.64,0.67 -5.67,0.67 -1.4,0 -2.79,0 -4.19,0 -1.31,0 -3.33,-0.36 -3.33,0.97zm-21.81 -13l0 20.85c0,0.34 0.55,0.75 0.97,0.75l9.99 0c1.27,0 0.97,-1.79 0.97,-3.22 2.86,0 2.19,-0.06 5.11,1.12 1.16,0.47 8.81,3.5 9.39,3.5 1.12,0 4.17,0.19 5.05,-0.22 1.27,-0.58 4.37,-1.62 5.87,-2.19l6.65 -2.49c2.4,-0.91 7.44,-2.93 9.41,-4.34 1.1,-0.79 1.61,-1.88 1.61,-3.44 0,-1.58 -1.17,-2.84 -2.47,-3.33 -1.2,-0.46 -2.42,-0.34 -3.65,0.01l-9.97 3.57c-0.58,0.23 -1.14,0.35 -1.64,0.61 0.08,-0.32 0.22,-0.81 0.22,-1.18 0,-1.93 -1.3,-3.38 -2.76,-3.9 -1.07,-0.39 -6.18,-0.19 -8.1,-0.18 -0.89,0.01 -0.81,-0.03 -1.4,-0.32l-2.18 -1.15c-0.75,-0.4 -1.51,-0.71 -2.22,-1.11 -0.38,-0.22 -1.79,-1.07 -2.26,-1.07l-6.66 0c0,-1.45 0.33,-3.22 -1.07,-3.22l-9.89 0c-0.53,0 -0.97,0.44 -0.97,0.97z"/>
   <path class="fil0" d="M32.56 27.41c-4.41,0 -8.06,-2.29 -10.21,-5.16 -0.48,-0.64 -0.81,-1.19 -1.18,-1.93 -1.72,-3.45 -1.77,-7.76 -0.04,-11.21 1.01,-2.01 2.42,-3.7 4.29,-4.95 5.08,-3.38 11.72,-2.84 15.97,1.41 0.54,0.55 1.02,1.01 1.46,1.66 6.26,9.25 -0.61,20.18 -10.3,20.18zm-0.11 1.93c2.54,0 4.2,-0.52 6.03,-1.27 1.11,-0.46 2.32,-1.25 3.27,-1.99l0.99 -0.84c2.36,-2.18 4.43,-6.43 4.43,-9.75 0,-2.85 -0.14,-4.6 -1.43,-7.16l-1.32 -2.23c-0.28,-0.4 -0.45,-0.61 -0.77,-0.95l-0.86 -0.97c-0.3,-0.3 -0.59,-0.51 -0.92,-0.8 -5.76,-4.87 -14.31,-4.41 -19.77,1.01 -1.09,1.09 -2.36,2.84 -2.97,4.34 -0.36,0.89 -0.69,1.68 -0.92,2.74 -0.34,1.6 -0.18,1.35 -0.3,2.39 -0.42,3.92 1.45,8.38 4.23,11.17 2.25,2.25 5.84,4.32 10.29,4.32z"/>
   <path class="fil0" d="M24.82 21.39c0,0.76 0.68,1.75 2.12,0.3 0.67,-0.67 1.26,-1.26 1.93,-1.93 1.32,-1.32 2.55,-2.55 3.87,-3.87 1.32,-1.32 2.55,-2.55 3.87,-3.87 0.7,-0.7 3.68,-3.35 3.68,-4.16 0,-0.54 -0.53,-0.97 -0.97,-0.97 -0.64,0 -3.21,2.84 -3.79,3.41l-9.99 9.99c-0.3,0.3 -0.73,0.57 -0.73,1.1z"/>
   <path class="fil0" d="M26.86 10.54c0,-2.39 2.69,-1.73 2.69,-0.43 0,2.41 -2.69,1.75 -2.69,0.43zm1.18 3.12c1.44,0 2.71,-0.69 3.21,-1.95 1.42,-3.57 -2.74,-6.21 -5.39,-3.78 -1.98,1.82 -0.78,5.72 2.18,5.72z"/>
   <path class="fil0" d="M35.46 19.03c0,-1.8 2.79,-1.97 2.79,0.11 0,1.76 -2.79,1.56 -2.79,-0.11zm-1.93 0c0,1.86 1.55,3.33 3.44,3.33 1.55,0 3.22,-1.48 3.22,-3.01 0,-1.05 -0.11,-1.9 -0.94,-2.72 -0.81,-0.81 -1.59,-0.94 -2.72,-0.94 -0.92,0 -1.59,0.56 -2.07,1.05 -0.54,0.53 -0.94,1.28 -0.94,2.29z"/>
  </g>
 </g>
</svg>
