<?xml version="1.0" encoding="UTF-8"?>
<!DOCTYPE svg PUBLIC "-//W3C//DTD SVG 1.1//EN" "http://www.w3.org/Graphics/SVG/1.1/DTD/svg11.dtd">
<!-- Creator: CorelDRAW -->
<svg xmlns="http://www.w3.org/2000/svg" xml:space="preserve" width="117.091mm" height="58.5247mm" version="1.1" style="shape-rendering:geometricPrecision; text-rendering:geometricPrecision; image-rendering:optimizeQuality; fill-rule:evenodd; clip-rule:evenodd"
viewBox="0 0 11692.98 5844.39"
 xmlns:xlink="http://www.w3.org/1999/xlink"
 xmlns:xodm="http://www.corel.com/coreldraw/odm/2003">
 <defs>
  <style type="text/css">
   <![CDATA[
    .fil0 {fill:#ECF3F8;fill-rule:nonzero}
   ]]>
  </style>
 </defs>
 <g id="Слой_x0020_1">
  <metadata id="CorelCorpID_0Corel-Layer"/>
  <g>
   <path class="fil0" d="M960.58 126.28l-67.19 123.87 0 0 -27.34 -14.37 -26.9 -13.22 -26.48 -12.09 -26.11 -11 -25.78 -9.96 -25.47 -8.94 -25.21 -7.94 -25.01 -6.99 -24.82 -6.05 -24.7 -5.16 -24.6 -4.28 -24.57 -3.46 -24.58 -2.62 -24.63 -1.84 -24.7 -1.04 -24.87 -0.28 -25.06 0.47 -25.29 1.19 -25.53 1.9 -25.82 2.6 -26.17 3.29 -26.54 3.94 -26.94 4.6 -27.37 5.23 -27.82 5.84 -28.31 6.44 -28.82 7.02 -29.35 7.58 -29.93 8.13 -30.51 8.63 -31.13 9.15 -31.77 9.6 -41.28 -134.73 32.8 -9.92 32.33 -9.49 31.91 -9.03 31.49 -8.55 31.15 -8.04 30.8 -7.5 30.49 -6.94 30.24 -6.36 30.01 -5.73 29.8 -5.08 29.62 -4.4 29.49 -3.7 29.38 -2.96 29.29 -2.18 29.2 -1.37 29.15 -0.53 29.14 0.32 29.15 1.24 29.12 2.16 29.15 3.12 29.2 4.09 29.23 5.1 29.29 6.12 29.37 7.17 29.46 8.23 29.58 9.32 29.69 10.42 29.82 11.51 30.01 12.64 30.2 13.79 30.4 14.94 30.66 16.11 0 0zm1142.66 901.42l17.14 139.87 0 0 -44.35 3.39 -43.05 -0.83 -41.62 -4.98 -40.07 -8.96 -38.43 -12.67 -36.71 -16.07 -35.06 -19.05 -33.53 -21.74 -32.24 -24.08 -31.16 -26.18 -30.34 -28.04 -29.77 -29.72 -29.46 -31.23 -29.38 -32.59 -29.5 -33.81 -29.85 -34.9 -30.39 -35.85 -31.12 -36.66 -32.04 -37.35 -33.12 -37.89 -34.4 -38.31 -35.83 -38.59 -37.45 -38.71 -39.24 -38.73 -41.18 -38.6 -43.31 -38.33 -45.62 -37.94 -48.08 -37.41 -50.73 -36.74 -53.58 -35.94 -56.58 -34.99 -59.81 -33.93 67.19 -123.87 64.42 36.55 61.08 37.77 57.83 38.8 54.74 39.64 51.82 40.3 49.05 40.79 46.45 41.1 43.98 41.21 41.69 41.14 39.59 40.92 37.61 40.48 35.82 39.88 34.18 39.11 32.71 38.13 31.4 36.98 30.21 35.65 29.21 34.14 28.3 32.46 27.54 30.58 26.9 28.53 26.37 26.32 25.9 23.97 25.52 21.45 25.25 18.88 25.05 16.25 24.96 13.6 25.11 10.99 25.5 8.44 26.29 5.88 27.54 3.31 29.25 0.57 31.39 -2.41 0 0zm27.94 870.95l-38.75 135.49 0 -0.01 -40.66 -15.9 -35.73 -23.66 -28.68 -30.7 -20.26 -35.38 -12.19 -37.54 -5.56 -38.23 -0.44 -38.46 3.54 -38.76 6.74 -39.19 9.33 -39.67 11.44 -40.12 13.14 -40.49 14.45 -40.7 15.36 -40.7 15.9 -40.47 16.08 -40.01 15.86 -39.22 15.27 -38.15 14.28 -36.74 12.93 -34.96 11.19 -32.75 9.07 -30.02 6.62 -26.68 3.95 -22.53 1.33 -17.24 -0.63 -10.65 -0.66 -3.17 1.83 2.59 3.64 3.01 -0.42 -0.03 -9.41 -1.13 -19.36 1.08 -17.14 -139.87 40.69 -2.06 39.31 5.24 37.67 15.25 31.87 26.65 20.94 34 10.07 35.42 2.51 34.55 -2.43 33.99 -5.91 34.15 -8.62 34.85 -10.81 35.79 -12.55 36.79 -13.93 37.7 -14.96 38.46 -15.61 39.03 -15.9 39.32 -15.82 39.36 -15.36 39.1 -14.54 38.53 -13.35 37.59 -11.78 36.28 -9.87 34.55 -7.63 32.34 -5.1 29.56 -2.44 26.15 0.18 22.04 2.41 17.28 3.9 12.37 4.66 8.38 5.85 6.33 9.17 6.06 15.32 5.91 0 -0.01zm1975.86 -432.5l-52.65 130.7 0 0 -68.74 -24.48 -69.87 -18.75 -70.94 -13.39 -71.92 -8.3 -72.76 -3.55 -73.42 0.94 -73.93 5.12 -74.22 8.99 -74.31 12.55 -74.21 15.78 -73.87 18.67 -73.35 21.26 -72.58 23.48 -71.65 25.35 -70.48 26.88 -69.12 28.07 -67.57 28.88 -65.8 29.36 -63.86 29.48 -61.59 29.16 -116.65 56.5 -105.53 51.09 -48.86 22.97 -45.72 20.57 -42.77 17.99 -39.95 15.07 -37.57 11.79 -36.03 8.01 -36.19 3.03 -38.49 -5.23 38.75 -135.49 1.02 -0.18 12.48 -1.23 21.43 -4.85 28.3 -8.94 33.92 -12.81 38.78 -16.31 43.1 -19.41 46.85 -22.01 105.07 -50.87 117.03 -56.68 62.95 -29.82 65.32 -30.14 67.64 -30.18 69.76 -29.82 71.7 -29.11 73.48 -28.02 75.07 -26.57 76.49 -24.74 77.74 -22.52 78.82 -19.93 79.74 -16.96 80.5 -13.59 81.09 -9.81 81.5 -5.64 81.73 -1.02 81.75 3.98 81.57 9.44 81.15 15.33 80.46 21.61 79.43 28.29 0 0zm1798.68 162.35l85.36 112.12 -0.01 0 -95.93 70.53 -91.67 62.39 -87.68 54.59 -83.95 47.09 -80.51 39.93 -77.3 33.03 -74.37 26.44 -71.64 20.1 -69.1 14 -66.7 8.17 -64.38 2.6 -62.12 -2.64 -59.92 -7.53 -57.74 -12 -55.65 -16.03 -53.71 -19.57 -51.92 -22.66 -50.36 -25.28 -49.05 -27.47 -47.98 -29.24 -47.2 -30.63 -46.67 -31.65 -46.4 -32.3 -46.38 -32.6 -46.59 -32.55 -47.06 -32.22 -47.74 -31.54 -48.64 -30.54 -49.78 -29.24 -51.14 -27.63 -52.75 -25.75 -54.64 -23.61 52.65 -130.7 60.84 26.26 58.3 28.45 55.91 30.21 53.76 31.56 51.8 32.52 50.08 33.07 48.58 33.25 47.32 33.07 46.26 32.53 45.44 31.62 44.77 30.37 44.33 28.77 44.07 26.86 44 24.66 44.13 22.16 44.45 19.42 45 16.42 45.85 13.21 47 9.79 48.51 6.11 50.46 2.16 52.8 -2.14 55.51 -6.79 58.62 -11.88 62.03 -17.41 65.72 -23.37 69.61 -29.76 73.74 -36.58 78.04 -43.78 82.53 -51.38 87.2 -59.36 92.05 -67.68 -0.01 0zm1880.1 -165.96l-28.82 137.93 0 0 -77.1 -17.02 -73.11 -17.85 -69.3 -18.4 -65.77 -18.75 -62.45 -18.84 -59.38 -18.7 -56.52 -18.32 -53.94 -17.72 -51.54 -16.87 -49.4 -15.79 -47.49 -14.49 -45.83 -13.01 -44.38 -11.31 -43.21 -9.46 -42.3 -7.45 -41.71 -5.27 -41.48 -2.97 -41.61 -0.51 -42.13 2.13 -43.1 4.97 -44.44 8.03 -46.19 11.37 -48.28 14.99 -50.72 18.88 -53.42 23.06 -56.41 27.5 -59.63 32.2 -63.11 37.15 -66.82 42.33 -70.78 47.73 -74.96 53.35 -79.4 59.2 -85.36 -112.12 81.74 -60.94 77.67 -55.28 73.92 -49.85 70.47 -44.63 67.33 -39.63 64.48 -34.81 61.94 -30.2 59.71 -25.77 57.75 -21.5 56.03 -17.39 54.53 -13.43 53.25 -9.63 52.09 -6.01 51.1 -2.59 50.2 0.61 49.47 3.53 48.92 6.17 48.55 8.53 48.4 10.6 48.55 12.37 48.98 13.89 49.69 15.17 50.74 16.21 52.08 17.05 53.74 17.64 55.72 18.07 58 18.28 60.58 18.28 63.49 18.09 66.71 17.73 70.19 17.13 74.07 16.36 0 0zm1945.15 1671.9l-28.84 137.93 0 0 -120.29 -28.9 -111.43 -34.3 -102.99 -39.37 -95.02 -44.11 -87.49 -48.46 -80.39 -52.43 -73.78 -55.96 -67.6 -59.06 -61.96 -61.66 -56.81 -63.85 -52.23 -65.54 -48.24 -66.82 -44.83 -67.67 -41.99 -68.12 -39.75 -68.18 -38.09 -67.87 -36.99 -67.18 -36.44 -66.13 -36.44 -64.73 -36.95 -62.99 -37.98 -60.89 -39.52 -58.49 -41.5 -55.78 -44.02 -52.8 -47.04 -49.6 -50.59 -46.22 -54.73 -42.62 -59.54 -38.89 -65.04 -34.94 -71.26 -30.74 -78.23 -26.23 -85.98 -21.39 28.82 -137.93 96.43 23.99 89.16 29.89 82.25 35.47 75.71 40.65 69.5 45.38 63.76 49.63 58.44 53.35 53.64 56.53 49.41 59.25 45.78 61.47 42.75 63.28 40.35 64.68 38.57 65.71 37.38 66.39 36.76 66.71 36.73 66.7 37.23 66.37 38.29 65.68 39.87 64.68 41.97 63.39 44.61 61.8 47.75 59.93 51.42 57.8 55.65 55.43 60.47 52.83 65.89 49.99 71.94 46.94 78.62 43.57 86.01 39.91 94.04 35.95 102.72 31.63 112.07 26.92 0 0zm341.3 1619.39l-115.68 80.47 0 0 -22.78 -45.3 -10.11 -48.21 -0.1 -48.41 7.19 -48.52 12.7 -49.22 17.09 -50.43 20.62 -51.91 23.43 -53.48 25.54 -54.97 26.96 -56.36 27.74 -57.5 27.79 -58.42 27.18 -59.06 25.86 -59.37 23.9 -59.38 21.23 -59 17.94 -58.24 14.02 -57.08 9.54 -55.49 4.59 -53.53 -0.76 -51.21 -6.47 -48.72 -12.52 -46.32 -19.1 -44.21 -26.51 -42.52 -35.06 -41.14 -44.91 -39.79 -55.95 -38.15 -68.1 -36.04 -81.13 -33.36 -94.9 -30.15 -109.39 -26.43 28.84 -137.93 118.2 28.57 105.12 33.4 92.75 38.18 81.02 42.89 69.81 47.61 58.95 52.26 48.26 56.6 37.7 60.38 27.39 63.24 17.68 65.13 8.85 66.16 1.06 66.55 -5.65 66.53 -11.35 66.28 -16.16 65.87 -20.07 65.29 -23.23 64.55 -25.59 63.65 -27.24 62.52 -28.14 61.18 -28.35 59.58 -27.8 57.66 -26.54 55.44 -24.57 52.86 -21.85 49.86 -18.42 46.34 -14.33 42.16 -9.65 37.16 -4.71 31.07 -0.12 23.81 3.14 16.1 5.16 10.53 0 0zm1620.71 949.95l-8.95 140.63 -33.15 -2.74 -35.92 -4.19 -38.61 -5.66 -41.22 -7.17 -43.72 -8.72 -46.07 -10.3 -48.27 -11.93 -50.32 -13.61 -52.21 -15.32 -53.96 -17.08 -55.52 -18.88 -56.93 -20.73 -58.17 -22.62 -59.25 -24.58 -60.15 -26.54 -60.89 -28.59 -61.45 -30.65 -61.85 -32.77 -62.06 -34.94 -62.11 -37.16 -62 -39.43 -61.7 -41.74 -61.25 -44.08 -60.6 -46.51 -59.77 -48.94 -58.78 -51.46 -57.58 -54 -56.24 -56.59 -54.7 -59.24 -52.97 -61.9 -51.07 -64.65 -48.95 -67.39 115.68 -80.47 45.6 62.77 47.59 60.24 49.45 57.79 51.13 55.38 52.67 52.98 54.03 50.66 55.22 48.34 56.25 46.07 57.12 43.83 57.81 41.62 58.35 39.47 58.69 37.31 58.9 35.22 58.89 33.16 58.72 31.12 58.41 29.13 57.89 27.17 57.19 25.25 56.33 23.36 55.29 21.5 54.08 19.69 52.69 17.93 51.1 16.18 49.35 14.48 47.4 12.81 45.26 11.19 42.93 9.6 40.42 8.06 37.69 6.55 34.73 5.1 31.51 3.67 28.02 2.32z"/>
  </g>
 </g>
</svg>
