<?xml version="1.0" encoding="UTF-8"?>
<!DOCTYPE svg PUBLIC "-//W3C//DTD SVG 1.1//EN" "http://www.w3.org/Graphics/SVG/1.1/DTD/svg11.dtd">
<!-- Creator: CorelDRAW -->
<svg xmlns="http://www.w3.org/2000/svg" xml:space="preserve" width="5.9949mm" height="5.9267mm" version="1.1" style="shape-rendering:geometricPrecision; text-rendering:geometricPrecision; image-rendering:optimizeQuality; fill-rule:evenodd; clip-rule:evenodd"
viewBox="0 0 79.94 79.03"
 xmlns:xlink="http://www.w3.org/1999/xlink"
 xmlns:xodm="http://www.corel.com/coreldraw/odm/2003">
 <defs>
  <style type="text/css">
   <![CDATA[
    .fil0 {fill:#031138}
    .fil1 {fill:#031138;fill-rule:nonzero}
   ]]>
  </style>
 </defs>
 <g id="Слой_x0020_1">
  <metadata id="CorelCorpID_0Corel-Layer"/>
  <g id="_105553255598560">
   <path class="fil0" d="M11.55 63.39c0,-2.26 1.84,-4.06 4.53,-4.06l11.71 0c0.05,2.28 2.56,6.17 3.59,8.12 -3.96,0 -7.91,0 -11.87,0 -2.61,0 -5.72,0.49 -7.16,-1.74 -0.36,-0.55 -0.81,-1.46 -0.81,-2.32zm68.39 -12.49l0 3.3c-0.16,2.44 -0.66,4.9 -1.54,7.33 -1.82,5.05 -5.35,9.55 -9.7,12.63 -1.89,1.34 -4.11,2.56 -6.34,3.34 -5.48,1.91 -10.91,2 -16.49,0.44 -2.28,-0.64 -3.24,-1.14 -5.17,-2.17l-2.32 -1.43c-2.27,-1.55 -2.11,-1.63 -4.06,-3.44 -0.52,-0.48 -0.59,-0.35 -1.53,-0.34l-16.56 0.01c-2.68,0.01 -4.06,-0.56 -5.5,-1.84 -1.12,-0.98 -2.3,-2.97 -2.3,-5.03 0,-1.89 0.02,-2.09 0.88,-3.8 0.53,-1.05 1.09,-1.35 1.62,-2.13 -0.62,-0.92 -2.5,-2.53 -2.5,-5 0,-4.14 1.05,-4.08 2.5,-6.24 -0.62,-0.92 -2.5,-2.53 -2.5,-5 0,-4.14 1.05,-4.08 2.5,-6.25 -0.62,-0.92 -2.5,-2.53 -2.5,-5 0,-3.06 0.96,-5.28 3.28,-6.71 2.36,-1.45 4.19,-1.1 7.8,-1.1 -0.31,-1.35 -1.09,-1.63 -1.09,-3.75 0,-3.2 0.69,-2.65 1.09,-4.37l-13.25 -0.02c-3.47,-0.36 -6.26,-3.27 -6.26,-7.48 0,-3.62 3.25,-6.87 6.87,-6.87l38.88 0c3.62,0 6.87,3.25 6.87,6.87 0,3.2 -0.69,2.65 -1.09,4.37l13.25 0.02c6.64,0.69 8.59,9.8 2.98,13.25 -2.36,1.45 -4.19,1.1 -7.8,1.1 0.2,0.86 0.42,1.15 0.98,1.36 2.94,1.1 4.38,1.41 7.32,3.46 0.29,0.2 0.49,0.36 0.82,0.59 0.65,0.45 0.97,0.78 1.56,1.25 1.37,1.07 3.16,3.03 4.15,4.44 3.05,4.35 4.83,9.21 5.15,14.21zm-26.54 24.98c-3.48,0 -6.6,-0.87 -9.59,-2.12 -9.79,-4.08 -15.79,-15.81 -13.21,-26.46 3.14,-12.95 15.92,-20.59 27.95,-17.64 8.98,2.2 15.37,8.55 17.61,17.52 3.01,12.05 -4.49,24.8 -17.49,28.05 -1.34,0.33 -3.7,0.65 -5.28,0.65zm-26.54 -24.51l0.16 4.84 -10.93 0c-5.95,0 -6.01,-8.12 0,-8.12l11.09 0c-0.02,1.08 -0.31,1.95 -0.31,3.28zm1.09 -6.4c-3.38,0 -6.76,0 -10.15,0 -2.15,0 -2.99,0.13 -4.41,-0.75 -0.58,-0.36 -0.89,-0.73 -1.21,-1.29 -1.27,-2.18 -0.43,-4.62 1.81,-5.68 1.38,-0.65 3.76,-0.41 5.68,-0.41 4.06,0 8.12,0 12.18,0 -0.39,0.74 -1.65,2.48 -2.24,3.69 -0.43,0.89 -1.59,3.6 -1.66,4.43zm6.4 -11.24l-18.27 0c-5.95,0 -6.01,-8.12 0,-8.12l37.32 0c0.87,0 0.93,0.16 1.72,0.16l0 0.16c-5.59,0 -9.69,0.48 -14.53,3.27 -1.51,0.87 -3.95,2.45 -5.18,3.72 -0.27,0.27 -0.63,0.82 -1.05,0.82zm-12.8 -15.3c0,-2.21 1.8,-4.06 4.53,-4.06l37.31 0c1.39,0 2.37,0.42 3.15,1.06 2.45,2.01 1.58,7.06 -3.15,7.06l-37.31 0c-2.67,0 -4.53,-1.84 -4.53,-4.06zm-18.42 -11.24c0,-2.21 1.8,-4.06 4.53,-4.06l37.32 0c5.97,0 5.98,8.12 0,8.12l-37.32 0c-2.67,0 -4.53,-1.84 -4.53,-4.06z"/>
   <path class="fil0" d="M59.95 35.44c0,1.57 1.18,1.69 2.51,2.49 0.54,0.32 0.87,0.6 1.37,0.97 0.58,0.43 0.78,0.73 1.34,1.16l2.24 2.59c2.95,4.33 3.97,9.97 2.24,15.14 -0.22,0.65 -0.36,1.14 -0.64,1.7 -1.77,3.51 0.94,3.51 1.61,3.18 1.59,-0.79 3.07,-6.86 3.07,-9.27 0,-5.2 -1.06,-9.2 -3.77,-12.78 -1.76,-2.33 -1.45,-1.93 -3.53,-3.81 -0.88,-0.79 -3.62,-2.77 -5.03,-2.77 -0.77,0 -1.41,0.63 -1.41,1.4z"/>
   <path class="fil0" d="M33.1 51.53c0,5.77 1.31,9.84 4.5,13.76 1.25,1.53 1.42,1.59 2.8,2.82 0.88,0.79 3.62,2.77 5.03,2.77 1,0 1.41,-0.76 1.41,-1.72 0,-1.15 -1.69,-1.68 -2.51,-2.17 -0.54,-0.33 -0.87,-0.6 -1.37,-0.97l-1.89 -1.7c-0.23,-0.26 -0.31,-0.38 -0.59,-0.66 -0.99,-1 -2.24,-3.1 -2.78,-4.4 -1.28,-3.07 -1.78,-6.48 -1.12,-10.04 0.1,-0.55 0.29,-1.25 0.48,-1.86 0.6,-1.83 1.35,-2.84 1.35,-3.8 0,-1.09 -1.29,-1.82 -2.26,-1.33 -1.49,0.74 -3.05,6.81 -3.05,9.3z"/>
   <path class="fil0" d="M54.18 33.57c0,3.23 4.74,1.38 2.9,-0.87 -0.83,-1.02 -2.9,-0.58 -2.9,0.87z"/>
   <path class="fil0" d="M49.34 71.2c0,1.85 3.28,2.41 3.28,-0.16 0,-1.91 -3.28,-1.95 -3.28,0.16z"/>
   <g>
    <path class="fil1" d="M47.42 64.45l0 -22.34 8.42 0c1.5,0 2.62,0.06 3.4,0.22 1.09,0.19 2.03,0.53 2.74,1.03 0.75,0.53 1.34,1.25 1.81,2.18 0.44,0.91 0.69,1.93 0.69,3.03 0,1.9 -0.62,3.53 -1.84,4.84 -1.19,1.31 -3.37,1.97 -6.55,1.97l-5.71 0 0 9.08 -2.96 0zm2.96 -11.7l5.77 0c1.9,0 3.28,-0.37 4.06,-1.09 0.81,-0.69 1.22,-1.72 1.22,-2.99 0,-0.94 -0.25,-1.72 -0.72,-2.4 -0.47,-0.65 -1.09,-1.09 -1.87,-1.31 -0.5,-0.12 -1.4,-0.19 -2.74,-0.19l-5.71 0 0 7.99z"/>
    <rect class="fil0" x="45.41" y="57.96" width="15.51" height="2.62"/>
    <rect class="fil0" x="45.41" y="52.6" width="4.14" height="2.62"/>
   </g>
  </g>
 </g>
</svg>
