<?xml version="1.0" encoding="UTF-8"?>
<!DOCTYPE svg PUBLIC "-//W3C//DTD SVG 1.1//EN" "http://www.w3.org/Graphics/SVG/1.1/DTD/svg11.dtd">
<!-- Creator: CorelDRAW -->
<svg xmlns="http://www.w3.org/2000/svg" xml:space="preserve" width="64.6345mm" height="34.6397mm" version="1.1" style="shape-rendering:geometricPrecision; text-rendering:geometricPrecision; image-rendering:optimizeQuality; fill-rule:evenodd; clip-rule:evenodd"
viewBox="0 0 26523.22 14214.64"
 xmlns:xlink="http://www.w3.org/1999/xlink"
 xmlns:xodm="http://www.corel.com/coreldraw/odm/2003">
 <defs>
  <style type="text/css">
   <![CDATA[
    .str4 {stroke:#E60C80;stroke-width:72.39;stroke-miterlimit:22.9256;stroke-opacity:0.101961}
    .str2 {stroke:#00A0E4;stroke-width:72.39;stroke-miterlimit:22.9256;stroke-opacity:0.101961}
    .str1 {stroke:#00A0E4;stroke-width:31.27;stroke-miterlimit:22.9256;stroke-opacity:0.101961}
    .str3 {stroke:#00A0E4;stroke-width:72.39;stroke-miterlimit:22.9256;stroke-dasharray:72.386963 217.160890;stroke-opacity:0.101961}
    .str0 {stroke:#00A0E4;stroke-width:72.39;stroke-miterlimit:22.9256;stroke-dasharray:723.869632 217.160890;stroke-opacity:0.101961}
    .str5 {stroke:#2B2B2A;stroke-width:31.27;stroke-miterlimit:22.9256}
    .fil3 {fill:none}
    .fil1 {fill:none}
    .fil4 {fill:white}
    .fil0 {fill:#031138}
    .fil2 {fill:white;fill-opacity:0.101961}
   ]]>
  </style>
   <clipPath id="id0">
    <path d="M363.04 15.63l25797.13 0c191.1,0 347.41,156.3 347.41,347.41l0 13474.03c0,191.1 -156.3,347.41 -347.41,347.41l-25797.13 0c-191.1,0 -347.41,-156.3 -347.41,-347.41l0 -13474.03c0,-191.1 156.3,-347.41 347.41,-347.41z"/>
   </clipPath>
 </defs>
 <g id="Слой_x0020_1">
  <metadata id="CorelCorpID_0Corel-Layer"/>
  <path class="fil0" d="M363.04 15.63l25797.13 0c191.1,0 347.41,156.3 347.41,347.41l0 13474.03c0,191.1 -156.3,347.41 -347.41,347.41l-25797.13 0c-191.1,0 -347.41,-156.3 -347.41,-347.41l0 -13474.03c0,-191.1 156.3,-347.41 347.41,-347.41z"/>
  <g style="clip-path:url(#id0)">
   <g id="_105553254231648">
    <g>
     <path id="_1" class="fil1 str0" d="M23791.92 2318.68c-2058.15,-425.46 -2864.13,1616.85 -6830.8,1750.58 -2860.84,-170.22 -5527.18,2115.27 -8509.61,2115.23 -2126.84,-451.19 -4016.2,-37.34 -5689.19,1164.76l-2746.68 -435.35"/>
     <path class="fil1 str1" d="M2731.29 11971.59c4274.36,-430.26 3981.86,39.39 8076.36,-2674.42 1287.7,-1556.24 2845.33,-2415.2 4522.22,-2966.22 5204.19,-327.75 7568.5,-855.51 8169.22,-1507.45 1233.49,-1218.55 2362.55,-884.57 3008.49,0"/>
     <path class="fil1 str2" d="M2463.82 12156.5c5285.56,656.45 4881.81,-972.59 8635.63,-2479.99 3347.28,-468.71 4133.12,-66.11 5446.13,-1531.74 2526.44,-1969.34 4882.63,121.59 9694.52,-3574"/>
     <path class="fil1 str0" d="M1309.86 13673.42c2058.15,425.5 2864.13,-1616.81 6830.8,-1750.54 2860.84,170.18 5527.18,-2115.27 8509.61,-2115.27 2126.84,451.23 4016.2,37.38 5689.19,-1164.76l2746.68 435.35"/>
     <path class="fil1 str3" d="M1372.73 5571.13c5562.18,-3305.43 7586.51,-4056.54 10198.56,1628.99 3501.08,5516.96 6710.44,-3403.83 10795.05,-2844.64 1362.34,303.66 2263.08,1033.52 2782.67,2115.23"/>
     <polyline class="fil1 str4" points="1372.73,6468.99 2098.11,7271.32 2705.98,6712.13 3429.27,8499.15 4391.07,7839.13 4954.9,7648.19 5380.39,7174.07 6085.47,7952.1 7380.15,7095.07 8379.16,8372.64 9392.09,8948.94 9792.22,8383.02 10656.35,7976.44 11744.37,9070.49 14084.52,8876.02 14619.42,8000.73 15519,8219.53 16491.51,7344.28 17220.92,5812.54 17828.74,5739.62 18315.01,4888.62 19117.34,5253.35 19773.79,4232.18 20965.14,5666.66 22132.15,4475.31 23226.24,4912.96 25149.01,2943.61 "/>
     <path class="fil2" d="M20364.74 468.42l-115.47 0 0 975.17 -313.02 0 0 1349.54 313.02 0 0 2364.72 115.47 0 0 -2364.72 313.02 0 0 -1349.54 -313.02 0 0 -975.17zm-16388.88 7345.43l-313.02 0 0 -929.99 -115.52 0 0 929.99 -313.02 0 0 1832.45 313.02 0 115.52 0 313.02 0 0 -1832.45zm1525.63 -3624.68l-313.02 0 0 -584.64 -115.47 0 0 584.64 -313.02 0 0 3390.49 313.02 0 0 504.53 115.47 0 0 -504.53 313.02 0 0 -3390.49zm1498.46 556.03l-313.02 0 0 -2702.9 -115.52 0 0 2702.9 -313.02 0 0 604.66 313.02 0 0 491.28 115.52 0 0 -491.28 313.02 0 0 -604.66zm1519.67 322.5l-741.56 0 0 3637.77 741.56 0 0 -3637.77zm1507.49 2519.26l-313.02 0 0 -3184.94 -115.47 0 0 3184.94 -313.06 0 0 1209.32 313.06 0 0 395.21 115.47 0 0 -395.21 313.02 0 0 -1209.32zm1537.85 -1329.02l-313.02 0 0 -768.27 -115.47 0 0 768.27 -313.02 0 0 5893.51 313.02 0 0 656.49 115.47 0 0 -656.49 313.02 0 0 -5893.51zm1525.67 2163.89l-313.02 0 0 -1160.57 -115.47 0 0 1160.57 -313.02 0 0 3732.48 313.02 0 0 583.53 115.47 0 0 -583.53 313.02 0 0 -3732.48zm1507.12 -349.54l-313.02 0 0 -259.55 -115.52 0 0 259.55 -313.02 0 0 2706.67 313.02 0 0 1136.65 115.52 0 0 -1136.65 313.02 0 0 -2706.67zm1517.21 340.39l-313.02 0 0 -1148.3 -115.47 0 0 1148.3 -313.02 0 0 2362.06 313.02 0 0 2382.57 115.47 0 0 -2382.57 313.02 0 0 -2362.06zm1534.45 -4117.97l-313.02 0 0 -122.98 -115.47 0 0 122.98 -313.02 0 0 4470.8 313.02 0 0 449.79 115.47 0 0 -449.79 313.02 0 0 -4470.8zm1498.34 -2273.17l-313.02 0 0 -182.28 -115.47 0 0 182.28 -313.06 0 0 2273.34 313.06 0 0 2188.23 115.47 0 0 -2188.23 313.02 0 0 -2273.34zm2732.85 4492.87l-115.47 0 0 741.56 115.47 0 0 -741.56zm329.84 -5070.82l-741.56 0 0 5061.71 741.56 0 0 -5061.71z"/>
    </g>
   </g>
  </g>
  <path class="fil3 str5" d="M363.04 15.63l25797.13 0c191.1,0 347.41,156.3 347.41,347.41l0 13474.03c0,191.1 -156.3,347.41 -347.41,347.41l-25797.13 0c-191.1,0 -347.41,-156.3 -347.41,-347.41l0 -13474.03c0,-191.1 156.3,-347.41 347.41,-347.41z"/>
  <g id="_105553254220896">
   <polygon class="fil0" points="4977.83,8227.37 5254.62,7826.61 7800.15,7815.7 8076.19,8227.37 8163.52,14184.48 4954.08,14184.48 "/>
   <g>
    <path class="fil4" d="M7380.93 2315.69l-420.29 -84.21c-159.96,-21.67 -278.02,-36.28 -432.68,-36.28 -656.04,0 -1371.66,374.41 -1730.52,867 -146.7,201.4 -239.11,453.49 -293.94,708.03 -28.11,130.49 -11.53,77.72 -8.33,136.98 2.01,37.42 -38.78,73.91 -38.78,259.8 0,486.89 26.67,450.7 203.29,868.64 -85.56,6.52 -93.85,19.66 -93.85,116.62 0,176.08 52.24,415.32 82.15,596.04 23.35,141.16 24.95,457.3 122.45,521.52 59.99,20.11 94.87,-12.52 139.48,-16.91 1.11,229.1 54.13,519.1 85.11,743.73 50.02,362.39 274.41,451.11 274.57,532.81l-14.98 297.14c55.23,59.95 176.95,138.21 251.3,193.2 81.46,60.36 165.7,117.12 254.18,183.51l498.38 374c-9.23,82.32 -192.54,241.99 -238.17,344.08 67.91,201.65 189.46,356.11 297.14,469.16 -163.16,361.36 -292.3,651.07 -404.32,1058.76 -113.26,412.33 -176.49,1418.52 -216.42,1927.04 -23.64,300.96 -1.97,382.08 58.93,648.08 91.14,397.96 182.32,805.37 280.31,1188.72l983.99 1.48c88.92,-392.42 192.74,-786.28 275.76,-1179.45 21.95,-104.07 52.53,-197.83 71.73,-304.28 15.84,-87.61 -3.49,-238.99 -8.37,-337.68 -24.7,-498.83 -114.69,-1529.93 -221.02,-1954.08 -98.16,-391.69 -241.86,-699.25 -399.65,-1048.59 87.49,-91.84 199.97,-244.04 267.92,-398.21 49.98,-113.38 -7.88,-134.47 -70.83,-213.06 -51.38,-64.14 -104.89,-119.66 -141.04,-186.34 77.72,-110.88 777.91,-573.51 955.6,-717.22 89.79,-72.63 37.79,-74.77 51.91,-312.49 9.11,-154.13 187.82,-183.47 254.34,-460.42 42.39,-176.62 104.19,-661.95 105.3,-849.89 54.99,6.81 62.74,56.96 140.71,19.37 83.3,-40.21 94.05,-345.07 109.81,-456.77 39.31,-278.71 110.51,-490.29 87.04,-748.37l-60.28 -39.97c61.06,-117.9 82.24,-132.79 118.55,-301.49 88.88,-413.15 42.06,-1184.95 -76.12,-1556.85 -137.63,-433.21 -219.42,-363.54 -389.43,-534.49 227.95,-16.95 206.61,-10.18 412.49,37.18 -139.32,-194.3 -491.03,-295.95 -641.22,-216.38 -59.58,-164.22 -158.69,-299.03 -325.82,-344.08 19.12,96.76 51.99,128.28 85.35,210.51 -100.82,-26.92 -74.85,-143.3 -484.8,-224.83l243.05 218.93z"/>
    <path class="fil4" d="M8076.19 8227.37c-1.64,232.34 -54.13,550.78 -80.39,786.7 -28.31,253.76 -54.82,504.41 -84.29,761.42 -58.72,511.59 -88.8,1040.25 -143.79,1559.27 -83.88,791.54 -181.67,1429.19 -360.83,2188.6 -47.64,202.14 -137.02,502.48 -159.59,690.34l5074.31 0.94c-25.61,-188.07 -29.87,-415.69 -44.03,-609.87 -42.47,-583.73 -113.75,-1118.06 -238.38,-1686.07 -73.37,-334.36 -166.93,-694.24 -271.98,-1012.19 -97.25,-294.27 -191.64,-683.57 -310.27,-956.99 -67.96,-156.55 -176.82,-216.26 -352.21,-286.43l-1367.39 -541.88c-302.93,-126.31 -616.6,-241.13 -920.51,-361.24 -76.7,-30.33 -157.08,-63.65 -234.56,-94.26 -33.4,-13.21 -79.49,-28.81 -112.27,-43.74 -122.25,-55.81 -283.8,-344.13 -393.82,-394.6z"/>
    <path class="fil4" d="M4977.83 8227.37c-74.15,38.78 -170.71,180.8 -236.04,252.78 -106.9,117.73 -84.45,113.38 -178.42,150.48l-2634.74 1039.56c-176.21,71.85 -269.24,139.07 -336,306.45 -112.89,283.15 -226.89,664.45 -315.32,966.31 -247.03,842.91 -342.65,1224.18 -450.45,2116.74 -47.15,390.25 -50.8,762.85 -92.66,1154.87l5072.5 -1.19c-100.05,-462.31 -217.78,-919.86 -308.47,-1398.33 -221.22,-1166.97 -227.71,-1926.83 -353.81,-3055.23 -37.34,-334.36 -154.54,-1266.53 -166.6,-1532.44z"/>
   </g>
  </g>
 </g>
</svg>
