<?xml version="1.0" encoding="UTF-8"?>
<!DOCTYPE svg PUBLIC "-//W3C//DTD SVG 1.1//EN" "http://www.w3.org/Graphics/SVG/1.1/DTD/svg11.dtd">
<!-- Creator: CorelDRAW -->
<svg xmlns="http://www.w3.org/2000/svg" xml:space="preserve" width="5.9514mm" height="5.9493mm" version="1.1" style="shape-rendering:geometricPrecision; text-rendering:geometricPrecision; image-rendering:optimizeQuality; fill-rule:evenodd; clip-rule:evenodd"
viewBox="0 0 79.77 79.74"
 xmlns:xlink="http://www.w3.org/1999/xlink"
 xmlns:xodm="http://www.corel.com/coreldraw/odm/2003">
 <defs>
  <style type="text/css">
   <![CDATA[
    .fil0 {fill:#031138}
   ]]>
  </style>
 </defs>
 <g id="Слой_x0020_1">
  <metadata id="CorelCorpID_0Corel-Layer"/>
  <g id="_105553184329632">
   <path class="fil0" d="M17.31 38.54l10.63 0 0 2.66 -10.63 0 0 -2.66zm-3.99 -7.81c0,-0.39 0.36,-1.13 0.62,-1.38 1.43,-1.44 3.08,0.02 5.11,0.97 1.02,0.47 2.8,1.58 3.57,1.58 2.6,0 6.49,-4.75 8.69,-2.54 1.58,1.59 -0.45,3.45 -1.88,5.37 -0.14,0.2 -0.35,0.51 -0.49,0.68 -0.2,0.25 -0.24,0.49 -0.68,0.49l-11.3 0c-0.41,0 -0.39,-0.15 -0.61,-0.39 -0.77,-0.87 -3.05,-3.96 -3.05,-4.76zm-2.66 -0.17c0,2.44 1.29,3.55 2.92,5.72 1.49,1.99 1.07,1.08 1.07,5.58 0,0.36 -1.58,2.44 -1.89,2.92 -1.8,2.72 -10.55,14.82 -11.78,17.63 -2.02,4.63 -0.81,10.25 2.66,13.72 1.59,1.59 4.94,3.61 8.02,3.61l21.76 0 -0.17 -2.66 -19.94 0c-5.89,0 -10.63,-3.94 -10.63,-9.8 0,-2.76 1.36,-5.08 2.56,-6.74 0.7,-0.96 1.22,-1.84 1.9,-2.75 0.58,-0.78 9.34,-13.35 9.5,-13.93l11.96 0c0.64,1.21 5.22,7.65 6.51,9.6 0.91,1.37 3.34,4.69 3.95,5.85 0.75,-0.5 1.52,-1.07 2.33,-1.5 -0.39,-0.74 -0.88,-1.31 -1.33,-1.99 -0.45,-0.68 -0.86,-1.3 -1.35,-1.97l-6.75 -9.86c-1.78,-2.66 -1.36,-1.03 -1.36,-6.11 0,-0.31 1.89,-2.69 2.21,-3.11 1.23,-1.64 1.78,-2.15 1.78,-4.2 0,-2.83 -2.9,-4.89 -5.08,-4.6 -0.56,0.08 -1.37,0.31 -1.83,0.51 -0.85,0.38 -4.44,2.42 -5.05,2.42 -1.72,0 -6.76,-5.2 -10.35,-1.71 -0.88,0.86 -1.62,1.69 -1.62,3.37z"/>
   <path class="fil0" d="M21.29 2.66l31.9 0 0 2.66 -31.9 0 0 -2.66zm-2.66 -1.33l0 5.32c0,1.58 1.57,1.33 2.66,1.33l0 17.28 2.66 0 0 -17.28 26.58 0 0 50.5 2.66 0 0 -50.5c3.24,0 2.66,0.15 2.66,-6.64 0,-0.8 -0.52,-1.33 -1.33,-1.33l-34.56 0c-0.8,0 -1.33,0.53 -1.33,1.33z"/>
   <path class="fil0" d="M38.57 75.76c0,-0.66 0.75,-1.33 1.5,-1.33l15.62 0c1.93,0 1.93,2.66 0,2.66l-15.62 0c-0.74,0 -1.5,-0.67 -1.5,-1.33zm-2.66 -5.32c0,-0.66 0.75,-1.33 1.5,-1.33l15.62 0c1.93,0 1.93,2.66 0,2.66l-15.62 0c-0.74,0 -1.5,-0.67 -1.5,-1.33zm2.66 -5.32c0,-0.66 0.75,-1.33 1.5,-1.33l15.62 0c1.93,0 1.93,2.66 0,2.66l-15.62 0c-0.74,0 -1.5,-0.67 -1.5,-1.33zm-2.66 -0.33c0,1.39 0.1,1.02 0.17,1.83 -3.77,0.88 -3.77,6.76 0,7.64 -0.07,0.81 -0.17,0.44 -0.17,1.83 0,1.83 1.83,3.66 3.66,3.66l16.61 0c4.25,0 5.13,-6.81 0.83,-7.81 0.22,-2.68 0.22,-0.31 0,-2.99 4.3,-1 3.42,-7.81 -0.83,-7.81l-16.61 0c-1.83,0 -3.66,1.83 -3.66,3.66z"/>
   <path class="fil0" d="M55.85 33.23l17.28 0 0 43.86 -11.96 0 0 2.66 18.61 0 0 -2.66 -3.99 0 0 -45.19c0,-0.8 -0.53,-1.33 -1.33,-1.33l-18.61 0 0 2.66z"/>
   <path class="fil0" d="M58.51 11.13c-0.68,-0.16 -1.78,-0.44 -2.49,-0.5 -0.02,0.99 -0.42,1.77 -0.5,2.66l9.79 2.17c0.55,0.1 1.17,0.06 1.17,0.66l0 11.8 2.66 0 0 -13.29c0,-1.23 -1.48,-1.63 -2.66,-1.66l0 -4.98 -2.66 0 0 4.32c-0.89,-0.07 -1.67,-0.48 -2.66,-0.5l0 -6.48 -2.66 0 0 5.81z"/>
   <path class="fil0" d="M21.29 55.99c-2.38,0.55 -3.69,3.95 -1.71,6.19 1.04,1.17 3.65,1.81 4.13,2.53 1.08,1.61 -2.23,2.78 -2.42,0.41l-2.66 0c0,1.98 1.1,3.46 2.66,3.82l0 1.49 2.66 0 0 -1.49c1.73,-0.4 2.66,-1.98 2.66,-3.99 0,-3.11 -4.48,-3.87 -5.08,-4.73 -1.09,-1.57 2.23,-2.77 2.42,-0.42l2.66 0c0,-1.98 -1.1,-3.46 -2.66,-3.82l0 -1.49 -2.66 0 0 1.49z"/>
   <polygon class="fil0" points="34.58,13.29 39.9,13.29 39.9,10.63 34.58,10.63 "/>
   <polygon class="fil0" points="42.56,13.29 47.87,13.29 47.87,10.63 42.56,10.63 "/>
   <polygon class="fil0" points="26.61,18.61 31.93,18.61 31.93,15.95 26.61,15.95 "/>
   <polygon class="fil0" points="34.58,18.61 39.9,18.61 39.9,15.95 34.58,15.95 "/>
   <polygon class="fil0" points="42.56,18.61 47.87,18.61 47.87,15.95 42.56,15.95 "/>
   <polygon class="fil0" points="65.15,66.45 70.47,66.45 70.47,63.79 65.15,63.79 "/>
   <polygon class="fil0" points="65.15,71.77 70.47,71.77 70.47,69.11 65.15,69.11 "/>
   <polygon class="fil0" points="26.61,23.92 31.93,23.92 31.93,21.27 26.61,21.27 "/>
   <polygon class="fil0" points="34.58,23.92 39.9,23.92 39.9,21.27 34.58,21.27 "/>
   <polygon class="fil0" points="42.56,23.92 47.87,23.92 47.87,21.27 42.56,21.27 "/>
   <polygon class="fil0" points="57.18,39.87 62.49,39.87 62.49,37.21 57.18,37.21 "/>
   <polygon class="fil0" points="42.56,29.24 47.87,29.24 47.87,26.58 42.56,26.58 "/>
   <polygon class="fil0" points="42.56,34.56 47.87,34.56 47.87,31.9 42.56,31.9 "/>
   <polygon class="fil0" points="42.56,39.87 47.87,39.87 47.87,37.21 42.56,37.21 "/>
   <polygon class="fil0" points="26.61,13.29 31.93,13.29 31.93,10.63 26.61,10.63 "/>
   <polygon class="fil0" points="65.15,39.87 70.47,39.87 70.47,37.21 65.15,37.21 "/>
   <polygon class="fil0" points="42.56,45.19 47.87,45.19 47.87,42.53 42.56,42.53 "/>
   <polygon class="fil0" points="57.18,45.19 62.49,45.19 62.49,42.53 57.18,42.53 "/>
   <polygon class="fil0" points="65.15,45.19 70.47,45.19 70.47,42.53 65.15,42.53 "/>
   <polygon class="fil0" points="57.18,50.5 62.49,50.5 62.49,47.85 57.18,47.85 "/>
   <polygon class="fil0" points="65.15,50.5 70.47,50.5 70.47,47.85 65.15,47.85 "/>
   <polygon class="fil0" points="42.56,50.5 47.87,50.5 47.87,47.85 42.56,47.85 "/>
   <polygon class="fil0" points="57.18,55.82 62.49,55.82 62.49,53.16 57.18,53.16 "/>
   <polygon class="fil0" points="65.15,55.82 70.47,55.82 70.47,53.16 65.15,53.16 "/>
   <polygon class="fil0" points="65.15,61.14 70.47,61.14 70.47,58.48 65.15,58.48 "/>
   <polygon class="fil0" points="55.85,21.27 58.51,21.27 58.51,18.61 55.85,18.61 "/>
   <polygon class="fil0" points="61.17,21.27 63.82,21.27 63.82,18.61 61.17,18.61 "/>
   <polygon class="fil0" points="55.85,26.58 58.51,26.58 58.51,23.92 55.85,23.92 "/>
   <polygon class="fil0" points="13.32,63.79 15.98,63.79 15.98,61.14 13.32,61.14 "/>
   <polygon class="fil0" points="29.27,63.79 31.93,63.79 31.93,61.14 29.27,61.14 "/>
   <polygon class="fil0" points="37.24,45.19 39.9,45.19 39.9,42.53 37.24,42.53 "/>
   <polygon class="fil0" points="37.24,29.24 39.9,29.24 39.9,26.58 37.24,26.58 "/>
   <polygon class="fil0" points="37.24,39.87 39.9,39.87 39.9,37.21 37.24,37.21 "/>
   <polygon class="fil0" points="61.17,26.58 63.82,26.58 63.82,23.92 61.17,23.92 "/>
   <polygon class="fil0" points="37.24,34.56 39.9,34.56 39.9,31.9 37.24,31.9 "/>
  </g>
 </g>
</svg>
