<?xml version="1.0" encoding="UTF-8"?>
<!DOCTYPE svg PUBLIC "-//W3C//DTD SVG 1.1//EN" "http://www.w3.org/Graphics/SVG/1.1/DTD/svg11.dtd">
<!-- Creator: CorelDRAW -->
<svg xmlns="http://www.w3.org/2000/svg" xml:space="preserve" width="4.2837mm" height="5.9267mm" version="1.1" style="shape-rendering:geometricPrecision; text-rendering:geometricPrecision; image-rendering:optimizeQuality; fill-rule:evenodd; clip-rule:evenodd"
viewBox="0 0 40.65 56.25"
 xmlns:xlink="http://www.w3.org/1999/xlink"
 xmlns:xodm="http://www.corel.com/coreldraw/odm/2003">
 <defs>
  <style type="text/css">
   <![CDATA[
    .fil0 {fill:#031138}
   ]]>
  </style>
 </defs>
 <g id="Слой_x0020_1">
  <metadata id="CorelCorpID_0Corel-Layer"/>
  <g id="_105553184002784">
   <path class="fil0" d="M24.72 39.44c-0.55,-0.13 -1.08,-0.36 -1.55,-0.53 -0.53,-0.2 -1.05,-0.34 -1.52,-0.56 0.1,-0.37 0.48,-0.72 0.72,-1.04 0.34,-0.43 2.25,-2.74 2.35,-3.14 0.34,0.23 1.05,0.78 1.43,0.88 -0.01,0.46 -0.51,1.71 -0.69,2.16l-0.74 2.23zm-10.22 -4.29c0.42,-0.28 1.07,-0.8 1.43,-0.88l2.15 3.01c0.26,0.37 0.51,0.69 0.71,1.05l-2.75 1.1c-0.49,-0.92 -1.25,-3.65 -1.54,-4.29zm2.42 -3.19c1.42,0.33 1.75,0.55 3.52,0.55 1.04,0 2.62,-0.23 3.3,-0.55 0,0.41 0.06,0.6 -0.09,0.9l-2.4 3.09c-0.27,0.36 -0.8,0.88 -0.91,1.29 -0.45,-0.12 -1.61,-2 -1.9,-2.39 -0.98,-1.31 -1.51,-1.75 -1.51,-2.89zm-5.82 -10.33l0 -5.49c0,-0.41 1.01,-0.61 1.76,-2.08 1.49,-2.91 -1.18,-3.24 3.98,-2.56 0.53,0.07 1.02,0.01 1.55,0.09l8.41 -0.39c0.49,0 0.48,0.86 0.54,1.33 0.34,2.66 2.21,3.06 2.21,3.62l0 5.93c0,4.32 -4.17,8.68 -8.68,8.68 -2.47,0 -3.95,-0.34 -5.91,-1.67l-1.26 -1.05c-0.2,-0.21 -0.31,-0.38 -0.49,-0.61 -0.18,-0.22 -0.31,-0.39 -0.48,-0.62 -0.96,-1.3 -1.63,-3.36 -1.63,-5.18zm20.22 -1.98l0 -3.19c0.75,0.06 1.36,0.81 1.39,1.55 0.04,1.13 -1.09,1.47 -1.39,1.63zm-21.98 -3.19l0 3.19c-0.68,-0.36 -1.3,-0.56 -1.38,-1.57 -0.06,-0.73 0.65,-1.56 1.38,-1.62zm0.66 -11.43c0,0.59 0.41,0.88 0.88,0.88 0.63,0 1.39,-1.01 1.78,-1.4 0.43,-0.43 1.35,-1.06 1.92,-1.38 3.86,-2.14 9.54,-1.79 12.98,1.05 0.63,0.52 1.02,0.91 1.59,1.48 2.43,2.42 2.94,5.61 2.94,9.15l-1.31 -0.23c-1.13,-0.17 -1.68,-1.72 -1.79,-2.83 -0.35,-3.57 -4.1,-1.88 -6.46,-1.88 -0.48,-0 -1.16,0.07 -1.42,0.06 -0.3,-0.01 -0.93,-0.06 -1.44,-0.06 -2.49,0.01 -4.27,-0.44 -5.82,-0.44 -0.68,0 -1.39,0.48 -1.7,0.94 -0.64,0.94 -0.35,4 -2.37,4.22l-1.21 0.22c0,-1.57 0.06,-2.88 0.34,-4.17 0.14,-0.64 0.82,-1.9 0.7,-2.48 -0.12,-0.58 -0.57,-0.61 -1.04,-0.61 -0.89,0 -1.63,3.79 -1.65,4.61 -0.03,1.04 0.1,2.14 -0.04,3.15 -0.03,0.25 -0.04,0.45 -0.07,0.7 -0.09,0.71 -1.28,2 0.09,3.87 0.61,0.84 1.34,1.26 2.44,1.51 0.27,3.22 0.95,5.08 2.65,7.24 0.67,0.85 1.73,1.72 2.67,2.27 0.75,0.44 0.5,0.6 0.5,1.48 0,0.52 -2.21,1.67 -2.61,1.78l-5.18 1.53c-1.68,0.54 -3.17,1.04 -4.15,2.67 -0.6,1 -0.81,2.2 -1.04,3.35 -0.25,1.23 -0.5,2.52 -0.75,3.75 -0.25,1.26 -0.51,2.55 -0.75,3.75 -0.24,1.19 -0.69,2.59 -0.69,3.82 0,1.8 1.29,3.19 3.08,3.19l9.12 0c1.16,0 1.12,-1.65 0,-1.65l-2.97 0 0 -7.8c0,-1.02 -1.65,-1.01 -1.65,-0.11l0 7.91 -3.85 0c-2.96,0 -1.89,-2.38 -1.46,-4.53 0.59,-2.94 1.09,-6 1.76,-8.89 0.52,-2.23 1.1,-3.03 3.36,-3.68 0.89,-0.25 4.78,-1.56 5.57,-1.58 0.11,0.46 0.3,1.02 0.49,1.49 0.46,1.2 0.87,3.78 2.48,3.78 0.86,0 1.75,-0.57 2.53,-0.88 0.27,-0.11 0.62,-0.2 0.88,-0.33l-0 6.27c-0.01,1.56 0.91,1.77 1.47,1.14 0.37,-0.42 0.18,-2.5 0.18,-3.12 0,-1.43 0,-2.86 0,-4.29 1.04,0.09 2.63,1.21 3.63,1.21 1.7,0 2.09,-2.33 2.57,-3.69 0.14,-0.39 0.48,-1.26 0.51,-1.58 0.64,0.01 6.06,1.66 6.78,2.01 3.04,1.51 1.58,5.57 3.33,5.57 1.84,0 -0.1,-4.76 -0.55,-5.39 -0.84,-1.17 -2.15,-1.89 -3.54,-2.28 -1.54,-0.43 -3.03,-0.9 -4.51,-1.32 -1.6,-0.45 -1.69,-0.56 -2.92,-1.36 -0.96,-0.63 -0.79,-0.68 -0.79,-1.74 0,-0.33 0.22,-0.33 0.5,-0.49 1.52,-0.89 1.63,-1.28 2.66,-2.29 1.69,-1.65 2.67,-4.42 2.67,-7.22 1.34,-0.11 3.08,-1.62 3.08,-3.08 0,-1.3 -0.13,-1.04 -0.48,-2.05 -0.18,-0.51 -0.07,-1.31 -0.07,-1.9 0,-3.52 -0.81,-6.92 -3.1,-9.54 -1.09,-1.25 -2.31,-2.32 -3.79,-3.14 -4.68,-2.61 -11.16,-2.29 -15.22,1.33 -0.37,0.33 -1.73,1.53 -1.73,2z"/>
   <path class="fil0" d="M37.69 46.36c0,1.06 1.21,5.44 1.21,6.81 0,1.15 -0.84,1.43 -1.98,1.43l-3.85 0 0 -7.8c0,-1.17 -1.65,-0.87 -1.65,-0.11l0 7.91 -15.38 0c-1.09,0 -1.09,1.65 0,1.65l21.54 0c1.81,0 3.08,-1.4 3.08,-3.19 0,-0.67 -0.56,-3.18 -0.72,-4 -0.28,-1.41 -0.4,-3.47 -1.36,-3.47 -0.47,0 -0.88,0.34 -0.88,0.77z"/>
  </g>
 </g>
</svg>
