<?xml version="1.0" encoding="UTF-8"?>
<!DOCTYPE svg PUBLIC "-//W3C//DTD SVG 1.1//EN" "http://www.w3.org/Graphics/SVG/1.1/DTD/svg11.dtd">
<!-- Creator: CorelDRAW -->
<svg xmlns="http://www.w3.org/2000/svg" xml:space="preserve" width="5.9267mm" height="5.9267mm" version="1.1" style="shape-rendering:geometricPrecision; text-rendering:geometricPrecision; image-rendering:optimizeQuality; fill-rule:evenodd; clip-rule:evenodd"
viewBox="0 0 105.03 105.03"
 xmlns:xlink="http://www.w3.org/1999/xlink"
 xmlns:xodm="http://www.corel.com/coreldraw/odm/2003">
 <defs>
  <style type="text/css">
   <![CDATA[
    .fil0 {fill:#031138}
   ]]>
  </style>
 </defs>
 <g id="Слой_x0020_1">
  <metadata id="CorelCorpID_0Corel-Layer"/>
  <g id="_105553184391264">
   <path class="fil0" d="M72.21 91.48c4.65,1.08 4.02,6.51 4.02,10.17l-11.86 0 0 -16.94 24.14 0c0.31,1.17 1.81,2.44 2.96,2.75l0 14.19 -11.86 0c0,-3.66 -0.62,-9.08 4.02,-10.17 -0.27,-0.56 -1,-2.68 -1.06,-3.39 -0.77,0.18 -1.99,0.87 -2.55,1.26 -0.82,0.58 -1.3,1.37 -2.11,1.91 -0.9,-0.6 -2.27,-2.62 -4.66,-3.18 -0.06,0.71 -0.79,2.83 -1.06,3.39zm22.02 -11.86l7.41 0 0 8.26c0,2.39 -2.91,1.91 -4.87,1.91 -2.28,0 -1.91,-2.4 -1.91,-4.66 -1.05,-0.24 -3.24,-1.21 -3.33,-2.36 -0.09,-1.15 2.24,-3.15 2.69,-3.15zm-10.59 -21.18l-3.39 -4.23c0.18,-0.67 0.5,-0.95 0.88,-1.45l2.93 -4.27 1.27 0.64 -1.69 9.31zm-13.13 -9.53c0.66,-0.15 0.61,-0.27 1.27,-0.42 0.51,0.96 1.22,1.89 1.87,2.78 0.68,0.92 1.32,1.8 1.94,2.72 -0.21,0.79 -3.02,4.18 -3.39,4.45l-1.69 -9.53zm-35.79 0.21l4.18 -4.29 11.76 11.64c0.88,0.91 0.83,1.84 2.06,3.66l2.96 -1.49c-0.09,-1.1 -0.61,-1.3 -0.85,-2.33 1.59,-2.37 8.49,-6.35 12.28,-6.35 0,1.7 2.77,14.4 2.96,16.73 0.43,-0.32 1.51,-1.77 1.94,-2.3 0.82,-1.03 5.29,-6.82 5.9,-7.23 0.86,0.58 7.02,8.93 7.83,9.53l2.24 -12.37c0.24,-1.26 0.72,-3.15 0.72,-4.36 3.49,0 6.9,0.95 9.37,3.12 0.86,0.75 2.06,2.45 2.56,3.58 0.61,1.42 0.99,3.41 0.99,5.36l0 14.19 -6.78 0 0 -13.98c0,-1.79 0.57,-2.55 1.27,-3.6l-2.5 -2.38c-0.34,0.49 -0.48,0.52 -0.8,0.99 -0.96,1.38 -1.37,2.47 -1.37,4.35l-0.01 15.24c-0.16,0.91 -1.12,1.47 -1.74,2.08 -0.76,0.76 -1.15,1.2 -1.42,2.39l-23.93 0 0 -20.12c0,-2.49 -1.26,-3.59 -2.12,-4.87l-2.5 2.37c1.97,3.09 1,2.64 -2.15,4.41 -6.7,3.76 -10.67,-1.67 -14.46,-5.47 -1.46,-1.46 -2.77,-2.77 -4.24,-4.23 -1.07,-1.07 -3.47,-3.23 -4.18,-4.29zm39.81 -5.51c1.23,0.59 5.55,0.59 6.77,0 0.07,0.79 0.51,1.58 0.34,2.24l-3.73 5.17 -3.78 -5.11c-0.32,-0.67 -0.02,-0.52 0.39,-2.31zm-43.41 3.81l-7.2 0c-2.4,0 -1.91,-2.91 -1.91,-4.87 0,-2.28 2.4,-1.91 4.66,-1.91 0.53,-2.29 2.47,-4.32 5.16,-2.83 0.73,0.4 4.12,3.84 4.58,4.53 -0.32,0.47 -4.67,5.08 -5.3,5.08zm36.63 -17.79l0 -4.24c4.16,0 8.32,-1.68 11.86,-3.6 0.56,-0.3 0.93,-0.55 1.48,-0.85 1.24,0.66 1.78,1.54 5.22,3.25 2.26,1.13 1.77,-0.43 1.77,5.64 0,4.51 -2.26,8.08 -5.87,9.8 -6.08,2.9 -14.46,-0.94 -14.46,-10.01zm-2.75 -7.62l-0.64 0 0 6.56c-1.05,-0.28 -1.83,-1.49 -2.32,-2.33 -1.82,-3.12 -1.01,-6.92 1.11,-9.47 1.55,-1.86 2.21,-0.97 3,-2.92 1.58,-3.92 5.76,-7.09 11.13,-7.09 5.5,0 9.01,1.51 11.61,5.55 0.77,1.19 0.61,1.28 0.97,2 0.6,1.18 1.42,0.77 2.7,2.38 4.61,5.77 0.96,11.34 -1.09,11.89l0 -6.14c-0.88,-0.42 -2.05,-0.65 -2.96,-1.06 -0.78,-0.35 -1.89,-0.89 -2.67,-1.36 -1.18,-0.71 -3.63,-2.69 -4.32,-3.73 -1.08,0.72 -2.03,1.6 -3.25,2.26 -4.29,2.31 -7.61,3.46 -13.27,3.46zm-7.41 -0.21c0,2.86 0.42,5.16 2.08,7.24 2.85,3.56 4.52,2.74 5.13,5.04 0.83,3.14 3.88,7.4 6.34,8.05 0,6.42 -5.07,1.11 -16.46,9.59 -0.86,0.64 -1.28,1.16 -2.18,1.63 -1.02,-0.68 -13.6,-13.49 -15.62,-15.51 -2.29,-2.29 -3.15,-3.97 -7.04,-3.97 -2.66,0 -4.58,1.64 -5.5,3.39 -6.46,0 -5.72,4.98 -5.72,8.89 0,1.89 1.37,3.39 2.68,4.1 2.19,1.19 7.93,0.24 9.8,0.58 0.91,0.16 4.67,4.33 5.47,5.12 2.01,2.01 8.59,8.95 10.73,10.24 6.53,3.96 12.6,-0.51 13.68,-0.76l0 39.6 33.88 0 0 -12.07c1.71,0.4 3.72,0.21 5.5,0.21 2.33,0 4.66,-2.33 4.66,-4.66l0 -28.38c0,-4.85 -3.44,-9.31 -7.42,-11.64 -6,-3.51 -12.91,0.17 -12.91,-6.36 1.39,-0.37 3.51,-2.61 4.28,-3.77 0.91,-1.38 1.56,-2.37 2.02,-4.12 0.53,-2.02 0.55,-1.08 3.05,-3.09 5.13,-4.15 5.46,-11.08 1.76,-16.01 -0.68,-0.91 -1.37,-1.6 -2.22,-2.23 -1.65,-1.24 -1.72,-4.24 -6.52,-7.24 -4.21,-2.64 -6.52,-2.29 -11.26,-2.29 -2.7,0 -5.12,1.13 -6.9,2.2 -4.6,2.76 -5.27,6.22 -6.4,7.15 -2.62,2.13 -4.91,5.11 -4.91,9.07z"/>
   <path class="fil0" d="M27.74 85.97c0.89,0.02 5.76,1.05 6.48,1.35 1.75,0.73 3.04,2.61 3.04,5l0 9.32 -13.13 0 3.6 -15.67zm-24.35 6.35c0,-2.36 1.23,-4.16 2.9,-4.94 0.61,-0.29 5.79,-1.39 6.63,-1.41l3.6 15.67 -13.13 0 0 -9.32zm14.82 0.85l4.23 0c-0.02,0.96 -1.06,4.91 -1.39,6.44 -0.2,0.95 -0.13,1.59 -0.73,2.03 -0.61,-0.44 -0.86,-2.68 -1.19,-4.11 -0.28,-1.23 -0.9,-3.18 -0.93,-4.36zm-1.91 -8.47c0,-0.53 0.35,-0.65 0.68,-1.01 0.37,-0.41 0.52,-0.68 0.8,-1.1 1.21,0.58 3.87,0.58 5.08,0l1.48 1.91c0,1.8 -0.92,3.65 -1.06,5.29l-5.93 0c-0.18,-0.79 -0.36,-1.56 -0.55,-2.42 -0.19,-0.85 -0.51,-1.9 -0.51,-2.66zm12.92 -2.12c-1.38,-0.03 -2.55,-0.51 -3.18,-1.69 0.82,-1.22 0.7,-0.29 2.12,-2.96l2.33 -0.14c-0.01,1.76 -0.64,3.6 -1.28,4.8zm-19.06 -4.87l2.33 0.26c1.58,2.69 1.37,1.78 2.12,2.91 -0.63,1.19 -1.74,1.66 -3.18,1.69 -0.64,-1.2 -1.27,-3.04 -1.27,-4.87zm5.08 -8.26c0.87,-0.2 1.7,-0.3 2.63,-0.54 4.2,-1.09 -0.06,-1.22 7.53,0.54 0,3.69 0.62,7.26 -2.23,9.2 -2.91,1.98 -6.35,0.47 -7.43,-2.08 -0.76,-1.81 -0.5,-4.67 -0.5,-7.12zm13.55 5.08l0 -3.39c0.79,0.18 1.69,0.81 1.69,1.69 0,0.89 -0.91,1.51 -1.69,1.69zm-18.63 -1.69c0,-0.89 0.9,-1.51 1.69,-1.69l0 3.39c-0.79,-0.18 -1.69,-0.81 -1.69,-1.69zm2.33 -6.78l-0.63 0 0 1.69 -1.69 0.21c0,-4.24 2.46,-7.79 5.9,-9.35 7.3,-3.31 14.43,2.26 14.43,9.35l-1.69 -0.21 0 -1.69c-6.72,0 -7.34,-1.91 -8.47,-1.91 -0.67,0 -2.5,1.91 -7.83,1.91zm-5.72 0.85l0 11.86c0,2.08 0.68,3.04 1.06,4.66 -3.9,0.09 -7.84,4.04 -7.84,7.84l0 13.76 40.66 0 0 -13.76c0,-3.79 -3.94,-7.75 -7.83,-7.84 0.38,-1.62 1.06,-2.58 1.06,-4.66l0 -11.86c0,-6.39 -6.31,-12.7 -12.71,-12.7l-1.69 0c-6.39,0 -12.7,6.31 -12.7,12.7z"/>
   <path class="fil0" d="M6.78 16.94l0 -9.53c0,-2.67 1.36,-4.02 4.02,-4.02l22.45 0c2.6,0 4.02,1.43 4.02,4.02l0 9.53c0,4 -4.29,3.39 -6.78,3.39l0 5.93c0,0.76 -0.67,0.83 -1.06,0.65l-5.45 -5.36c-1.33,-1.35 -0.73,-1.24 -3.23,-1.22 -1.98,0.02 -11.02,0.4 -12.41,-0.5 -0.87,-0.57 -1.56,-1.53 -1.56,-2.88zm-3.39 -10.59l0 11.22c0,2.75 1.91,4.76 3.88,5.65 2.9,1.32 12.36,-0.07 14.02,0.59 0.34,0.13 2.09,1.99 2.49,2.38 2.36,2.36 3.35,4.29 6.3,4.29 1.98,0 3.81,-1.83 3.81,-3.81l0 -2.96c3.99,0 6.77,-2.74 6.77,-6.14l0 -11.43c0,-2.8 -2.95,-6.14 -6.35,-6.14l-24.56 0c-3.27,0 -6.35,3.09 -6.35,6.35z"/>
   <polygon class="fil0" points="10.17,10.17 33.88,10.17 33.88,6.78 10.17,6.78 "/>
   <polygon class="fil0" points="10.17,16.94 27.11,16.94 27.11,13.55 10.17,13.55 "/>
   <polygon class="fil0" points="30.49,16.94 33.88,16.94 33.88,13.55 30.49,13.55 "/>
  </g>
 </g>
</svg>
