<?xml version="1.0" encoding="UTF-8"?>
<!DOCTYPE svg PUBLIC "-//W3C//DTD SVG 1.1//EN" "http://www.w3.org/Graphics/SVG/1.1/DTD/svg11.dtd">
<!-- Creator: CorelDRAW -->
<svg xmlns="http://www.w3.org/2000/svg" xml:space="preserve" width="9.1694mm" height="8.4344mm" version="1.1" style="shape-rendering:geometricPrecision; text-rendering:geometricPrecision; image-rendering:optimizeQuality; fill-rule:evenodd; clip-rule:evenodd"
viewBox="0 0 1047.18 963.24"
 xmlns:xlink="http://www.w3.org/1999/xlink"
 xmlns:xodm="http://www.corel.com/coreldraw/odm/2003">
 <defs>
  <style type="text/css">
   <![CDATA[
    .fil0 {fill:#031138}
   ]]>
  </style>
 </defs>
 <g id="Слой_x0020_1">
  <metadata id="CorelCorpID_0Corel-Layer"/>
  <path class="fil0" d="M166.27 807.51l0 0zm0 0c68.65,0 32.5,15.5 140.86,3.86 43.56,-4.68 85.44,-20.4 119.64,-35.63 73.55,-32.75 129.84,-77.72 183.62,-131.49 52.93,-52.91 97.69,-111.31 137.34,-177.77 28.6,-47.92 56.85,-105.11 74.45,-158.46 6.5,-19.7 10.27,-47.19 24.54,-57.66 0,52.48 30.83,183.35 87.73,195.54 154.88,33.18 113.35,-278.41 87.71,-380.1 -3.55,-14.1 -26.29,-93.94 -50.03,-55.35 -6.69,10.87 12.57,60.82 19.87,90.1 71.49,287.08 -60.68,434.06 -103.63,185.82l-27.64 -145.91c-5.49,-20.86 -7.88,-26.54 -32.27,-27.09 -9.24,17.46 -13.96,91.24 -29.98,148.12 -41.92,148.76 -111.67,233.36 -197.69,341.21 -14.6,18.3 -27.18,26.74 -44.97,41.79 -101.85,86.13 -176.55,131.36 -321.21,131.23 -43.33,-0.03 -124.58,-18.28 -141.41,-41.26 51.45,0 108.4,-24.62 144.62,-42.61 16.88,-8.38 76.96,-38.68 78.21,-58.63 2.36,-37.81 -41.66,-5.9 -55.63,3.56 -26.16,17.75 -65.08,36.55 -95.99,45.58 -27.47,8.04 -43.85,11.92 -74.38,16.96 -18.81,3.12 -68.42,5.02 -83.6,12.31 -27.83,27.82 42.76,58.89 59.18,68.69 85.25,50.87 134.63,117.88 186.73,160.34 13.35,10.88 31.62,32.31 46.36,17.58 11.47,-23.89 -5.21,-30.65 -19.39,-44.55l-113.04 -106.16z"/>
 </g>
</svg>
