<?xml version="1.0" encoding="UTF-8"?>
<!DOCTYPE svg PUBLIC "-//W3C//DTD SVG 1.1//EN" "http://www.w3.org/Graphics/SVG/1.1/DTD/svg11.dtd">
<!-- Creator: CorelDRAW -->
<svg xmlns="http://www.w3.org/2000/svg" xml:space="preserve" width="13.5467mm" height="12.2768mm" version="1.1" style="shape-rendering:geometricPrecision; text-rendering:geometricPrecision; image-rendering:optimizeQuality; fill-rule:evenodd; clip-rule:evenodd"
viewBox="0 0 178.39 161.67"
 xmlns:xlink="http://www.w3.org/1999/xlink"
 xmlns:xodm="http://www.corel.com/coreldraw/odm/2003">
 <defs>
  <style type="text/css">
   <![CDATA[
    .fil0 {fill:#031138}
   ]]>
  </style>
 </defs>
 <g id="Слой_x0020_1">
  <metadata id="CorelCorpID_0Corel-Layer"/>
  <g id="_105553252668864">
   <path class="fil0" d="M123.34 104.53l0 -9.06 12.54 0 0 9.41c0,3.36 -2.94,5.92 -6.27,5.92 -3.38,0 -6.27,-2.89 -6.27,-6.27zm-47.39 -86.76l26.48 0 0 9.41 -26.48 0 0 -9.41zm-5.58 -2.09l0 11.5 -6.62 0 0 -13.94c0,-3.95 4.04,-7.66 8.01,-7.66l34.84 0c3.96,0 8.01,3.73 8.01,7.66l0 13.94 -6.62 0 0 -11.5c0,-1.69 -0.99,-3.14 -2.79,-3.14l-32.06 0c-1.8,0 -2.79,1.45 -2.79,3.14zm-12.19 -2.09l0 13.59 -18.47 0c-2.99,0 -5.84,5.63 3.13,5.58l126.81 0.02c2.41,0.33 3.51,2.72 3.51,5.55l0 31.01c0,4.13 -1.71,4.74 -3.23,6.18 -0.67,0.64 -1.08,1.09 -1.74,1.75 -2.29,2.29 -4.34,4.32 -6.62,6.62 -1.13,1.15 -5.78,5.61 -7,5.89 -1.82,0.41 -45.58,0.12 -52.49,0.12 -3.86,0 -10.45,-1.07 -10.45,2.79 0,1.63 1.45,2.79 3.14,2.79l23 0c0,8.33 -1.04,19.25 11.05,20.68 6.12,0.72 12.64,-4.45 12.64,-11.97l0 -8.71c11.8,0 14.41,1.5 20.29,-4.44l6.88 -6.36 0 59.58c0,14.23 1.67,11.85 -24.39,11.85l-83.62 0c-3.73,0 -9.41,-1.01 -9.41,2.79 0,1.8 1.45,2.79 3.14,2.79l109.41 0c3.76,0 6.91,-2.04 8.52,-4.38 2.2,-3.2 1.59,-6.6 1.59,-11.65l0.06 -65.79c0.21,-0.96 0.72,-1.19 1.34,-1.8 1.84,-1.82 3.13,-4 3.13,-6.97l0 -34.84c0,-4.45 -4.61,-9.06 -9.06,-9.06l-49.13 0c0,-6.21 0.79,-14.46 -1.39,-19.17 -0.77,-1.67 -1.79,-2.64 -3.05,-3.92 -1.32,-1.34 -2.2,-2.04 -4.11,-2.86 -1.62,-0.69 -3.94,-1.23 -6.08,-1.23l-32.4 0c-6.16,0 -11.31,3.41 -13.48,7.77 -0.67,1.35 -1.5,3.95 -1.5,5.82z"/>
   <path class="fil0" d="M48.78 110.8c-3.33,0 -6.27,-2.56 -6.27,-5.92l0 -9.41 12.54 0 0 9.06c0,3.38 -2.89,6.27 -6.27,6.27zm-48.78 -74.56l0 34.84c0,2.84 1.09,4.84 2.83,6.58 0.05,0.05 0.13,0.12 0.18,0.17 0.63,0.6 1.12,0.82 1.39,1.74 0.38,1.27 0.13,59.69 0.13,65.72 0,4.89 -0.6,8.7 1.45,11.79 1.6,2.43 4.73,4.59 8.66,4.59l28.57 0c2.09,0 3.41,-1.92 2.87,-3.55 -0.71,-2.17 -2.55,-2.05 -5.31,-2.03 -4.11,0.03 -26.64,0.59 -28.72,-0.55 -3.25,-1.79 -2.29,-7.45 -2.29,-12.34 0,-19.51 0,-39.02 0,-58.54l6.71 6.18c6.09,6.13 8.23,4.62 20.47,4.62l0 8.71c0,7.19 6.04,12.81 12.95,11.93 11.82,-1.52 10.75,-12.47 10.75,-20.64l23 0c1.69,0 3.14,-1.15 3.14,-2.79 0,-3.8 -6.3,-2.79 -10.1,-2.79l-39.02 0c-3.99,0 -9.03,0.28 -12.89,0 -2.72,-0.19 -3.38,-1.99 -5.66,-4.1 -0.8,-0.74 -1.13,-0.82 -1.92,-1.56 -3.2,-2.96 -6.75,-7.03 -9.79,-9.72l-0.55 -0.49c-1,-1.01 -1.59,-2.38 -1.59,-3.98l0 -31.71c0,-7.25 5.21,-5.57 14.63,-5.57 2.48,0 8.19,0.23 9.83,-0.27 3.94,-1.21 1.85,-5.3 -0.08,-5.3l-20.56 0c-4.45,0 -9.06,4.61 -9.06,9.06z"/>
  </g>
 </g>
</svg>
