<svg xmlns="http://www.w3.org/2000/svg" xml:space="preserve" width="32.802" height="32.795" style="shape-rendering:geometricPrecision;text-rendering:geometricPrecision;image-rendering:optimizeQuality;fill-rule:evenodd;clip-rule:evenodd" viewBox="0 0 231.49 231.44"><defs><style>.fil0,.fil1{fill:#031138}.fil0{fill-rule:nonzero}</style></defs><g id="Слой_x0020_1"><g id="_105553197320416"><path d="M44.46 26.4v1.93l-.24-.01-.24-.01-.23-.03-.23-.03-.23-.05-.22-.06-.22-.07-.21-.07-.21-.08-.19-.09-.2-.11-.19-.12-.17-.12-.18-.13-.17-.15-.15-.15-.15-.15-.15-.17-.13-.18-.12-.17-.12-.19-.11-.2-.09-.19-.08-.21-.07-.21-.07-.22-.06-.22-.05-.23-.03-.23-.03-.23-.01-.24-.01-.24h1.93l.01.16.01.16.02.15.02.14.03.14.03.13.04.13.04.12.05.12.05.11.05.1.06.09.07.1.06.09.07.08.08.09.09.08.08.07.09.06.1.07.09.06.1.05.11.05.12.05.12.04.13.04.13.03.14.03.14.02.15.02.16.01.16.01zm0 0a.96.96 0 0 1 0 1.92v-1.93zm9.33-6.57 1.07 1.61-.35.24-.35.25-.35.25-.35.26-.35.27-.36.27-.35.27-.35.27-.7.57-.69.55-.68.55-.66.53-.33.26-.32.25-.32.24-.31.23-.31.22-.3.21-.3.2-.3.18-.29.17-.29.15-.29.14-.29.12-.29.1-.29.08-.3.05-.31.02v-1.93l.09-.01.11-.02.14-.03.17-.06.19-.08.21-.1.22-.12.24-.14.25-.15.26-.17.27-.19.28-.2.29-.21.3-.22.31-.24.31-.25.65-.52.67-.54.7-.56.71-.57.37-.29.37-.28.36-.28.37-.28.37-.27.37-.27.38-.27.38-.25zm0 0a.977.977 0 0 1 1.34.27c.29.44.17 1.04-.27 1.34l-1.07-1.61zm77.37-3.77-.94 1.69-2.23-1.19-2.26-1.1-2.29-1.01-2.31-.93-2.34-.84-2.36-.75-2.38-.67-2.4-.58-2.41-.5-2.42-.41-2.44-.33-2.44-.25-2.45-.16-2.45-.08-2.45.01-2.45.09-2.45.17-2.45.25-2.44.33-2.43.42-2.41.5-2.4.58-2.38.66-2.37.74-2.34.82-2.32.9-2.29.97-2.27 1.05-2.24 1.13-2.21 1.21-2.17 1.29-2.13 1.37-1.07-1.61 2.19-1.4 2.22-1.32 2.26-1.24 2.29-1.16 2.33-1.08 2.35-1 2.38-.92 2.41-.84 2.42-.75 2.45-.68 2.46-.59 2.48-.51 2.49-.43 2.5-.34 2.51-.26 2.51-.18 2.52-.09 2.52-.01 2.52.08 2.52.17 2.5.25 2.5.34 2.49.42 2.48.51 2.46.6 2.45.68 2.42.78 2.4.86 2.38.95 2.35 1.04 2.32 1.13 2.29 1.22zm0 0c.46.26.63.85.37 1.31-.26.46-.85.63-1.31.37l.94-1.69zm16.36 12.29-1.39 1.33.05.05-1.05-.95-.97-.89-.91-.83-.87-.78-.42-.38-.41-.37-.41-.36-.41-.35-.41-.35-.41-.34-.41-.33-.42-.33-.42-.33-.43-.33-.44-.33-.45-.33-.47-.33-.49-.33-.5-.34-.52-.35-.54-.35-.57-.36-.59-.37-.62-.37-.65-.38-.68-.4-.71-.41-.75-.42.94-1.69.76.43.73.41.69.4.66.39.64.38.61.37.59.37.56.37.54.35.52.35.51.35.49.35.47.34.46.34.45.34.44.34.43.35.43.35.42.35.42.35.42.36.42.37.42.37.43.38.87.79.92.84.97.89 1.04.95.05.05zm-.05-.05c.39.35.42.97.07 1.36-.35.39-.97.42-1.36.07l1.29-1.43zm5.25 8.24-6.59-6.86 1.39-1.33 6.59 6.86.14 1.14-1.53.19zm1.39-1.33a.963.963 0 0 1-1.39 1.33l1.39-1.33zm-8.85 13.06 7.31-12.86 1.68.95-7.31 12.86-1.68-.94v-.01zm1.68.95c-.26.46-.85.62-1.31.36a.963.963 0 0 1-.36-1.31l1.68.95zm-6.91 12.66h-1.93l.05-.35.08-.25.1-.26.12-.28.15-.32.17-.35.19-.39.22-.42.23-.45.25-.47.26-.5.27-.51.29-.53.3-.55.3-.55.31-.56.62-1.11.62-1.1.59-1.05.55-.98.5-.87.42-.75.34-.59.23-.41 1.68.94-.23.42-.34.59-.42.75-.5.87-.55.98-.59 1.05-.61 1.09-.62 1.11-.31.55-.3.55-.3.54-.28.53-.27.5-.26.49-.24.46-.23.44-.21.41-.19.37-.16.33-.13.29-.1.23-.07.17-.02.08.01-.13zm0 0a.96.96 0 0 1-1.92 0h1.93zm2.62 2.62v1.93l-.24-.01-.24-.01-.23-.03-.23-.03-.23-.05-.22-.05-.22-.07-.21-.07-.2-.08-.2-.09-.2-.11-.19-.11-.17-.12-.17-.13-.17-.15-.15-.15-.15-.15-.14-.17-.14-.18-.12-.18-.11-.19-.1-.19-.1-.2-.08-.21-.07-.2-.07-.22-.06-.22-.05-.23-.03-.23-.03-.23-.01-.24-.01-.24h1.93l.01.16.01.16.02.15.02.14.03.14.03.13.04.13.05.13.05.11.05.11.06.11.06.1.07.1.07.09.07.08.08.09.09.08.08.07.09.07.1.07.1.06.1.05.12.05.12.05.13.04.13.04.13.03.13.03.15.02.15.02.16.01.16.01zm0 0a.96.96 0 0 1 0 1.92v-1.93zm3.91-4.2 1.65.99-.11.18-.1.19-.11.2-.1.19-.21.41-.21.41-.11.21-.11.2-.11.21-.12.21-.12.2-.12.2-.13.2-.14.2-.15.2-.16.19-.17.19-.18.18-.19.17-.2.16-.22.16-.23.14-.24.13-.26.11-.26.09-.28.08-.3.06-.3.04-.31.03-.32.01v-1.93l.22-.01.2-.02.19-.03.16-.03.16-.05.15-.05.13-.06.13-.07.12-.07.11-.08.11-.1.11-.1.11-.1.11-.12.1-.13.11-.13.1-.15.1-.15.1-.17.1-.17.1-.17.1-.18.1-.19.1-.19.21-.4.21-.42.12-.22.11-.21.12-.22.13-.22zm0 0c.27-.46.86-.61 1.32-.34.46.27.61.86.34 1.32l-1.66-.98zm3.35-6.05 1.67.96-.21.37-.21.37-.2.37-.2.37-.2.37-.2.37-.2.37-.2.37-.2.37-.2.38-.21.38-.21.39-.22.39-.22.39-.23.4-.24.4-1.65-.99.23-.39.22-.38.22-.38.21-.38.21-.38.2-.38.2-.37.2-.37.2-.37.2-.37.2-.37.2-.38.21-.38.21-.38.22-.38.22-.38zm0 0c.26-.46.86-.62 1.31-.35.46.26.62.86.35 1.31l-1.67-.96zm8.07-12.45-1.07 1.6 1.39-.35-.41.77-.41.77-.41.77-.41.77-.42.77-.42.77-.42.76-.42.76-.42.76-.42.76-.42.76-.43.75-.42.75-.43.75-.43.75-.43.74-1.67-.96.43-.74.42-.74.43-.75.42-.75.42-.75.42-.75.42-.75.42-.75.42-.76.42-.76.42-.76.41-.77.41-.76.41-.77.41-.77.41-.77 1.39-.35zm-1.39.35a.96.96 0 0 1 1.3-.4c.47.25.65.83.4 1.3l-1.7-.9zm6.48 7.89-1.78.74-.08-.18-.09-.21-.1-.22-.1-.23-.11-.24-.12-.25-.13-.27-.13-.27-.14-.27-.14-.28-.15-.29-.15-.29-.15-.29-.16-.29-.16-.29-.16-.29-.17-.29-.16-.28-.16-.27-.17-.27-.17-.26-.16-.25-.16-.24-.15-.22-.16-.21-.15-.19-.14-.17-.14-.16-.13-.14-.12-.11-.11-.09-.08-.06 1.07-1.6.21.15.2.17.19.18.19.2.18.21.19.22.18.24.18.24.19.26.18.27.18.27.18.28.18.29.18.3.17.3.17.3.17.31.17.3.16.3.16.3.16.3.15.3.15.3.14.29.13.28.13.27.12.26.12.25.11.25.1.23.09.22.09.21zm0 0c.2.49-.03 1.06-.52 1.26a.968.968 0 0 1-1.26-.52l1.78-.74zm3.53 9.12-1.83.61-.22-.64-.21-.61-.21-.59-.21-.57-.21-.55-.21-.54-.21-.53-.21-.53-.21-.53-.21-.53-.21-.53-.22-.54-.23-.55-.23-.56-.24-.58-.25-.6 1.78-.74.25.6.24.58.24.57.23.55.22.54.22.54.21.53.21.53.21.54.21.54.21.55.21.57.21.59.21.6.22.63.22.65zm0 0a.97.97 0 0 1-.61 1.22.97.97 0 0 1-1.22-.61l1.83-.61zm3.46 22h-1.93l-.01-.67-.01-.69-.02-.69-.03-.7-.04-.7-.04-.71-.06-.71-.06-.72-.07-.71-.07-.72-.08-.72-.09-.72-.1-.71-.1-.71-.11-.71-.11-.71-.12-.7-.12-.7-.13-.69-.13-.68-.14-.68-.14-.67-.14-.65-.15-.65-.15-.63-.15-.62-.16-.61-.16-.59-.17-.58-.17-.56-.17-.54-.17-.53 1.83-.61.18.55.18.57.17.58.17.6.17.61.17.63.16.64.15.65.15.66.15.67.14.68.14.69.14.7.13.71.12.71.12.72.11.73.11.73.1.73.1.73.09.74.08.73.07.74.07.74.06.73.06.73.05.73.04.73.03.72.02.71.01.71.01.7zm0 0a.96.96 0 0 1-1.92 0h1.93zm-1.86 13.52v-1.93l-.96.96v-.4l.01-.39.01-.39.02-.39.02-.39.02-.38.03-.38.03-.39.03-.38.04-.38.04-.38.04-.38.08-.76.08-.76.08-.77.08-.77.03-.38.04-.39.03-.39.03-.4.03-.39.03-.4.02-.41.02-.41.02-.41.01-.42.01-.42v-.43h1.93v.45l-.01.44-.01.43-.02.43-.02.43-.03.42-.03.42-.03.41-.03.41-.03.41-.04.39-.04.4-.08.78-.08.77-.08.76-.08.75-.04.37-.04.37-.03.37-.03.37-.03.37-.03.37-.02.37-.02.37-.02.37-.01.37-.01.37v.37l-.96.96zm.96-.96a.96.96 0 0 1-1.92 0h1.93zm-18-.96h17.04v1.93h-17.04v-1.93zm0 1.93a.96.96 0 0 1 0-1.92v1.93zm-10.25 16.52h-1.93l-.01-1.21-.02-1.31v-1.4l.01-.72.02-.74.04-.75.06-.76.08-.75.1-.76.13-.76.16-.75.19-.74.23-.73.27-.72.32-.7.37-.68.42-.66.47-.62.53-.59.59-.55.65-.51.71-.46.78-.41.84-.35.9-.29.97-.23 1.04-.17 1.11-.1 1.18-.03v1.93l-1.07.03-.98.09-.9.15-.83.2-.76.24-.69.29-.63.33-.57.37-.51.4-.46.43-.42.47-.38.5-.34.53-.3.56-.27.59-.23.61-.2.63-.17.65-.14.67-.12.68-.09.69-.07.7-.06.7-.03.7-.02.7-.01.7V108.66l.02 1.31.01 1.23zm0 0a.96.96 0 0 1-1.92 0h1.93zm-.46 29.96-1.01-1.64-.46.82v-29.12h1.93v29.12l-.46.82zm.46-.82a.96.96 0 0 1-1.92 0h1.93zm-9.79 4.3 8.33-5.12 1.01 1.64-8.33 5.12-.01.01-.99-1.65zm1.01 1.64a.964.964 0 0 1-1.33-.32.964.964 0 0 1 .32-1.33l1.01 1.64zm-9.24 4.43-.72-1.79.65-.26.62-.25.6-.25.58-.25.57-.25.55-.24.27-.12.27-.12.27-.13.26-.12.26-.12.26-.13.26-.13.26-.13.26-.13.26-.14.26-.14.26-.14.27-.14.27-.15.27-.15.27-.15.28-.16.29-.16.29-.17.29-.17.98 1.66-.3.18-.3.17-.29.17-.29.16-.29.16-.28.15-.28.15-.28.15-.27.15-.28.14-.27.14-.27.14-.27.14-.27.13-.27.13-.28.13-.27.13-.27.13-.28.13-.28.13-.57.25-.57.25-.59.25-.61.25-.63.26-.65.26zm0 0a.958.958 0 0 1-1.25-.53c-.2-.49.04-1.06.53-1.25l.72 1.79zm-24.7 3.97h1.93l-.96-.96.78-.01.78-.02.79-.03.78-.04.78-.06.78-.07.77-.08.77-.09.77-.1.76-.11.76-.12.76-.13.75-.14.75-.14.74-.15.73-.16.73-.17.73-.18.72-.18.71-.19.7-.2.7-.2.68-.2.68-.21.67-.22.66-.22.65-.23.64-.23.63-.23.62-.23.61-.23.6-.24.72 1.79-.62.25-.63.24-.63.24-.65.24-.66.23-.67.23-.68.22-.69.22-.7.22-.71.21-.71.2-.72.2-.73.2-.74.19-.75.18-.75.17-.76.17-.77.16-.77.15-.78.14-.78.13-.79.12-.79.11-.8.1-.79.09-.81.08-.81.07-.81.06-.81.05-.81.03-.82.02-.82.01-.96-.96zm.96.96a.96.96 0 0 1 0-1.92v1.93zm.96-73.6v72.64h-1.93V82.05h1.93zm-1.93 0a.96.96 0 0 1 1.92 0h-1.93zm-2.62-3.07v-1.93l.26.01.26.02.26.03.25.05.24.06.23.07.23.09.22.1.21.11.21.12.19.13.19.14.18.15.17.16.16.17.15.17.14.18.13.18.13.2.11.2.1.2.09.21.09.22.07.22.06.22.06.22.05.23.04.23.03.23.02.22.02.24v.24h-1.93v-.17l-.01-.16-.02-.17-.02-.15-.03-.15-.03-.15-.04-.15-.04-.15-.05-.14-.05-.13-.06-.13-.06-.13-.06-.12-.07-.1-.08-.11-.08-.1-.08-.1-.09-.09-.09-.09-.1-.08-.1-.07-.1-.07-.11-.06-.12-.06-.11-.05-.13-.04-.13-.04-.14-.03-.14-.03-.15-.02-.16-.01-.17-.01zm0 0a.96.96 0 0 1 0-1.92v1.93zm-73.53-1.93h73.53v1.93H22.03l-.95-1.1.95-.83zm0 1.93a.96.96 0 0 1 0-1.92v1.93zm2.85-14.17-1.9 13.34-1.91-.27 1.9-13.34.01-.06 1.9.33zm-1.91-.27c.07-.53.57-.89 1.09-.82.53.07.89.57.82 1.09l-1.91-.27zm12.11-26.62 1.55 1.15-.48.66-.48.68-.48.7-.48.72-.47.73-.46.75-.46.76-.46.77-.45.79-.44.8-.44.81-.43.82-.42.83-.41.83-.41.84-.39.85-.38.85-.37.85-.36.86-.35.86-.34.86-.33.85-.31.86-.3.85-.29.85-.27.85-.26.84-.24.83-.23.83-.21.82-.19.81-.18.8-1.88-.39.18-.83.2-.85.22-.85.23-.86.25-.86.27-.87.28-.87.29-.87.31-.88.32-.88.33-.88.35-.88.36-.88.37-.88.38-.87.39-.87.41-.87.41-.86.42-.85.43-.85.44-.84.45-.83.45-.82.46-.81.47-.79.47-.78.48-.77.49-.75.49-.74.49-.72.5-.71.5-.69zm0 0c.31-.43.92-.51 1.35-.2.43.31.51.92.2 1.35l-1.55-1.15zm2.57-4.29h1.93l-.01.24-.02.23-.03.22-.04.22-.05.22-.06.21-.07.21-.08.2-.09.2-.09.19-.1.19-.1.19-.11.18-.11.17-.11.17-.11.17-.12.17-.12.17-.11.15-.12.16-.24.3-.23.29-.23.27-.21.26-.1.12-.1.12-.09.11-.09.12-1.55-1.15.1-.13.11-.14.11-.13.11-.14.22-.27.23-.27.22-.27.22-.27.1-.13.11-.14.1-.13.09-.14.1-.14.09-.14.09-.14.08-.13.07-.13.07-.14.06-.14.06-.13.05-.13.05-.13.04-.13.03-.12.02-.12.02-.13.01-.13v-.12zm0 0a.96.96 0 0 1 1.92 0h-1.93zm-2.62-2.62v-1.93l.21.01.21.02.22.03.21.04.21.05.21.06.2.06.19.07.2.09.2.1.18.1.18.11.19.12.17.13.17.13.17.15.16.16.15.16.14.17.13.17.13.19.12.19.11.2.1.21.09.21.08.22.07.23.05.23.05.23.03.25.02.24.01.25h-1.93l-.01-.14-.01-.14-.02-.13-.03-.14-.03-.14-.03-.12-.05-.13-.05-.13-.06-.11-.06-.11-.07-.11-.07-.1-.08-.11-.09-.1-.09-.09-.09-.09-.09-.08-.1-.08-.11-.08-.1-.07-.11-.07-.11-.06-.11-.05-.11-.05-.12-.04-.12-.04-.12-.03-.12-.03-.12-.02-.11-.02-.12-.01-.12-.01zm0 0a.96.96 0 0 1 0-1.92v1.93zm-4.1 4.16-1.54-1.16.1-.13.1-.14.1-.15.11-.16.24-.35.25-.36.13-.19.14-.19.14-.19.15-.2.15-.19.16-.2.16-.2.16-.19.17-.19.18-.19.18-.19.18-.18.19-.17.19-.17.21-.17.22-.15.22-.14.23-.13.24-.12.25-.1.26-.08.27-.06.28-.04.28-.01v1.93l-.11.01-.1.01-.11.02-.12.04-.12.05-.12.06-.13.07-.14.09-.14.1-.14.11-.14.12-.15.13-.15.14-.14.14-.14.15-.14.16-.14.17-.14.17-.14.18-.14.18-.13.18-.13.18-.13.18-.13.18-.25.36-.24.34-.11.17-.11.16-.11.16-.11.14zm0 0a.97.97 0 0 1-1.35.19.97.97 0 0 1-.19-1.35l1.54 1.16zm-14.1 34.59-1.91-.26.16-1.14.19-1.15.21-1.16.23-1.16.25-1.17.27-1.17.29-1.17.32-1.18.33-1.18.35-1.18.37-1.18.39-1.18.41-1.17.43-1.17.45-1.16.46-1.16.48-1.15.49-1.14.51-1.13.53-1.12.54-1.11.55-1.1.57-1.09.58-1.06.59-1.05.61-1.04.62-1.02.63-1 .65-.98.66-.96.67-.94.68-.92 1.54 1.16-.66.89-.65.91-.63.93-.62.95-.62.97-.61.99-.59 1.01-.58 1.03-.57 1.04-.55 1.06-.54 1.07-.53 1.09-.51 1.09-.5 1.11-.48 1.11-.47 1.12-.45 1.13-.43 1.14-.42 1.14-.4 1.14-.38 1.15-.37 1.15-.34 1.15-.33 1.15-.31 1.15-.29 1.15-.27 1.14-.24 1.14-.22 1.13-.2 1.13-.18 1.12-.16 1.11zm0 0c-.07.53-.56.9-1.08.83a.965.965 0 0 1-.83-1.08l1.91.26zM16.22 79l-1.92-.17.03-.33.02-.32.02-.31.02-.31.03-.6.03-.58.02-.57.02-.56.02-.55.02-.54.02-.55.03-.55.02-.28.02-.28.02-.28.02-.29.02-.29.02-.29.03-.3.03-.3.03-.31.03-.31.04-.31.04-.33 1.91.26-.04.31-.03.3-.03.3-.03.29-.03.29-.03.29-.02.28-.02.27-.02.27-.02.27-.01.27-.02.27-.03.54-.02.54-.02.54-.02.55-.02.56-.02.58-.03.59-.04.61-.02.32-.02.33-.02.33-.03.34zm0 0a.964.964 0 0 1-1.92-.16l1.92.16zm2.22 4.79v1.93l-.39-.01-.37-.04-.35-.05-.34-.08-.32-.1-.31-.12-.29-.15-.27-.17-.25-.19-.21-.2-.21-.22-.18-.24-.15-.25-.13-.25-.11-.26-.1-.27-.08-.27-.06-.27-.05-.28-.03-.27-.03-.27-.02-.28-.01-.27v-.54l.01-.27.01-.27.02-.27.04-.52.04-.5 1.92.17-.04.49-.04.5-.01.25-.01.24-.01.23v.46l.01.22.01.21.02.21.02.2.03.18.04.18.05.16.05.15.06.14.06.13.07.12.07.1.08.09.1.09.1.08.12.07.13.07.15.06.18.06.2.05.23.04.25.02.28.01zm0 0a.96.96 0 0 1 0 1.92v-1.93zm73.53 1.93H18.44v-1.93h73.53l.96.96-.96.96zm0-1.93a.96.96 0 0 1 0 1.92v-1.93zm-.96 74.49V84.75h1.93v73.53h-1.93zm1.93 0a.96.96 0 0 1-1.92 0h1.93zm4.87 2.62v1.93h-.43l-.46.01h-.5l-.26-.01-.26-.01-.27-.02-.26-.02-.27-.03-.27-.04-.28-.05-.27-.06-.27-.07-.28-.09-.27-.1-.26-.12-.26-.14-.26-.16-.25-.18-.23-.21-.21-.23-.2-.26-.18-.28-.16-.3-.13-.32-.11-.34-.08-.36-.06-.38-.04-.4-.01-.41h1.93l.01.3.02.27.04.24.05.22.06.19.07.17.08.14.08.13.09.12.1.11.11.09.12.09.13.08.14.07.15.07.16.06.17.05.19.05.19.04.2.03.21.03.21.02.23.02.22.01.23.01.23.01h.46l.46-.01h.45zm0 0a.96.96 0 0 1 0 1.92v-1.93zm37.05-10.35.92 1.69-1.09.59-1.09.57-1.1.57-1.1.55-1.1.54-1.11.52-1.11.51-1.12.49-1.12.48-1.13.46-1.13.45-1.14.43-1.14.41-1.15.39-1.16.37-1.17.36-1.17.34-1.18.32-1.19.3-1.2.28-1.21.26-1.22.24-1.23.22-1.24.2-1.25.18-1.26.15-1.28.13-1.29.1-1.3.09-1.31.06-1.32.03-1.34.01v-1.93l1.3-.01 1.29-.03 1.28-.06 1.26-.08 1.25-.1 1.24-.13 1.23-.15 1.22-.17 1.21-.19 1.2-.21 1.18-.23 1.18-.25 1.17-.27 1.16-.29 1.15-.31 1.14-.33 1.14-.35 1.13-.37 1.12-.38 1.12-.4 1.11-.42 1.1-.43 1.1-.45 1.1-.47 1.09-.48 1.09-.5 1.09-.51 1.09-.53 1.08-.54 1.08-.55 1.08-.57 1.08-.58zm0 0a.976.976 0 0 1 1.31.38c.25.47.08 1.05-.38 1.31l-.92-1.69zm6.06-1.69h-1.93l1.21.93-.11.03-.11.04-.12.04-.12.05-.11.05-.13.06-.12.06-.14.07-.14.07-.13.07-.14.07-.14.07-.14.08-.14.08-.14.09-.14.09-.29.18-.29.18-.3.19-.29.19-.3.18-.29.18-.15.09-.15.09-.15.09-.15.08-.92-1.69.13-.07.13-.07.14-.08.13-.08.28-.17.29-.18.29-.18.3-.19.3-.19.3-.19.15-.09.15-.09.15-.09.15-.09.16-.09.16-.09.17-.09.16-.08.15-.07.17-.08.16-.07.17-.07.17-.06.16-.06.17-.05.17-.05 1.21.93zm-1.21-.93a.967.967 0 0 1 1.18.68.967.967 0 0 1-.68 1.18l-.5-1.86zm-.72 76.26.01-75.33h1.93l-.01 75.33v.01l-1.93-.01zm1.93 0a.96.96 0 0 1-1.92 0h1.93zm3.53 5.31v1.93l-.42-.01-.4-.02-.38-.03-.37-.05-.35-.06-.33-.07-.32-.09-.3-.11-.29-.13-.27-.15-.26-.17-.24-.19-.22-.21-.2-.22-.18-.25-.16-.25-.14-.26-.12-.27-.1-.28-.08-.29-.07-.29-.06-.3-.05-.31-.04-.32-.03-.33-.02-.34-.01-.35-.01-.36-.01-.37v-1.18l1.93.02V225.33l.01.35.01.33.01.31.02.29.02.28.03.26.04.25.04.23.05.2.06.19.06.17.07.15.07.14.07.12.08.1.09.1.1.09.1.08.12.08.14.07.16.07.18.07.21.06.23.05.26.05.28.03.31.02.34.02.36.01zm0 0a.96.96 0 0 1 0 1.92v-1.93zm34.53 1.93h-34.53v-1.93h34.53v1.93zm0-1.93a.96.96 0 0 1 0 1.92v-1.93zm3.07-3.97h1.93v.29l-.02.29-.02.28-.03.27-.04.27-.05.27-.06.26-.07.26-.08.26-.09.25-.09.25-.11.24-.12.24-.13.23-.14.22-.15.21-.16.2-.18.2-.19.18-.19.18-.21.16-.22.15-.22.13-.24.13-.26.11-.25.09-.26.08-.28.07-.28.05-.28.04-.3.02-.3.01v-1.93l.21-.01.19-.01.19-.03.18-.03.16-.04.16-.05.15-.06.13-.06.13-.07.14-.08.12-.08.11-.09.11-.1.11-.1.1-.11.1-.12.09-.13.09-.14.08-.14.07-.15.07-.16.07-.17.06-.18.06-.18.05-.19.05-.2.03-.2.03-.21.02-.22.02-.22.01-.22v-.23zm0 0a.96.96 0 0 1 1.92 0h-1.93zm1.93-23.31v23.31h-1.93v-23.31h1.93zm-1.93 0a.96.96 0 0 1 1.92 0h-1.93zm-5.25-.45h-1.93l.02-.54.07-.51.12-.49.17-.46.21-.42.25-.39.28-.35.31-.31.34-.27.36-.23.38-.19.4-.15.41-.12.41-.08.42-.04h.42l.42.04.42.07.41.11.41.15.39.19.37.22.36.27.33.31.3.34.28.38.24.42.2.45.16.47.12.51.07.53.02.56h-1.93l-.02-.39-.05-.36-.07-.32-.1-.3-.12-.27-.14-.24-.16-.22-.18-.2-.19-.17-.2-.15-.22-.13-.23-.11-.23-.09-.25-.06-.25-.05-.25-.02h-.25l-.25.02-.24.05-.23.06-.22.09-.21.11-.2.13-.18.14-.17.17-.15.19-.13.21-.11.23-.1.26-.07.29-.05.33-.02.36zm0 0a.96.96 0 0 1-1.92 0h1.93zm-1.93 21.52v-21.52h1.93v21.52l-.96.96-.96-.96zm1.93 0a.96.96 0 0 1-1.92 0h1.93zm-29.66-.96h28.7v1.93h-28.7l-.96-.96.96-.96zm0 1.93a.96.96 0 0 1 0-1.92v1.93zm.96-120.23v119.26h-1.93V104.03h1.93zm-1.93 0a.96.96 0 0 1 1.92 0h-1.93zm4.1-4.1v1.93h-.16l-.16.01-.15.01-.13.02-.13.02-.13.02-.11.03-.11.03-.09.03-.09.04-.09.04-.07.04-.07.04-.07.05-.06.05-.05.05-.05.06-.06.07-.05.07-.04.07-.04.07-.04.08-.04.09-.03.1-.03.11-.03.1-.02.13-.02.13-.02.13-.01.15-.01.16v.16h-1.93v-.23l.01-.22.02-.21.03-.22.03-.2.04-.2.05-.21.06-.19.07-.18.08-.18.09-.19.1-.18.11-.17.12-.16.12-.14.13-.15.15-.14.15-.13.15-.11.17-.11.18-.1.17-.09.18-.07.2-.07.2-.06.2-.05.2-.04.2-.03.22-.03.21-.02.22-.01h.23zm0 0a.96.96 0 0 1 0 1.92v-1.93zm26.52 11.27h-1.93l.01-1.18.02-1.09.02-1 .02-.91.01-.82v-.74l-.02-.65-.04-.57-.07-.48-.1-.4-.12-.31-.14-.25-.17-.2-.21-.18-.28-.16-.38-.15-.48-.13-.59-.11-.71-.09-.82-.07-.94-.04-1.07-.02-1.19-.01-1.33.01-1.46.02-1.61.03-1.75.03-1.91.03-2.07.03-2.23.03-2.41.02-2.58.01v-1.93l2.57-.01 2.4-.02 2.23-.03 2.06-.03 1.9-.03 1.75-.03 1.61-.03 1.47-.02 1.34-.01 1.22.01 1.1.02 1 .05.9.07.81.1.73.14.66.19.6.25.54.32.47.39.39.47.3.53.21.56.15.6.09.63.05.67.02.73v.78l-.01.85-.02.92-.02.99-.02 1.07-.01 1.16zm0 0a.96.96 0 0 1-1.92 0h1.93zm-1.93 66.36V111.2h1.93v66.36h-1.93zm1.93 0a.96.96 0 0 1-1.92 0h1.93zm.44 11.91-1.64 1.01-.17-.3-.13-.31-.12-.33-.1-.34-.08-.35-.07-.37-.06-.38-.05-.4-.04-.41-.03-.42-.03-.44-.02-.44-.01-.45-.01-.45-.01-.46v-.47l.01-.46.01-.47.01-.46.01-.47.03-.91.03-.88.03-.84.03-.78.01-.36.01-.34.01-.33v-.3h1.93v.32l-.01.34-.01.36-.01.37-.03.79-.03.84-.03.87-.03.9-.01.45-.01.45-.01.46-.01.45v.45l.01.44.01.43.01.43.02.41.02.39.03.38.03.37.04.34.05.32.06.3.07.28.07.24.07.21.07.17.07.13zm0 0a.97.97 0 0 1-.31 1.33.97.97 0 0 1-1.33-.31l1.64-1.01zm4.8-2.5h1.93l-.01.53-.05.5-.07.48-.1.46-.13.44-.16.41-.18.39-.21.36-.23.34-.25.31-.27.29-.29.25-.3.23-.32.19-.33.17-.34.13-.34.1-.35.07-.36.04-.36.01-.36-.02-.35-.05-.35-.08-.34-.11-.34-.14-.33-.17-.31-.2-.3-.23-.29-.26-.26-.29-.25-.31-.23-.34 1.64-1.01.14.21.15.19.16.17.16.15.17.13.18.11.18.09.19.08.19.06.2.05.19.03.19.01.19-.01.19-.02.19-.04.19-.06.18-.07.18-.09.18-.1.17-.13.17-.15.16-.16.15-.19.14-.21.13-.23.12-.26.11-.28.09-.3.07-.33.05-.36.03-.39.01-.41zm0 0a.96.96 0 0 1 1.92 0h-1.93zm1.93-81.15v81.15h-1.93v-81.15h1.93zm-1.93 0a.96.96 0 0 1 1.92 0h-1.93zm-8.04-11.88 1.88.44-.72-1.16.5.13.49.15.48.17.47.19.46.21.44.23.43.25.41.26.4.28.39.3.37.32.36.33.34.35.33.37.31.39.3.4.28.42.26.43.25.45.22.46.21.47.19.49.17.5.16.51.14.53.12.54.1.55.09.56.06.57.05.59.03.6.01.61h-1.93l-.01-.55-.02-.53-.04-.52-.06-.51-.07-.49-.09-.48-.11-.47-.12-.46-.14-.44-.15-.43-.16-.41-.18-.4-.19-.39-.2-.37-.22-.36-.23-.35-.24-.33-.26-.32-.27-.3-.28-.29-.29-.27-.3-.26-.31-.24-.33-.23-.34-.22-.35-.2-.36-.18-.38-.17-.39-.15-.4-.14-.41-.12-.42-.11-.72-1.16zm.72 1.16a.965.965 0 1 1 .44-1.88l-.44 1.88zm.15-17.97h1.93v1.03l.01 1.05.01 1.07.01 1.08.01.55V83.56l-.01.55-.01.55-.01.56-.01.56-.02.55-.02.56-.02.56-.03.55-.03.55-.04.55-.04.54-.05.54-.05.54-.07.54-.07.53-.08.53-.09.52-.09.52-.11.51-.11.5-1.88-.44.1-.47.1-.47.09-.48.08-.49.07-.5.07-.5.06-.51.05-.51.05-.52.04-.53.04-.53.03-.53.03-.54.02-.54.02-.54.02-.55.01-.54.01-.54.01-.55.01-.55V81.91l-.01-.54-.01-1.08-.01-1.07-.01-1.06v-1.04zm0 0a.96.96 0 0 1 1.92 0h-1.93zM160.75 34.8l1.46 1.26.07-1.17.73 1.1.71 1.12.71 1.14.7 1.16.69 1.18.68 1.2.66 1.22.65 1.23.64 1.25.62 1.26.61 1.28.59 1.29.57 1.31.55 1.32.53 1.33.51 1.34.49 1.35.46 1.36.44 1.38.41 1.38.38 1.39.36 1.4.33 1.4.3 1.41.27 1.41.23 1.42.2 1.42.17 1.43.13 1.43.1 1.43.06 1.43.02 1.43h-1.93l-.02-1.38-.06-1.38-.09-1.38-.13-1.38-.16-1.38-.2-1.38-.23-1.38-.26-1.37-.29-1.37-.32-1.37-.35-1.36-.37-1.35-.4-1.35-.43-1.34-.45-1.33-.48-1.32-.5-1.31-.52-1.3-.54-1.29-.56-1.28-.58-1.27-.59-1.25-.61-1.24-.62-1.22-.64-1.21-.65-1.19-.66-1.18-.68-1.15-.69-1.14-.7-1.12-.7-1.1-.71-1.08.07-1.17zm-.07 1.17a.966.966 0 0 1 1.6-1.08l-1.6 1.07zm.7-2.06 1.69.93-.01.02-.09.15-.07.12-.06.11-.05.09-.03.06-.04.06-.04.07-.05.07-.05.06-.05.05-.06.07-.03.03-.03.03-.05.06-.06.07-.08.09-1.46-1.26.09-.1.08-.09.05-.06.05-.06.04-.04v.01l-.01.01-.01.01.01-.01.02-.04.04-.07.05-.07.06-.1.08-.13.09-.16-.01.02zm.01-.02c.27-.46.86-.61 1.32-.34.46.27.61.86.34 1.32l-1.66-.98zm6.31-7.41-4.64 8.36-1.69-.93 4.64-8.36.84-.5.84 1.43zm-1.69-.93a.98.98 0 0 1 1.31-.38c.46.26.63.85.38 1.31l-1.69-.93zm39.85 1.43h-39.01v-1.93h39.01v1.93zm0-1.93a.96.96 0 0 1 0 1.92v-1.93zm8.9-3.52h1.93l-.01.53-.04.49-.06.47-.09.45-.11.42-.14.39-.17.37-.2.35-.23.32-.26.29-.28.26-.3.22-.33.19-.35.17-.35.14-.36.11-.38.09-.39.07-.39.05-.41.05-.43.03-.43.02-.45.01H209.6l-.49-.01-.5-.01-.52-.01-.53-.01-.55-.01-.56-.01h-.58v-1.93h.59l.57.01.56.01.53.01.52.01.5.01.47.01h.89l.41-.01.4-.02.37-.02.34-.03.33-.05.29-.05.27-.07.25-.08.22-.08.19-.09.17-.1.15-.11.14-.12.12-.14.11-.16.1-.18.09-.21.09-.25.07-.28.06-.31.05-.36.03-.4.01-.44zm0 0a.96.96 0 0 1 1.92 0h-1.93zm-2.62-1.73v-1.93h.2l.2.01.2.02.19.03.19.04.19.04.2.06.18.06.18.07.19.07.19.08.17.09.17.09.18.1.17.11.16.11.16.11.15.13.15.13.14.13.13.14.14.15.12.16.11.15.11.18.09.17.09.18.07.2.05.19.05.21.03.22.01.21h-1.93v-.06l-.01-.05-.01-.06-.02-.07-.02-.06-.03-.07-.04-.08-.04-.06-.06-.08-.06-.07-.06-.07-.07-.08-.08-.07-.09-.08-.09-.07-.09-.07-.1-.07-.1-.06-.11-.06-.12-.06-.12-.06-.11-.05-.12-.05-.13-.05-.13-.04-.12-.03-.12-.03-.13-.02-.12-.02-.12-.01-.11-.01h-.11zm0 0a.96.96 0 0 1 0-1.92v1.93zm-47.08-1.93h47.08v1.93h-47.08v-1.93zm0 1.93a.96.96 0 0 1 0-1.92v1.93zm-3.78 3.85-1.69-.93.24-.44.23-.43.23-.43.22-.41.12-.21.12-.2.11-.19.12-.19.12-.19.14-.19.14-.18.14-.17.16-.18.16-.17.16-.15.18-.15.19-.15.2-.13.2-.13.23-.12.22-.1.23-.09.25-.07.25-.06.26-.05.27-.03.28-.02.28-.01v1.93l-.2.01-.18.01-.17.02-.15.03-.14.03-.14.04-.13.05-.12.05-.1.05-.11.07-.11.07-.1.07-.1.09-.1.1-.1.1-.09.11-.1.13-.1.13-.09.13-.1.15-.1.16-.1.17-.1.17-.1.18-.22.39-.22.42-.23.44-.25.46zm0 0a.98.98 0 0 1-1.31.38.98.98 0 0 1-.38-1.31l1.69.93zm-4.09 6.43.5-1.86-1.19.71.05-.21.06-.22.07-.21.07-.2.07-.21.08-.21.09-.21.09-.21.09-.2.1-.21.1-.21.1-.2.1-.2.1-.19.11-.2.11-.2.22-.39.22-.38.22-.38.22-.37.22-.37.21-.35.2-.35.19-.34 1.69.93-.21.36-.21.37-.22.37-.22.36-.22.37-.22.37-.21.37-.21.37-.1.18-.1.18-.1.18-.09.18-.09.18-.09.17-.08.18-.08.18-.07.18-.07.17-.06.17-.06.18-.06.18-.05.16-.05.16-.04.16-1.19.71zm1.19-.71a.965.965 0 1 1-1.88-.44l1.88.44zm-13.34-10.09 1.22-1.49.38.32.39.34.4.35.41.37.41.38.42.4.43.41.43.41.43.42.43.43.43.43.43.43.86.85.85.83.41.41.41.4.39.38.39.37.38.36.36.33.35.31.33.29.31.26.29.24.27.21.25.18.21.14.18.1.14.06.07.03-.5 1.86-.31-.11-.3-.14-.29-.17-.3-.19-.3-.22-.31-.24-.33-.27-.34-.29-.35-.31-.37-.33-.38-.35-.38-.36-.4-.37-.4-.39-.41-.4-.42-.41-.85-.83-.86-.86-.43-.43-.43-.43-.43-.42-.43-.42-.42-.41-.42-.4-.41-.38-.4-.37-.39-.36-.38-.34-.37-.32-.36-.3zm0 0a.965.965 0 0 1-.14-1.35c.33-.41.94-.47 1.35-.14l-1.22 1.49zm-13.43-8.7.86-1.72.46.23.46.23.46.24.46.24.46.25.45.25.45.26.45.26.45.26.45.27.45.27.45.27.45.27.44.28.44.28.44.28.43.29.43.29.43.29.43.3.42.29.42.3.42.3.41.3.41.3.41.3.4.3.4.31.39.3.39.31.38.3.38.31-1.22 1.49-.37-.3-.37-.3-.38-.3-.38-.3-.39-.3-.39-.3-.4-.29-.4-.29-.4-.29-.41-.29-.41-.29-.42-.29-.42-.29-.42-.28-.43-.28-.42-.28-.43-.28-.43-.27-.43-.27-.43-.27-.44-.26-.44-.26-.43-.26-.44-.26-.44-.25-.44-.25-.44-.25-.44-.24-.44-.23-.45-.24-.44-.22-.45-.22zm0 0a.963.963 0 0 1-.43-1.29c.23-.47.82-.67 1.29-.43l-.86 1.72zM41.83 23.77H39.9l.2-.87.45-.81.65-.87.86-.98 1.08-1.07 1.29-1.15 1.49-1.23 1.69-1.29 1.89-1.33 2.08-1.36 2.25-1.37 2.44-1.36 2.6-1.34 2.77-1.31 2.93-1.25L67.65 5l3.23-1.1 3.37-.99 3.5-.88 3.63-.74L85.13.7l3.86-.42 3.97-.24L97.03 0l4.17.18 4.26.41 4.34.66 4.41.93 4.48 1.21 4.54 1.51 4.6 1.82 4.64 2.16-.86 1.72-4.55-2.11-4.5-1.78-4.44-1.47-4.38-1.18-4.3-.9-4.24-.65-4.15-.4-4.07-.17-3.97.04-3.88.23-3.77.41-3.66.58-3.54.73-3.42.86-3.29.97-3.15 1.08L65.29 8l-2.86 1.22-2.71 1.28-2.54 1.31-2.38 1.33-2.2 1.34-2.02 1.32-1.83 1.29-1.63 1.24-1.43 1.18-1.22 1.1-1 .99-.77.87-.54.71-.27.49-.05.12zm0 0a.96.96 0 0 1-1.92 0h1.93z" class="fil0"/><path id="_1" d="M40.87 23.78c0 2.17 1.42 3.59 3.59 3.59 2.04 0 5.97-4.14 9.86-6.73 22.83-15.16 52.44-17.05 76.37-3.73 8.24 4.59 10.34 6.87 16.13 12.11l6.59 6.86-7.31 12.86c-.93 1.66-7.03 12.27-7.03 13.14 0 2.17 1.42 3.59 3.59 3.59 2.94 0 3.47-2.54 4.74-4.67 1.26-2.11 2.18-4.03 3.35-6.07 2.28-3.96 4.53-8.02 6.7-12.13 1.55 1.04 3.91 5.81 4.74 7.81 1.36 3.28 2.33 5.52 3.5 9.05 1.89 5.66 3.41 14.4 3.41 21.7 0 4.69-.9 8.42-.9 12.55h-17.04c-12.38 0-11.21 11.3-11.21 17.49v29.14l-8.33 5.12c-3.17 1.88-5.57 2.94-9.09 4.36-6.43 2.59-14.83 4.87-23.38 4.87V82.05c0-2.17-1.27-4.04-3.59-4.04H22.03l1.9-13.34C25.75 56 30.61 45.6 35.86 38.49c.98-1.33 2.76-2.94 2.76-4.86 0-2.12-1.82-3.58-3.58-3.58-2.07 0-3.81 3.13-4.87 4.55-7.16 9.48-12.7 23.07-14.29 35.04-.45 3.41-.31 5.71-.61 9.28-.23 2.63-.53 5.83 3.18 5.83h73.53v73.53c0 3.95 3.55 3.59 5.83 3.59 14.17 0 25.95-4.16 37.51-10.47 1.49-.81 3.15-2.14 4.64-2.54l-.01 75.33c-.04 4.34.17 6.27 4.49 6.27h34.53c2.75 0 4.03-2.13 4.03-4.93v-23.31c0-5.26-7.17-5.39-7.17-.45v21.52h-28.7V104.03c0-2.09 1.05-3.14 3.14-3.14 28.49 0 25.56-2.62 25.56 10.31v66.36c0 3.2-.72 10.3.59 12.42 1.88 3.04 6.59 2.14 6.59-3v-81.15c0-6.21-3.09-10.5-8.07-11.66 1.19-5.13.9-11.59.9-17.04 0-15-6.64-30.2-14.35-41.7.5-.58.21-.14.74-1.05l4.64-8.36h39.01c6.31 0 9.87.84 9.87-4.48 0-1.45-1.95-2.69-3.59-2.69h-47.08c-2.62 0-3.26 1.89-4.62 4.34-1.03 1.85-2.54 3.97-3 5.97-1.91-.51-7.92-7.47-11.8-10.62-3.97-3.23-8.81-6.42-13.61-8.81-49.26-24.53-91.17 9.69-91.17 14.05z" class="fil1"/><path d="M9.1 99.11v1.79H7.17v-1.79l.96-.96.96.96zm-1.93 0a.96.96 0 0 1 1.92 0H7.16zm70.46.96H8.13v-1.93h69.5l.96.96-.96.96zm0-1.93a.96.96 0 0 1 0 1.92v-1.93zm-.96 70.9V99.1h1.93v69.94l-.96.96-.96-.96zm1.93 0a.96.96 0 0 1-1.92 0h1.93zm-15.37-1.87 1.92.16-.88-1.04.38.04.38.04.38.05.36.05.37.05.37.06.36.07.37.07.73.14.73.15.74.15.77.15.39.07.39.07.4.07.42.07.42.07.43.06.44.06.45.05.46.05.47.04.49.04.5.03.52.03.53.02.55.01.57.01v1.93l-.59-.01-.58-.01-.57-.02-.54-.03-.53-.04-.52-.04-.5-.05-.49-.05-.47-.06-.46-.06-.46-.07-.44-.07-.43-.07-.42-.07-.41-.07-.4-.08-.77-.15-.75-.15-.73-.15-.71-.14-.34-.07-.35-.06-.34-.06-.34-.05-.35-.05-.34-.05-.34-.04-.35-.03-.88-1.04zm.88 1.04a.964.964 0 0 1 .16-1.92l-.16 1.92zm3.15-11.27h1.93l-.01.32-.04.32-.06.32-.08.33-.1.33-.11.33-.13.33-.14.34-.15.34-.15.35-.17.35-.17.36-.18.36-.18.36-.18.36-.18.36-.18.36-.18.36-.18.35-.17.35-.17.35-.16.34-.15.34-.14.33-.13.32-.12.31-.11.3-.09.29-.08.27-.06.25-.04.23-.02.21-1.92-.16.04-.33.06-.34.08-.34.1-.34.11-.34.13-.35.14-.35.15-.36.15-.36.17-.36.17-.36.18-.36.18-.36.18-.37.18-.36.18-.36.18-.36.18-.36.18-.35.17-.34.16-.34.15-.33.14-.32.13-.31.12-.3.11-.29.09-.27.08-.25.06-.23.04-.21.02-.18.01-.15zm0 0a.96.96 0 0 1 1.92 0h-1.93zm-5.96 1.52-1.78-.73.34-.79.35-.72.36-.65.36-.59.37-.53.38-.47.39-.41.4-.36.41-.3.42-.25.43-.19.43-.13.44-.07.43-.02.42.04.41.09.38.13.36.17.34.2.31.23.29.25.27.27.24.29.22.3.2.31.17.33.15.33.13.34.1.34.07.35.05.35.02.35h-1.93l-.01-.17-.02-.19-.05-.2-.06-.22-.08-.21-.1-.22-.11-.21-.13-.2-.15-.2-.15-.18-.16-.17-.17-.15-.18-.13-.18-.1-.18-.08-.18-.06-.18-.04-.19-.02-.19.01-.19.03-.21.06-.22.1-.24.14-.26.19-.27.24-.29.3-.29.36-.3.42-.31.5-.31.57-.31.64-.31.72zm0 0c-.2.49-.76.73-1.25.53a.961.961 0 0 1-.53-1.25l1.78.73zm-3.92 7.51.16-1.92-1.02.74.07-.29.07-.28.07-.26.08-.26.08-.25.08-.25.09-.24.09-.24.09-.23.09-.22.09-.22.1-.22.1-.21.1-.2.1-.21.1-.21.19-.39.2-.39.2-.39.2-.4.1-.2.1-.2.1-.21.1-.21.1-.21.1-.22.1-.22.1-.23 1.78.73-.1.26-.11.25-.11.24-.1.23-.11.23-.1.22-.11.22-.11.21-.21.41-.2.39-.2.39-.19.38-.09.18-.09.18-.09.2-.09.19-.08.19-.08.19-.09.2-.08.19-.08.21-.07.21-.07.22-.07.22-.07.23-.07.24-.06.24-.06.25-1.02.74zm1.02-.74a.965.965 0 1 1-1.88-.44l1.88.44zm-20.29-8.93 1.16-1.54.33.25.39.27.42.29.46.31.5.33.53.34.56.35.59.36.62.37.63.38.65.38.67.38.68.38.69.38.7.38.7.37.7.37.69.36.69.34.68.34.67.32.66.3.64.29.62.27.6.24.57.22.54.19.51.17.47.14.42.1.37.07.31.04-.16 1.92-.46-.06-.48-.09-.51-.13-.54-.16-.56-.18-.59-.21-.61-.23-.63-.26-.65-.28-.67-.3-.68-.31-.69-.33-.7-.34-.7-.35-.71-.37-.71-.37-.71-.38-.71-.39-.7-.39-.69-.39-.68-.39-.67-.39-.64-.38-.62-.38-.61-.37-.58-.36-.54-.35-.52-.33-.49-.33-.45-.31-.41-.29-.37-.27zm0 0a.97.97 0 0 1-.19-1.35.97.97 0 0 1 1.35-.19l-1.16 1.54zm-25.42-31.79 1.79-.73.5 1.19.52 1.17.54 1.16.56 1.14.58 1.13.6 1.11.62 1.09.64 1.08.66 1.07.67 1.05.69 1.04.71 1.02.73 1.01.74.99.76.98.78.97.79.95.81.94.83.93.85.91.86.9.87.89.89.88.9.86.91.85.93.84.94.83.96.82.97.81.98.79.99.78 1.01.77-1.16 1.54-1.03-.79-1.01-.8-1-.81-.99-.82-.98-.83-.96-.85-.95-.86-.94-.87-.93-.89-.91-.9-.89-.91-.88-.93-.86-.94-.85-.95-.83-.97-.82-.98-.8-.99-.78-1.01-.77-1.02-.75-1.04-.73-1.05-.71-1.06-.7-1.08-.67-1.1-.66-1.11-.63-1.13-.62-1.14-.59-1.16-.58-1.17-.55-1.19-.54-1.21-.51-1.23zm0 0c-.2-.49.04-1.06.53-1.26.49-.2 1.06.04 1.26.53l-1.79.73zm-5.51-23.62h1.93l.01.75.03.76.04.76.06.76.07.77.09.77.1.77.11.77.13.77.13.77.15.77.15.77.17.76.18.76.18.76.19.75.2.74.21.74.21.73.22.72.22.71.22.7.23.7.23.68.23.67.23.66.23.65.23.63.23.61.23.6.23.58.23.57-1.79.73-.23-.58-.23-.6-.24-.61-.24-.63-.24-.64-.24-.66-.24-.67-.24-.68-.23-.7-.23-.71-.23-.72-.23-.73-.22-.74-.22-.75-.21-.75-.21-.76-.19-.77-.19-.77-.18-.78-.17-.79-.16-.79-.15-.79-.14-.8-.13-.8-.11-.81-.1-.8-.09-.8-.07-.81-.06-.8-.04-.8-.03-.79-.01-.79zm0 0a.96.96 0 0 1 1.92 0H7.17zm11.21 43.3-1.54 1.15-1.03-1.39-.99-1.4-.96-1.4-.93-1.41-.9-1.42-.87-1.42-.84-1.43-.8-1.44-.77-1.45-.74-1.46-.71-1.47-.67-1.48-.64-1.49-.61-1.5-.58-1.52-.55-1.54-.51-1.55-.48-1.56-.45-1.58-.41-1.6-.38-1.62-.35-1.63-.31-1.65-.28-1.68-.25-1.69-.22-1.72-.18-1.74-.15-1.76-.12-1.78-.08-1.81-.05-1.83-.02-1.86h1.93l.02 1.82.05 1.8.08 1.77.11 1.74.15 1.72.18 1.7.21 1.68.24 1.66.27 1.63.31 1.61.34 1.6.37 1.57.4 1.56.43 1.54.47 1.52.5 1.51.53 1.49.56 1.48.59 1.47.63 1.45.66 1.44.69 1.43.72 1.42.76 1.42.79 1.41.82 1.4.85 1.39.88 1.39.91 1.38.95 1.38.98 1.37 1.01 1.37zm0 0a.97.97 0 0 1-.19 1.35.97.97 0 0 1-1.35-.19l1.54-1.15zm25.14 21.42-1 1.65-.96-.59-.94-.57-.93-.57-.91-.57-.89-.57-.88-.56-.87-.57-.85-.57-.84-.57-.83-.57-.82-.57-.81-.58-.8-.59-.79-.6-.78-.61-.78-.62-.77-.64-.76-.65-.76-.66-.75-.68-.75-.7-.75-.73-.74-.74-.74-.77-.74-.79-.74-.81-.74-.84-.74-.87-.74-.89-.74-.93-.74-.96-.75-.99 1.54-1.15.74.97.73.94.73.9.72.87.72.85.72.82.72.79.72.77.72.74.72.72.73.7.73.68.73.66.74.65.74.63.75.62.76.6.76.6.77.58.78.58.79.57.81.56.82.56.83.56.84.55.85.55.87.55.89.56.9.56.92.57.94.57.96.58zm0 0c.45.27.6.87.33 1.32a.97.97 0 0 1-1.32.33l1-1.65zm11.65 6.12-1.7-.9.77 1.41-.29-.03-.3-.06-.31-.07-.32-.09-.34-.1-.36-.12-.37-.13-.39-.14-.4-.15-.41-.16-.42-.17-.43-.18-.44-.18-.44-.19-.44-.19-.45-.2-.44-.2-.43-.2-.43-.2-.42-.2-.42-.2-.41-.2-.39-.19-.38-.19-.37-.19-.34-.18-.32-.17-.3-.16-.28-.15-.25-.14-.22-.13-.21-.12 1-1.65.17.1.21.12.23.13.26.14.29.15.31.16.33.17.35.18.37.19.38.19.39.19.41.19.41.2.42.2.43.2.43.2.43.19.43.19.42.18.42.18.41.17.4.16.39.15.38.14.36.13.34.12.32.1.3.09.27.07.23.06.2.03.15.02.77 1.41zm-.77-1.41a.964.964 0 0 1-.16 1.92l.16-1.92zm-9.5 22.1v-1.93l-.85.51.26-.5.27-.54.28-.55.28-.58.29-.6.3-.62.3-.63.3-.65.31-.66.31-.67.31-.69.31-.69.63-1.4.63-1.41.63-1.41.62-1.39.31-.68.3-.67.3-.66.3-.65.29-.63.29-.62.29-.6.28-.58.27-.55.26-.54.26-.51.25-.48 1.7.9-.24.46-.25.5-.26.51-.26.54-.27.57-.28.59-.28.61-.29.63-.29.64-.3.66-.3.67-.3.68-.62 1.38-.63 1.41-.63 1.41-.63 1.41-.32.7-.31.69-.31.68-.31.67-.31.66-.3.65-.3.62-.29.61-.29.59-.29.57-.28.55-.27.53-.85.51zm.85-.51a.96.96 0 0 1-1.3.4.96.96 0 0 1-.4-1.3l1.7.9zm-33.13-1.42h32.28v1.93H12.62l.01-1.93zm0 1.93a.96.96 0 0 1 0-1.92v1.93zm-6.21 3.07H4.49l.01-.43.02-.4.04-.39.06-.37.08-.35.1-.34.12-.31.14-.3.17-.28.19-.26.21-.25.23-.22.25-.19.26-.17.27-.14.28-.13.29-.1.3-.09.31-.07.32-.06.32-.04.33-.04.34-.03.35-.02.36-.01.37-.01.38-.01H11.79l.86.01-.01 1.93-.86-.01h-1.17l-.36.01-.34.01-.33.01-.31.02-.29.03-.27.03-.25.04-.23.04-.21.05-.2.06-.17.06-.15.07-.14.07-.12.07-.11.09-.1.09-.09.1-.08.11-.08.14-.07.15-.07.18-.06.2-.05.23-.04.26-.03.29-.02.32-.01.35zm0 0a.96.96 0 0 1-1.92 0h1.93zm3.97 2.18v1.93h-.23l-.24-.01-.24-.02-.24-.03-.24-.04-.24-.04-.24-.05-.24-.06-.24-.07-.23-.07-.23-.08-.23-.09-.23-.09-.23-.1-.22-.11-.21-.11-.21-.13-.21-.13-.2-.14-.19-.15-.18-.16-.17-.17-.17-.18-.16-.19-.14-.2-.13-.21-.11-.22-.1-.23-.08-.25-.06-.25-.04-.26-.01-.26h1.93l.01.09.01.09.02.09.03.09.03.09.05.09.06.1.07.1.07.09.09.1.1.1.11.09.11.09.13.09.14.09.14.08.16.09.16.08.15.07.17.07.18.07.18.06.18.06.18.05.18.05.18.04.18.03.18.03.18.02.18.02.17.01h.17zm0 0a.96.96 0 0 1 0 1.92v-1.93zm35.42 1.93H10.39v-1.93h35.42v1.93zm0-1.93a.96.96 0 0 1 0 1.92v-1.93zm4.66-3.78 1.74.82-.01.02-.23.47-.22.45-.11.22-.11.22-.11.22-.12.22-.12.21-.12.21-.13.21-.14.2-.15.2-.15.19-.16.19-.18.18-.18.17-.19.17-.21.16-.22.15-.23.14-.24.12-.25.11-.26.1-.28.09-.29.07-.3.06-.31.05-.33.04-.34.03-.35.02-.37.01v-1.93l.31-.01.29-.01.27-.02.25-.03.23-.04.22-.05.2-.05.18-.05.17-.06.15-.07.14-.07.14-.08.12-.08.12-.09.11-.1.11-.11.11-.11.1-.12.11-.13.1-.14.1-.15.1-.15.1-.17.1-.18.1-.19.1-.19.1-.2.1-.21.22-.46.23-.48-.01.02zm.01-.02c.23-.47.82-.67 1.29-.44.47.23.67.82.44 1.29l-1.73-.85zm11.45-19.94-9.71 20.78-1.74-.82 9.71-20.78 1.09-.53.65 1.35zm-1.74-.82c.22-.48.8-.69 1.28-.46.48.22.69.8.46 1.28l-1.74-.82zm21.05 2.13v1.93h-.72l-.71-.01-.7-.02-.69-.02-.68-.03-.67-.03-.66-.04-.65-.05-.64-.05-.64-.05-.64-.06-.63-.07-.62-.07-.62-.08-.62-.08-.61-.09-.61-.09-.61-.1-.61-.1-.61-.1-.61-.11-.61-.11-.61-.12-.61-.12-.61-.13-.61-.13-.62-.13-.62-.14-.63-.14-.63-.14-.64-.15-.65-.15.44-1.88.64.15.63.15.63.14.62.14.62.14.61.13.61.13.6.13.6.12.59.11.59.11.59.11.59.1.59.1.59.09.59.09.6.08.6.08.6.07.61.07.61.07.62.06.62.05.63.05.64.05.64.04.65.03.66.03.67.02.68.02.69.01h.71zm0 0a.96.96 0 0 1 0 1.92v-1.93zm2.62-2.62h1.93l-.01.24-.01.24-.03.23-.03.23-.05.22-.06.23-.07.22-.07.21-.09.21-.09.2-.1.19-.11.19-.13.18-.13.17-.14.17-.15.15-.15.15-.17.14-.18.14-.18.12-.19.11-.19.1-.2.1-.21.08-.2.07-.22.07-.22.06-.23.05-.23.03-.23.03-.24.01-.24.01v-1.93l.16-.01.16-.01.15-.02.14-.02.14-.03.13-.03.13-.04.13-.05.11-.05.11-.05.11-.06.1-.06.1-.07.09-.07.08-.07.09-.08.08-.09.07-.09.07-.09.07-.1.06-.1.06-.11.05-.11.05-.12.05-.13.04-.13.03-.13.03-.14.02-.14.02-.15.01-.16.01-.16zm0 0a.96.96 0 0 1 1.92 0h-1.93zm1.93-76.67v76.67h-1.93V95.95h1.93zm-1.93 0a.96.96 0 0 1 1.92 0h-1.93zm-1.73-2.62V91.4l.21.01.22.03.21.05.19.05.2.07.18.09.17.09.18.11.15.11.16.12.15.14.14.13.13.14.13.15.13.15.11.16.11.16.11.17.1.18.09.17.09.17.08.19.07.19.07.18.06.19.06.19.04.19.04.19.03.19.02.2.01.2v.2h-1.93v-.11l-.01-.11-.01-.12-.02-.12-.02-.13-.03-.12-.03-.12-.04-.12-.05-.13-.05-.12-.05-.11-.06-.12-.06-.12-.06-.11-.06-.1-.07-.1-.07-.09-.07-.09-.08-.09-.07-.08-.08-.07-.07-.06-.07-.06-.08-.06-.06-.04-.08-.04-.07-.03-.06-.02-.07-.02-.06-.01-.05-.01h-.06zm0 0a.96.96 0 0 1 0-1.92v1.93zM4.11 91.4h78.02v1.93H4.11V91.4zm0 1.93a.96.96 0 0 1 0-1.92v1.93zm-2.18 1.73H0l.01-.14.01-.14.02-.15.03-.14.03-.14.04-.14.05-.14.06-.15.07-.15.07-.14.08-.15.09-.15.09-.14.1-.14.12-.15.12-.14.12-.13.14-.13.16-.14.16-.13.16-.11.17-.11.19-.11.19-.1.2-.09.21-.07.22-.07.23-.06.23-.05.24-.03.25-.02.25-.01v1.93l-.15.01-.15.01-.13.02-.13.02-.12.03-.11.03-.11.04-.11.05-.1.05-.09.05-.1.06-.09.06-.08.06-.07.06-.07.07-.08.08-.06.07-.05.07-.06.08-.06.09-.04.07-.04.08-.04.08-.03.07-.02.06-.02.07-.02.06-.01.06-.01.05v.03l-.01.04v.02zm0 0a.96.96 0 0 1-1.92 0h1.93z" class="fil0"/><path id="_1_0" d="M8.14 100.9v-1.79h69.5v69.94c-6.29 0-9.58-1.47-13.45-1.79.23-2.82 4.03-7.87 4.03-10.31 0-2.75-4.37-7.3-7.81 1.15-1.08 2.64-2.27 4-2.95 6.92-3.9-.33-15.24-6.81-18.77-9.48-10.9-8.25-19.84-18.41-25.11-31.38-2.45-6.02-5.44-15.03-5.44-23.26zM.97 95.07c0 19.79 5.62 34.96 16.65 49.7 7.95 10.62 15.07 15.41 25.41 21.67 1.81 1.1 9.12 4.66 11.3 4.84-2.58 4.88-6.58 14.82-9.42 20.18H12.63c-4.71-.02-7.17-.25-7.17 4.04 0 1.91 2.77 3.14 4.93 3.14h35.42c3.71 0 4.26-1.75 5.53-4.33l9.71-20.78c6.91 1.61 12.49 2.69 20.18 2.69 2.17 0 3.59-1.42 3.59-3.58V95.97c0-1.64-1.24-3.59-2.69-3.59H4.11c-2.21 0-3.14 1.84-3.14 2.69z" class="fil1"/><path d="M199.59 150.6v1.93h-.25l-.24.01-.23.01-.22.02-.22.03-.21.03-.2.04-.19.05-.19.05-.18.06-.16.06-.16.07-.15.07-.14.08-.14.08-.12.08-.11.09-.11.09-.1.1-.09.11-.09.11-.08.11-.07.13-.07.13-.06.14-.05.15-.05.17-.04.17-.03.19-.02.2-.02.21-.01.22h-1.93l.01-.31.02-.3.03-.29.05-.29.06-.28.07-.27.09-.26.11-.25.12-.24.13-.23.15-.23.16-.21.17-.19.19-.19.19-.17.2-.16.22-.15.22-.13.23-.13.24-.11.24-.1.25-.09.25-.08.26-.07.26-.06.27-.05.27-.04.27-.03.29-.03.29-.02.29-.01h.3zm0 0a.96.96 0 0 1 0 1.92v-1.93zm19.28 1.93h-19.28v-1.93h19.28v1.93zm0-1.93a.96.96 0 0 1 0 1.92v-1.93zm5.89 5h-1.93l-.01-.21-.01-.19-.03-.19-.03-.18-.04-.16-.05-.16-.06-.15-.06-.14-.07-.13-.08-.13-.08-.12-.09-.11-.1-.11-.1-.1-.12-.1-.12-.1-.13-.09-.13-.09-.14-.08-.15-.08-.16-.07-.16-.06-.18-.06-.18-.06-.19-.05-.2-.05-.2-.03-.21-.03-.22-.02-.22-.02-.22-.01h-.23v-1.93h.29l.29.02.28.02.27.03.27.04.27.05.26.06.26.07.26.08.25.09.25.1.24.11.23.11.23.13.22.14.22.15.2.16.19.17.19.19.18.2.16.21.15.22.13.22.13.24.11.25.09.25.08.26.07.28.05.28.04.28.02.3.01.3zm0 0a.96.96 0 0 1-1.92 0h1.93zm-1.93 67.7v-67.7h1.93v67.7l-.96.96-.96-.96zm1.93 0a.96.96 0 0 1-1.92 0h1.93zm-30.11-.96h29.14v1.93h-29.14l-.96-.96.96-.96zm0 1.93a.96.96 0 0 1 0-1.92v1.93zm.96-68.66v67.7h-1.93v-67.7h1.93zm-1.93 0a.96.96 0 0 1 1.92 0h-1.93zm-6.73 72.18v-74.43h1.93v74.43h-1.93zm1.93 0a.96.96 0 0 1-1.92 0h1.93zm2.62 1.73v1.93h-.2l-.2-.01-.2-.02-.19-.03-.19-.04-.19-.04-.2-.06-.18-.06-.18-.07-.19-.07-.19-.08-.17-.09-.17-.09-.18-.1-.17-.11-.16-.11-.16-.11-.15-.13-.15-.13-.14-.13-.13-.14-.14-.15-.12-.16-.11-.15-.11-.18-.09-.17-.09-.18-.07-.2-.05-.19-.05-.21-.03-.22-.01-.21h1.93v.06l.01.05.01.06.02.07.02.06.03.07.04.08.04.06.06.08.06.07.06.07.07.08.08.07.09.08.09.07.09.07.1.07.1.06.11.06.12.06.12.06.11.05.12.05.13.05.13.04.12.03.12.03.13.02.12.02.12.01.11.01h.11zm0 0a.96.96 0 0 1 0 1.92v-1.93zm35.42 1.93H191.5v-1.93h35.42v1.93zm0-1.93a.96.96 0 0 1 0 1.92v-1.93zm2.62-2.62h1.93l-.01.24-.01.24-.03.23-.03.23-.05.23-.06.22-.07.22-.07.21-.08.21-.09.19-.11.2-.12.19-.12.17-.13.18-.15.17-.15.15-.15.15-.17.15-.18.13-.17.12-.19.12-.2.11-.19.09-.21.08-.21.07-.22.07-.22.06-.23.05-.23.03-.23.03-.24.01-.24.01v-1.93l.16-.01.16-.01.15-.02.14-.02.14-.03.13-.03.13-.04.12-.04.12-.05.11-.05.1-.05.09-.06.1-.07.09-.06.08-.07.09-.08.08-.09.07-.08.06-.09.07-.1.06-.09.05-.1.05-.11.05-.12.04-.12.04-.13.03-.13.03-.14.02-.14.02-.15.01-.16.01-.16zm0 0a.96.96 0 0 1 1.92 0h-1.93zm1.93-72.64v72.64h-1.93v-72.64h1.93zm-1.93 0a.96.96 0 0 1 1.92 0h-1.93zm-8.45-8.45v-1.93l.5.02.5.05.49.07.49.1.48.13.48.15.46.18.46.2.45.23.44.25.43.26.42.28.41.31.39.32.38.34.37.35.35.37.34.38.32.39.31.41.28.42.26.43.25.44.23.45.2.46.18.46.15.48.13.48.1.49.07.49.05.5.02.5h-1.93l-.01-.38-.03-.38-.06-.38-.08-.38-.1-.38-.12-.38-.15-.38-.16-.37-.18-.37-.2-.37-.22-.36-.24-.35-.25-.34-.27-.33-.28-.32-.3-.31-.31-.3-.32-.28-.33-.27-.34-.25-.35-.24-.36-.22-.37-.2-.37-.18-.37-.16-.38-.15-.38-.12-.38-.1-.38-.08-.38-.06-.38-.03-.38-.01zm0 0a.96.96 0 0 1 0-1.92v1.93zm-23.77-1.93h23.77v1.93h-23.77v-1.93zm0 1.93a.96.96 0 0 1 0-1.92v1.93zm-6.57 3.53-1.5-1.2.17-.21.17-.2.18-.2.19-.2.19-.2.2-.19.21-.19.21-.19.21-.18.22-.18.23-.18.23-.17.24-.17.25-.16.25-.15.25-.15.26-.15.27-.14.27-.13.27-.12.28-.12.29-.11.28-.1.29-.09.3-.08.3-.07.3-.06.3-.05.31-.04.32-.03.31-.02.32-.01v1.93l-.25.01-.25.01-.24.02-.24.03-.24.04-.24.05-.24.06-.23.06-.23.07-.23.08-.23.09-.22.1-.23.1-.22.11-.21.11-.21.12-.22.13-.21.13-.2.14-.2.14-.19.14-.19.15-.19.15-.18.16-.18.16-.17.17-.17.16-.16.17-.16.17-.15.17-.15.17-.14.17zm0 0c-.33.41-.94.48-1.35.15a.966.966 0 0 1-.15-1.35l1.5 1.2zm-.83 1.22-1.66-.97.09-.15.07-.12.05-.1.05-.1.05-.08.03-.06.04-.06.04-.06.06-.09.05-.06.05-.06.06-.07.06-.07.08-.1.09-.11.11-.14 1.5 1.2-.12.15-.1.12-.07.09-.06.08-.05.05-.03.05-.02.03.01-.01-.01.02-.02.04-.03.06-.03.05-.04.08-.06.11-.08.14-.1.16zm0 0c-.27.46-.86.61-1.32.34a.962.962 0 0 1-.34-1.32l1.66.98zm-1.05 2.81h-1.93v-.15l.01-.14.01-.15.02-.14.02-.13.02-.14.03-.14.03-.14.03-.14.04-.12.03-.12.05-.14.04-.12.04-.12.05-.13.05-.11.05-.11.05-.12.05-.12.06-.11.1-.21.11-.21.11-.21.11-.2.11-.19.1-.18 1.66.97-.1.18-.1.18-.1.18-.1.18-.09.18-.09.19-.04.08-.04.08-.04.09-.04.09-.04.09-.03.08-.03.09-.03.1-.02.08-.03.09-.03.1-.02.08-.02.08-.02.09-.01.08-.01.09-.01.09-.01.08-.01.09v.08zm0 0a.96.96 0 0 1-1.92 0h1.93z" class="fil0"/><path id="_1_1" d="M194.66 155.6c0-2.9 2.01-4.04 4.93-4.04h19.28c2.8 0 4.93 1.28 4.93 4.04v67.7h-29.14v-67.7zm-6.73-2.24v74.43c0 1.45 1.95 2.69 3.59 2.69h35.42c2.17 0 3.59-1.42 3.59-3.59v-72.64c0-4.69-4.73-9.42-9.42-9.42h-23.77c-3.04 0-5.71 1.87-7.32 3.89-.67.84-.37.41-.91 1.33-.55.94-1.19 2.07-1.19 3.3z" class="fil1"/><path d="M101.85 187.81v1.93h-.05l-.03.01-.05.02-.07.02-.06.02-.07.03-.09.05-.08.05-.07.05-.09.06-.08.06-.09.07-.08.07-.09.08-.08.07-.07.08-.08.08-.07.08-.07.09-.06.08-.06.09-.05.07-.05.08-.05.09-.03.07-.02.06-.02.07-.02.05-.01.03v.05h-1.93l.01-.19.02-.17.03-.18.05-.17.05-.16.07-.17.07-.16.07-.14.08-.15.1-.15.09-.14.1-.14.11-.13.11-.13.11-.13.12-.13.13-.12.12-.11.13-.11.13-.11.14-.1.14-.09.15-.1.15-.08.14-.07.16-.07.17-.07.16-.05.17-.05.18-.03.17-.02.19-.01zm0 0a.96.96 0 0 1 0 1.92v-1.93zm22.87 1.93h-22.87v-1.93h22.87v1.93zm0-1.93a.96.96 0 0 1 0 1.92v-1.93zm4.1 4.1h-1.93v-.16l-.01-.16-.01-.15-.02-.13-.02-.13-.02-.13-.03-.1-.03-.11-.03-.1-.04-.09-.04-.08-.04-.07-.04-.07-.05-.07-.05-.06-.06-.06-.05-.05-.06-.05-.07-.05-.07-.04-.07-.04-.09-.04-.09-.04-.09-.03-.11-.03-.11-.03-.13-.02-.13-.02-.13-.02-.15-.01-.16-.01h-.16v-1.93h.23l.22.01.21.02.22.03.2.03.2.04.2.05.2.06.2.07.18.07.17.09.18.1.17.11.15.11.16.13.15.14.13.14.13.15.12.16.11.17.1.18.09.19.08.18.07.18.06.19.05.21.04.2.03.2.03.22.02.21.01.22v.23zm0 0a.96.96 0 0 1-1.92 0h1.93zm-1.93 31.39v-31.39h1.93v31.39l-.96.96-.96-.96zm1.93 0a.96.96 0 0 1-1.92 0h1.93zm-29.66-.96h28.7v1.93h-28.7l-.96-.96.96-.96zm0 1.93a.96.96 0 0 1 0-1.92v1.93zm.96-32.79v31.83h-1.93v-31.83h1.93zm-1.93 0a.96.96 0 0 1 1.92 0h-1.93zm-7.17 34.97v-33.63h1.93v33.63h-1.93zm1.93 0a.96.96 0 0 1-1.92 0h1.93zm3.07 3.07v1.93l-.26-.01-.26-.02-.25-.03-.24-.04-.24-.06-.24-.07-.24-.08-.22-.09-.22-.1-.21-.11-.21-.12-.2-.13-.19-.14-.19-.15-.18-.16-.17-.17-.17-.17-.16-.18-.15-.19-.14-.19-.13-.21-.12-.21-.11-.21-.1-.22-.09-.23-.08-.23-.07-.23-.06-.25-.04-.25-.03-.25-.02-.26-.01-.26h1.93l.01.15.01.15.02.15.03.15.03.14.05.15.05.14.06.14.06.14.07.13.07.13.08.13.09.12.09.11.1.11.1.11.11.1.11.1.11.09.13.09.13.08.13.07.13.07.14.06.14.06.13.05.14.04.15.03.15.03.15.02.15.01.15.01zm0 0a.96.96 0 0 1 0 1.92v-1.93zm34.97 1.93H96.02v-1.93h34.97v1.93zm0-1.93a.96.96 0 0 1 0 1.92v-1.93zm3.07-2.62h1.93l-.01.26-.02.26-.03.26-.05.25-.06.24-.07.23-.08.23-.1.22-.11.21-.12.2-.13.2-.14.19-.15.18-.15.17-.17.16-.18.15-.18.14-.18.13-.19.12-.2.11-.2.1-.21.09-.22.09-.22.07-.22.06-.22.06-.23.05-.23.04-.23.03-.22.02-.24.02h-.24v-1.93h.17l.16-.01.17-.02.15-.02.15-.03.15-.03.15-.04.15-.04.14-.05.13-.05.13-.06.12-.06.12-.07.11-.07.11-.08.1-.08.1-.08.09-.09.09-.1.08-.09.07-.1.07-.11.06-.11.06-.11.05-.12.05-.13.04-.13.03-.14.03-.14.02-.15.01-.16.01-.17zm0 0a.96.96 0 0 1 1.92 0h-1.93zm1.93-34.52v34.52h-1.93v-34.52h1.93zm-1.93 0a.96.96 0 0 1 1.92 0h-1.93zm-10.25-9.8v-1.93l.64.01.63.04.62.07.61.09.59.12.59.15.57.17.55.19.54.22.53.25.51.26.49.29.47.31.46.33.44.36.42.38.4.4.38.42.36.44.33.46.31.47.29.5.26.51.24.53.21.55.18.56.16.57.13.59.1.61.07.62.05.63.01.64h-1.93l-.01-.55-.04-.54-.06-.52-.09-.51-.11-.5-.14-.48-.15-.47-.18-.45-.2-.44-.22-.42-.23-.41-.26-.39-.27-.38-.3-.36-.31-.34-.33-.33-.35-.31-.36-.29-.38-.27-.4-.26-.41-.24-.43-.22-.44-.2-.45-.18-.47-.16-.48-.15-.5-.12-.51-.1-.52-.08-.53-.06-.54-.03-.56-.01zm0 0a.96.96 0 0 1 0-1.92v1.93zm-20.63-1.93h20.63v1.93h-20.63v-1.93zm0 1.93a.96.96 0 0 1 0-1.92v1.93zm-10.25 10.25H91l.01-.64.05-.63.07-.62.1-.61.13-.6.16-.58.18-.57.21-.55.24-.54.26-.53.29-.51.31-.5.33-.48.35-.46.38-.44.4-.42.42-.4.44-.38.46-.35.48-.33.5-.31.51-.29.53-.26.54-.24.55-.21.57-.18.58-.16.6-.13.61-.1.62-.07.63-.05.64-.01v1.93l-.55.01-.54.04-.53.06-.52.09-.51.11-.49.13-.48.16-.47.18-.46.2-.44.22-.43.24-.41.26-.4.28-.38.3-.37.31-.35.33-.33.35-.31.37-.3.38-.28.4-.26.41-.24.43-.22.44-.2.46-.18.47-.16.48-.13.49-.11.51-.09.52-.06.53-.04.54-.01.55zm0 0a.96.96 0 0 1-1.92 0h1.93z" class="fil0"/><path id="_1_2" d="M99.16 191.47c0-1.08 1.61-2.69 2.69-2.69h22.87c2.09 0 3.14 1.05 3.14 3.14v31.39h-28.7v-31.83zm-7.17 1.34v33.63c0 2.22 1.82 4.04 4.04 4.04H131c2.17 0 4.04-1.27 4.04-3.59v-34.52c0-6.43-4.79-10.76-11.21-10.76H103.2c-6.41 0-11.21 4.8-11.21 11.21z" class="fil1"/><path d="M179.86 11.61v1.93h-.24l-.24-.02-.22-.02-.23-.03-.23-.04-.23-.05-.22-.06-.22-.06-.22-.07-.22-.09-.21-.09-.2-.1-.2-.11-.19-.13-.18-.13-.18-.14-.17-.15-.17-.16-.16-.17-.15-.18-.14-.19-.13-.19-.12-.21-.11-.21-.1-.22-.08-.23-.07-.23-.06-.24-.05-.25-.03-.25-.02-.26-.01-.26h1.93l.01.17.01.15.02.15.03.15.03.14.04.13.05.13.05.12.06.11.06.11.07.1.07.1.08.1.09.09.09.09.1.09.1.08.11.07.11.07.12.06.13.06.13.06.13.05.14.05.15.04.15.04.15.03.15.03.15.02.17.02.16.01h.17zm0 0a.96.96 0 0 1 0 1.92V11.6zm31.38 1.93h-31.38v-1.93h31.38v1.93zm0-1.93a.96.96 0 0 1 0 1.92V11.6zm.9-5.25V4.43l.5.03.49.07.47.12.44.17.41.2.39.25.35.28.31.3.29.33.25.35.22.38.18.39.14.4.11.41.07.42.03.42-.01.43-.06.43-.1.42-.14.42-.19.41-.24.38-.29.37-.34.34-.38.3-.42.27-.46.24-.5.19-.54.16-.58.11-.62.07-.66.02v-1.93l.52-.02.47-.05.42-.08.38-.11.33-.13.29-.15.25-.16.22-.18.18-.18.15-.19.13-.21.1-.21.07-.22.06-.24.03-.23.01-.24-.02-.25-.04-.25-.06-.24-.09-.24-.1-.23-.13-.22-.15-.21-.16-.19-.19-.18-.2-.16-.21-.14-.24-.12-.25-.1-.27-.07-.29-.05-.31-.02zm0 0a.96.96 0 0 1 0-1.92v1.93zm-32.73-1.93h32.73v1.93h-32.73V4.43zm0 1.93a.96.96 0 0 1 0-1.92v1.93zm-2.62 2.62h-1.93l.01-.24.01-.24.03-.23.03-.23.05-.23.06-.22.07-.22.07-.2.08-.21.1-.2.1-.19.11-.19.12-.18.14-.18.14-.17.15-.15.15-.15.17-.15.17-.13.17-.12.19-.11.2-.11.2-.09.2-.08.21-.07.22-.07.22-.05.23-.05.23-.03.23-.03.24-.01.24-.01v1.93l-.16.01-.16.01-.15.02-.15.02-.13.03-.13.03-.13.04-.13.04-.12.05-.12.05-.1.05-.1.06-.1.07-.09.07-.08.07-.09.08-.08.09-.07.08-.07.09-.07.1-.06.1-.06.11-.05.11-.05.11-.05.13-.04.13-.03.13-.03.14-.02.14-.02.15-.01.16-.01.16zm0 0a.96.96 0 0 1-1.92 0h1.93z" class="fil0"/><path id="_1_3" d="M175.83 8.98c0 2.31 1.87 3.58 4.04 3.58h31.38c6.52 0 5.37-7.17.9-7.17h-32.73c-2.17 0-3.59 1.42-3.59 3.59z" class="fil1"/><path d="M8.14 182.88v1.93l-.21-.01-.22-.03-.21-.05-.19-.05-.2-.07-.18-.09-.18-.09-.17-.11-.16-.11-.16-.12-.15-.13-.14-.13-.14-.14-.13-.15-.12-.15-.11-.16-.11-.16-.11-.17-.1-.17-.09-.17-.09-.18-.08-.18-.08-.19-.06-.18-.06-.19-.05-.19-.05-.19-.04-.2-.03-.19-.02-.2-.01-.2v-.2h1.93v.11l.01.11.01.12.02.13.02.12.03.12.03.12.04.12.04.13.05.11.06.12.05.11.06.11.06.11.06.1.07.1.07.09.07.1.07.08.07.07.08.08.07.06.07.05.08.06.07.04.07.04.07.03.06.02.07.02.06.01.05.01h.06zm0 0a.96.96 0 0 1 0 1.92v-1.93zm28.7 1.93H8.14v-1.93h28.7v1.93zm0-1.93a.96.96 0 0 1 0 1.92v-1.93zm0-4.8v-1.93l.53.02.5.07.48.11.45.16.42.2.38.23.34.27.31.3.27.33.23.35.19.37.15.38.12.39.07.4.04.39.01.4-.03.4-.06.39-.1.39-.13.38-.17.37-.2.35-.24.34-.27.32-.31.29-.34.26-.37.23-.4.19-.43.16-.46.11-.48.07-.5.02v-1.93l.32-.02.29-.04.26-.07.24-.09.22-.11.2-.13.18-.14.16-.16.15-.17.13-.19.11-.2.1-.21.07-.21.06-.23.04-.23.02-.23v-.23l-.02-.23-.04-.22-.06-.21-.08-.21-.1-.19-.12-.18-.14-.17-.15-.15-.18-.14-.2-.13-.23-.11-.26-.09-.29-.07-.32-.04-.36-.02zm0 0a.96.96 0 0 1 0-1.92v1.93zm-28.7-1.93h28.7v1.93H8.14v-1.93zm0 1.93a.96.96 0 0 1 0-1.92v1.93zm-1.73 2.18H4.48l.01-.18.02-.18.03-.18.04-.17.05-.17.05-.17.07-.18.07-.17.07-.16.08-.17.09-.16.09-.16.1-.16.1-.15.11-.15.12-.15.12-.14.12-.13.13-.13.14-.13.14-.12.14-.12.15-.11.15-.1.17-.1.17-.09.17-.07.19-.07.19-.05.19-.04.2-.03.21-.01v1.93h-.03l-.04.01-.05.01-.05.02-.05.02-.07.03-.07.04-.07.04-.08.05-.08.06-.08.06-.08.07-.07.07-.08.08-.08.09-.08.09-.07.09-.07.1-.07.1-.06.09-.06.1-.06.1-.05.1-.05.1-.04.1-.03.09-.03.09-.02.09-.02.09-.01.07-.01.07v.06zm0 0a.96.96 0 0 1-1.92 0h1.93z" class="fil0"/><path id="_1_4" d="M5.45 180.26c0 1.64 1.23 3.59 2.69 3.59h28.7c4.51 0 4.91-6.73 0-6.73H8.14c-1.27 0-2.69 1.87-2.69 3.14z" class="fil1"/><path d="M196.45 111.59v1.93l-.24-.01-.24-.01-.25-.03-.23-.03-.24-.05-.22-.06-.22-.06-.23-.08-.22-.08-.21-.09-.21-.1-.21-.11-.19-.12-.19-.12-.19-.14-.17-.14-.17-.15-.17-.17-.15-.17-.15-.18-.14-.19-.13-.19-.12-.2-.11-.21-.09-.21-.09-.22-.07-.23-.06-.23-.05-.23-.03-.24-.02-.25-.01-.25h1.93l.01.14.01.14.02.13.03.13.03.13.04.12.04.11.06.12.06.12.06.11.07.11.07.11.08.1.09.1.09.09.1.09.11.09.1.08.12.08.12.07.12.07.13.06.14.06.14.06.13.05.15.04.15.04.14.03.15.02.15.02.16.01.17.01zm0 0a.96.96 0 0 1 0 1.92v-1.93zm23.77 1.93h-23.77v-1.93h23.77v1.93zm0-1.93a.96.96 0 0 1 0 1.92v-1.93zm-.9-5.25v-1.93l.66.02.62.07.58.11.54.16.5.19.46.24.42.27.38.3.34.34.29.37.24.39.19.4.15.42.1.43.06.43.01.43-.03.43-.07.42-.11.41-.14.4-.18.39-.21.37-.25.35-.29.33-.32.31-.35.27-.38.25-.41.21-.44.17-.47.12-.49.07-.5.03v-1.93l.31-.02.29-.05.27-.07.25-.1.23-.11.21-.14.21-.16.18-.17.16-.19.15-.21.13-.22.1-.23.09-.24.06-.25.04-.24.02-.25-.01-.24-.03-.24-.06-.23-.08-.22-.1-.22-.12-.21-.15-.19-.18-.18-.22-.18-.25-.16-.29-.15-.33-.13-.38-.11-.42-.08-.47-.05-.52-.02zm0 0a.96.96 0 0 1 0-1.92v1.93zm-22.87-1.93h22.87v1.93h-22.87v-1.93zm0 1.93a.96.96 0 0 1 0-1.92v1.93zm-3.07 2.62h-1.93l.01-.23.03-.23.04-.22.05-.22.07-.22.08-.22.09-.21.1-.19.11-.2.12-.19.13-.18.14-.18.14-.18.15-.17.17-.16.17-.16.18-.15.18-.14.18-.13.2-.13.2-.12.2-.11.21-.1.21-.09.22-.09.23-.08.23-.06.22-.05.23-.05.24-.03.23-.02.24-.01v1.93l-.13.01-.14.01-.13.02-.14.03-.14.03-.14.04-.13.04-.14.06-.15.06-.13.07-.13.07-.13.08-.12.08-.13.1-.13.1-.11.09-.11.1-.1.1-.1.11-.1.11-.09.11-.08.11-.07.11-.06.11-.06.12-.05.11-.04.1-.03.11-.02.1-.02.11-.01.1v.1zm0 0a.96.96 0 0 1-1.92 0h1.93z" class="fil0"/><path id="_1_5" d="M192.41 108.97c0 2.1 1.86 3.58 4.04 3.58h23.77c4.47 0 5.62-7.17-.9-7.17h-22.87c-2 0-4.04 1.82-4.04 3.59z" class="fil1"/><path d="M197.35 97.24v1.93h-.27l-.27-.02-.26-.02-.27-.03-.26-.04-.26-.05-.26-.05-.26-.07-.25-.07-.24-.08-.24-.09-.23-.1-.24-.11-.23-.12-.21-.13-.21-.13-.21-.15-.2-.15-.19-.16-.18-.17-.17-.19-.16-.19-.15-.21-.14-.21-.12-.22-.11-.23-.1-.25-.08-.25-.06-.25-.05-.27-.02-.27-.01-.27h1.93l.01.15.01.14.02.13.03.13.04.13.05.11.06.12.06.11.07.11.08.11.09.11.1.11.1.1.12.1.12.1.13.09.14.09.15.09.15.08.16.07.17.07.18.07.18.06.18.05.19.05.19.04.2.03.2.03.2.02.21.02.2.01h.2zm0 0a.96.96 0 0 1 0 1.92v-1.93zm21.52 1.93h-21.52v-1.93h21.52v1.93zm0-1.93a.96.96 0 0 1 0 1.92v-1.93zm1.35-5.25v-1.93l.52.03.5.07.48.12.45.17.42.2.39.25.35.28.32.31.29.34.25.36.21.38.17.4.13.41.09.42.05.43.01.43-.03.43-.08.43-.13.43-.18.42-.22.4-.27.38-.31.36-.37.33-.4.3-.45.27-.49.23-.53.19-.57.15-.61.11-.65.06-.69.02v-1.93l.56-.02.51-.05.46-.08.42-.11.37-.13.32-.15.28-.17.25-.18.21-.19.18-.21.15-.21.12-.22.1-.22.07-.23.05-.23.02-.24v-.24l-.03-.24-.05-.23-.07-.23-.1-.22-.12-.22-.14-.21-.16-.18-.18-.17-.2-.16-.22-.14-.24-.12-.26-.1-.28-.07-.31-.05-.33-.02zm0 0a.96.96 0 0 1 0-1.92V92zm-24.21-1.93h24.21v1.93h-24.21v-1.93zm0 1.93a.96.96 0 0 1 0-1.92V92zm-2.62 2.62h-1.93l.01-.21.02-.21.03-.22.04-.21.05-.21.06-.2.06-.2.08-.21.09-.19.09-.19.1-.19.12-.19.12-.17.13-.17.14-.17.14-.17.15-.15.16-.15.18-.15.17-.13.18-.13.19-.12.2-.11.21-.1.21-.09.22-.08.23-.07.23-.05.23-.05.25-.03.24-.02.25-.01v1.93l-.14.01-.14.01-.13.02-.14.03-.14.03-.12.03-.13.05-.13.05-.11.05-.12.07-.11.06-.1.07-.11.08-.09.07-.09.09-.09.09-.09.1-.08.1-.08.1-.07.11-.06.1-.06.11-.06.12-.05.11-.04.11-.04.13-.03.12-.03.11-.02.12-.02.11-.01.12-.01.12zm0 0a.96.96 0 0 1-1.92 0h1.93z" class="fil0"/><path id="_1_6" d="M192.41 94.62c0 2.27 2.43 3.59 4.93 3.59h21.52c6.89 0 6.02-7.17 1.35-7.17H196c-2.12 0-3.59 1.82-3.59 3.58z" class="fil1"/><path d="M196 82.45v1.93l-.26-.01-.26-.02-.25-.03-.25-.04-.25-.05-.23-.06-.23-.08-.22-.09-.22-.1-.21-.11-.2-.12-.19-.13-.18-.14-.17-.15-.17-.16-.15-.17-.14-.18-.13-.18-.12-.2-.11-.2-.1-.2-.09-.21-.08-.22-.07-.23-.06-.22-.05-.23-.05-.23-.04-.24-.02-.24-.02-.24-.01-.25v-.25h1.93v.19l.01.18.02.19.02.17.03.16.03.16.04.15.04.15.05.14.05.14.05.13.06.12.06.11.06.1.07.1.07.09.08.09.08.08.09.07.09.07.1.07.11.06.1.06.11.05.13.05.13.04.14.04.14.03.15.02.16.02.17.01.18.01zm0 0a.96.96 0 0 1 0 1.92v-1.93zm25.11 1.93H196v-1.93h25.11v1.93zm0-1.93a.96.96 0 0 1 0 1.92v-1.93zm0-4.8v-1.93l.44.02.42.08.4.13.37.17.34.22.3.25.27.27.24.31.21.32.18.34.14.35.11.36.09.37.06.38.04.37.01.38-.01.38-.04.37-.06.38-.09.37-.11.36-.14.35-.18.34-.21.32-.24.31-.27.27-.3.25-.34.22-.37.17-.4.13-.42.08-.44.02v-1.93l.21-.01.18-.03.17-.05.15-.07.14-.09.13-.11.13-.13.12-.15.11-.17.1-.19.09-.2.07-.22.06-.23.04-.24.03-.25.01-.25-.01-.25-.03-.25-.04-.24-.06-.23-.07-.22-.09-.2-.1-.19-.11-.17-.12-.15-.13-.13-.13-.11-.14-.09-.15-.07-.17-.05-.18-.03-.21-.01zm0 0a.96.96 0 0 1 0-1.92v1.93zM196 75.72h25.11v1.93H196v-1.93zm0 1.93a.96.96 0 0 1 0-1.92v1.93zm-2.62 1.73h-1.93l.01-.17.02-.14.03-.11.04-.13.05-.13.05-.12.06-.13.07-.13.07-.13.08-.14.1-.15.09-.13.1-.15.12-.15.11-.14.13-.14.14-.14.15-.14.16-.14.17-.13.18-.13.19-.12.2-.11.21-.11.22-.1.22-.09.24-.08.25-.06.26-.05.26-.04.28-.02.28-.01v1.93l-.18.01-.16.01-.16.02-.16.03-.14.04-.14.05-.14.05-.13.05-.12.06-.12.07-.11.07-.11.08-.1.08-.09.08-.09.09-.09.09-.07.09-.08.1-.07.08-.06.09-.07.09-.05.07-.04.08-.05.08-.03.07-.03.06-.02.06-.01.03-.01.02-.01.02v-.02l.01-.07zm0 0a.96.96 0 0 1-1.92 0h1.93z" class="fil0"/><path id="_1_7" d="M192.41 79.38c0 2.38 1.16 4.04 3.59 4.04h25.11c3.57 0 3.57-6.73 0-6.73H196c-2.5 0-3.59 2.21-3.59 2.69z" class="fil1"/></g></g></svg>