<?xml version="1.0" encoding="UTF-8"?>
<!DOCTYPE svg PUBLIC "-//W3C//DTD SVG 1.1//EN" "http://www.w3.org/Graphics/SVG/1.1/DTD/svg11.dtd">
<!-- Creator: CorelDRAW -->
<svg xmlns="http://www.w3.org/2000/svg" xml:space="preserve" width="35.0224mm" height="33.5897mm" version="1.1" style="shape-rendering:geometricPrecision; text-rendering:geometricPrecision; image-rendering:optimizeQuality; fill-rule:evenodd; clip-rule:evenodd"
viewBox="0 0 3500 3356.82"
 xmlns:xlink="http://www.w3.org/1999/xlink"
 xmlns:xodm="http://www.corel.com/coreldraw/odm/2003">
 <defs>
  <style type="text/css">
   <![CDATA[
    .str0 {stroke:#031138;stroke-width:7.62;stroke-miterlimit:22.9256}
    .str1 {stroke:#282D42;stroke-width:15.26;stroke-miterlimit:10}
    .str2 {stroke:#031138;stroke-width:19.93;stroke-linecap:round;stroke-linejoin:round;stroke-miterlimit:22.9256}
    .str6 {stroke:#031138;stroke-width:19.93;stroke-linecap:round;stroke-linejoin:round;stroke-miterlimit:22.9256}
    .str7 {stroke:#031138;stroke-width:19.93;stroke-linecap:round;stroke-linejoin:round;stroke-miterlimit:22.9256}
    .str8 {stroke:#031138;stroke-width:19.93;stroke-linecap:round;stroke-linejoin:round;stroke-miterlimit:22.9256}
    .str3 {stroke:#031138;stroke-width:19.93;stroke-linecap:round;stroke-linejoin:round;stroke-miterlimit:22.9256}
    .str4 {stroke:#031138;stroke-width:19.93;stroke-linecap:round;stroke-linejoin:round;stroke-miterlimit:22.9256}
    .str5 {stroke:#031138;stroke-width:19.93;stroke-linecap:round;stroke-linejoin:round;stroke-miterlimit:22.9256}
    .fil0 {fill:none}
    .fil2 {fill:none;fill-rule:nonzero}
    .fil8 {fill:#031138}
    .fil1 {fill:white;fill-rule:nonzero}
    .fil7 {fill:#E52B2B;fill-rule:nonzero}
    .fil6 {fill:#F4F5F5;fill-rule:nonzero}
    .fil5 {fill:#282D42;fill-rule:nonzero}
    .fil4 {fill:#252734;fill-rule:nonzero}
    .fil3 {fill:#031138;fill-rule:nonzero}
   ]]>
  </style>
 </defs>
 <g id="Слой_x0020_1">
  <metadata id="CorelCorpID_0Corel-Layer"/>
  <path class="fil0 str0" d="M104.76 3.81l3290.48 0c55.53,0 100.96,45.42 100.96,100.95l0 3096.83c0,83.3 -68.14,151.43 -151.43,151.43l-3240 0c-55.53,0 -100.96,-45.42 -100.96,-100.95l0 -3147.32c0,-55.52 45.42,-100.95 100.96,-100.95z"/>
  <g id="_105553255243712">
   <polygon class="fil1" points="887.15,2154.79 2617.39,2154.79 2617.39,424.57 887.15,424.57 "/>
   <polygon class="fil2 str1" points="887.15,2154.79 2617.39,2154.79 2617.39,424.57 887.15,424.57 "/>
   <path class="fil3" d="M2047.35 773.39c0,-25.36 -0.78,-50.76 0.28,-76.07 0.65,-15.71 -5.7,-20.83 -20.55,-20.73 -49.86,0.35 -99.74,0.1 -149.61,-0.1 -14.41,-0.05 -21.45,5.4 -21.25,21.1 0.63,49.87 0.44,99.75 0.16,149.61 -0.09,15.66 6.74,23.84 22.46,23.85 49.03,0.05 98.06,0.01 147.09,-0.14 15.81,-0.04 22.28,-7.92 21.68,-23.99 -0.89,-24.48 -0.23,-49.02 -0.25,-73.53zm-187.26 181.36c0,206.78 0,412.11 0,618.53 62.41,0 123.69,0 185.86,0 0,-206.73 0,-412.04 0,-618.53 -61.92,0 -122.65,0 -185.86,0zm362.84 279.44c0,47.11 0,91.57 0,136 19.03,0 35.57,0 54.56,0 0,-45.76 0,-90.18 0,-134.64 22.95,-3.88 44.21,2.02 63.61,-3.61 0,-190.7 0,-379.94 0,-571.16 -22.45,0 -43.26,0 -66.35,0 0,-24.37 0,-46.84 0,-70.3 -18.73,-1.27 -35.05,-2.64 -53.59,1.27 0,23.65 0,46.04 0,70.13 -21.58,0 -40.76,0 -60.01,0 0,191.67 0,381.49 0,572.31 20.44,0 38.92,0 61.78,0zm-662.13 -435.43c0,213.8 0,425.61 0,639.61 21.95,0 41.86,0 64.29,0 0,32.09 0,62.02 0,91.81 20.14,0 37.57,0 57.09,0 0,-31.6 0,-61.76 0,-91.63 22.54,-4.01 43.85,2.6 62.67,-3.7 0,-213.01 0,-424.24 0,-637.27 -22.05,0 -42.04,0 -64.3,0 0,-41.13 0,-80.48 0,-120.29 -19.73,0 -37.06,0 -56.8,0 0,40.71 0,80.14 0,121.47 -22.44,0 -42.47,0 -62.95,0zm-225.75 234.12c-3.45,-6.04 -9.24,-6.68 -15.32,-6.68 -51.5,0.01 -102.99,0 -154.5,0 -6.86,0 -13.71,-0.01 -17.29,7.53 -0.06,274.95 -0.13,549.9 -0.1,824.85 0,7.35 -2.27,15.43 4.4,21.52 3.34,4.99 6.83,5.31 10.46,0.32 9.25,-0.46 18.52,-1.32 27.78,-1.33 176.11,-0.07 352.21,0 528.32,-0.18 8.99,-0.01 18.63,2.89 26.59,-2.93 0,-56.01 0,-111.53 0,-169.83 -137.24,0 -272.98,0 -409.36,0 0,-135.72 0.13,-268.64 -0.04,-401.54 -0.11,-90.58 -0.62,-181.15 -0.95,-271.73zm1211.97 -545.73c0.52,8.39 1.51,16.8 1.51,25.19 0.06,511.28 0.05,1022.56 -0.03,1533.84 0,9.25 -0.97,18.5 -1.49,27.75 -520.55,0.05 -1041.1,0.11 -1561.66,0.17 -7.62,0 -15.77,-1.61 -22.71,0.59 -7.75,2.45 0.95,5.61 1.5,8.64 -7.95,1.91 -15.61,3.36 -15.36,-8.92 0.09,-4.23 0.02,-8.46 0.02,-12.7 0,-506.31 -0.01,-1012.62 0.04,-1518.94 0,-6.75 0.71,-13.48 1.09,-20.22 5.56,-1.46 9.51,-5.07 8.78,-10.76 -3.06,-23.78 10.82,-25.06 29.33,-25.04 519.66,0.37 1039.32,0.35 1558.97,0.4z"/>
   <path class="fil4" d="M2547.03 487.15c-519.66,-0.05 -1039.32,-0.03 -1558.97,-0.4 -18.51,-0.02 -32.39,1.26 -29.33,25.04 0.73,5.7 -3.23,9.3 -8.78,10.76 -0.03,-12.93 -0.07,-25.86 -0.11,-38.79 2.08,-1.91 4.15,-3.82 6.23,-5.73 41.49,-0.31 82.99,-0.88 124.48,-0.89 477.11,-0.05 954.22,-0.03 1431.33,0.04 8.4,0 16.82,0.78 25.25,1.21 3.2,1.16 6.41,2.31 9.6,3.46 0.1,1.76 0.19,3.52 0.3,5.29z"/>
   <path class="fil4" d="M964.15 2083.34c-0.55,-3.04 -9.24,-6.2 -1.5,-8.64 6.94,-2.2 15.09,-0.59 22.71,-0.59 520.56,-0.06 1041.11,-0.12 1561.66,-0.17 0.7,4.34 1.05,8.96 -4.59,9.78 -5.83,0.83 -11.8,0.74 -17.71,0.74 -514.29,0.01 -1028.59,0 -1542.88,-0.06 -5.9,0 -11.79,-0.7 -17.69,-1.06z"/>
   <path class="fil5" d="M949.83 483.77c-1.53,-5.84 0.56,-7.73 6.23,-5.73 -2.08,1.91 -4.15,3.82 -6.23,5.73z"/>
   <path class="fil5" d="M2546.73 481.86c-3.2,-1.15 -6.41,-2.3 -9.6,-3.46 4.09,-1.34 8.58,-3.77 9.6,3.46z"/>
   <path class="fil6" d="M1152.24 1880.1c-6.67,-6.09 -4.4,-14.17 -4.4,-21.52 -0.03,-274.95 0.04,-549.9 0.1,-824.85 62.37,-0.28 124.74,-0.57 187.11,-0.85 0.33,90.57 0.84,181.14 0.95,271.73 0.17,132.9 0.04,265.82 0.04,401.54 136.38,0 272.12,0 409.36,0 0,58.3 0,113.82 0,169.83 -7.96,5.82 -17.6,2.92 -26.59,2.93 -176.11,0.18 -352.21,0.11 -528.32,0.18 -9.26,0.01 -18.53,0.87 -27.78,1.33 -3.5,-0.11 -6.98,-0.21 -10.46,-0.32z"/>
   <path class="fil6" d="M1560.8 798.76c20.48,0 40.51,0 62.95,0 0,-41.33 0,-80.76 0,-121.47 19.75,0 37.08,0 56.8,0 0,39.81 0,79.16 0,120.29 22.26,0 42.25,0 64.3,0 0,213.03 0,424.26 0,637.27 -18.82,6.3 -40.13,-0.31 -62.67,3.7 0,29.87 0,60.03 0,91.63 -19.53,0 -36.96,0 -57.09,0 0,-29.79 0,-59.72 0,-91.81 -22.43,0 -42.34,0 -64.29,0 0,-214 0,-425.81 0,-639.61z"/>
   <path class="fil6" d="M2222.93 1234.19c-22.87,0 -41.34,0 -61.78,0 0,-190.83 0,-380.65 0,-572.31 19.25,0 38.44,0 60.01,0 0,-24.08 0,-46.47 0,-70.13 18.54,-3.91 34.86,-2.54 53.59,-1.27 0,23.45 0,45.92 0,70.3 23.09,0 43.9,0 66.35,0 0,191.23 0,380.47 0,571.16 -19.4,5.63 -40.66,-0.27 -63.61,3.61 0,44.46 0,88.88 0,134.64 -18.99,0 -35.53,0 -54.56,0 0,-44.43 0,-88.89 0,-136z"/>
   <path class="fil6" d="M1860.09 954.75c63.21,0 123.94,0 185.86,0 0,206.5 0,411.81 0,618.53 -62.17,0 -123.45,0 -185.86,0 0,-206.43 0,-411.76 0,-618.53z"/>
   <path class="fil7" d="M2047.36 773.39c0.01,24.51 -0.65,49.05 0.24,73.53 0.6,16.07 -5.87,23.95 -21.68,23.99 -49.03,0.15 -98.06,0.19 -147.09,0.14 -15.72,-0.01 -22.55,-8.19 -22.46,-23.85 0.28,-49.87 0.47,-99.75 -0.16,-149.61 -0.2,-15.7 6.84,-21.15 21.25,-21.1 49.88,0.2 99.76,0.45 149.61,0.1 14.85,-0.1 21.2,5.02 20.55,20.73 -1.06,25.31 -0.28,50.71 -0.27,76.07z"/>
   <path class="fil4" d="M1335.06 1032.88c-62.37,0.28 -124.74,0.57 -187.11,0.85 3.58,-7.54 10.43,-7.53 17.29,-7.53 51.51,0 103,0.01 154.5,0 6.08,0 11.87,0.64 15.32,6.68z"/>
   <path class="fil4" d="M1152.24 1880.1c3.49,0.11 6.97,0.21 10.46,0.32 -3.64,4.99 -7.13,4.67 -10.46,-0.32z"/>
  </g>
  <g id="_105553255247552">
   <g>
    <path class="fil2 str2" d="M173.76 2378.21l67.31 0 0 305.5 189.52 0 0 56.96 -256.83 0 0 -362.47zm310.16 0l67.32 0 0 362.47 -67.32 0 0 -362.47zm238.71 56.96l-120.12 0 0 -56.96 307.56 0 0 56.96 -120.12 0 0 305.5 -67.32 0 0 -305.5zm728.03 -56.96l67.31 0 0 362.47 -67.31 0 0 -362.47zm487.25 0l0 362.47 -55.4 0 -199.87 -245.44 0 245.44 -66.8 0 0 -362.47 55.4 0 199.87 245.44 0 -245.44 66.8 0zm426.15 0l-157.93 362.47 -66.28 0 -158.45 -362.47 73.01 0 120.64 279.61 121.68 -279.61 67.32 0zm497.6 367.64c-27.96,0 -54.96,-3.97 -81.04,-11.91 -26.06,-7.93 -46.68,-18.47 -61.87,-31.58l23.3 -52.31c14.84,11.74 33.06,21.32 54.64,28.74 21.58,7.43 43.23,11.13 64.98,11.13 26.92,0 47.04,-4.32 60.32,-12.94 13.29,-8.63 19.94,-20.03 19.94,-34.18 0,-10.35 -3.71,-18.9 -11.13,-25.63 -7.42,-6.74 -16.83,-11.99 -28.22,-15.79 -11.39,-3.8 -26.92,-8.11 -46.6,-12.94 -27.61,-6.57 -49.97,-13.12 -67.05,-19.68 -17.09,-6.57 -31.76,-16.83 -44.02,-30.81 -12.25,-13.98 -18.38,-32.88 -18.38,-56.7 0,-20.02 5.44,-38.23 16.31,-54.63 10.87,-16.4 27.27,-29.42 49.2,-39.09 21.92,-9.66 48.76,-14.5 80.51,-14.5 22.1,0 43.84,2.77 65.24,8.28 21.41,5.53 39.87,13.46 55.41,23.82l-21.23 52.3c-15.89,-9.32 -32.45,-16.4 -49.72,-21.23 -17.26,-4.84 -34,-7.26 -50.22,-7.26 -26.58,0 -46.35,4.49 -59.29,13.46 -12.94,8.97 -19.42,20.89 -19.42,35.74 0,10.35 3.71,18.81 11.13,25.37 7.42,6.56 16.83,11.73 28.22,15.53 11.39,3.79 26.92,8.1 46.6,12.94 26.92,6.22 49.02,12.69 66.28,19.42 17.26,6.74 32.02,17 44.27,30.81 12.25,13.81 18.38,32.45 18.38,55.92 0,20.02 -5.44,38.15 -16.31,54.37 -10.87,16.23 -27.35,29.17 -49.45,38.84 -22.1,9.66 -49.02,14.5 -80.78,14.5zm281.68 -310.68l-120.12 0 0 -56.96 307.57 0 0 56.96 -120.13 0 0 305.5 -67.32 0 0 -305.5z"/>
    <path id="_1" class="fil3" d="M173.76 2378.21l67.31 0 0 305.5 189.52 0 0 56.96 -256.83 0 0 -362.47zm310.16 0l67.32 0 0 362.47 -67.32 0 0 -362.47zm238.71 56.96l-120.12 0 0 -56.96 307.56 0 0 56.96 -120.12 0 0 305.5 -67.32 0 0 -305.5zm728.03 -56.96l67.31 0 0 362.47 -67.31 0 0 -362.47zm487.25 0l0 362.47 -55.4 0 -199.87 -245.44 0 245.44 -66.8 0 0 -362.47 55.4 0 199.87 245.44 0 -245.44 66.8 0zm426.15 0l-157.93 362.47 -66.28 0 -158.45 -362.47 73.01 0 120.64 279.61 121.68 -279.61 67.32 0zm497.6 367.64c-27.96,0 -54.96,-3.97 -81.04,-11.91 -26.06,-7.93 -46.68,-18.47 -61.87,-31.58l23.3 -52.31c14.84,11.74 33.06,21.32 54.64,28.74 21.58,7.43 43.23,11.13 64.98,11.13 26.92,0 47.04,-4.32 60.32,-12.94 13.29,-8.63 19.94,-20.03 19.94,-34.18 0,-10.35 -3.71,-18.9 -11.13,-25.63 -7.42,-6.74 -16.83,-11.99 -28.22,-15.79 -11.39,-3.8 -26.92,-8.11 -46.6,-12.94 -27.61,-6.57 -49.97,-13.12 -67.05,-19.68 -17.09,-6.57 -31.76,-16.83 -44.02,-30.81 -12.25,-13.98 -18.38,-32.88 -18.38,-56.7 0,-20.02 5.44,-38.23 16.31,-54.63 10.87,-16.4 27.27,-29.42 49.2,-39.09 21.92,-9.66 48.76,-14.5 80.51,-14.5 22.1,0 43.84,2.77 65.24,8.28 21.41,5.53 39.87,13.46 55.41,23.82l-21.23 52.3c-15.89,-9.32 -32.45,-16.4 -49.72,-21.23 -17.26,-4.84 -34,-7.26 -50.22,-7.26 -26.58,0 -46.35,4.49 -59.29,13.46 -12.94,8.97 -19.42,20.89 -19.42,35.74 0,10.35 3.71,18.81 11.13,25.37 7.42,6.56 16.83,11.73 28.22,15.53 11.39,3.79 26.92,8.1 46.6,12.94 26.92,6.22 49.02,12.69 66.28,19.42 17.26,6.74 32.02,17 44.27,30.81 12.25,13.81 18.38,32.45 18.38,55.92 0,20.02 -5.44,38.15 -16.31,54.37 -10.87,16.23 -27.35,29.17 -49.45,38.84 -22.1,9.66 -49.02,14.5 -80.78,14.5zm281.68 -310.68l-120.12 0 0 -56.96 307.57 0 0 56.96 -120.13 0 0 305.5 -67.32 0 0 -305.5z"/>
   </g>
   <g>
    <g>
     <polygon class="fil0 str3" points="1225.42,2378.21 960.83,2378.21 960.83,2434.57 1225.42,2434.57 "/>
     <polygon id="_1_0" class="fil8" points="1225.42,2378.21 960.83,2378.21 960.83,2434.57 1225.42,2434.57 "/>
    </g>
    <g>
     <polygon class="fil0 str4" points="1225.42,2529.12 960.83,2529.12 960.83,2585.48 1225.42,2585.48 "/>
     <polygon id="_1_1" class="fil8" points="1225.42,2529.12 960.83,2529.12 960.83,2585.48 1225.42,2585.48 "/>
    </g>
    <g>
     <polygon class="fil0 str5" points="1225.42,2684.19 960.83,2684.19 960.83,2740.55 1225.42,2740.55 "/>
     <polygon id="_1_2" class="fil8" points="1225.42,2684.19 960.83,2684.19 960.83,2740.55 1225.42,2740.55 "/>
    </g>
   </g>
   <g>
    <g>
     <polygon class="fil0 str6" points="2667.92,2378.21 2403.32,2378.21 2403.32,2434.57 2667.92,2434.57 "/>
     <polygon id="_1_3" class="fil8" points="2667.92,2378.21 2403.32,2378.21 2403.32,2434.57 2667.92,2434.57 "/>
    </g>
    <g>
     <polygon class="fil0 str7" points="2667.92,2529.12 2403.32,2529.12 2403.32,2585.48 2667.92,2585.48 "/>
     <polygon id="_1_4" class="fil8" points="2667.92,2529.12 2403.32,2529.12 2403.32,2585.48 2667.92,2585.48 "/>
    </g>
    <g>
     <polygon class="fil0 str8" points="2667.92,2684.19 2403.32,2684.19 2403.32,2740.55 2667.92,2740.55 "/>
     <polygon id="_1_5" class="fil8" points="2667.92,2684.19 2403.32,2684.19 2403.32,2740.55 2667.92,2740.55 "/>
    </g>
   </g>
  </g>
 </g>
</svg>
