<?xml version="1.0" encoding="UTF-8"?>
<!DOCTYPE svg PUBLIC "-//W3C//DTD SVG 1.1//EN" "http://www.w3.org/Graphics/SVG/1.1/DTD/svg11.dtd">
<!-- Creator: CorelDRAW -->
<svg xmlns="http://www.w3.org/2000/svg" xml:space="preserve" width="6.043mm" height="5.9267mm" version="1.1" style="shape-rendering:geometricPrecision; text-rendering:geometricPrecision; image-rendering:optimizeQuality; fill-rule:evenodd; clip-rule:evenodd"
viewBox="0 0 33.69 33.04"
 xmlns:xlink="http://www.w3.org/1999/xlink"
 xmlns:xodm="http://www.corel.com/coreldraw/odm/2003">
 <defs>
  <style type="text/css">
   <![CDATA[
    .fil0 {fill:#031138}
   ]]>
  </style>
 </defs>
 <g id="Слой_x0020_1">
  <metadata id="CorelCorpID_0Corel-Layer"/>
  <g id="_105553184396416">
   <path class="fil0" d="M0.99 29.56l0 -0.33 11.78 0c0.06,0.25 0.16,0.56 0.29,0.76 0.15,0.23 0.31,0.43 0.53,0.59 0.42,0.33 0.91,0.55 1.62,0.55l3.29 0c1.27,0 2.17,-0.76 2.43,-1.91l11.78 0c0,0.91 -0.04,1.37 -0.58,2.05 -0.28,0.35 -0.97,0.71 -1.59,0.71l-27.37 0c-1.27,0 -2.17,-1.02 -2.17,-2.43zm32.7 -0.86l0 1.23c-0.02,0.48 -0.1,0.94 -0.33,1.34 -0.66,1.16 -1.61,1.78 -3.16,1.78l-26.72 0c-1.95,0 -3.48,-1.34 -3.49,-3.09l0 -1.22c0.04,-0.59 0.27,-0.57 1.32,-0.57l0 -17.24c0,-0.88 0.23,-1.82 0.92,-2.3 0.85,-0.6 1.25,-0.53 2.63,-0.53 -0.19,-0.36 -0.2,-0.55 -0.2,-0.99 0,-1.25 1.42,-1.87 2.48,-2.39l7.87 -4.17c2.14,-1.06 2.66,-0.44 4.54,0.48 0.92,0.45 0.33,1.08 -0.09,1.08 -0.09,0 -1.04,-0.52 -1.23,-0.61 -1.6,-0.8 -2.06,-0.44 -3.75,0.5l-2.81 1.47c-0.27,0.14 -0.4,0.24 -0.68,0.37l-2.1 1.12c-0.26,0.13 -0.46,0.21 -0.7,0.35 -0.48,0.27 -0.92,0.5 -1.41,0.77 -0.42,0.23 -1.07,0.42 -1.07,1.03 0,0.94 0.26,0.89 1.1,1.34l4.04 2.15c0.16,0.08 0.31,0.15 0.48,0.24 0.18,0.1 0.22,0.14 0.42,0.24l2.72 1.42c1.86,0.92 1.97,1.41 3.97,0.42 0.34,-0.17 0.58,-0.33 0.9,-0.48 0.21,-0.1 0.74,-0.41 0.92,-0.46 -0.59,-0.88 -3.95,-4.3 -3.95,-4.74 0,-0.32 0.4,-0.6 0.71,-0.46 0.28,0.12 0.91,1 1.21,1.3l1.78 2.04c0.12,0.14 0.21,0.2 0.32,0.34l0.85 1 6.21 -3.27c0.78,-0.42 0.83,-1.45 -0.11,-1.91l-6.27 -3.34c-0.65,-0.44 -0.03,-0.96 0.24,-0.96 0.26,0 2.24,1.15 2.74,1.4l2.11 1.12c0.2,0.1 0.33,0.16 0.53,0.26 0.23,0.12 0.34,0.2 0.55,0.31 0.17,0.09 0.35,0.17 0.53,0.26 1.17,0.61 1.64,1.77 1.12,2.76 1.36,0 1.84,-0.07 2.67,0.55 0.66,0.49 0.88,1.42 0.88,2.28l0 17.24c0.61,0 1.31,-0.12 1.32,0.52zm-19.87 0.53l6.05 0c-0.23,0.43 -0.51,0.86 -1.18,0.86l-3.69 0c-0.67,0 -0.96,-0.42 -1.18,-0.86zm6.58 -8.16c0,-0.27 0.43,-0.96 0.61,-1.23 0.08,-0.12 0.02,-0.05 0.11,-0.15 0.09,0.34 0.66,1.02 0.66,1.32 0,0.76 -1.38,0.66 -1.38,0.07zm1.18 -4.54l0 -4.15 2.04 -1.05c0,2.22 0.21,4.01 -2.04,5.2zm-11.52 -5.2l4.76 2.54c1.64,0.88 2.49,0.79 4.08,-0.02l1.69 -0.88 0 3.95c-1.64,0.38 -1.97,0.59 -3.88,0.59 -1.45,0 -4.01,-0.48 -5.11,-1.28 -1.75,-1.27 -1.54,-2.89 -1.54,-4.91zm-6.45 -0.07l0 14.81c0,0.47 0.12,0.86 0.59,0.86l2.5 0c0.71,0 0.86,-1.05 -0.13,-1.05l-1.91 0 0 -14.41 4.41 0c0,1.98 -0.23,3.49 1.3,5.09 0.6,0.63 1.23,0.89 1.97,1.18 0.28,0.11 0.54,0.2 0.84,0.28 0.68,0.19 1.92,0.47 2.67,0.49l2.98 -0.11c0.47,-0.08 1.43,-0.26 1.76,-0.41 0,0.83 -0.22,0.88 -0.77,1.86 -0.31,0.56 -0.74,1.14 -0.23,1.97 0.6,0.99 2.33,0.93 2.91,0.12 1,-1.4 -0.92,-2.89 -0.92,-3.49 0,-0.95 -0.05,-0.74 0.18,-0.87 0.82,-0.44 1.1,-0.47 1.81,-1.35 1.27,-1.56 1.03,-2.76 1.03,-4.76l4.41 0 0 14.41 -20.2 0c-0.72,0 -0.82,1.05 -0.07,1.05l20.73 0c0.47,0 0.59,-0.38 0.59,-0.86l0 -14.81c0,-1.1 -0.63,-0.86 -1.84,-0.86 -0.92,0 -1.84,0 -2.76,0 0.26,-0.22 0.89,-0.5 1.19,-0.66 1.57,-0.82 0.84,-0.59 3.42,-0.59 0.69,0 1.25,0.63 1.25,1.32l0 17.7 -28.95 0 0 -17.7c0,-0.69 0.56,-1.32 1.25,-1.32 2.93,0 1.81,-0.23 4.04,0.9l0.57 0.35 -4.08 0c-0.42,0.06 -0.53,0.37 -0.53,0.85z"/>
   <path class="fil0" d="M6.12 24.09c0,0.32 0.21,0.53 0.53,0.53l9.81 0c0.69,0 0.86,-1.05 -0.13,-1.05l-9.61 0c-0.32,0 -0.59,0.19 -0.59,0.53z"/>
   <path class="fil0" d="M6.12 21.92c0,0.25 0.09,0.59 0.39,0.59l6.71 0c0.7,0 0.69,-0.99 0,-0.99l-6.71 0c-0.16,0 -0.39,0.24 -0.39,0.39z"/>
  </g>
 </g>
</svg>
