<?xml version="1.0" encoding="UTF-8"?>
<!DOCTYPE svg PUBLIC "-//W3C//DTD SVG 1.1//EN" "http://www.w3.org/Graphics/SVG/1.1/DTD/svg11.dtd">
<!-- Creator: CorelDRAW -->
<svg xmlns="http://www.w3.org/2000/svg" xml:space="preserve" width="117.989mm" height="34.5138mm" version="1.1" style="shape-rendering:geometricPrecision; text-rendering:geometricPrecision; image-rendering:optimizeQuality; fill-rule:evenodd; clip-rule:evenodd"
viewBox="0 0 12333.8 3607.85"
 xmlns:xlink="http://www.w3.org/1999/xlink"
 xmlns:xodm="http://www.corel.com/coreldraw/odm/2003">
 <defs>
  <style type="text/css">
   <![CDATA[
    .fil0 {fill:#342F63;fill-rule:nonzero}
   ]]>
  </style>
 </defs>
 <g id="Слой_x0020_1">
  <metadata id="CorelCorpID_0Corel-Layer"/>
  <g>
   <path class="fil0" d="M9311.2 1204.3l-19.53 -146.2 0 0 103.81 -11.31 101.95 -6.42 100.1 -2.16 98.31 1.42 96.6 4.34 94.98 6.61 93.45 8.21 92.03 9.17 90.7 9.5 89.47 9.19 88.35 8.28 87.33 6.76 86.41 4.65 85.6 1.95 84.93 -1.3 84.39 -5.11 84.03 -9.48 83.85 -14.42 83.9 -19.91 84.17 -26.02 84.71 -32.74 85.48 -40.12 86.47 -48.2 87.68 -56.96 89.03 -66.44 90.54 -76.6 92.13 -87.47 93.83 -99.01 95.61 -111.22 97.48 -124.06 99.4 -137.53 101.42 -151.68 123.98 79.93 -104.24 155.88 -102.7 142.11 -101.3 128.93 -100.06 116.39 -98.95 104.43 -98.02 93.06 -97.18 82.25 -96.49 72 -95.88 62.29 -95.33 53.13 -94.8 44.51 -94.29 36.46 -93.77 28.99 -93.2 22.13 -92.63 15.94 -92.08 10.4 -91.54 5.55 -91.08 1.4 -90.7 -2.06 -90.42 -4.86 -90.23 -6.97 -90.21 -8.45 -90.26 -9.27 -90.47 -9.48 -90.8 -9.04 -91.26 -8.02 -91.84 -6.4 -92.54 -4.17 -93.4 -1.36 -94.39 2.04 -95.55 6 -96.93 10.56 0 0zm-3941.47 997.07l87.95 -118.42 0 0 187.25 131.29 177.78 109.29 168.73 88.52 160.03 68.99 151.77 50.74 144.01 33.79 136.82 18.13 130.32 3.72 124.56 -9.5 119.57 -21.68 115.26 -32.87 111.55 -43.14 108.38 -52.52 105.65 -60.93 103.3 -68.39 101.29 -74.83 99.68 -80.2 98.41 -84.49 97.53 -87.68 97.03 -89.76 96.97 -90.75 97.33 -90.59 98.16 -89.3 99.45 -86.89 101.25 -83.36 103.56 -78.65 106.43 -72.77 109.79 -65.66 113.68 -57.27 118.04 -47.58 122.76 -36.49 127.65 -24.03 19.53 146.2 -112.49 21.21 -108.8 32.37 -105.85 42.69 -103.39 52.13 -101.37 60.64 -99.67 68.19 -98.33 74.7 -97.36 80.16 -96.69 84.5 -96.44 87.76 -96.58 89.88 -97.13 90.89 -98.12 90.77 -99.56 89.5 -101.48 87.13 -103.89 83.56 -106.81 78.88 -110.26 72.96 -114.2 65.85 -118.65 57.45 -123.51 47.72 -128.74 36.69 -134.24 24.31 -139.89 10.65 -145.69 -4.18 -151.61 -20.09 -157.72 -37 -164.11 -54.86 -170.9 -73.68 -178.11 -93.43 -185.83 -114.24 -194.05 -136.04 0 0zm-1150.1 315.83l-130.37 -69.01 0 0 31.5 -57.2 32.38 -54.37 33.3 -51.54 34.21 -48.68 35.12 -45.86 36.04 -43.02 36.96 -40.16 37.88 -37.29 38.82 -34.41 39.75 -31.5 40.64 -28.54 41.55 -25.56 42.42 -22.53 43.22 -19.46 44 -16.34 44.7 -13.21 45.32 -10.04 45.84 -6.88 46.33 -3.69 46.68 -0.54 46.98 2.59 47.22 5.68 47.4 8.73 47.52 11.74 47.63 14.68 47.71 17.59 47.76 20.46 47.8 23.28 47.88 26.08 47.9 28.85 47.96 31.58 47.99 34.32 -87.95 118.42 -43.56 -31.14 -43.11 -28.4 -42.63 -25.67 -42.11 -22.95 -41.57 -20.25 -40.99 -17.55 -40.39 -14.9 -39.79 -12.27 -39.16 -9.67 -38.51 -7.1 -37.91 -4.57 -37.3 -2.05 -36.75 0.42 -36.21 2.9 -35.76 5.35 -35.32 7.82 -34.94 10.33 -34.61 12.87 -34.32 15.45 -34.04 18.07 -33.75 20.77 -33.49 23.52 -33.21 26.31 -32.89 29.16 -32.55 32.04 -32.18 34.96 -31.76 37.91 -31.32 40.88 -30.83 43.87 -30.29 46.87 -29.73 49.89 -29.13 52.94 0 0zm-3014.3 -159.35l116.22 -90.84 0.44 0.57 117.47 149.61 115.11 139.06 112.76 128.61 110.41 118.25 108.07 107.98 105.73 97.84 103.37 87.79 100.99 77.87 98.61 68.09 96.2 58.43 93.77 48.96 91.33 39.7 88.91 30.63 86.55 21.81 84.32 13.24 82.26 4.89 80.43 -3.25 78.86 -11.28 77.57 -19.23 76.52 -27.2 75.64 -35.2 74.88 -43.25 74.17 -51.35 73.48 -59.49 72.78 -67.58 72.01 -75.65 71.25 -83.66 70.45 -91.59 69.61 -99.4 68.78 -107.12 67.92 -114.72 67.08 -122.21 130.37 69.01 -69.3 126.22 -70.51 119.08 -71.81 111.84 -73.2 104.52 -74.69 97.09 -76.27 89.55 -77.97 81.88 -79.76 74.08 -81.67 66.1 -83.7 57.93 -85.75 49.52 -87.85 40.86 -89.92 31.95 -91.87 22.77 -93.68 13.39 -95.29 3.86 -96.72 -5.75 -97.99 -15.38 -99.16 -24.98 -100.28 -34.54 -101.45 -44.07 -102.65 -53.6 -103.94 -63.14 -105.34 -72.71 -106.82 -82.36 -108.41 -92.07 -110.09 -101.88 -111.87 -111.79 -113.73 -121.78 -115.65 -131.91 -117.66 -142.13 -119.71 -152.47 0.44 0.57zm116.22 -90.84l-0.06 -0.08 0.5 0.66 -0.44 -0.57zm-1205.33 -1542.07l1205.33 1542.07 -116.22 90.84 -1205.33 -1542.07 116.22 -90.84z"/>
  </g>
 </g>
</svg>
