<?xml version="1.0" encoding="UTF-8"?>
<!DOCTYPE svg PUBLIC "-//W3C//DTD SVG 1.1//EN" "http://www.w3.org/Graphics/SVG/1.1/DTD/svg11.dtd">
<!-- Creator: CorelDRAW -->
<svg xmlns="http://www.w3.org/2000/svg" xml:space="preserve" width="58.5426mm" height="7.0694mm" version="1.1" style="shape-rendering:geometricPrecision; text-rendering:geometricPrecision; image-rendering:optimizeQuality; fill-rule:evenodd; clip-rule:evenodd"
viewBox="0 0 3061.76 369.73"
 xmlns:xlink="http://www.w3.org/1999/xlink"
 xmlns:xodm="http://www.corel.com/coreldraw/odm/2003">
 <defs>
  <style type="text/css">
   <![CDATA[
    .fil0 {fill:white}
   ]]>
  </style>
 </defs>
 <g id="Слой_x0020_1">
  <metadata id="CorelCorpID_0Corel-Layer"/>
  <g id="_105553188492448">
   <path class="fil0" d="M74.33 300.4l183.25 0 0 64.32 -257.58 0 0 -359.71 74.33 0 0 295.39zm225.57 -295.39l74.33 0 0 359.71 -74.33 0 0 -359.71zm230.8 64.32l-116.15 0 0 -64.32 306.63 0 0 64.32 -116.15 0 0 295.39 -74.33 0 0 -295.39zm703.93 -64.32l74.33 0 0 359.71 -74.33 0 0 -359.71zm233.54 130.77l0 228.94 -73.83 0 0 -359.71 60.39 0 186.44 228.94 0 -228.94 73.83 0 0 359.71 -60.4 0 -186.43 -228.94zm471.52 132.58l114.61 -263.35 75.17 0 -156.73 359.71 -70.13 0 -157.24 -359.71 80.69 0 113.63 263.35zm663.85 101.37c-27.07,0 -53.81,-3.83 -79.7,-11.72 -21.84,-6.66 -44.08,-16.42 -61.5,-31.46l-2.6 -2.24 26.35 -59.14 4.67 3.69c15.27,12.08 33.12,20.73 51.46,27.04 19.82,6.81 40.35,10.52 61.32,10.52 17.64,0 40.6,-1.9 55.81,-11.77 10.69,-6.95 17.17,-16.21 17.17,-29.17 0,-8.53 -2.92,-15.61 -9.25,-21.35 -7.34,-6.66 -16.29,-11.2 -25.64,-14.31 -14.6,-4.86 -29.73,-8.81 -44.68,-12.41 -21.81,-5.25 -44.45,-11.15 -65.41,-19.2 -17.33,-6.65 -32.13,-17.1 -44.38,-31.06 -14.14,-16.13 -18.92,-36.86 -18.92,-57.87 0,-20.09 5.44,-38.63 16.54,-55.38 12.07,-18.2 29.78,-30.75 49.55,-39.47 24.77,-10.92 52.85,-14.41 79.72,-14.41 21.7,0 43.22,2.74 64.23,8.16 19.39,5.01 38.27,12.52 54.98,23.67l3.14 2.09 -23.96 59.01 -4.61 -2.71c-14.77,-8.67 -30.49,-15.44 -46.98,-20.06 -15.41,-4.31 -31.29,-6.84 -47.31,-6.84 -17.39,0 -39.95,1.98 -54.7,12.2 -10.85,7.52 -16.79,17.45 -16.79,30.74 0,8.45 2.86,15.45 9.2,21.07 7.39,6.53 16.38,11 25.68,14.1 14.61,4.87 29.69,8.85 44.66,12.4 21.58,5.11 44.02,10.9 64.69,18.96 17.33,6.76 32.24,17.12 44.59,31.03 14.11,15.9 18.94,36.32 18.94,57.14 0,20.02 -5.41,38.51 -16.56,55.14 -12.14,18.12 -30.04,30.57 -49.8,39.21 -24.88,10.88 -52.99,14.41 -79.96,14.41zm267.74 -300.4l-116.15 0 0 -64.32 306.63 0 0 64.32 -116.15 0 0 295.39 -74.33 0 0 -295.39z"/>
   <g>
    <rect class="fil0" x="2160.38" y="9.63" width="255.84" height="54.5"/>
    <rect class="fil0" x="2160.38" y="155.54" width="255.84" height="54.5"/>
    <rect class="fil0" x="2160.38" y="305.48" width="255.84" height="54.5"/>
   </g>
   <rect class="fil0" x="765.63" y="5.01" width="306.44" height="64.32"/>
   <rect class="fil0" x="765.63" y="153.31" width="306.44" height="64.32"/>
   <rect class="fil0" x="765.63" y="300.4" width="306.44" height="64.32"/>
  </g>
 </g>
</svg>
