<?xml version="1.0" encoding="UTF-8"?>
<!DOCTYPE svg PUBLIC "-//W3C//DTD SVG 1.1//EN" "http://www.w3.org/Graphics/SVG/1.1/DTD/svg11.dtd">
<!-- Creator: CorelDRAW -->
<svg xmlns="http://www.w3.org/2000/svg" xml:space="preserve" width="50.4224mm" height="36.785mm" version="1.1" style="shape-rendering:geometricPrecision; text-rendering:geometricPrecision; image-rendering:optimizeQuality; fill-rule:evenodd; clip-rule:evenodd"
viewBox="0 0 182723.76 133303.72"
 xmlns:xlink="http://www.w3.org/1999/xlink"
 xmlns:xodm="http://www.corel.com/coreldraw/odm/2003">
 <defs>
  <style type="text/css">
   <![CDATA[
    .str4 {stroke:#E60C80;stroke-width:639.25;stroke-miterlimit:22.9256}
    .str2 {stroke:#00A0E4;stroke-width:639.25;stroke-miterlimit:22.9256}
    .str1 {stroke:#00A0E4;stroke-width:276.14;stroke-miterlimit:22.9256}
    .str3 {stroke:#00A0E4;stroke-width:639.25;stroke-miterlimit:22.9256;stroke-dasharray:639.249056 1917.747167}
    .str0 {stroke:#00A0E4;stroke-width:639.25;stroke-miterlimit:22.9256;stroke-dasharray:6392.490556 1917.747167}
    .fil2 {fill:none}
    .fil4 {fill:none;fill-rule:nonzero}
    .fil3 {fill:white}
    .fil1 {fill:#031138;fill-rule:nonzero}
    .fil0 {fill:#58C0EA;fill-rule:nonzero}
   ]]>
  </style>
   <clipPath id="id0" style="clip-rule:nonzero">
    <path d="M174595.44 0l-166467.12 0c-4488.51,0 -8128.32,3639.81 -8128.32,8128.32l0 117047.08c0,4488.15 3639.81,8128.32 8128.32,8128.32l166467.12 0c4488.15,0 8128.32,-3640.17 8128.32,-8128.32l0 -117047.08c0,-4488.51 -3640.17,-8128.32 -8128.32,-8128.32z"/>
   </clipPath>
 </defs>
 <g id="Слой_x0020_1">
  <metadata id="CorelCorpID_0Corel-Layer"/>
  <path class="fil0" d="M174595.44 0l-166467.12 0c-4488.51,0 -8128.32,3639.81 -8128.32,8128.32l0 117047.08c0,4488.15 3639.81,8128.32 8128.32,8128.32l166467.12 0c4488.15,0 8128.32,-3640.17 8128.32,-8128.32l0 -117047.08c0,-4488.51 -3640.17,-8128.32 -8128.32,-8128.32z"/>
  <path class="fil1" d="M174595.44 0l-166467.12 0c-4488.51,0 -8128.32,3639.81 -8128.32,8128.32l0 117047.08c0,4488.15 3639.81,8128.32 8128.32,8128.32l166467.12 0c4488.15,0 8128.32,-3640.17 8128.32,-8128.32l0 -117047.08c0,-4488.51 -3640.17,-8128.32 -8128.32,-8128.32z"/>
  <g style="clip-path:url(#id0)">
   <g id="_105553199609696">
    <g>
     <path id="_1" class="fil2 str0" d="M171372.74 30322.66c-15638.05,-3232.85 -21762.01,12284.89 -51901.3,13301.02 -21737.37,-1293.36 -41996.2,16071.82 -64656.93,16071.82 -16160.25,-3428.53 -30515.81,-283.75 -43227.59,8849.83l-20869.45 -3307.86"/>
     <path class="fil2 str1" d="M11351.38 103666.7c32477.04,-3269.45 30254.89,299.33 61365.01,-20320.8 9784.42,-11824.66 21619.23,-18351.23 34360.72,-22537.88 39541.76,-2490.32 57506.32,-6500.12 62070.94,-11453.57 9372.03,-9258.96 17950.43,-6721.17 22858.59,0"/>
     <path class="fil2 str2" d="M9319.12 105071.31c40160.35,4987.88 37092.75,-7389.78 65614.71,-18842.99 25432.98,-3561.53 31404.02,-502.27 41380.5,-11638.39 19195.95,-14963.28 37098.91,923.72 73660.05,-27156.13"/>
     <path class="fil2 str0" d="M551.19 116597.36c15638.05,3232.85 21762.01,-12284.89 51901.3,-13301.02 21737,1292.99 41996.2,-16072.19 64656.93,-16071.82 16160.25,3428.17 30515.81,283.75 43227.59,-8850.19l20869.45 3307.86"/>
     <path class="fil2 str3" d="M1028.81 55034.85c42262.19,-25114.81 57643.31,-30822.02 77490.1,12377.3 26601.68,41918.65 50986.64,-25862.77 82022.1,-21613.79 10351.2,2307.31 17195.22,7852.91 21143.05,16071.82"/>
     <polyline class="fil2 str4" points="1028.81,61857.13 6540.34,67953.19 11158.95,63704.21 16654.9,77282.46 23962.42,72267.4 28246.55,70816.4 31479.75,67214.28 36836.91,73125.89 46673.88,66613.81 54264.78,76321.41 61960.77,80699.76 65001.19,76400.05 71566.9,73310.71 79833.65,81623.48 97614.49,80145.67 101679.01,73495.52 108513.98,75157.79 115903.03,68507.64 121445.36,56869.25 126063.61,56315.16 129758.14,49849.11 135854.56,52620.27 140842.44,44861.59 149894.48,55760.71 158761.71,46708.67 167074.48,50033.92 181684.08,35070.64 "/>
     <g>
      <rect class="fil3" x="144455.32" y="16263.23" width="877.44" height="35630.78"/>
      <rect class="fil3" x="153722.13" y="23673.3" width="5634.32" height="38459.36"/>
      <rect class="fil3" x="155973.01" y="62201.99" width="877.44" height="5634.32"/>
      <rect class="fil3" x="142076.87" y="23673.38" width="5634.32" height="10254.01"/>
      <rect class="fil3" x="132829.95" y="26678.95" width="877.44" height="35284.54"/>
      <rect class="fil3" x="130451.51" y="28064.52" width="5634.32" height="17273.3"/>
      <rect class="fil3" x="121445.47" y="44401.49" width="877.44" height="38321.74"/>
      <rect class="fil3" x="119067.03" y="45336.32" width="5634.32" height="33969.96"/>
      <rect class="fil3" x="109786.59" y="67899.69" width="877.44" height="44775.27"/>
      <rect class="fil3" x="107408.15" y="76625.41" width="5634.32" height="17947.14"/>
      <rect class="fil3" x="98258.42" y="72066.35" width="877.44" height="31174.05"/>
      <rect class="fil3" x="95879.98" y="74039.17" width="5634.32" height="20565.42"/>
      <rect class="fil3" x="86807.33" y="67875.86" width="877.44" height="41611.77"/>
      <rect class="fil3" x="84428.89" y="76694.71" width="5634.32" height="28359.93"/>
      <rect class="fil3" x="75215.06" y="54414.93" width="877.44" height="55605.1"/>
      <rect class="fil3" x="72836.62" y="60253.14" width="5634.32" height="44779.88"/>
      <rect class="fil3" x="63530.21" y="46151.17" width="877.44" height="36391.13"/>
      <rect class="fil3" x="61151.77" y="70351.41" width="5634.32" height="9188.48"/>
      <rect class="fil3" x="49697.54" y="51209.65" width="5634.32" height="27640.42"/>
      <rect class="fil3" x="40529.38" y="28221.97" width="877.44" height="28864.1"/>
      <rect class="fil3" x="38150.93" y="48759.43" width="5634.32" height="4594.13"/>
      <rect class="fil3" x="29144.06" y="40091.68" width="877.44" height="34037.2"/>
      <rect class="fil3" x="26765.61" y="44534.52" width="5634.32" height="25761.55"/>
      <rect class="fil3" x="17552" y="65008.71" width="877.44" height="20989.37"/>
      <rect class="fil3" x="15173.55" y="72075.27" width="5634.32" height="13923.16"/>
     </g>
    </g>
   </g>
  </g>
  <path class="fil4" d="M174595.44 0l-166467.12 0c-4488.51,0 -8128.32,3639.81 -8128.32,8128.32l0 117047.08c0,4488.15 3639.81,8128.32 8128.32,8128.32l166467.12 0c4488.15,0 8128.32,-3640.17 8128.32,-8128.32l0 -117047.08c0,-4488.51 -3640.17,-8128.32 -8128.32,-8128.32z"/>
 </g>
</svg>
