<?xml version="1.0" encoding="UTF-8"?>
<!DOCTYPE svg PUBLIC "-//W3C//DTD SVG 1.1//EN" "http://www.w3.org/Graphics/SVG/1.1/DTD/svg11.dtd">
<!-- Creator: CorelDRAW -->
<svg xmlns="http://www.w3.org/2000/svg" xml:space="preserve" width="4.4906mm" height="4.5569mm" version="1.1" style="shape-rendering:geometricPrecision; text-rendering:geometricPrecision; image-rendering:optimizeQuality; fill-rule:evenodd; clip-rule:evenodd"
viewBox="0 0 35.65 36.17"
 xmlns:xlink="http://www.w3.org/1999/xlink"
 xmlns:xodm="http://www.corel.com/coreldraw/odm/2003">
 <defs>
  <style type="text/css">
   <![CDATA[
    .fil0 {fill:#031138}
   ]]>
  </style>
 </defs>
 <g id="Слой_x0020_1">
  <metadata id="CorelCorpID_0Corel-Layer"/>
  <g id="_105553185138400">
   <path class="fil0" d="M-0 4.36l0 27.47c0.09,0.2 0.18,0.87 0.3,1.18 0.38,1 1.09,1.89 2.03,2.44 1.57,0.92 3.22,0.69 5.23,0.69 3.97,0 7.95,0 11.92,0l8.91 -0c0.98,0.01 1.77,-0.08 2.54,-0.45 1.22,-0.6 2.3,-1.7 2.65,-3.28 0.23,-1.02 0.11,-4.6 0.13,-5.89l-2.41 -0c0.01,1.08 -0,2.15 0,3.23 0,1.04 0.13,2.09 -0.37,2.86 -0.39,0.61 -1.05,1.12 -2.11,1.13 -1.08,0.01 -2.17,0 -3.25,0 -4.32,-0 -8.63,0.01 -12.95,-0 -2.15,-0.01 -4.3,0 -6.46,-0 -1.15,-0 -1.95,0.14 -2.78,-0.46 -0.64,-0.46 -1,-1.15 -0.99,-2.27 0.03,-4.32 -0.01,-8.64 0,-12.95 0.02,-4.32 0,-8.64 -0,-12.95 -0,-1.08 0.37,-1.79 0.99,-2.23 0.85,-0.59 1.61,-0.46 2.78,-0.46l19.45 0c1.07,0 2.14,-0.01 3.21,0 1.06,0.01 1.72,0.52 2.11,1.13 0.51,0.8 0.37,1.8 0.37,2.86 -0,0.48 -0.05,2.97 0.03,3.23l2.35 0c0.09,-0.3 0.03,-2.93 0.03,-3.47 0,-1.2 0.06,-2.15 -0.36,-3.18 -0.64,-1.54 -2.05,-2.66 -3.66,-2.92l-0.38 -0.07c-0.01,-0 -0.02,-0.01 -0.03,-0.01l-24.83 0c-0.01,0 -0.02,0.01 -0.03,0.01 -0.01,0 -0.02,0.01 -0.03,0.01 -0.57,0.15 -0.77,0.04 -1.67,0.47 -0.94,0.45 -1.75,1.26 -2.21,2.19 -0.47,0.95 -0.36,1.35 -0.51,1.68z"/>
   <path class="fil0" d="M35.65 18.32l0 -0.46c-0.14,-0.26 -0.2,-0.72 -0.82,-0.92 -0.4,-0.13 -4.56,-0.06 -5.16,-0.06 -0.55,0 -6.63,0.04 -7,-0.02 0.39,-0.44 1.67,-1.68 2.18,-2.19l3.28 -3.29c0.26,-0.26 0.9,-0.83 1.05,-1.16 0.44,-0.93 -0.43,-1.9 -1.36,-1.68 -0.34,0.08 -0.5,0.26 -0.68,0.43 -1.47,1.48 -2.92,2.92 -4.4,4.4 -0.74,0.74 -1.46,1.45 -2.2,2.2l-1.66 1.67c-0.2,0.22 -0.29,0.46 -0.29,0.83 -0.01,0.76 0.47,1.05 0.81,1.39l3.31 3.31c1.47,1.49 2.94,2.93 4.42,4.42 0.42,0.42 0.93,0.69 1.56,0.33 0.43,-0.24 0.8,-0.84 0.52,-1.51 -0.15,-0.38 -0.76,-0.91 -1.03,-1.18 -0.38,-0.38 -0.73,-0.73 -1.11,-1.11 -1.32,-1.32 -3.2,-3.12 -4.4,-4.41 0.35,-0.05 9.62,-0.01 10.44,-0.01 0.85,0 1.73,0.16 2.22,-0.39 0.19,-0.21 0.19,-0.35 0.32,-0.57z"/>
   <path class="fil0" d="M3.29 25.82l16.12 0.01c0,-1.42 -0.06,-2.04 -0.68,-3.1 -1.33,-2.26 -4.56,-4 -7.36,-4 -2.2,0 -4.26,0.99 -5.57,1.99 -0.67,0.51 -1.35,1.18 -1.82,1.99 -0.63,1.08 -0.69,1.68 -0.69,3.11z"/>
   <path class="fil0" d="M10.77 9.29c-1.36,0.14 -2.16,0.68 -3.03,1.54 -0.74,0.74 -1.24,2.22 -1.1,3.4 0.32,2.57 2.58,4.31 5.07,4.05 2.35,-0.25 4.37,-2.3 4.1,-4.95 -0.24,-2.34 -2.37,-4.31 -5.05,-4.04z"/>
  </g>
 </g>
</svg>
