<?xml version="1.0" encoding="UTF-8"?>
<!DOCTYPE svg PUBLIC "-//W3C//DTD SVG 1.1//EN" "http://www.w3.org/Graphics/SVG/1.1/DTD/svg11.dtd">
<!-- Creator: CorelDRAW -->
<svg xmlns="http://www.w3.org/2000/svg" xml:space="preserve" width="50.4224mm" height="38.3194mm" version="1.1" style="shape-rendering:geometricPrecision; text-rendering:geometricPrecision; image-rendering:optimizeQuality; fill-rule:evenodd; clip-rule:evenodd"
viewBox="0 0 2274.89 1728.84"
 xmlns:xlink="http://www.w3.org/1999/xlink"
 xmlns:xodm="http://www.corel.com/coreldraw/odm/2003">
 <defs>
  <style type="text/css">
   <![CDATA[
    .str0 {stroke:#C6C7CC;stroke-width:7.96;stroke-miterlimit:10}
    .str1 {stroke:white;stroke-width:3.44;stroke-miterlimit:22.9256}
    .fil15 {fill:none}
    .fil14 {fill:none;fill-rule:nonzero}
    .fil0 {fill:#031138;fill-rule:nonzero}
    .fil7 {fill:#243559;fill-rule:nonzero}
    .fil5 {fill:#3578E5;fill-rule:nonzero}
    .fil6 {fill:#39548E;fill-rule:nonzero}
    .fil12 {fill:#4080FF;fill-rule:nonzero}
    .fil3 {fill:#4267B2;fill-rule:nonzero}
    .fil9 {fill:#4DBBA6;fill-rule:nonzero}
    .fil4 {fill:#606770;fill-rule:nonzero}
    .fil13 {fill:#89BE4C;fill-rule:nonzero}
    .fil10 {fill:#B1BACC;fill-rule:nonzero}
    .fil8 {fill:#C1CEEB;fill-rule:nonzero}
    .fil2 {fill:#C6C7CC;fill-rule:nonzero}
    .fil11 {fill:#E3EAF7;fill-rule:nonzero}
    .fil1 {fill:white;fill-rule:nonzero}
   ]]>
  </style>
   <clipPath id="id0" style="clip-rule:nonzero">
    <path d="M2173.69 0l-2072.5 0c-55.88,0 -101.2,47.21 -101.2,105.42l0 1518c0,58.21 45.32,105.42 101.2,105.42l2072.5 0c55.88,0 101.2,-47.21 101.2,-105.42l0 -1518c0,-58.21 -45.32,-105.42 -101.2,-105.42z"/>
   </clipPath>
    <clipPath id="id1">
     <path d="M487.03 295.69l1293.31 0c21.01,0 38.2,17.18 38.2,38.2l0 1394.96 -1369.71 0 0 -1394.96c0,-21.01 17.18,-38.2 38.2,-38.2z"/>
    </clipPath>
    <clipPath id="id2">
     <path d="M2173.69 0l-2072.5 0c-55.88,0 -101.2,47.21 -101.2,105.42l0 1518c0,58.21 45.32,105.42 101.2,105.42l2072.5 0c55.88,0 101.2,-47.21 101.2,-105.42l0 -1518c0,-58.21 -45.32,-105.42 -101.2,-105.42z"/>
    </clipPath>
 </defs>
 <g id="Слой_x0020_1">
  <metadata id="CorelCorpID_0Corel-Layer"/>
  <path class="fil0" d="M2173.69 0l-2072.5 0c-55.88,0 -101.2,47.21 -101.2,105.42l0 1518c0,58.21 45.32,105.42 101.2,105.42l2072.5 0c55.88,0 101.2,-47.21 101.2,-105.42l0 -1518c0,-58.21 -45.32,-105.42 -101.2,-105.42z"/>
  <g style="clip-path:url(#id0)">
   <g id="_105553254453792">
    <g>
    </g>
   </g>
   <g style="clip-path:url(#id1)">
    <g>
     <g>
      <polygon id="_1" class="fil1" points="448.83,779.01 1818.54,779.01 1818.54,2730.29 448.83,2730.29 "/>
      <polygon class="fil1" points="448.83,592.98 1818.54,592.98 1818.54,774.77 448.83,774.77 "/>
      <polygon class="fil2" points="448.83,779.01 1818.54,779.01 1818.54,774.77 448.83,774.77 "/>
      <polygon class="fil3" points="1818.54,592.98 448.83,592.98 448.83,400.28 1818.54,400.28 "/>
      <path class="fil1" d="M551.23 488.8c-9.6,0 -17.38,7.78 -17.38,17.38 0,9.61 7.78,17.39 17.38,17.39 9.6,0 17.39,-7.78 17.39,-17.39 0,-9.6 -7.79,-17.38 -17.39,-17.38z"/>
      <path class="fil1" d="M580.2 491.41c-2.94,0 -5.33,-2.39 -5.33,-5.33 0,-2.96 2.39,-5.36 5.33,-5.36 2.94,0 5.33,2.39 5.33,5.36 0,2.94 -2.39,5.33 -5.33,5.33zm-28.98 38.87c-13.3,0 -24.08,-10.79 -24.08,-24.1 0,-13.3 10.78,-24.09 24.08,-24.09 13.3,0 24.1,10.79 24.1,24.09 0,13.3 -10.79,24.1 -24.1,24.1zm32 -58.64l-8.32 0 -5.74 -7.79c-1.12,-1.48 -3.84,-2.55 -6.22,-2.55l-23.4 0c-2.39,0 -5.16,1.07 -6.32,2.55l-5.72 7.79 -8.27 0c-6.5,0 -11.76,5.27 -11.76,11.76l0 45.92c0,6.49 5.26,11.75 11.76,11.75l63.99 0c6.49,0 11.75,-5.26 11.75,-11.75l0 -45.92c0,-6.49 -5.26,-11.76 -11.75,-11.76z"/>
      <path class="fil1" d="M675.39 495.73c0,-10.37 8.41,-18.78 18.78,-18.78 10.37,0 18.78,8.41 18.78,18.78 0,10.36 -8.41,18.79 -18.78,18.79 -10.36,0 -18.78,-8.43 -18.78,-18.79zm53.51 30.86l-15.86 -15.85c3.3,-4.14 5.36,-9.32 5.36,-15.01 0,-13.37 -10.86,-24.24 -24.23,-24.24 -13.37,0 -24.23,10.87 -24.23,24.24 0,13.36 10.86,24.23 24.23,24.23 5.7,0 10.88,-2.06 15.01,-5.35l15.85 15.85 3.87 -3.87z"/>
      <polygon class="fil1" points="1611.02,560.27 656.59,560.27 656.59,556.64 1611.02,556.64 "/>
      <path class="fil1" d="M1721.08 511.44l-12.17 -12.89 -21.95 12.89 23.06 -25.59 12.16 12.87 21.96 -12.87 -23.06 25.59zm-5.54 -53.9c-25.26,0 -45.73,18.66 -45.73,41.71 0,13.12 6.65,24.81 17.02,32.47l0 19.12 16.73 -11.33c3.82,0.94 7.84,1.46 11.99,1.46 25.27,0 45.75,-18.68 45.75,-41.72 0,-23.05 -20.48,-41.71 -45.75,-41.71z"/>
      <path class="fil4" d="M556.05 646.84c-4.97,0 -9.01,4.05 -9.01,9.01l0 57.68c0,4.98 4.05,9.01 9.01,9.01l59.04 0c4.96,0 9.01,-4.03 9.01,-9.01l0 -57.68c0,-4.97 -4.05,-9.01 -9.01,-9.01l-59.04 0zm59.04 81.16l-59.04 0c-7.98,0 -14.48,-6.49 -14.48,-14.46l0 -57.68c0,-7.98 6.5,-14.46 14.48,-14.46l59.04 0c7.97,0 14.46,6.49 14.46,14.46l0 57.68c0,7.98 -6.49,14.46 -14.46,14.46z"/>
      <polygon class="fil4" points="626.83,683.43 544.3,683.43 544.3,677.97 626.83,677.97 "/>
      <polygon class="fil4" points="614.64,658.89 581.45,658.89 581.45,653.43 614.64,653.43 "/>
      <polygon class="fil4" points="614.64,670.7 581.45,670.7 581.45,665.25 614.64,665.25 "/>
      <path class="fil4" d="M571.57 662.07c0,4.52 -3.67,8.18 -8.18,8.18 -4.52,0 -8.19,-3.66 -8.19,-8.18 0,-4.52 3.67,-8.18 8.19,-8.18 4.51,0 8.18,3.66 8.18,8.18z"/>
      <path class="fil4" d="M1134.79 642.75c-22.43,0 -40.68,18.25 -40.68,40.67 0,22.43 18.25,40.68 40.68,40.68 22.42,0 40.68,-18.25 40.68,-40.68 0,-22.42 -18.26,-40.67 -40.68,-40.67zm0 86.8c-25.44,0 -46.13,-20.69 -46.13,-46.13 0,-25.44 20.69,-46.12 46.13,-46.12 25.44,0 46.13,20.69 46.13,46.12 0,25.44 -20.7,46.13 -46.13,46.13z"/>
      <path class="fil4" d="M1144.37 672.19c0,5.89 -4.78,10.67 -10.68,10.67 -5.89,0 -10.68,-4.78 -10.68,-10.67 0,-5.9 4.79,-10.68 10.68,-10.68 5.9,0 10.68,4.78 10.68,10.68z"/>
      <path class="fil4" d="M1149.23 698.89c0,5.89 -6.95,7.84 -15.54,7.84 -8.59,0 -15.54,-1.95 -15.54,-7.84 0,-5.91 6.95,-13.53 15.54,-13.53 8.59,0 15.54,7.62 15.54,13.53z"/>
      <path class="fil4" d="M1391.14 650.31c-8.28,0 -15.01,6.21 -15.01,13.84 0,7.64 6.72,13.86 15.01,13.86 8.28,0 15,-6.22 15,-13.86 0,-7.63 -6.72,-13.84 -15,-13.84zm0 33.15c-11.3,0 -20.47,-8.66 -20.47,-19.31 0,-10.64 9.17,-19.29 20.47,-19.29 11.28,0 20.46,8.65 20.46,19.29 0,10.65 -9.18,19.31 -20.46,19.31z"/>
      <path class="fil4" d="M1391.14 692.32c-13.17,0 -23.08,11.04 -23.08,18.2 0,8.18 14.46,9.42 23.08,9.42 8.61,0 23.07,-1.24 23.07,-9.42 0,-7.17 -9.92,-18.2 -23.07,-18.2zm0 33.07c-23.59,0 -28.53,-8.08 -28.53,-14.87 0,-10.72 12.72,-23.66 28.53,-23.66 15.8,0 28.52,12.94 28.52,23.66 0,6.79 -4.95,14.87 -28.52,14.87z"/>
      <path class="fil4" d="M1432.17 659.56c-5.85,0 -10.63,4.37 -10.63,9.76 0,5.38 4.78,9.77 10.63,9.77 5.86,0 10.63,-4.39 10.63,-9.77 0,-5.39 -4.78,-9.76 -10.63,-9.76zm0 24.98c-8.87,0 -16.07,-6.83 -16.07,-15.22 0,-8.39 7.2,-15.21 16.07,-15.21 8.88,0 16.09,6.82 16.09,15.21 0,8.39 -7.21,15.22 -16.09,15.22z"/>
      <path class="fil4" d="M1432.17 716.12c-7.35,0 -12.94,-1.02 -16.61,-3.06l2.63 -4.77c2.82,1.55 7.64,2.38 13.97,2.38 6.24,0 16.71,-0.83 16.71,-6.41 0,-5.14 -7.17,-13.04 -16.71,-13.04 -7.74,0 -14.47,5.52 -16.27,10.66l-5.14 -1.81c2.42,-6.94 10.76,-14.31 21.41,-14.31 12.29,0 22.16,10.12 22.16,18.49 0,5.41 -3.84,11.87 -22.16,11.87z"/>
      <path class="fil4" d="M1112.84 683.11c4.75,0 8.57,-3.83 8.57,-8.58 0,-4.76 -3.83,-8.59 -8.57,-8.59 -4.74,0 -8.59,3.83 -8.59,8.59 0,4.76 3.84,8.58 8.59,8.58z"/>
      <path class="fil4" d="M1154.54 685.12c-3.19,0 -6.07,1.33 -8.28,3.22 3.62,3.19 5.92,7.4 5.92,11.09 0,1.02 -0.23,1.91 -0.56,2.74 0.94,0.07 1.9,0.13 2.91,0.13 6.89,0 12.49,-1.57 12.49,-6.31 0,-4.75 -5.59,-10.87 -12.49,-10.87z"/>
      <path class="fil4" d="M1154.54 683.11c4.75,0 8.59,-3.83 8.59,-8.58 0,-4.76 -3.84,-8.59 -8.59,-8.59 -4.74,0 -8.59,3.83 -8.59,8.59 0,4.76 3.84,8.58 8.59,8.58z"/>
      <path class="fil4" d="M1115.2 699.43c0,-3.68 2.29,-7.88 5.91,-11.09 -2.2,-1.88 -5.08,-3.22 -8.27,-3.22 -6.9,0 -12.5,6.12 -12.5,10.86 0,4.75 5.6,6.31 12.5,6.31 1,0 1.96,-0.05 2.91,-0.11 -0.33,-0.84 -0.55,-1.73 -0.55,-2.76z"/>
      <polygon class="fil4" points="1722.68,655.47 1641.1,655.47 1641.1,650.02 1722.68,650.02 "/>
      <polygon class="fil4" points="1722.68,688.21 1641.1,688.21 1641.1,682.76 1722.68,682.76 "/>
      <polygon class="fil4" points="1722.68,720.93 1641.1,720.93 1641.1,715.48 1722.68,715.48 "/>
      <path class="fil5" d="M849.07 651.27c0,-3.21 2.51,-5.79 5.61,-5.79 2.45,0 4.46,1.65 5.23,3.92 -0.15,0 -0.29,-0.05 -0.43,-0.05 -3.67,0 -7.15,0.76 -10.39,1.99 0,-0.01 -0.03,-0.04 -0.03,-0.06zm51.66 38.75c-3.52,-5.11 -8.97,-7.95 -10,-9.32 -1.02,-1.36 -1.85,-4.14 -2.03,-5.38 0,-0.01 -0.12,0 -0.16,-0.01 -1.5,-12.34 -10.48,-22.32 -22.32,-25.11 -0.54,-6.14 -5.46,-10.96 -11.54,-10.96 -6.43,0 -11.65,5.39 -11.65,12.04 0,1.01 0.16,1.98 0.38,2.91 -8.03,5.27 -13.35,14.34 -13.35,24.7 0,2.62 0.45,5.11 1.07,7.53l-0.09 0.02c0,0 0.05,3.59 -2.56,7.69 -2.61,4.08 -4.89,7.61 -4.56,12.26 0.35,4.65 2.28,12.27 10.01,11.48 7.73,-0.79 55.78,-9.2 61.92,-10.68 6.14,-1.48 8.4,-12.04 4.89,-17.16z"/>
      <path class="fil5" d="M843.03 722.76c1.73,4.4 6.68,7.6 12.59,7.6 7.35,0 13.29,-4.9 13.29,-10.95 0,-0.34 -0.09,-0.65 -0.12,-0.98 -9.25,1.61 -18.88,3.25 -25.76,4.33z"/>
      <polygon class="fil6" points="1818.54,405.01 448.83,405.01 448.83,295.69 1818.54,295.69 "/>
      <path class="fil1" d="M1340.06 364.41l7.26 9.12 7.23 -9.12c-2.17,-1.29 -4.67,-2.03 -7.23,-2.03 -2.56,0 -5.07,0.74 -7.26,2.03z"/>
      <path class="fil1" d="M1330.09 351.87l7.69 9.67c2.83,-1.8 6.15,-2.84 9.54,-2.84 3.38,0 6.71,1.04 9.54,2.84l7.69 -9.66c-5.04,-3.51 -11.07,-5.45 -17.23,-5.45 -6.18,0 -12.22,1.94 -17.23,5.44z"/>
      <path class="fil1" d="M1347.32 314.54c-13.56,0 -26.33,4.32 -37.09,12.4l7.63 9.61c8.54,-6.37 18.68,-9.74 29.46,-9.74 10.77,0 20.91,3.37 29.46,9.74l7.62 -9.61c-10.76,-8.08 -23.53,-12.4 -37.08,-12.4z"/>
      <path class="fil1" d="M1320.15 339.43l7.63 9.57c5.68,-4.03 12.55,-6.25 19.54,-6.25 6.99,0 13.82,2.22 19.51,6.25l7.63 -9.57c-7.89,-5.84 -17.25,-8.93 -27.15,-8.93 -9.94,0 -19.29,3.09 -27.17,8.93z"/>
      <polygon class="fil1" points="1312.48,373.53 1327.82,373.53 1320.15,360.24 "/>
      <polygon class="fil1" points="1225.65,331.16 1222.47,327.96 1233.86,316.59 1237.05,319.76 "/>
      <polygon class="fil1" points="1274.19,331.16 1262.82,319.76 1265.99,316.59 1277.38,327.96 "/>
      <path class="fil1" d="M1249.92 324.38c-10.84,0 -19.66,8.82 -19.66,19.64 0,10.86 8.82,19.67 19.66,19.67 10.86,0 19.66,-8.82 19.66,-19.67 0,-10.83 -8.81,-19.64 -19.66,-19.64zm0 43.83c-13.33,0 -24.18,-10.86 -24.18,-24.19 0,-13.33 10.85,-24.16 24.18,-24.16 13.33,0 24.19,10.83 24.19,24.16 0,13.33 -10.86,24.19 -24.19,24.19z"/>
      <path class="fil1" d="M1258.95 355.47c-8.66,-8.66 -10.51,-10.53 -10.71,-11.43l-0.01 -0.11 0 -0.11 0 -14.26 3.38 0 0 13.78c2.03,2.03 9.74,9.75 9.74,9.75l-2.4 2.38z"/>
      <polygon class="fil1" points="1455.91,331.6 1446.28,341.2 1446.28,371.68 1455.91,371.68 "/>
      <polygon class="fil1" points="1432.17,371.69 1441.78,371.69 1441.78,345.7 1432.17,355.33 "/>
      <polygon class="fil7" points="1460.4,327.09 1460.4,371.68 1472.27,371.68 1472.27,315.22 "/>
      <path class="fil7" d="M1539.37 319.69c-1.56,0 -2.85,1.27 -2.85,2.84l0 9.05 -6.74 0c-1.58,0 -2.84,1.28 -2.84,2.86l0 18.05c0,1.57 1.25,2.86 2.84,2.86l6.74 0 0 9.02c0,1.58 1.29,2.85 2.85,2.85l11.43 0 0 -47.53 -11.43 0z"/>
      <path class="fil1" d="M1625.96 364.36l0 -41.83c0,-1.57 -1.27,-2.84 -2.87,-2.84l-72.29 0 0 47.53 72.29 0c1.6,0 2.87,-1.27 2.87,-2.86z"/>
      <path class="fil1" d="M1669.28 360.09l-3.64 0 0 -24.15c0,-2 0.05,-3.92 0.17,-5.71 -0.32,0.34 -0.67,0.68 -1.05,1.02 -0.38,0.37 -2.17,1.87 -5.36,4.52l-1.97 -2.63 8.69 -6.93 3.16 0 0 33.88zm34.26 -16.99c0,5.85 -0.88,10.22 -2.68,13.12 -1.79,2.9 -4.53,4.34 -8.22,4.34 -3.53,0 -6.22,-1.48 -8.06,-4.44 -1.84,-2.95 -2.77,-7.3 -2.77,-13.01 0,-5.91 0.89,-10.28 2.68,-13.15 1.79,-2.85 4.5,-4.28 8.15,-4.28 3.56,0 6.28,1.49 8.13,4.47 1.84,2.99 2.77,7.3 2.77,12.96zm-17.95 0c0,4.94 0.56,8.52 1.68,10.76 1.12,2.25 2.91,3.37 5.37,3.37 2.49,0 4.3,-1.14 5.42,-3.42 1.11,-2.27 1.67,-5.85 1.67,-10.72 0,-4.86 -0.56,-8.42 -1.67,-10.7 -1.12,-2.26 -2.92,-3.39 -5.42,-3.39 -2.46,0 -4.25,1.12 -5.37,3.35 -1.12,2.23 -1.68,5.81 -1.68,10.74zm23.67 14.53c0,-1.04 0.23,-1.82 0.69,-2.36 0.46,-0.52 1.11,-0.79 1.96,-0.79 0.87,0 1.55,0.27 2.03,0.79 0.48,0.54 0.74,1.32 0.74,2.36 0,1.01 -0.25,1.78 -0.75,2.31 -0.5,0.55 -1.17,0.83 -2.02,0.83 -0.78,0 -1.4,-0.24 -1.89,-0.74 -0.51,-0.49 -0.76,-1.28 -0.76,-2.4zm0 -20.46c0,-2.08 0.88,-3.12 2.65,-3.12 1.84,0 2.77,1.04 2.77,3.12 0,1.01 -0.25,1.77 -0.75,2.31 -0.5,0.55 -1.17,0.83 -2.02,0.83 -0.78,0 -1.4,-0.24 -1.89,-0.74 -0.51,-0.49 -0.76,-1.28 -0.76,-2.4zm34.23 15.13l-4.86 0 0 7.79 -3.58 0 0 -7.79 -15.98 0 0 -3.36 15.61 -22.91 3.96 0 0 22.78 4.86 0 0 3.49zm-8.44 -3.49l0 -11.27c0,-2.21 0.08,-4.7 0.22,-7.48l-0.18 0c-0.72,1.48 -1.39,2.7 -2.03,3.67l-10.27 15.07 12.25 0zm33.39 -5.71c0,5.85 -0.88,10.22 -2.68,13.12 -1.79,2.9 -4.53,4.34 -8.22,4.34 -3.53,0 -6.22,-1.48 -8.06,-4.44 -1.84,-2.95 -2.77,-7.3 -2.77,-13.01 0,-5.91 0.88,-10.28 2.68,-13.15 1.79,-2.85 4.5,-4.28 8.15,-4.28 3.56,0 6.28,1.49 8.13,4.47 1.84,2.99 2.77,7.3 2.77,12.96zm-17.95 0c0,4.94 0.56,8.52 1.68,10.76 1.12,2.25 2.91,3.37 5.37,3.37 2.5,0 4.3,-1.14 5.42,-3.42 1.11,-2.27 1.67,-5.85 1.67,-10.72 0,-4.86 -0.56,-8.42 -1.67,-10.7 -1.12,-2.26 -2.92,-3.39 -5.42,-3.39 -2.46,0 -4.25,1.12 -5.37,3.35 -1.12,2.23 -1.68,5.81 -1.68,10.74z"/>
      <path class="fil8" d="M734.15 948.54c0,67.3 -54.55,121.85 -121.86,121.85 -67.3,0 -121.83,-54.56 -121.83,-121.85 0,-67.31 54.54,-121.86 121.83,-121.86 67.31,0 121.86,54.56 121.86,121.86z"/>
      <path class="fil9" d="M741.01 1024.88c0,29.25 -23.69,52.96 -52.94,52.96 -29.24,0 -52.95,-23.71 -52.95,-52.96 0,-29.23 23.7,-52.94 52.95,-52.94 29.25,0 52.94,23.71 52.94,52.94z"/>
      <path class="fil1" d="M708.62 1043.42c-3.79,0 -5.74,-2.17 -7.17,-3.74 -1.22,-1.34 -1.82,-1.95 -3.14,-1.95 -1.3,0 -1.9,0.61 -3.13,1.95 -1.42,1.57 -3.38,3.74 -7.15,3.74 -3.79,0 -5.73,-2.17 -7.15,-3.76 -1.22,-1.33 -1.83,-1.94 -3.11,-1.94 -1.32,0 -1.91,0.61 -3.12,1.95 -1.43,1.57 -3.39,3.74 -7.16,3.74 -3.79,0 -5.73,-2.17 -7.17,-3.76 -1.09,-1.22 -1.74,-1.76 -2.81,-1.85l0 11.52c0,3.19 2.58,5.78 5.78,5.78l49.59 0c3.18,0 5.77,-2.59 5.77,-5.78l0 -11.52c-1.1,0.09 -1.72,0.63 -2.85,1.87 -1.43,1.57 -3.38,3.74 -7.17,3.74z"/>
      <path class="fil1" d="M712.87 1017.62l-49.58 0c-3.21,0 -5.79,2.59 -5.79,5.78l0 8.92c3.58,0.11 5.49,2.16 6.87,3.7 1.23,1.34 1.83,1.94 3.12,1.94 1.3,0 1.9,-0.6 3.11,-1.95 1.43,-1.57 3.39,-3.73 7.17,-3.73 3.78,0 5.73,2.16 7.15,3.74 1.22,1.34 1.8,1.94 3.11,1.94 1.3,0 1.9,-0.6 3.12,-1.95 1.43,-1.57 3.38,-3.73 7.17,-3.73 3.78,0 5.73,2.16 7.17,3.73 1.22,1.35 1.82,1.95 3.12,1.95 1.32,0 1.92,-0.6 3.14,-1.95 1.39,-1.54 3.32,-3.59 6.9,-3.7l0 -8.92c0,-3.19 -2.59,-5.78 -5.78,-5.78z"/>
      <path class="fil1" d="M695.34 1007.81c0,-1.17 -0.95,-2.12 -2.12,-2.12l-10.3 0c-1.17,0 -2.12,0.95 -2.12,2.12l0 5.27 14.54 0 0 -5.27z"/>
      <path class="fil1" d="M688.07 1003.2c2.08,0 3.74,-1.68 3.74,-3.76 0,-2.08 -1.67,-6.47 -3.74,-6.47 -2.08,0 -3.76,4.4 -3.76,6.47 0,2.08 1.68,3.76 3.76,3.76z"/>
      <path class="fil4" d="M1730.56 948.54c0,3.95 -3.19,7.16 -7.16,7.16 -3.94,0 -7.16,-3.21 -7.16,-7.16 0,-3.96 3.22,-7.17 7.16,-7.17 3.97,0 7.16,3.21 7.16,7.17z"/>
      <path class="fil4" d="M1753.73 948.54c0,3.95 -3.19,7.16 -7.16,7.16 -3.94,0 -7.16,-3.21 -7.16,-7.16 0,-3.96 3.22,-7.17 7.16,-7.17 3.97,0 7.16,3.21 7.16,7.17z"/>
      <path class="fil4" d="M1776.92 948.54c0,3.95 -3.21,7.16 -7.16,7.16 -3.95,0 -7.16,-3.21 -7.16,-7.16 0,-3.96 3.2,-7.17 7.16,-7.17 3.95,0 7.16,3.21 7.16,7.17z"/>
      <polygon class="fil10" points="1581.02,897.46 824.76,897.46 824.76,881.09 1581.02,881.09 "/>
      <polygon class="fil10" points="1581.02,956.72 824.76,956.72 824.76,940.36 1581.02,940.36 "/>
      <polygon class="fil11" points="1139.27,1015.98 824.76,1015.98 824.76,999.61 1139.27,999.61 "/>
      <path class="fil8" d="M734.15 1268.8c0,67.3 -54.55,121.85 -121.86,121.85 -67.3,0 -121.83,-54.55 -121.83,-121.85 0,-67.31 54.54,-121.86 121.83,-121.86 67.31,0 121.86,54.55 121.86,121.86z"/>
      <path class="fil12" d="M741.01 1345.14c0,29.24 -23.69,52.95 -52.94,52.95 -29.24,0 -52.95,-23.71 -52.95,-52.95 0,-29.23 23.7,-52.94 52.95,-52.94 29.25,0 52.94,23.71 52.94,52.94z"/>
      <path class="fil1" d="M670.75 1339.01l-8.27 0c-1.17,0 -2.13,0.95 -2.13,2.12l0 24.52c0,1.17 0.97,2.11 2.13,2.11l8.27 0c1.15,0 2.11,-0.93 2.11,-2.11l0 -24.52c0,-1.17 -0.96,-2.12 -2.11,-2.12z"/>
      <path class="fil1" d="M707.63 1332.2l-11.6 0 0 -11.82c0,-2.05 -2.27,-5.79 -4.09,-5.79l-4.33 0c-0.78,0 -1.8,1.6 -1.8,4.2l0 7.16c0,1.48 -2.16,5.68 -3.76,7.84 -1.59,2.17 -4.77,4.1 -4.77,7.05l0 20.9c0,2.05 1.7,4.66 6.15,4.66l19.77 0c2.71,0 4.88,-0.45 7.61,-6.59 2.72,-6.14 3.97,-8.87 3.97,-13.86l0 -8.42c0,-2.59 -2.28,-5.33 -7.16,-5.33z"/>
      <path class="fil4" d="M1730.56 1268.8c0,3.95 -3.19,7.16 -7.16,7.16 -3.94,0 -7.16,-3.21 -7.16,-7.16 0,-3.97 3.22,-7.17 7.16,-7.17 3.97,0 7.16,3.21 7.16,7.17z"/>
      <path class="fil4" d="M1753.73 1268.8c0,3.95 -3.19,7.16 -7.16,7.16 -3.94,0 -7.16,-3.21 -7.16,-7.16 0,-3.97 3.22,-7.17 7.16,-7.17 3.97,0 7.16,3.21 7.16,7.17z"/>
      <path class="fil4" d="M1776.92 1268.8c0,3.95 -3.21,7.16 -7.16,7.16 -3.95,0 -7.16,-3.21 -7.16,-7.16 0,-3.97 3.2,-7.17 7.16,-7.17 3.95,0 7.16,3.21 7.16,7.17z"/>
      <polygon class="fil10" points="1581.02,1224.88 824.76,1224.88 824.76,1208.51 1581.02,1208.51 "/>
      <polygon class="fil10" points="1581.02,1284.12 824.76,1284.12 824.76,1267.77 1581.02,1267.77 "/>
      <polygon class="fil11" points="1139.27,1343.39 824.76,1343.39 824.76,1327.03 1139.27,1327.03 "/>
      <path class="fil8" d="M734.15 2229.56c0,67.29 -54.55,121.85 -121.86,121.85 -67.3,0 -121.83,-54.56 -121.83,-121.85 0,-67.3 54.54,-121.85 121.83,-121.85 67.31,0 121.86,54.56 121.86,121.85z"/>
      <path class="fil12" d="M741.01 2305.91c0,29.24 -23.69,52.95 -52.94,52.95 -29.24,0 -52.95,-23.72 -52.95,-52.95 0,-29.24 23.7,-52.95 52.95,-52.95 29.25,0 52.94,23.71 52.94,52.95z"/>
      <path class="fil1" d="M670.75 2299.78l-8.27 0c-1.17,0 -2.13,0.94 -2.13,2.11l0 24.53c0,1.15 0.97,2.1 2.13,2.1l8.27 0c1.15,0 2.11,-0.94 2.11,-2.1l0 -24.53c0,-1.17 -0.96,-2.11 -2.11,-2.11z"/>
      <path class="fil1" d="M707.63 2292.96l-11.6 0 0 -11.82c0,-2.05 -2.27,-5.78 -4.09,-5.78l-4.33 0c-0.78,0 -1.8,1.58 -1.8,4.19l0 7.16c0,1.48 -2.16,5.68 -3.76,7.84 -1.59,2.16 -4.77,4.09 -4.77,7.04l0 20.92c0,2.03 1.7,4.66 6.15,4.66l19.77 0c2.71,0 4.88,-0.46 7.61,-6.59 2.72,-6.14 3.97,-8.88 3.97,-13.86l0 -8.42c0,-2.61 -2.28,-5.34 -7.16,-5.34z"/>
      <path class="fil4" d="M1730.56 2229.56c0,3.95 -3.19,7.16 -7.16,7.16 -3.94,0 -7.16,-3.21 -7.16,-7.16 0,-3.95 3.22,-7.16 7.16,-7.16 3.97,0 7.16,3.21 7.16,7.16z"/>
      <path class="fil4" d="M1753.73 2229.56c0,3.95 -3.19,7.16 -7.16,7.16 -3.94,0 -7.16,-3.21 -7.16,-7.16 0,-3.95 3.22,-7.16 7.16,-7.16 3.97,0 7.16,3.21 7.16,7.16z"/>
      <path class="fil4" d="M1776.92 2229.56c0,3.95 -3.21,7.16 -7.16,7.16 -3.95,0 -7.16,-3.21 -7.16,-7.16 0,-3.95 3.2,-7.16 7.16,-7.16 3.95,0 7.16,3.21 7.16,7.16z"/>
      <polygon class="fil10" points="1581.02,2185.65 824.76,2185.65 824.76,2169.28 1581.02,2169.28 "/>
      <polygon class="fil10" points="1581.02,2244.91 824.76,2244.91 824.76,2228.54 1581.02,2228.54 "/>
      <polygon class="fil11" points="1139.27,2304.15 824.76,2304.15 824.76,2287.79 1139.27,2287.79 "/>
      <path class="fil8" d="M734.15 2549.82c0,67.3 -54.55,121.85 -121.86,121.85 -67.3,0 -121.83,-54.55 -121.83,-121.85 0,-67.3 54.54,-121.85 121.83,-121.85 67.31,0 121.86,54.55 121.86,121.85z"/>
      <path class="fil12" d="M741.01 2626.17c0,29.24 -23.69,52.96 -52.94,52.96 -29.24,0 -52.95,-23.72 -52.95,-52.96 0,-29.24 23.7,-52.95 52.95,-52.95 29.25,0 52.94,23.71 52.94,52.95z"/>
      <path class="fil1" d="M670.75 2620.04l-8.27 0c-1.17,0 -2.13,0.94 -2.13,2.11l0 24.53c0,1.16 0.97,2.1 2.13,2.1l8.27 0c1.15,0 2.11,-0.94 2.11,-2.1l0 -24.53c0,-1.17 -0.96,-2.11 -2.11,-2.11z"/>
      <path class="fil1" d="M707.63 2613.21l-11.6 0 0 -11.82c0,-2.05 -2.27,-5.78 -4.09,-5.78l-4.33 0c-0.78,0 -1.8,1.58 -1.8,4.2l0 7.16c0,1.48 -2.16,5.68 -3.76,7.84 -1.59,2.16 -4.77,4.09 -4.77,7.04l0 20.91c0,2.04 1.7,4.66 6.15,4.66l19.77 0c2.71,0 4.88,-0.45 7.61,-6.59 2.72,-6.15 3.97,-8.88 3.97,-13.87l0 -8.41c0,-2.61 -2.28,-5.34 -7.16,-5.34z"/>
      <path class="fil4" d="M1730.56 2549.82c0,3.95 -3.19,7.16 -7.16,7.16 -3.94,0 -7.16,-3.21 -7.16,-7.16 0,-3.95 3.22,-7.16 7.16,-7.16 3.97,0 7.16,3.21 7.16,7.16z"/>
      <path class="fil4" d="M1753.73 2549.82c0,3.95 -3.19,7.16 -7.16,7.16 -3.94,0 -7.16,-3.21 -7.16,-7.16 0,-3.95 3.22,-7.16 7.16,-7.16 3.97,0 7.16,3.21 7.16,7.16z"/>
      <path class="fil4" d="M1776.92 2549.82c0,3.95 -3.21,7.16 -7.16,7.16 -3.95,0 -7.16,-3.21 -7.16,-7.16 0,-3.95 3.2,-7.16 7.16,-7.16 3.95,0 7.16,3.21 7.16,7.16z"/>
      <polygon class="fil10" points="1581.02,2505.91 824.76,2505.91 824.76,2489.54 1581.02,2489.54 "/>
      <polygon class="fil10" points="1581.02,2565.15 824.76,2565.15 824.76,2548.79 1581.02,2548.79 "/>
      <polygon class="fil11" points="1139.27,2624.41 824.76,2624.41 824.76,2608.05 1139.27,2608.05 "/>
      <path class="fil8" d="M734.15 1590.12c0,67.3 -54.55,121.85 -121.86,121.85 -67.3,0 -121.83,-54.55 -121.83,-121.85 0,-67.3 54.54,-121.85 121.83,-121.85 67.31,0 121.86,54.55 121.86,121.85z"/>
      <path class="fil13" d="M741.01 1664.34c0,29.24 -23.69,52.95 -52.94,52.95 -29.24,0 -52.95,-23.72 -52.95,-52.95 0,-29.23 23.7,-52.95 52.95,-52.95 29.25,0 52.94,23.72 52.94,52.95z"/>
      <path class="fil1" d="M705.34 1639.31l-32.82 0c-6.21,0 -11.27,5.01 -11.27,11.23l0 20.68c0,6.22 5.06,11.23 11.27,11.23l1.21 0 0 13.79 16.21 -13.79 15.4 0c6.22,0 11.26,-5.01 11.26,-11.23l0 -20.68c0,-6.21 -5.04,-11.23 -11.26,-11.23z"/>
      <path class="fil4" d="M1730.56 1590.12c0,3.95 -3.19,7.16 -7.16,7.16 -3.94,0 -7.16,-3.21 -7.16,-7.16 0,-3.95 3.22,-7.16 7.16,-7.16 3.97,0 7.16,3.21 7.16,7.16z"/>
      <path class="fil4" d="M1753.73 1590.12c0,3.95 -3.19,7.16 -7.16,7.16 -3.94,0 -7.16,-3.21 -7.16,-7.16 0,-3.95 3.22,-7.16 7.16,-7.16 3.97,0 7.16,3.21 7.16,7.16z"/>
      <path class="fil4" d="M1776.92 1590.12c0,3.95 -3.21,7.16 -7.16,7.16 -3.95,0 -7.16,-3.21 -7.16,-7.16 0,-3.95 3.2,-7.16 7.16,-7.16 3.95,0 7.16,3.21 7.16,7.16z"/>
      <polygon class="fil10" points="1581.02,1526.99 824.76,1526.99 824.76,1510.64 1581.02,1510.64 "/>
      <polygon class="fil10" points="1581.02,1586.27 824.76,1586.27 824.76,1569.89 1581.02,1569.89 "/>
      <polygon class="fil11" points="1139.27,1645.51 824.76,1645.51 824.76,1629.14 1139.27,1629.14 "/>
      <path class="fil8" d="M734.15 1910.36c0,67.3 -54.55,121.86 -121.86,121.86 -67.3,0 -121.83,-54.56 -121.83,-121.86 0,-67.29 54.54,-121.85 121.83,-121.85 67.31,0 121.86,54.56 121.86,121.85z"/>
      <path class="fil13" d="M741.01 1984.59c0,29.24 -23.69,52.95 -52.94,52.95 -29.24,0 -52.95,-23.71 -52.95,-52.95 0,-29.24 23.7,-52.94 52.95,-52.94 29.25,0 52.94,23.71 52.94,52.94z"/>
      <path class="fil1" d="M705.34 1959.57l-32.82 0c-6.21,0 -11.27,5.01 -11.27,11.23l0 20.69c0,6.21 5.06,11.22 11.27,11.22l1.21 0 0 13.79 16.21 -13.79 15.4 0c6.22,0 11.26,-5.01 11.26,-11.22l0 -20.69c0,-6.22 -5.04,-11.23 -11.26,-11.23z"/>
      <path class="fil4" d="M1730.56 1910.36c0,3.95 -3.19,7.16 -7.16,7.16 -3.94,0 -7.16,-3.21 -7.16,-7.16 0,-3.95 3.22,-7.16 7.16,-7.16 3.97,0 7.16,3.21 7.16,7.16z"/>
      <path class="fil4" d="M1753.73 1910.36c0,3.95 -3.19,7.16 -7.16,7.16 -3.94,0 -7.16,-3.21 -7.16,-7.16 0,-3.95 3.22,-7.16 7.16,-7.16 3.97,0 7.16,3.21 7.16,7.16z"/>
      <path class="fil4" d="M1776.92 1910.36c0,3.95 -3.21,7.16 -7.16,7.16 -3.95,0 -7.16,-3.21 -7.16,-7.16 0,-3.95 3.2,-7.16 7.16,-7.16 3.95,0 7.16,3.21 7.16,7.16z"/>
      <polygon class="fil10" points="1581.02,1847.25 824.76,1847.25 824.76,1830.88 1581.02,1830.88 "/>
      <polygon class="fil10" points="1581.02,1906.51 824.76,1906.51 824.76,1890.15 1581.02,1890.15 "/>
      <polygon class="fil11" points="1139.27,1965.76 824.76,1965.76 824.76,1949.39 1139.27,1949.39 "/>
      <line class="fil14 str0" x1="448.84" y1="1113.42" x2="1818.54" y2= "1113.42" />
      <line class="fil14 str0" x1="448.84" y1="1432" x2="1818.54" y2= "1432" />
      <line class="fil14 str0" x1="448.84" y1="1750.6" x2="1818.54" y2= "1750.6" />
      <line class="fil14 str0" x1="448.84" y1="2069.2" x2="1818.54" y2= "2069.2" />
      <line class="fil14 str0" x1="448.84" y1="2387.8" x2="1818.54" y2= "2387.8" />
     </g>
    </g>
   </g>
   <g style="clip-path:url(#id2)">
    <path class="fil15 str1" d="M487.03 295.69l1293.31 0c21.01,0 38.2,17.18 38.2,38.2l0 1697.12c0,21.01 -17.18,38.2 -38.2,38.2l-1293.31 0c-21.01,0 -38.2,-17.18 -38.2,-38.2l0 -1697.12c0,-21.01 17.18,-38.2 38.2,-38.2z"/>
   </g>
  </g>
  <path class="fil14" d="M2173.69 0l-2072.5 0c-55.88,0 -101.2,47.21 -101.2,105.42l0 1518c0,58.21 45.32,105.42 101.2,105.42l2072.5 0c55.88,0 101.2,-47.21 101.2,-105.42l0 -1518c0,-58.21 -45.32,-105.42 -101.2,-105.42z"/>
 </g>
</svg>
