<?xml version="1.0" encoding="UTF-8"?>
<!DOCTYPE svg PUBLIC "-//W3C//DTD SVG 1.1//EN" "http://www.w3.org/Graphics/SVG/1.1/DTD/svg11.dtd">
<!-- Creator: CorelDRAW -->
<svg xmlns="http://www.w3.org/2000/svg" xml:space="preserve" width="20.102mm" height="24.6195mm" version="1.1" style="shape-rendering:geometricPrecision; text-rendering:geometricPrecision; image-rendering:optimizeQuality; fill-rule:evenodd; clip-rule:evenodd"
viewBox="0 0 601.87 737.13"
 xmlns:xlink="http://www.w3.org/1999/xlink"
 xmlns:xodm="http://www.corel.com/coreldraw/odm/2003">
 <defs>
  <style type="text/css">
   <![CDATA[
    .fil0 {fill:whitesmoke}
   ]]>
  </style>
 </defs>
 <g id="Слой_x0020_1">
  <metadata id="CorelCorpID_0Corel-Layer"/>
  <path class="fil0" d="M225.87 620.96c4.12,-2.47 9.26,-4.15 13.75,-6.46 5.68,-2.92 7.69,-3.74 11.29,-8.66 -0.21,8.65 -1.94,8.72 -4.5,14.71 -4.34,10.16 -6.54,15.84 -13.34,15.55 -12.74,-0.55 -3.31,-2.97 -13.64,4.15 -2.23,1.53 -2.99,2.63 -5.79,4.09 0.22,6.63 -0.01,8.28 -3.82,11.28 -1.13,-5.05 -2.73,-7.88 -3.72,-12.78 -0.84,-4.15 -6.53,-19.48 -8.01,-27.94 -2.89,-16.57 -7.16,-24.9 -4.13,-47.62 1.05,-7.88 8.69,-18.11 16.65,-18.74 -6.97,15.58 -1.66,31.99 5.89,45.83l4.1 8.09c2.13,4.5 3.87,13.29 5.27,18.52zm122.56 -96.92c2.25,0.95 4.5,2.39 6.82,3.3l14.11 6.01c3.54,1.78 3.77,0.93 4.43,5.63 1.07,7.62 1.24,11.33 0.45,19.18l-17.53 85.14c-5.1,-1.72 -16.03,-11.16 -25.27,-11.38 -7.2,-0.17 -17.51,1.84 -23.11,-4.51 -4.91,-5.56 0.33,-0.88 -5.12,-4.41l3.5 -14.08 8.31 -0.32c-0.85,4.1 -1.82,3.99 -3.03,7.26 2.05,-2.34 21.61,-39.97 22.91,-42.49 4.94,-9.47 21.03,-35.85 13.52,-49.34zm-117.32 -197.39c10.59,-1.64 8.28,0.84 12.03,3.46 7.38,5.15 13.06,5.52 22.95,5.9 0.76,1.09 1.83,2.25 2.45,3.16l7.68 10.28c1.55,1.94 3.48,5.19 4.84,7.35 1.67,2.67 3.36,5.32 4.66,7.52 7.29,12.31 5.45,6.64 0.19,26.51 -1.02,3.86 -2.51,5.4 -3.39,8.83 -3.28,12.73 -6.52,25.84 -8.46,39.64 -0.33,2.32 -0.26,2.76 -1.63,4.13 -0.52,0.51 -2.66,2.21 -3.5,2.94 -3.75,3.25 -10.01,6.39 -13.55,10.86 -1.55,1.97 -3.05,5.33 -5.46,6.14l-11.14 -66.46c-3.05,-16.07 -9.35,-54.78 -7.67,-70.26zm103.61 3.19c4.51,-2.47 11.06,-4.14 16.08,-1.16 0.53,5.36 -5.62,34.67 -7.21,41.57 -3.09,13.39 -5.49,26.18 -9.3,39.02 -1.45,-2.77 -1.98,-6.39 -3.26,-9.87 -1.49,-4.02 -2.77,-3.78 -5.72,-6.49 -3.69,-3.4 -6.31,-11.09 -8.64,-15.76 -3.79,-7.6 -2.14,-11.91 -0.23,-20.4 1.99,-8.87 5.31,-6.79 5.84,-18.66l12.44 -8.25zm-100.9 -67.19c0.31,4.8 0.75,9.69 1.32,14.42 0.86,7.01 0.27,6.08 3.86,10.52l10 11.53c1.58,1.74 1.23,1.81 3.4,3.78 15.78,14.34 22.99,14.73 29.6,20.61 0.7,0.63 1.21,1.25 1.74,1.84l1.49 1.73c0.07,-0.13 0.27,0.31 0.34,0.21l-10.28 1.64c-0.54,-0.76 -0.11,0.09 -0.78,-1.49 -0.87,-2.03 -0.46,-2.72 -2.03,-4.39 -5.57,-5.91 -9.89,-6.5 -18.06,-5.44 -17.74,2.3 -14.26,3.44 -26.03,8.01 0.63,-11.43 -2.9,-13.2 -2.19,-33.49 0.19,-5.63 0.37,-10.12 2.41,-15.31 0.97,-2.46 1.15,-4.15 2.06,-6.55 1.26,-3.31 2.46,-3.8 1.48,-5.32 -0.17,1.37 0.02,0.56 -0.66,1.89 -1.96,3.85 -20.41,26.55 -22.87,28.78 -3.57,3.22 -11.96,7.75 -17.34,9.95l-103.83 46.19c-3.09,1.39 -5.73,3.28 -9.63,4.12 -6.23,1.35 -10.46,1.91 -14.8,12.34 -4.56,10.96 -10.76,54.73 -13.23,68.65l-5.25 22.03c-2.01,9.31 -3.93,25.43 -5.01,35.96 -0.82,7.98 0.03,5.93 1.64,11.85 -2.52,2.4 -2.14,-0.13 -4.05,7.91 -2.62,11.1 -5.31,17.71 -7.39,31.33 -2.53,16.55 -11.25,21.64 -14.15,37.55 -1.32,7.25 -1.75,14.88 -3.38,21.76 -1.78,7.53 -4.95,11.41 -7.94,17.91 -5.16,11.21 -5.21,33.95 -2.4,46.57l5.66 19.41c3.64,8.68 4.81,14.57 10.27,22.07 9.22,12.66 16.96,11.68 33.41,9.87 8.3,-0.91 13.19,-3.97 20.86,-5.01l34.78 -4.01c3.72,-0.52 6.56,-1.75 10.23,-2.67 10.39,-2.62 11.95,-4.93 18.98,-6.93 -1.63,21.68 -0.37,14.99 -7.91,34.66l333.46 0c-2.97,-13.81 -8.87,-36.79 -6.99,-51.25 5.84,1.26 12.39,5.3 19,6.58 19.01,3.7 25.95,5.76 48.03,4.95 20.72,-0.76 51.05,10.47 64.47,-11.39 3.27,-5.33 6.04,-11.7 8.11,-18.47 1.25,-4.09 0.58,-7.28 2.57,-11.05 9.34,-17.69 4.12,-39.42 -2.02,-55.62 -2.78,-7.34 -4.11,-8.18 -7.19,-19.39 -2.03,-7.41 -3.05,-14.52 -5.8,-21.49 -2.29,-5.81 -5.03,-13.38 -6.77,-19.8 -1.6,-5.9 -5.45,-14.18 -7.41,-19.85 -2.89,-8.35 1.26,-14.58 -4,-22.58 -3.46,-5.25 -2.86,-1.4 -3.95,-9.68 -0.49,-3.71 -0.5,-8.5 -2.02,-11.62 -1.84,-3.79 -3.3,-3.78 -3.22,-9.93 0.23,-18.85 -0.26,-15.84 -4.9,-35.06 -1.55,-6.43 -2.07,-17.22 -4.01,-22.51 -2.04,-5.56 -6.53,-13.58 -7.03,-20.15 -0.94,-12.2 -0.75,-11.08 -3.85,-22.9 -1.77,-6.73 -8,-22.38 -13.99,-26.21 -4.7,-3.01 -6.43,0.05 -10.16,-1.93 -1.28,-0.68 -2.44,-1.71 -4.04,-2.48 -13.1,-6.3 -47.09,-17.96 -62.98,-23.91 -9.82,-3.68 -20.46,-6.3 -29.81,-11.09 -3.21,-1.65 -5.69,-2.29 -9.05,-3.88 -3.17,-1.5 -6.56,-2.54 -9.51,-4.11 -5.1,-2.72 -27.49,-20.02 -30.26,-23.56 -0.71,-0.91 -1.53,-2.82 -2.32,-4.15 -2.19,-3.66 -6.72,-8.64 -11.2,-9.81 1.64,5.33 3.29,8.08 4.98,15.3 3.23,13.81 0.77,21.79 -1.24,35.54 -0.88,6.05 -1.03,12.28 -1.65,18.6 -6.4,1.37 -18.67,-1.21 -25.62,-1.79 -4.49,-0.37 -8.62,-2.03 -11.8,0.13 -4.34,2.95 -2.4,4.33 -10.95,3.18 4.84,-3.81 8.29,-2.3 12.97,-8.34l15.77 -17.25c2.81,-3.3 2.99,-2.71 4.02,-7.47 4.21,-19.46 15.37,-13.49 11.26,-43.47 -0.66,-4.86 7.28,-14.24 9.02,-23.73 1.21,-6.58 2.91,-12.08 4.03,-18.2 9.75,0.19 9.83,-4.01 14.16,-9.62 3.18,-4.11 4.56,-13.14 5.05,-19.55 0.7,-9.34 2.81,-13.5 3.3,-19.53 0.33,-4.11 -0.32,-7.4 -1.15,-11.13 -1.67,-7.52 -2.23,-3.51 -4.95,-7.56 2.33,-3.89 3.84,-1.87 3.8,-8.58 -0.03,-6.1 -0.01,-5.63 1.88,-10.45 1.29,-3.29 2.63,-42.47 2.18,-46.09 -0.8,-6.49 -6.15,-10.37 -8.28,-16.71l3.49 -1.37 -1.33 -3.16c1.66,-1.29 0.17,0.91 1.5,-1.41 -0.92,-0.62 -2.97,-2.46 -3.37,-3.05 -0.91,-1.33 -0.51,-0.36 -0.59,-1.63 -0.46,-6.9 1.79,3.39 0.3,-1.97l-5.14 -0.76c1.66,-1.91 3.66,-2.46 6.07,-3.21 -2.67,-1.46 -7.52,-1.24 -10.66,-2.41 -3.36,-1.25 -0.7,0.49 -2.47,-2.22 -3.4,0.97 -2.9,2.6 -7.05,0.29 -2.94,-1.64 -4.29,-3.88 -6.6,-4.71l0.07 -11.71c-2.03,0.83 -3.18,3.83 -4.13,5.41 -0.05,-2.75 0.06,-2.78 1.5,-4.79 -2.84,1.18 -0.87,0.6 -3.18,2.99 -0.47,-0.86 -0.54,-0.19 -0.28,-1.8 0.4,-2.55 0.04,-0.59 0.72,-1.56 -2.98,1.2 -5.1,4.5 -8.93,3.23 -1.61,-0.54 -0.44,0.07 -1.46,-0.69l3.29 -4.97 -1.82 0.13c-0.15,0.01 -1.07,0.07 -1.21,0.07 -0.09,-0 -0.32,-0.03 -0.4,-0.04 -0.08,-0.01 -0.33,-0.05 -0.39,-0.06 -0.06,-0.01 -0.26,-0.03 -0.38,-0.07 1.04,-1.59 3.89,-5.4 4.87,-7.65 -1.5,0.93 -2.23,1.24 -3.83,2.12 -0.97,0.54 -1.49,0.9 -2.2,1.38l-2.56 1.69 1.86 -8.15c-3.2,2.76 -4.22,6.85 -6.68,10.46l-6.68 -2.45c0.89,-3.64 1.05,-1.08 1.75,-4.5 -2.65,-0.02 -6.66,1.52 -9.05,0.42l-2.19 -2.31c-1.63,2.15 -7.65,2.84 -8.36,-9.59 -3.46,2.85 -4.87,7.4 -9.87,8.65 -6.27,1.56 -10.39,2.54 -16.27,-0.42 -6.51,-3.28 -14.04,3.64 -17.8,7.92 -1.87,2.13 -3.96,2.73 -6.96,3.22l0.45 -12.55c-5.12,1.45 -5.79,7.18 -7.59,11.72l-3.44 10.87c-1.2,1.95 -1.67,1.72 -2.97,2.21 -1.57,-3 -2.06,-6.84 -4.32,-9.6l0.34 11.85c-6,1.67 -6.18,4.27 -10.96,6.37 -4.96,2.19 -8.17,4.24 -13.81,4.47l4.13 1.39c-5.78,3.46 -8.98,7.23 -14.55,10.83 -2.65,1.71 -2.58,2.42 -2.95,5.54 -1.41,11.9 -2.98,16.91 1.3,29.26 5.52,15.9 -5.84,21.03 6.37,41 5.01,8.19 -0.02,10.28 -0.25,12.91 1.69,7.69 2.73,6.08 2.43,15.79 -1.17,37.18 10.82,36.58 12.32,43.62 1.99,9.36 3.62,21.52 7,29.67 4.5,10.85 8.66,13.7 8.7,27.93z"/>
 </g>
</svg>
