<?xml version="1.0" encoding="UTF-8"?>
<!DOCTYPE svg PUBLIC "-//W3C//DTD SVG 1.1//EN" "http://www.w3.org/Graphics/SVG/1.1/DTD/svg11.dtd">
<!-- Creator: CorelDRAW -->
<svg xmlns="http://www.w3.org/2000/svg" xml:space="preserve" width="8.4667mm" height="8.4667mm" version="1.1" style="shape-rendering:geometricPrecision; text-rendering:geometricPrecision; image-rendering:optimizeQuality; fill-rule:evenodd; clip-rule:evenodd"
viewBox="0 0 269.64 269.64"
 xmlns:xlink="http://www.w3.org/1999/xlink"
 xmlns:xodm="http://www.corel.com/coreldraw/odm/2003">
 <defs>
  <style type="text/css">
   <![CDATA[
    .fil0 {fill:#2BB24C}
    .fil1 {fill:white}
   ]]>
  </style>
 </defs>
 <g id="Слой_x0020_1">
  <metadata id="CorelCorpID_0Corel-Layer"/>
  <g id="_105553185193568">
   <circle class="fil0" cx="134.82" cy="134.82" r="134.82"/>
   <path class="fil1" d="M119.75 148.87c-1.61,-1.26 -3.53,-3.47 -5.08,-5.02 -1.79,-1.79 -3.43,-3.4 -5.21,-5.18l-31.17 -31.17c-5.08,-5.08 -4.96,-5.25 -11.74,1.54 -3.53,3.53 -6.86,6.86 -10.39,10.39 -1.19,1.19 -4.29,3.71 -4.62,5.77 -0.35,2.16 0.46,2.54 1.47,3.52 10.94,10.62 22.83,22.83 33.7,33.7l11.6 11.73c2.1,3.25 13.45,13.8 16.61,17.08 6.17,6.41 7.04,4.37 15.03,-3.84l11.62 -11.68c0.49,-0.7 0.32,-0.74 1.06,-1.49l69.95 -69.92c6.01,-6.01 8.06,-7.15 1.62,-13.36l-8.08 -8.14c-0.51,-0.53 -0.87,-0.87 -1.39,-1.39l-1.92 -1.88c-0.04,-0.04 -0.1,-0.09 -0.13,-0.12 -0.04,-0.04 -0.1,-0.09 -0.13,-0.12 -1.89,-1.82 -5.83,-7.35 -10.21,-3.08 -3.55,3.46 -6.87,6.88 -10.38,10.39l-62.21 62.27z"/>
  </g>
 </g>
</svg>
