<?xml version="1.0" encoding="UTF-8"?>
<!DOCTYPE svg PUBLIC "-//W3C//DTD SVG 1.1//EN" "http://www.w3.org/Graphics/SVG/1.1/DTD/svg11.dtd">
<!-- Creator: CorelDRAW -->
<svg xmlns="http://www.w3.org/2000/svg" xml:space="preserve" width="2.39mm" height="2.3901mm" version="1.1" style="shape-rendering:geometricPrecision; text-rendering:geometricPrecision; image-rendering:optimizeQuality; fill-rule:evenodd; clip-rule:evenodd"
viewBox="0 0 17.74 17.74"
 xmlns:xlink="http://www.w3.org/1999/xlink"
 xmlns:xodm="http://www.corel.com/coreldraw/odm/2003">
 <defs>
  <style type="text/css">
   <![CDATA[
    .fil0 {fill:white}
   ]]>
  </style>
 </defs>
 <g id="Слой_x0020_1">
  <metadata id="CorelCorpID_0Corel-Layer"/>
  <g id="_105553183768096">
   <path class="fil0" d="M2.16 10.66c-0.03,-1.09 -0.02,-2.24 -0,-3.34 0.01,-1.07 0.01,-2.04 0.39,-2.96 0.31,-0.76 0.93,-1.4 1.63,-1.73 0.92,-0.44 1.77,-0.44 2.88,-0.47 1.09,-0.03 2.23,-0.02 3.33,-0 1.07,0.01 2.05,0.01 2.96,0.39 0.76,0.31 1.4,0.93 1.74,1.62 0.42,0.86 0.47,1.82 0.48,2.88 0,1.11 0,2.23 0,3.34 0,1.08 -0,2.05 -0.38,2.98 -0.31,0.76 -0.93,1.4 -1.63,1.73 -0.87,0.42 -1.82,0.47 -2.89,0.47 -1.11,0 -2.23,0 -3.34,0 -1.07,0 -2.05,-0.01 -2.97,-0.39 -0.75,-0.31 -1.4,-0.94 -1.72,-1.63 -0.44,-0.93 -0.44,-1.76 -0.47,-2.88zm-2.16 -6.88l0 10.17c0,1.27 0.85,2.65 1.94,3.25 0.11,0.06 0.2,0.11 0.31,0.16 0.36,0.18 0.99,0.37 1.53,0.37l10.17 0c0.53,0 1.16,-0.19 1.52,-0.37 0.11,-0.06 0.2,-0.1 0.31,-0.16 0.11,-0.06 0.19,-0.12 0.29,-0.18 0.34,-0.24 0.71,-0.6 0.94,-0.94 0.41,-0.57 0.72,-1.38 0.72,-2.13l0 -10.17c0,-0.77 -0.31,-1.52 -0.71,-2.11 -0.13,-0.19 -0.27,-0.35 -0.43,-0.52 -0.67,-0.67 -1.67,-1.16 -2.63,-1.16l-10.2 0c-0.95,0 -1.95,0.48 -2.62,1.15 -0.67,0.67 -1.15,1.66 -1.15,2.63z"/>
   <path class="fil0" d="M8.58 5.43c1.99,-0.16 3.57,1.34 3.72,3.15 0.16,1.99 -1.35,3.57 -3.15,3.72 -1.99,0.16 -3.57,-1.34 -3.72,-3.15 -0.16,-1.99 1.35,-3.57 3.15,-3.72zm3.69 -0.93c0.48,-0.11 0.88,0.24 0.95,0.62 0.1,0.49 -0.24,0.88 -0.63,0.96 -0.49,0.1 -0.86,-0.24 -0.95,-0.62 -0.05,-0.24 0.02,-0.48 0.13,-0.63 0.1,-0.15 0.26,-0.26 0.49,-0.32zm-5.19 -1.14c-1.07,0.03 -2.03,-0.01 -2.81,0.63 -0.11,0.09 -0.25,0.23 -0.34,0.35 -0.19,0.25 -0.34,0.57 -0.43,0.95 -0.17,0.72 -0.15,1.83 -0.15,2.61 0,0.91 -0.01,1.83 0.01,2.74 0.02,0.85 0.01,1.7 0.36,2.4 0.09,0.18 0.16,0.27 0.27,0.41 0.31,0.39 0.78,0.65 1.3,0.77 0.72,0.17 1.83,0.15 2.61,0.15 0.91,0 1.83,0.01 2.74,-0.01 1.08,-0.02 2.01,0.01 2.81,-0.63 0.07,-0.06 0.1,-0.1 0.18,-0.17 0.25,-0.22 0.5,-0.74 0.59,-1.13 0.17,-0.72 0.15,-1.83 0.15,-2.61 0,-0.91 0.01,-1.83 -0.01,-2.74 -0.02,-1.04 0.01,-2.05 -0.63,-2.81 -0.03,-0.03 -0.04,-0.06 -0.07,-0.09 -0.34,-0.34 -0.7,-0.55 -1.22,-0.68 -0.69,-0.17 -1.85,-0.15 -2.61,-0.15 -0.91,0 -1.84,-0.02 -2.74,0.01z"/>
   <path class="fil0" d="M6.62 8.98c0.05,1.2 1.08,2.19 2.35,2.12 1.2,-0.06 2.19,-1.08 2.13,-2.35 -0.06,-1.2 -1.07,-2.19 -2.35,-2.12 -1.2,0.06 -2.18,1.07 -2.12,2.35z"/>
  </g>
 </g>
</svg>
