<?xml version="1.0" encoding="UTF-8"?>
<!DOCTYPE svg PUBLIC "-//W3C//DTD SVG 1.1//EN" "http://www.w3.org/Graphics/SVG/1.1/DTD/svg11.dtd">
<!-- Creator: CorelDRAW -->
<svg xmlns="http://www.w3.org/2000/svg" xml:space="preserve" width="21.1926mm" height="21.2076mm" version="1.1" style="shape-rendering:geometricPrecision; text-rendering:geometricPrecision; image-rendering:optimizeQuality; fill-rule:evenodd; clip-rule:evenodd"
viewBox="0 0 687.85 688.33"
 xmlns:xlink="http://www.w3.org/1999/xlink"
 xmlns:xodm="http://www.corel.com/coreldraw/odm/2003">
 <defs>
  <style type="text/css">
   <![CDATA[
    .fil1 {fill:white}
    .fil0 {fill:white;fill-rule:nonzero}
    .fil3 {fill:#E52B2B;fill-rule:nonzero}
    .fil2 {fill:#313C6C;fill-rule:nonzero}
   ]]>
  </style>
 </defs>
 <g id="Слой_x0020_1">
  <metadata id="CorelCorpID_0Corel-Layer"/>
  <g id="_105553183860896">
   <g>
    <path class="fil0" d="M186.16 578.11l-35.57 49.86 -6.61 -4.72 31.4 -44.01 -24.51 -17.49 4.17 -5.85 31.13 22.2zm-38.24 -30.92l-42.64 43.97 -5.84 -5.66 42.64 -43.97 5.84 5.66zm-25.43 -28.11l-41.73 34.37 12.83 15.58 -5.55 4.57 -30.83 -37.44 5.55 -4.57 12.83 15.59 41.73 -34.37 5.17 6.27zm-21.91 -29.75l-55.35 26.22 -18.93 -39.97 6.49 -3.08 15.45 32.63 17.01 -8.06 -14.47 -30.54 6.5 -3.08 14.46 30.54 18.86 -8.94 -16.07 -33.94 6.49 -3.08 19.56 41.28zm-30.12 -76.03l-59.68 13.78 -1.83 -7.92 59.68 -13.78 1.83 7.92zm-5.71 -21.69l-61.07 4.66 -0.64 -8.3 45.49 -35.7 -47.94 3.66 -0.59 -7.76 61.07 -4.66 0.64 8.3 -45.49 35.7 47.94 -3.66 0.59 7.76zm-1.09 -79.13l-63.44 16.96 0.94 -8.73 45.96 -11.04c3.68,-0.88 7.11,-1.6 10.31,-2.11 -3.23,-1.3 -6.43,-2.75 -9.61,-4.35l-42.49 -21.19 0.89 -8.22 58.33 30.31 -0.9 8.38zm5.94 -39.46l-57.69 -20.58 14.87 -41.66 6.77 2.42 -12.13 34 17.72 6.32 11.36 -31.82 6.77 2.41 -11.35 31.83 19.65 7.01 12.62 -35.37 6.77 2.41 -15.35 43.02zm1.78 -60.93l3.25 -6.92c2.84,1.25 5.44,1.79 7.82,1.65 2.37,-0.15 4.78,-1.12 7.24,-2.9 2.45,-1.79 4.56,-4.19 6.32,-7.19 1.56,-2.67 2.54,-5.25 2.93,-7.76 0.39,-2.51 0.18,-4.67 -0.63,-6.48 -0.81,-1.81 -2.03,-3.2 -3.65,-4.14 -1.65,-0.97 -3.37,-1.33 -5.17,-1.09 -1.79,0.24 -3.76,1.22 -5.9,2.94 -1.37,1.1 -4.07,3.74 -8.08,7.91 -4.01,4.18 -7.09,6.94 -9.26,8.28 -2.8,1.75 -5.55,2.65 -8.22,2.74 -2.68,0.1 -5.25,-0.57 -7.67,-1.99 -2.68,-1.56 -4.74,-3.79 -6.16,-6.66 -1.44,-2.87 -1.91,-6.11 -1.42,-9.73 0.49,-3.61 1.78,-7.2 3.86,-10.76 2.29,-3.91 4.94,-7 7.96,-9.26 3,-2.26 6.21,-3.47 9.61,-3.64 3.4,-0.19 6.68,0.58 9.85,2.27l-3.41 7.02c-3.54,-1.59 -6.78,-1.85 -9.69,-0.76 -2.93,1.08 -5.58,3.66 -7.95,7.72 -2.48,4.24 -3.51,7.78 -3.09,10.62 0.42,2.84 1.73,4.91 3.92,6.19 1.9,1.11 3.87,1.33 5.89,0.69 2.01,-0.65 5.33,-3.41 9.93,-8.35 4.62,-4.93 8.02,-8.18 10.21,-9.74 3.21,-2.24 6.32,-3.47 9.36,-3.66 3.02,-0.2 5.95,0.53 8.78,2.19 2.82,1.65 4.99,3.99 6.53,7.05 1.54,3.07 2.13,6.5 1.75,10.32 -0.38,3.83 -1.67,7.61 -3.88,11.39 -2.79,4.77 -5.83,8.37 -9.1,10.78 -3.28,2.42 -6.85,3.73 -10.73,3.92 -3.88,0.21 -7.6,-0.67 -11.19,-2.64zm58.84 -52.48l-39.85 -36.54 -13.64 14.88 -5.3 -4.86 32.78 -35.75 5.3 4.86 -13.64 14.88 39.85 36.53 -5.49 5.99zm82.66 -65.64l-25.28 -55.79 7.4 -3.36 22.32 49.24 27.43 -12.43 2.97 6.55 -34.83 15.78zm45.48 -18.91l-16.02 -59.12 7.84 -2.12 16.02 59.11 -7.84 2.13zm36.91 -8.87l-10.56 -53.02 -19.8 3.94 -1.41 -7.05 47.57 -9.47 1.41 7.05 -19.8 3.94 10.55 53.02 -7.96 1.59zm36.61 -5.01l2.73 -61.18 44.18 1.97 -0.32 7.18 -36.06 -1.61 -0.84 18.8 33.76 1.51 -0.32 7.18 -33.76 -1.51 -0.93 20.85 37.52 1.67 -0.32 7.18 -45.63 -2.04zm81.27 9.47l16.02 -59.12 7.84 2.13 -16.02 59.11 -7.84 -2.13zm21.78 5.3l24.58 -56.1 7.63 3.34 10.14 56.93 19.3 -44.03 7.13 3.13 -24.58 56.1 -7.63 -3.34 -10.14 -56.93 -19.29 44.03 -7.13 -3.13zm70.15 36.54l16.48 -63.56 7.13 5.12 -13.02 45.44c-1.05,3.64 -2.11,6.98 -3.24,10.01 2.72,-2.17 5.56,-4.24 8.52,-6.22l39.37 -26.54 6.72 4.82 -55.12 35.84 -6.84 -4.91zm31.28 24.57l43.93 -42.68 30.81 31.72 -5.16 5.01 -25.15 -25.89 -13.5 13.11 23.54 24.24 -5.15 5 -23.54 -24.24 -14.97 14.54 26.17 26.94 -5.15 5.01 -31.83 -32.77zm53.63 29.94l4.5 6.18c-2.46,1.89 -4.19,3.9 -5.21,6.06 -1.01,2.15 -1.32,4.73 -0.94,7.74 0.39,3.01 1.47,6.01 3.26,9 1.59,2.65 3.38,4.75 5.39,6.31 2.02,1.55 4.01,2.41 5.98,2.57 1.98,0.16 3.78,-0.24 5.39,-1.2 1.64,-0.98 2.79,-2.32 3.45,-4.01 0.65,-1.68 0.74,-3.88 0.26,-6.59 -0.3,-1.73 -1.31,-5.36 -3.05,-10.89 -1.73,-5.53 -2.66,-9.56 -2.79,-12.1 -0.18,-3.3 0.34,-6.14 1.55,-8.53 1.21,-2.4 3.03,-4.32 5.44,-5.77 2.66,-1.6 5.61,-2.32 8.8,-2.2 3.21,0.12 6.27,1.26 9.21,3.44 2.93,2.17 5.46,5.03 7.57,8.56 2.33,3.89 3.76,7.7 4.28,11.43 0.54,3.72 0.06,7.11 -1.43,10.18 -1.47,3.06 -3.73,5.57 -6.73,7.54l-4.51 -6.37c3.1,-2.34 4.88,-5.05 5.33,-8.13 0.46,-3.09 -0.53,-6.65 -2.94,-10.68 -2.52,-4.21 -5.13,-6.82 -7.82,-7.82 -2.69,-0.99 -5.13,-0.85 -7.31,0.45 -1.88,1.13 -3.03,2.74 -3.44,4.83 -0.4,2.07 0.42,6.31 2.54,12.73 2.1,6.42 3.31,10.96 3.62,13.64 0.42,3.89 -0,7.21 -1.29,9.97 -1.28,2.74 -3.33,4.95 -6.14,6.64 -2.8,1.68 -5.9,2.45 -9.32,2.33 -3.43,-0.12 -6.72,-1.26 -9.89,-3.44 -3.16,-2.17 -5.86,-5.12 -8.12,-8.88 -2.84,-4.74 -4.52,-9.14 -5.06,-13.17 -0.55,-4.05 0.03,-7.8 1.73,-11.29 1.68,-3.5 4.25,-6.34 7.7,-8.53zm17.94 76.71l49.9 -20.8 -7.77 -18.63 6.63 -2.77 18.66 44.77 -6.63 2.77 -7.77 -18.64 -49.9 20.8 -3.13 -7.5zm18.87 103.86l61.07 4.68 -0.62 8.1 -53.9 -4.13 -2.3 30.03 -7.16 -0.55 2.92 -38.13zm-5.35 48.95l60.07 11.95 -1.59 7.97 -60.07 -11.95 1.58 -7.97zm-9.4 36.76l51.25 17.22 6.43 -19.14 6.81 2.29 -15.45 45.98 -6.81 -2.29 6.43 -19.14 -51.24 -17.23 2.59 -7.7zm-13.04 34.57l52.88 30.9 -22.31 38.18 -6.21 -3.63 18.21 -31.17 -16.25 -9.49 -17.05 29.18 -6.21 -3.63 17.05 -29.18 -18.02 -10.53 -18.95 32.42 -6.2 -3.63 23.04 -39.44zm-46.74 67.16l43.96 42.65 -5.66 5.84 -43.96 -42.65 5.66 -5.84zm-15.25 16.35l38.01 48.02 -6.53 5.17 -55.04 -17.75 29.84 37.69 -6.11 4.84 -38.02 -48.03 6.53 -5.17 55.03 17.75 -29.84 -37.7 6.11 -4.83zm-65.29 44.64l47.6 45.23 -7.94 3.76 -33.43 -33.42c-2.67,-2.68 -5.08,-5.23 -7.19,-7.68 0.58,3.43 1.02,6.91 1.31,10.46l4.13 47.3 -7.47 3.54 -4.63 -65.58 7.61 -3.61zm-36.26 16.69l13.78 59.68 -43.09 9.95 -1.62 -7 35.17 -8.12 -4.23 -18.34 -32.93 7.61 -1.62 -7 32.93 -7.6 -4.7 -20.33 -36.59 8.45 -1.62 -7 44.51 -10.28zm-52.04 31.93l-7.57 1.04c-0.5,-3.06 -1.45,-5.54 -2.87,-7.46 -1.42,-1.9 -3.54,-3.4 -6.37,-4.5 -2.83,-1.08 -5.99,-1.55 -9.47,-1.39 -3.09,0.14 -5.79,0.72 -8.11,1.76 -2.32,1.04 -4.01,2.39 -5.09,4.05 -1.08,1.66 -1.58,3.44 -1.5,5.32 0.09,1.91 0.72,3.55 1.9,4.94 1.17,1.37 3.07,2.49 5.68,3.35 1.67,0.55 5.35,1.38 11.03,2.47 5.69,1.1 9.68,2.18 11.98,3.27 2.99,1.4 5.25,3.21 6.77,5.41 1.54,2.2 2.37,4.71 2.5,7.52 0.14,3.1 -0.61,6.04 -2.24,8.8 -1.63,2.77 -4.08,4.93 -7.39,6.48 -3.3,1.55 -7.01,2.42 -11.13,2.61 -4.53,0.21 -8.56,-0.33 -12.09,-1.64 -3.53,-1.29 -6.29,-3.32 -8.29,-6.08 -2,-2.75 -3.15,-5.92 -3.45,-9.5l7.75 -0.95c0.59,3.84 2.14,6.69 4.63,8.55 2.5,1.87 6.11,2.69 10.8,2.47 4.9,-0.23 8.44,-1.29 10.59,-3.19 2.15,-1.9 3.17,-4.12 3.06,-6.65 -0.1,-2.19 -0.99,-3.97 -2.63,-5.32 -1.64,-1.33 -5.76,-2.62 -12.41,-3.79 -6.65,-1.19 -11.23,-2.28 -13.73,-3.27 -3.62,-1.47 -6.35,-3.42 -8.16,-5.86 -1.81,-2.43 -2.78,-5.28 -2.94,-8.56 -0.15,-3.26 0.64,-6.36 2.37,-9.32 1.73,-2.96 4.29,-5.32 7.71,-7.08 3.42,-1.76 7.3,-2.74 11.67,-2.94 5.52,-0.26 10.19,0.34 14,1.78 3.82,1.44 6.85,3.73 9.13,6.87 2.28,3.14 3.57,6.74 3.87,10.82zm-76.04 -20.51l-5.8 53.75 20.07 2.16 -0.77 7.15 -48.22 -5.21 0.77 -7.14 20.07 2.16 5.8 -53.75 8.08 0.87z"/>
    <circle class="fil1" cx="155.97" cy="93.69" r="8.89"/>
    <circle class="fil1" cx="651.72" cy="300.66" r="8.89"/>
    <circle class="fil1" cx="229.49" cy="632.74" r="8.89"/>
   </g>
   <path class="fil2" d="M145.81 171.25c-0.38,-1.45 0.14,-1.92 1.54,-1.42 -0.51,0.47 -1.03,0.95 -1.54,1.42z"/>
   <path class="fil2" d="M542.15 170.78c-0.79,-0.29 -1.59,-0.57 -2.38,-0.86 1.02,-0.33 2.13,-0.93 2.38,0.86z"/>
   <path class="fil0" d="M196.05 517.82c-1.66,-1.51 -1.09,-3.52 -1.09,-5.34 -0.01,-68.24 0.01,-136.48 0.03,-204.72 15.48,-0.07 30.96,-0.14 46.44,-0.21 0.08,22.48 0.21,44.96 0.24,67.44 0.04,32.99 0.01,65.98 0.01,99.66 33.85,0 67.54,0 101.6,0 0,14.47 0,28.25 0,42.15 -1.98,1.44 -4.37,0.72 -6.6,0.73 -43.71,0.04 -87.42,0.03 -131.13,0.05 -2.3,0 -4.6,0.21 -6.9,0.33 -0.87,-0.03 -1.73,-0.05 -2.59,-0.08z"/>
   <path class="fil0" d="M297.45 249.43c5.08,0 10.06,0 15.62,0 0,-10.26 0,-20.04 0,-30.15 4.9,0 9.2,0 14.1,0 0,9.88 0,19.65 0,29.86 5.52,0 10.49,0 15.96,0 0,52.88 0,105.3 0,158.17 -4.67,1.56 -9.96,-0.07 -15.56,0.92 0,7.42 0,14.9 0,22.74 -4.85,0 -9.17,0 -14.17,0 0,-7.39 0,-14.82 0,-22.78 -5.56,0 -10.51,0 -15.95,0 0,-53.12 0,-105.69 0,-158.75z"/>
   <path class="fil0" d="M461.79 357.5c-5.67,0 -10.26,0 -15.33,0 0,-47.36 0,-94.48 0,-142.04 4.78,0 9.54,0 14.9,0 0,-5.98 0,-11.54 0,-17.4 4.6,-0.97 8.65,-0.63 13.3,-0.31 0,5.82 0,11.4 0,17.45 5.73,0 10.9,0 16.47,0 0,47.46 0,94.43 0,141.76 -4.82,1.4 -10.09,-0.06 -15.79,0.9 0,11.04 0,22.06 0,33.42 -4.71,0 -8.82,0 -13.54,0 0,-11.03 0,-22.06 0,-33.76z"/>
   <path class="fil0" d="M371.73 288.15c15.69,0 30.76,0 46.13,0 0,51.25 0,102.21 0,153.52 -15.43,0 -30.64,0 -46.13,0 0,-51.23 0,-102.19 0,-153.52z"/>
   <path class="fil3" d="M418.21 243.14c0,6.08 -0.16,12.17 0.06,18.25 0.15,3.99 -1.46,5.94 -5.38,5.96 -12.17,0.04 -24.34,0.05 -36.5,0.03 -3.9,0 -5.6,-2.03 -5.58,-5.92 0.07,-12.38 0.12,-24.76 -0.04,-37.13 -0.05,-3.89 1.7,-5.25 5.27,-5.24 12.38,0.05 24.76,0.11 37.13,0.03 3.68,-0.03 5.26,1.24 5.1,5.14 -0.26,6.28 -0.07,12.58 -0.06,18.88z"/>
   <path class="fil2" d="M196.05 517.82c0.86,0.03 1.73,0.05 2.59,0.08 -0.9,1.24 -1.77,1.16 -2.59,-0.08z"/>
  </g>
 </g>
</svg>
