<?xml version="1.0" encoding="UTF-8"?>
<!DOCTYPE svg PUBLIC "-//W3C//DTD SVG 1.1//EN" "http://www.w3.org/Graphics/SVG/1.1/DTD/svg11.dtd">
<!-- Creator: CorelDRAW -->
<svg xmlns="http://www.w3.org/2000/svg" xml:space="preserve" width="5.5692mm" height="5.5692mm" version="1.1" style="shape-rendering:geometricPrecision; text-rendering:geometricPrecision; image-rendering:optimizeQuality; fill-rule:evenodd; clip-rule:evenodd"
viewBox="0 0 27.74 27.74"
 xmlns:xlink="http://www.w3.org/1999/xlink"
 xmlns:xodm="http://www.corel.com/coreldraw/odm/2003">
 <defs>
  <style type="text/css">
   <![CDATA[
    .str0 {stroke:#282D42;stroke-width:0.24;stroke-miterlimit:10}
    .fil1 {fill:none;fill-rule:nonzero}
    .fil0 {fill:white;fill-rule:nonzero}
    .fil6 {fill:#E52B2B;fill-rule:nonzero}
    .fil5 {fill:#F4F5F5;fill-rule:nonzero}
    .fil4 {fill:#282D42;fill-rule:nonzero}
    .fil3 {fill:#252734;fill-rule:nonzero}
    .fil2 {fill:#031138;fill-rule:nonzero}
   ]]>
  </style>
 </defs>
 <g id="Слой_x0020_1">
  <metadata id="CorelCorpID_0Corel-Layer"/>
  <g id="_105553183777280">
   <polygon class="fil0" points="0.12,27.62 27.62,27.62 27.62,0.12 0.12,0.12 "/>
   <polygon class="fil1 str0" points="0.12,27.62 27.62,27.62 27.62,0.12 0.12,0.12 "/>
   <path class="fil2" d="M18.56 5.66c0,-0.4 -0.01,-0.81 0,-1.21 0.01,-0.25 -0.09,-0.33 -0.33,-0.33 -0.79,0.01 -1.59,0 -2.38,-0 -0.23,-0 -0.34,0.09 -0.34,0.34 0.01,0.79 0.01,1.59 0,2.38 -0,0.25 0.11,0.38 0.36,0.38 0.78,0 1.56,0 2.34,-0 0.25,-0 0.35,-0.13 0.34,-0.38 -0.01,-0.39 -0,-0.78 -0,-1.17zm-2.98 2.88c0,3.29 0,6.55 0,9.83 0.99,0 1.97,0 2.95,0 0,-3.28 0,-6.55 0,-9.83 -0.98,0 -1.95,0 -2.95,0zm5.77 4.44c0,0.75 0,1.46 0,2.16 0.3,0 0.57,0 0.87,0 0,-0.73 0,-1.43 0,-2.14 0.36,-0.06 0.7,0.03 1.01,-0.06 0,-3.03 0,-6.04 0,-9.08 -0.36,0 -0.69,0 -1.05,0 0,-0.39 0,-0.74 0,-1.12 -0.3,-0.02 -0.56,-0.04 -0.85,0.02 0,0.38 0,0.73 0,1.11 -0.34,0 -0.65,0 -0.95,0 0,3.05 0,6.06 0,9.09 0.32,0 0.62,0 0.98,0zm-10.52 -6.92c0,3.4 0,6.76 0,10.16 0.35,0 0.67,0 1.02,0 0,0.51 0,0.99 0,1.46 0.32,0 0.6,0 0.91,0 0,-0.5 0,-0.98 0,-1.46 0.36,-0.06 0.7,0.04 1,-0.06 0,-3.39 0,-6.74 0,-10.13 -0.35,0 -0.67,0 -1.02,0 0,-0.65 0,-1.28 0,-1.91 -0.31,0 -0.59,0 -0.9,0 0,0.65 0,1.27 0,1.93 -0.36,0 -0.68,0 -1,0zm-3.59 3.72c-0.05,-0.1 -0.15,-0.11 -0.24,-0.11 -0.82,0 -1.64,0 -2.45,0 -0.11,0 -0.22,0 -0.27,0.12 -0,4.37 -0,8.74 -0,13.11 0,0.12 -0.04,0.25 0.07,0.34 0.05,0.08 0.11,0.08 0.17,0.01 0.15,-0.01 0.29,-0.02 0.44,-0.02 2.8,-0 5.6,0 8.4,-0 0.14,0 0.3,0.05 0.42,-0.05 0,-0.89 0,-1.77 0,-2.7 -2.18,0 -4.34,0 -6.5,0 0,-2.16 0,-4.27 -0,-6.38 -0,-1.44 -0.01,-2.88 -0.02,-4.32zm19.26 -8.67c0.01,0.13 0.02,0.27 0.02,0.4 0,8.12 0,16.25 -0,24.37 0,0.15 -0.02,0.29 -0.02,0.44 -8.27,0 -16.54,0 -24.82,0 -0.12,0 -0.25,-0.03 -0.36,0.01 -0.12,0.04 0.01,0.09 0.02,0.14 -0.13,0.03 -0.25,0.05 -0.24,-0.14 0,-0.07 0,-0.13 0,-0.2 0,-8.05 0,-16.09 0,-24.14 0,-0.11 0.01,-0.21 0.02,-0.32 0.09,-0.02 0.15,-0.08 0.14,-0.17 -0.05,-0.38 0.17,-0.4 0.47,-0.4 8.26,0.01 16.52,0.01 24.77,0.01z"/>
   <path class="fil3" d="M26.5 1.12c-8.26,-0 -16.52,-0 -24.77,-0.01 -0.29,-0 -0.51,0.02 -0.47,0.4 0.01,0.09 -0.05,0.15 -0.14,0.17 -0,-0.21 -0,-0.41 -0,-0.62 0.03,-0.03 0.07,-0.06 0.1,-0.09 0.66,-0 1.32,-0.01 1.98,-0.01 7.58,-0 15.16,-0 22.74,0 0.13,0 0.27,0.01 0.4,0.02 0.05,0.02 0.1,0.04 0.15,0.05 0,0.03 0,0.06 0,0.08z"/>
   <path class="fil3" d="M1.34 26.48c-0.01,-0.05 -0.15,-0.1 -0.02,-0.14 0.11,-0.03 0.24,-0.01 0.36,-0.01 8.27,-0 16.54,-0 24.82,-0 0.01,0.07 0.02,0.14 -0.07,0.16 -0.09,0.01 -0.19,0.01 -0.28,0.01 -8.17,0 -16.34,0 -24.52,-0 -0.09,0 -0.19,-0.01 -0.28,-0.02z"/>
   <path class="fil4" d="M1.12 1.06c-0.02,-0.09 0.01,-0.12 0.1,-0.09 -0.03,0.03 -0.07,0.06 -0.1,0.09z"/>
   <path class="fil4" d="M26.49 1.03c-0.05,-0.02 -0.1,-0.04 -0.15,-0.05 0.07,-0.02 0.14,-0.06 0.15,0.05z"/>
   <path class="fil5" d="M4.33 23.25c-0.11,-0.1 -0.07,-0.23 -0.07,-0.34 -0,-4.37 0,-8.74 0,-13.11 0.99,-0 1.98,-0.01 2.97,-0.01 0.01,1.44 0.01,2.88 0.02,4.32 0,2.11 0,4.22 0,6.38 2.17,0 4.32,0 6.5,0 0,0.93 0,1.81 0,2.7 -0.13,0.09 -0.28,0.05 -0.42,0.05 -2.8,0 -5.6,0 -8.4,0 -0.15,0 -0.29,0.01 -0.44,0.02 -0.06,-0 -0.11,-0 -0.17,-0.01z"/>
   <path class="fil5" d="M10.83 6.07c0.33,0 0.64,0 1,0 0,-0.66 0,-1.28 0,-1.93 0.31,0 0.59,0 0.9,0 0,0.63 0,1.26 0,1.91 0.35,0 0.67,0 1.02,0 0,3.39 0,6.74 0,10.13 -0.3,0.1 -0.64,-0 -1,0.06 0,0.47 0,0.95 0,1.46 -0.31,0 -0.59,0 -0.91,0 0,-0.47 0,-0.95 0,-1.46 -0.36,0 -0.67,0 -1.02,0 0,-3.4 0,-6.77 0,-10.16z"/>
   <path class="fil5" d="M21.35 12.99c-0.36,0 -0.66,0 -0.98,0 0,-3.03 0,-6.05 0,-9.09 0.31,0 0.61,0 0.95,0 0,-0.38 0,-0.74 0,-1.11 0.29,-0.06 0.55,-0.04 0.85,-0.02 0,0.37 0,0.73 0,1.12 0.37,0 0.7,0 1.05,0 0,3.04 0,6.05 0,9.08 -0.31,0.09 -0.65,-0 -1.01,0.06 0,0.71 0,1.41 0,2.14 -0.3,0 -0.56,0 -0.87,0 0,-0.71 0,-1.41 0,-2.16z"/>
   <path class="fil5" d="M15.58 8.55c1,0 1.97,0 2.95,0 0,3.28 0,6.54 0,9.83 -0.99,0 -1.96,0 -2.95,0 0,-3.28 0,-6.54 0,-9.83z"/>
   <path class="fil6" d="M18.56 5.66c0,0.39 -0.01,0.78 0,1.17 0.01,0.26 -0.09,0.38 -0.34,0.38 -0.78,0 -1.56,0 -2.34,0 -0.25,0 -0.36,-0.13 -0.36,-0.38 0,-0.79 0.01,-1.59 -0,-2.38 -0,-0.25 0.11,-0.34 0.34,-0.34 0.79,0 1.59,0.01 2.38,0 0.24,-0 0.34,0.08 0.33,0.33 -0.02,0.4 -0,0.81 -0,1.21z"/>
   <path class="fil3" d="M7.24 9.79c-0.99,0 -1.98,0.01 -2.97,0.01 0.06,-0.12 0.17,-0.12 0.27,-0.12 0.82,0 1.64,0 2.45,0 0.1,0 0.19,0.01 0.24,0.11z"/>
   <path class="fil3" d="M4.33 23.25c0.06,0 0.11,0 0.17,0.01 -0.06,0.08 -0.11,0.07 -0.17,-0.01z"/>
  </g>
 </g>
</svg>
