<?xml version="1.0" encoding="UTF-8"?>
<!DOCTYPE svg PUBLIC "-//W3C//DTD SVG 1.1//EN" "http://www.w3.org/Graphics/SVG/1.1/DTD/svg11.dtd">
<!-- Creator: CorelDRAW -->
<svg xmlns="http://www.w3.org/2000/svg" xml:space="preserve" width="50.4221mm" height="36.7848mm" version="1.1" style="shape-rendering:geometricPrecision; text-rendering:geometricPrecision; image-rendering:optimizeQuality; fill-rule:evenodd; clip-rule:evenodd"
viewBox="0 0 2274.86 1659.6"
 xmlns:xlink="http://www.w3.org/1999/xlink"
 xmlns:xodm="http://www.corel.com/coreldraw/odm/2003">
 <defs>
  <style type="text/css">
   <![CDATA[
    .str4 {stroke:#58C0EA;stroke-width:11.94;stroke-miterlimit:22.9256}
    .str0 {stroke:white;stroke-width:11.94;stroke-miterlimit:22.9256}
    .str3 {stroke:#4843A3;stroke-width:47.75;stroke-miterlimit:22.9256}
    .str2 {stroke:#4843A3;stroke-width:23.88;stroke-miterlimit:22.9256}
    .str1 {stroke:#4843A3;stroke-width:95.5;stroke-miterlimit:22.9256}
    .fil4 {fill:none;fill-rule:nonzero}
    .fil1 {fill:#031138;fill-rule:nonzero}
    .fil2 {fill:#3E3887;fill-rule:nonzero}
    .fil3 {fill:#4843A3;fill-rule:nonzero}
    .fil6 {fill:#58C0EA;fill-rule:nonzero}
    .fil0 {fill:#5A5AE8;fill-rule:nonzero}
    .fil5 {fill:white;fill-rule:nonzero}
   ]]>
  </style>
   <clipPath id="id0" style="clip-rule:nonzero">
    <path d="M2173.67 0l-2072.47 0c-55.88,0 -101.2,45.31 -101.2,101.2l0 1457.21c0,55.88 45.31,101.2 101.2,101.2l2072.47 0c55.88,0 101.2,-45.31 101.2,-101.2l0 -1457.21c0,-55.88 -45.32,-101.2 -101.2,-101.2z"/>
   </clipPath>
     <mask id="id1">
  <linearGradient id="id2" gradientUnits="userSpaceOnUse" x1="463.47" y1="1481.43" x2="1707.37" y2="205.6">
   <stop offset="0" style="stop-opacity:1; stop-color:white"/>
   <stop offset="1" style="stop-opacity:1; stop-color:white"/>
  </linearGradient>
      <rect style="fill:url(#id2)" x="457.5" y="271.3" width="1372" height="1481.29"/>
     </mask>
     <mask id="id3">
  <linearGradient id="id4" gradientUnits="userSpaceOnUse" x1="607.17" y1="1343.97" x2="1058.82" y2="799.19">
   <stop offset="0" style="stop-opacity:1; stop-color:white"/>
   <stop offset="1" style="stop-opacity:1; stop-color:white"/>
  </linearGradient>
      <rect style="fill:url(#id4)" x="605.45" y="828.08" width="497.27" height="630.85"/>
     </mask>
     <mask id="id5">
  <linearGradient id="id6" gradientUnits="userSpaceOnUse" x1="607.17" y1="748.23" x2="692.32" y2="667.39">
   <stop offset="0" style="stop-opacity:1; stop-color:white"/>
   <stop offset="1" style="stop-opacity:1; stop-color:white"/>
  </linearGradient>
      <rect style="fill:url(#id6)" x="605.45" y="670.22" width="96.54" height="96.54"/>
     </mask>
     <mask id="id7">
  <linearGradient id="id8" gradientUnits="userSpaceOnUse" x1="1173.86" y1="1343.97" x2="1625.52" y2="799.19">
   <stop offset="0" style="stop-opacity:1; stop-color:white"/>
   <stop offset="1" style="stop-opacity:1; stop-color:white"/>
  </linearGradient>
      <rect style="fill:url(#id8)" x="1172.14" y="828.08" width="497.27" height="630.85"/>
     </mask>
     <mask id="id9">
  <linearGradient id="id10" gradientUnits="userSpaceOnUse" x1="1740.55" y1="1343.97" x2="2192.21" y2="799.19">
   <stop offset="0" style="stop-opacity:1; stop-color:white"/>
   <stop offset="1" style="stop-opacity:1; stop-color:white"/>
  </linearGradient>
      <rect style="fill:url(#id10)" x="1738.84" y="828.08" width="497.27" height="630.85"/>
     </mask>
     <mask id="id11">
  <linearGradient id="id12" gradientUnits="userSpaceOnUse" x1="607.17" y1="1517.93" x2="910.74" y2="1517.92">
   <stop offset="0" style="stop-opacity:1; stop-color:white"/>
   <stop offset="1" style="stop-opacity:1; stop-color:white"/>
  </linearGradient>
      <rect style="fill:url(#id12)" x="559.43" y="1470.17" width="427.41" height="95.51"/>
     </mask>
     <mask id="id13">
  <linearGradient id="id14" gradientUnits="userSpaceOnUse" x1="1173.86" y1="1517.93" x2="1477.43" y2="1517.92">
   <stop offset="0" style="stop-opacity:1; stop-color:white"/>
   <stop offset="1" style="stop-opacity:1; stop-color:white"/>
  </linearGradient>
      <rect style="fill:url(#id14)" x="1126.11" y="1470.17" width="427.41" height="95.51"/>
     </mask>
     <mask id="id15">
  <linearGradient id="id16" gradientUnits="userSpaceOnUse" x1="1550.31" y1="1517.93" x2="1650.26" y2="1517.92">
   <stop offset="0" style="stop-opacity:1; stop-color:white"/>
   <stop offset="1" style="stop-opacity:1; stop-color:white"/>
  </linearGradient>
      <rect style="fill:url(#id16)" x="1502.56" y="1470.17" width="204.78" height="95.51"/>
     </mask>
     <mask id="id17">
  <linearGradient id="id18" gradientUnits="userSpaceOnUse" x1="995.76" y1="1517.93" x2="1095.71" y2="1517.92">
   <stop offset="0" style="stop-opacity:1; stop-color:white"/>
   <stop offset="1" style="stop-opacity:1; stop-color:white"/>
  </linearGradient>
      <rect style="fill:url(#id18)" x="948.01" y="1470.17" width="204.78" height="95.51"/>
     </mask>
     <mask id="id19">
  <linearGradient id="id20" gradientUnits="userSpaceOnUse" x1="1606.98" y1="1513.88" x2="1910.55" y2="1513.88">
   <stop offset="0" style="stop-opacity:1; stop-color:white"/>
   <stop offset="1" style="stop-opacity:1; stop-color:white"/>
  </linearGradient>
      <rect style="fill:url(#id20)" x="1595.04" y="1501.93" width="355.79" height="23.89"/>
     </mask>
     <mask id="id21">
  <linearGradient id="id22" gradientUnits="userSpaceOnUse" x1="1740.55" y1="1517.93" x2="2044.13" y2="1517.92">
   <stop offset="0" style="stop-opacity:1; stop-color:white"/>
   <stop offset="1" style="stop-opacity:1; stop-color:white"/>
  </linearGradient>
      <rect style="fill:url(#id22)" x="1692.81" y="1470.17" width="427.41" height="95.51"/>
     </mask>
     <mask id="id23">
  <linearGradient id="id24" gradientUnits="userSpaceOnUse" x1="2117" y1="1517.93" x2="2216.96" y2="1517.92">
   <stop offset="0" style="stop-opacity:1; stop-color:white"/>
   <stop offset="1" style="stop-opacity:1; stop-color:white"/>
  </linearGradient>
      <rect style="fill:url(#id24)" x="2069.26" y="1470.17" width="204.78" height="95.51"/>
     </mask>
 </defs>
 <g id="Слой_x0020_1">
  <metadata id="CorelCorpID_0Corel-Layer"/>
  <path class="fil0" d="M2173.67 0l-2072.47 0c-55.88,0 -101.2,45.31 -101.2,101.2l0 1457.21c0,55.88 45.31,101.2 101.2,101.2l2072.47 0c55.88,0 101.2,-45.31 101.2,-101.2l0 -1457.21c0,-55.88 -45.32,-101.2 -101.2,-101.2z"/>
  <path class="fil1" d="M2173.67 0l-2072.47 0c-55.88,0 -101.2,45.31 -101.2,101.2l0 1457.21c0,55.88 45.31,101.2 101.2,101.2l2072.47 0c55.88,0 101.2,-45.31 101.2,-101.2l0 -1457.21c0,-55.88 -45.32,-101.2 -101.2,-101.2z"/>
  <g style="clip-path:url(#id0)">
   <g id="_105553199749600">
    <path id="_1" class="fil2 str0" style="mask:url(#id1)" d="M542.4 277.28l1202.2 0c43.59,-0 78.93,35.34 78.93,78.93l0 1311.49c0,43.58 -35.34,78.93 -78.93,78.93l-1202.2 0c-43.58,0 -78.93,-35.35 -78.93,-78.94l0 -1311.48c0,-43.59 35.35,-78.94 78.94,-78.94z"/>
    <path class="fil3" style="mask:url(#id3)" d="M647.65 829.8l412.88 0c22.35,0 40.48,18.12 40.48,40.48l0 546.45c0,22.35 -18.13,40.47 -40.48,40.47l-412.88 0c-22.35,-0 -40.47,-18.13 -40.47,-40.48l0 -546.45c0,-22.36 18.13,-40.48 40.48,-40.48z"/>
    <path class="fil3" style="mask:url(#id5)" d="M647.65 671.94l12.15 0c22.36,0 40.48,18.12 40.48,40.48l0 12.14c0,22.35 -18.12,40.48 -40.48,40.48l-12.15 0c-22.35,0 -40.47,-18.13 -40.47,-40.48l0 -12.14c0,-22.36 18.13,-40.48 40.48,-40.48z"/>
    <path class="fil3" style="mask:url(#id7)" d="M1214.34 829.8l412.88 0c22.35,0 40.47,18.12 40.47,40.48l0 546.45c0,22.35 -18.12,40.47 -40.47,40.47l-412.88 0c-22.35,-0 -40.48,-18.13 -40.48,-40.48l0 -546.45c0,-22.36 18.13,-40.48 40.48,-40.48z"/>
    <path class="fil3" style="mask:url(#id9)" d="M1781.03 829.8l412.87 0c22.36,0 40.48,18.12 40.48,40.48l0 546.45c0,22.35 -18.12,40.47 -40.48,40.47l-412.87 0c-22.35,-0 -40.48,-18.13 -40.48,-40.48l0 -546.45c0,-22.36 18.13,-40.48 40.48,-40.48z"/>
    <line class="fil4 str1" style="mask:url(#id11)" x1="607.17" y1="1517.93" x2="939.09" y2= "1517.93" />
    <line class="fil4 str1" style="mask:url(#id13)" x1="1173.86" y1="1517.93" x2="1505.78" y2= "1517.93" />
    <line class="fil4 str1" style="mask:url(#id15)" x1="1550.31" y1="1517.93" x2="1659.6" y2= "1517.93" />
    <line class="fil4 str1" style="mask:url(#id17)" x1="995.76" y1="1517.93" x2="1105.05" y2= "1517.93" />
    <line class="fil4 str2" style="mask:url(#id19)" x1="1606.98" y1="1513.88" x2="1938.9" y2= "1513.88" />
    <line class="fil4 str1" style="mask:url(#id21)" x1="1740.56" y1="1517.93" x2="2072.48" y2= "1517.93" />
    <line class="fil4 str1" style="mask:url(#id23)" x1="2117" y1="1517.93" x2="2226.29" y2= "1517.93" />
   </g>
  </g>
  <path class="fil4" d="M2173.67 0l-2072.47 0c-55.88,0 -101.2,45.31 -101.2,101.2l0 1457.21c0,55.88 45.31,101.2 101.2,101.2l2072.47 0c55.88,0 101.2,-45.31 101.2,-101.2l0 -1457.21c0,-55.88 -45.32,-101.2 -101.2,-101.2z"/>
  <line class="fil4 str3" x1="748.84" y1="700.27" x2="1080.76" y2= "700.27" />
  <line class="fil4 str3" x1="748.84" y1="728.6" x2="914.8" y2= "728.6" />
  <path class="fil5" d="M683.82 530.26l-7.14 -20.55 -43.42 0 -7.14 20.55 -18.21 0 37.01 -102 20.11 0 36.87 102 -18.07 0zm-45.03 -36.28l32.35 0 -16.17 -46.05 -16.18 46.05zm119.24 -65.72c13.99,0 25.6,4.9 34.83,14.72 9.33,9.81 13.99,21.91 13.99,36.28 0,14.28 -4.67,26.38 -13.99,36.29 -9.23,9.81 -20.83,14.72 -34.83,14.72l-40.07 0 0 -102 40.07 0zm0 85.97c9.62,0 17.44,-3.3 23.46,-9.91 6.12,-6.61 9.18,-14.96 9.18,-25.07 0,-10.2 -3.06,-18.55 -9.18,-25.06 -6.02,-6.61 -13.84,-9.91 -23.46,-9.91l-23.32 0 0 69.94 23.32 0z"/>
  <line class="fil4 str4" x1="465.5" y1="1143.5" x2="1234.58" y2= "1143.5" />
  <line class="fil4 str4" x1="1414.71" y1="279.3" x2="1414.71" y2= "967.43" />
  <path class="fil6" d="M1431.49 1139.26l-8.49 0 0 -8.49c0,-2.35 -1.89,-4.25 -4.24,-4.25 -2.34,0 -4.24,1.9 -4.24,4.25l0 8.49 -8.49 0c-2.35,0 -4.25,1.9 -4.25,4.24 0,2.35 1.9,4.25 4.25,4.25l8.49 0 0 8.49c0,2.35 1.9,4.24 4.24,4.24 2.35,0 4.24,-1.89 4.24,-4.24l0 -8.49 8.49 0c2.35,0 4.24,-1.9 4.24,-4.25 0,-2.34 -1.89,-4.24 -4.24,-4.24z"/>
  <path class="fil5" d="M1546.07 1139.26l-25.57 0c-2.26,-52.88 -44.62,-95.23 -97.5,-97.5l0 -25.57c0,-2.35 -1.89,-4.24 -4.24,-4.24 -2.34,0 -4.24,1.89 -4.24,4.24l0 25.57c-52.88,2.26 -95.23,44.62 -97.5,97.5l-25.57 0c-2.35,0 -4.24,1.9 -4.24,4.24 0,2.35 1.89,4.25 4.24,4.25l25.57 0c2.27,52.88 44.62,95.23 97.5,97.5l0 25.57c0,2.34 1.9,4.24 4.24,4.24 2.35,0 4.24,-1.9 4.24,-4.24l0 -25.57c52.88,-2.26 95.24,-44.62 97.5,-97.5l25.57 0c2.34,0 4.24,-1.9 4.24,-4.25 0,-2.34 -1.9,-4.24 -4.24,-4.24zm-59.41 8.49l25.36 0c-2.25,48.2 -40.82,86.76 -89.01,89.01l0 -25.36c0,-2.35 -1.89,-4.25 -4.24,-4.25 -2.34,0 -4.24,1.9 -4.24,4.25l0 25.36c-48.2,-2.25 -86.76,-40.81 -89.01,-89.01l25.36 0c2.34,0 4.24,-1.9 4.24,-4.25 0,-2.34 -1.9,-4.24 -4.24,-4.24l-25.36 0c2.25,-48.2 40.81,-86.76 89.01,-89.01l0 25.36c0,2.34 1.9,4.24 4.24,4.24 2.35,0 4.24,-1.9 4.24,-4.24l0 -25.36c48.2,2.25 86.77,40.81 89.01,89.01l-25.36 0c-2.35,0 -4.24,1.9 -4.24,4.24 0,2.35 1.89,4.25 4.24,4.25z"/>
  <path class="fil5" d="M1418.75 1093c-25.78,0 -46.68,20.9 -46.68,46.68 0,25.78 20.9,46.68 46.68,46.68 25.78,0 46.68,-20.9 46.68,-46.68 -0.03,-25.77 -20.91,-46.65 -46.68,-46.68zm0 84.87c-21.09,0 -38.19,-17.1 -38.19,-38.2 0,-21.09 17.1,-38.19 38.19,-38.19 21.1,0 38.2,17.09 38.2,38.19 -0.02,21.09 -17.11,38.17 -38.2,38.2z"/>
 </g>
</svg>
