<?xml version="1.0" encoding="UTF-8"?>
<!DOCTYPE svg PUBLIC "-//W3C//DTD SVG 1.1//EN" "http://www.w3.org/Graphics/SVG/1.1/DTD/svg11.dtd">
<!-- Creator: CorelDRAW -->
<svg xmlns="http://www.w3.org/2000/svg" xml:space="preserve" width="50.4224mm" height="38.3194mm" version="1.1" style="shape-rendering:geometricPrecision; text-rendering:geometricPrecision; image-rendering:optimizeQuality; fill-rule:evenodd; clip-rule:evenodd"
viewBox="0 0 2274.89 1728.84"
 xmlns:xlink="http://www.w3.org/1999/xlink"
 xmlns:xodm="http://www.corel.com/coreldraw/odm/2003">
 <defs>
  <style type="text/css">
   <![CDATA[
    .str1 {stroke:#5A5AE8;stroke-width:11.94;stroke-miterlimit:22.9256}
    .str0 {stroke:white;stroke-width:11.94;stroke-miterlimit:22.9256}
    .str3 {stroke:white;stroke-width:3.94;stroke-miterlimit:22.9256}
    .str2 {stroke:white;stroke-width:3.98;stroke-miterlimit:22.9256}
    .str4 {stroke:#726FFC;stroke-width:79.58;stroke-linecap:round;stroke-miterlimit:22.9256}
    .fil4 {fill:none;fill-rule:nonzero}
    .fil1 {fill:#031138;fill-rule:nonzero}
    .fil2 {fill:#3E3887;fill-rule:nonzero}
    .fil3 {fill:#4843A3;fill-rule:nonzero}
    .fil0 {fill:#5A5AE8;fill-rule:nonzero}
    .fil5 {fill:#726FFC;fill-rule:nonzero}
    .fil6 {fill:white;fill-rule:nonzero;fill-opacity:0.000000}
    .fil7 {fill:white;fill-rule:nonzero}
   ]]>
  </style>
    <clipPath id="id0" style="clip-rule:nonzero">
     <path d="M2173.69 0l-2072.5 0c-55.88,0 -101.2,47.21 -101.2,105.42l0 1518c0,58.21 45.32,105.42 101.2,105.42l2072.5 0c55.88,0 101.2,-47.21 101.2,-105.42l0 -1518c0,-58.21 -45.32,-105.42 -101.2,-105.42z"/>
    </clipPath>
      <mask id="id1">
  <linearGradient id="id2" gradientUnits="userSpaceOnUse" x1="463.48" y1="1543.24" x2="1707.39" y2="214.18">
   <stop offset="0" style="stop-opacity:1; stop-color:white"/>
   <stop offset="1" style="stop-opacity:1; stop-color:white"/>
  </linearGradient>
       <rect style="fill:url(#id2)" x="457.51" y="282.87" width="1372.02" height="1542.6"/>
      </mask>
      <mask id="id3">
  <linearGradient id="id4" gradientUnits="userSpaceOnUse" x1="586.94" y1="717.68" x2="890.51" y2="417.45">
   <stop offset="0" style="stop-opacity:1; stop-color:white"/>
   <stop offset="1" style="stop-opacity:1; stop-color:white"/>
  </linearGradient>
       <rect style="fill:url(#id4)" x="585.22" y="432.6" width="335.37" height="349.2"/>
      </mask>
      <mask id="id5">
  <linearGradient id="id6" gradientUnits="userSpaceOnUse" x1="979.58" y1="717.68" x2="1283.15" y2="417.45">
   <stop offset="0" style="stop-opacity:1; stop-color:white"/>
   <stop offset="1" style="stop-opacity:1; stop-color:white"/>
  </linearGradient>
       <rect style="fill:url(#id6)" x="977.86" y="432.6" width="335.36" height="349.2"/>
      </mask>
      <mask id="id7">
  <linearGradient id="id8" gradientUnits="userSpaceOnUse" x1="1372.22" y1="717.68" x2="1675.8" y2="417.45">
   <stop offset="0" style="stop-opacity:1; stop-color:white"/>
   <stop offset="1" style="stop-opacity:1; stop-color:white"/>
  </linearGradient>
       <rect style="fill:url(#id8)" x="1370.5" y="432.6" width="335.37" height="349.2"/>
      </mask>
      <mask id="id9">
  <linearGradient id="id10" gradientUnits="userSpaceOnUse" x1="586.94" y1="1826.67" x2="890.51" y2="1526.44">
   <stop offset="0" style="stop-opacity:1; stop-color:white"/>
   <stop offset="1" style="stop-opacity:1; stop-color:white"/>
  </linearGradient>
       <rect style="fill:url(#id10)" x="585.22" y="1541.59" width="335.37" height="349.21"/>
      </mask>
      <mask id="id11">
  <linearGradient id="id12" gradientUnits="userSpaceOnUse" x1="979.58" y1="1826.67" x2="1283.15" y2="1526.44">
   <stop offset="0" style="stop-opacity:1; stop-color:white"/>
   <stop offset="1" style="stop-opacity:1; stop-color:white"/>
  </linearGradient>
       <rect style="fill:url(#id12)" x="977.86" y="1541.59" width="335.36" height="349.21"/>
      </mask>
      <mask id="id13">
  <linearGradient id="id14" gradientUnits="userSpaceOnUse" x1="1372.22" y1="1826.67" x2="1675.8" y2="1526.44">
   <stop offset="0" style="stop-opacity:1; stop-color:white"/>
   <stop offset="1" style="stop-opacity:1; stop-color:white"/>
  </linearGradient>
       <rect style="fill:url(#id14)" x="1370.5" y="1541.59" width="335.37" height="349.21"/>
      </mask>
    <clipPath id="id15" style="clip-rule:nonzero">
     <path d="M880.55 1334.84c25.21,0 45.66,-21.29 45.66,-47.56 0,-26.27 -20.45,-47.57 -45.66,-47.57 -25.22,0 -45.66,21.3 -45.66,47.57 0,26.27 20.45,47.56 45.66,47.56z"/>
    </clipPath>
    <clipPath id="id16" style="clip-rule:nonzero">
     <path d="M880.55 1334.84c25.21,0 45.66,-21.29 45.66,-47.56 0,-26.27 -20.45,-47.57 -45.66,-47.57 -25.22,0 -45.66,21.3 -45.66,47.57 0,26.27 20.45,47.56 45.66,47.56z"/>
    </clipPath>
 </defs>
 <g id="Слой_x0020_1">
  <metadata id="CorelCorpID_0Corel-Layer"/>
  <g id="_105553199589248">
   <path class="fil0" d="M2173.69 0l-2072.5 0c-55.88,0 -101.2,47.21 -101.2,105.42l0 1518c0,58.21 45.32,105.42 101.2,105.42l2072.5 0c55.88,0 101.2,-47.21 101.2,-105.42l0 -1518c0,-58.21 -45.32,-105.42 -101.2,-105.42z"/>
   <path class="fil1" d="M2173.69 0l-2072.5 0c-55.88,0 -101.2,47.21 -101.2,105.42l0 1518c0,58.21 45.32,105.42 101.2,105.42l2072.5 0c55.88,0 101.2,-47.21 101.2,-105.42l0 -1518c0,-58.21 -45.32,-105.42 -101.2,-105.42z"/>
   <g style="clip-path:url(#id0)">
    <g>
     <path id="_1" class="fil2 str0" style="mask:url(#id1)" d="M542.41 288.85l1202.21 0c43.59,-0 78.94,36.82 78.94,82.22l0 1366.21c0,45.41 -35.35,82.23 -78.94,82.23l-1202.21 0c-43.59,0 -78.93,-36.82 -78.93,-82.23l0 -1366.21c0,-45.4 35.34,-82.23 78.93,-82.23z"/>
     <path class="fil3" style="mask:url(#id3)" d="M627.42 434.32l250.97 0c22.35,0 40.48,18.88 40.48,42.17l-0 261.43c0,23.28 -18.12,42.17 -40.47,42.17l-250.97 0c-22.35,0 -40.47,-18.88 -40.47,-42.17l-0 -261.43c0,-23.28 18.13,-42.17 40.48,-42.17z"/>
     <path class="fil3" style="mask:url(#id5)" d="M1020.06 434.32l250.97 0c22.35,0 40.47,18.88 40.47,42.17l0 261.43c0,23.28 -18.12,42.17 -40.47,42.17l-250.97 0c-22.35,0 -40.47,-18.88 -40.47,-42.17l-0 -261.43c0,-23.28 18.13,-42.17 40.48,-42.17z"/>
     <path class="fil3" style="mask:url(#id7)" d="M1412.7 434.32l250.97 0c22.36,0 40.48,18.88 40.48,42.17l0 261.43c-0,23.28 -18.13,42.17 -40.48,42.17l-250.97 0c-22.35,0 -40.47,-18.88 -40.47,-42.17l-0 -261.43c0,-23.28 18.13,-42.17 40.48,-42.17z"/>
     <path class="fil3" style="mask:url(#id9)" d="M627.42 1543.31l250.97 0c22.35,0 40.48,18.88 40.48,42.17l-0 261.43c0,23.28 -18.12,42.17 -40.47,42.17l-250.97 0c-22.35,-0 -40.47,-18.89 -40.47,-42.17l-0 -261.43c0,-23.28 18.13,-42.17 40.48,-42.17z"/>
     <path class="fil3" style="mask:url(#id11)" d="M1020.06 1543.31l250.97 0c22.35,0 40.47,18.88 40.47,42.17l0 261.43c0,23.28 -18.12,42.17 -40.47,42.17l-250.97 0c-22.35,-0 -40.47,-18.89 -40.47,-42.17l-0 -261.43c0,-23.28 18.13,-42.17 40.48,-42.17z"/>
     <path class="fil3" style="mask:url(#id13)" d="M1412.7 1543.31l250.97 0c22.36,0 40.48,18.88 40.48,42.17l0 261.43c-0,23.28 -18.13,42.17 -40.48,42.17l-250.97 0c-22.35,-0 -40.47,-18.89 -40.47,-42.17l-0 -261.43c0,-23.28 18.13,-42.17 40.48,-42.17z"/>
    </g>
   </g>
   <path class="fil4" d="M2173.69 0l-2072.5 0c-55.88,0 -101.2,47.21 -101.2,105.42l0 1518c0,58.21 45.32,105.42 101.2,105.42l2072.5 0c55.88,0 101.2,-47.21 101.2,-105.42l0 -1518c0,-58.21 -45.32,-105.42 -101.2,-105.42z"/>
   <path class="fil3" d="M624.72 847.56c-25.35,0 -45.87,16.82 -45.87,37.57l0 557.35c0,20.75 20.53,37.58 45.87,37.58l1041.65 0c25.35,0 45.87,-16.83 45.87,-37.58l0 -557.35c0,-20.75 -20.53,-37.57 -45.87,-37.57l-1041.65 0z"/>
   <path class="fil4 str0" d="M1443.06 1040.09c0,52.15 40.57,94.41 90.63,94.41 50.05,0 90.62,-42.27 90.62,-94.41 0,-52.14 -40.57,-94.41 -90.62,-94.41 -50.05,0 -90.63,42.27 -90.63,94.41z"/>
   <path class="fil4 str0" d="M1513.22 1010.79c0,11.75 9.15,21.32 20.46,21.32 11.31,0 20.46,-9.57 20.46,-21.32 0,-11.78 -9.15,-21.31 -20.46,-21.31 -11.32,0 -20.46,9.53 -20.46,21.31z"/>
   <path class="fil4 str0" d="M1490.73 1069.35l0 9.6 85.89 0 0 -9.6c0,-3.13 -1.48,-6.02 -4.27,-8.69 -2.8,-2.69 -6.77,-5.01 -11.33,-6.91 -9.12,-3.81 -20.11,-5.71 -27.35,-5.71 -7.24,0 -18.22,1.9 -27.35,5.71 -4.56,1.89 -8.53,4.22 -11.33,6.91 -2.78,2.68 -4.27,5.56 -4.27,8.69z"/>
   <path class="fil4 str1" d="M1010.91 1021.46l-306.34 0c-20.67,0 -37.42,-17.45 -37.42,-38.98 0,-21.53 16.75,-38.98 37.42,-38.98l306.34 0c20.66,0 37.42,17.45 37.42,38.98 0,21.53 -16.75,38.98 -37.42,38.98z"/>
   <polygon class="fil4 str2" points="762.61,978.07 762.61,986.89 753.94,985.99 759.24,992.91 752.2,997.52 748.17,989 744.12,997.52 737.09,992.91 742.38,985.99 733.71,986.89 733.71,978.07 742.38,978.97 737.09,972.05 744.12,967.43 748.17,975.96 752.2,967.43 759.24,972.05 753.94,978.97 "/>
   <polygon class="fil4 str2" points="835.66,978.07 835.66,986.89 827,985.99 832.29,992.91 825.25,997.52 821.22,989 817.17,997.52 810.14,992.91 815.43,985.99 806.77,986.89 806.77,978.07 815.43,978.97 810.14,972.05 817.17,967.43 821.22,975.96 825.25,967.43 832.29,972.05 827,978.97 "/>
   <polygon class="fil4 str2" points="908.71,978.07 908.71,986.89 900.05,985.99 905.33,992.91 898.3,997.52 894.27,989 890.22,997.52 883.19,992.91 888.49,985.99 879.82,986.89 879.82,978.07 888.49,978.97 883.19,972.05 890.22,967.43 894.27,975.96 898.3,967.43 905.33,972.05 900.05,978.97 "/>
   <polygon class="fil4 str3" points="981.76,978.07 981.76,986.89 973.1,985.99 978.39,992.91 971.35,997.52 967.32,989 963.27,997.52 956.24,992.91 961.54,985.99 952.86,986.89 952.86,978.07 961.54,978.97 956.24,972.05 963.27,967.43 967.32,975.96 971.35,967.43 978.39,972.05 973.1,978.97 "/>
   <path class="fil0" d="M1010.91 1136.68l-306.34 0c-20.67,0 -37.42,-17.45 -37.42,-38.99 0,-21.52 16.75,-38.98 37.42,-38.98l306.34 0c20.66,0 37.42,17.46 37.42,38.98 0,21.53 -16.75,38.99 -37.42,38.99z"/>
   <polygon class="fil4 str2" points="762.61,1093.29 762.61,1102.11 753.94,1101.21 759.24,1108.14 752.2,1112.75 748.17,1104.22 744.12,1112.75 737.09,1108.14 742.38,1101.21 733.71,1102.11 733.71,1093.29 742.38,1094.19 737.09,1087.28 744.12,1082.65 748.17,1091.18 752.2,1082.65 759.24,1087.28 753.94,1094.19 "/>
   <polygon class="fil4 str2" points="835.66,1093.29 835.66,1102.11 827,1101.21 832.29,1108.14 825.25,1112.75 821.22,1104.22 817.17,1112.75 810.14,1108.14 815.43,1101.21 806.77,1102.11 806.77,1093.29 815.43,1094.19 810.14,1087.28 817.17,1082.65 821.22,1091.18 825.25,1082.65 832.29,1087.28 827,1094.19 "/>
   <polygon class="fil4 str2" points="908.71,1093.29 908.71,1102.11 900.05,1101.21 905.33,1108.14 898.3,1112.75 894.27,1104.22 890.22,1112.75 883.19,1108.14 888.49,1101.21 879.82,1102.11 879.82,1093.29 888.49,1094.19 883.19,1087.28 890.22,1082.65 894.27,1091.18 898.3,1082.65 905.33,1087.28 900.05,1094.19 "/>
   <polygon class="fil4 str2" points="981.76,1093.29 981.76,1102.11 973.1,1101.21 978.39,1108.14 971.35,1112.75 967.32,1104.22 963.27,1112.75 956.24,1108.14 961.54,1101.21 952.86,1102.11 952.86,1093.29 961.54,1094.19 956.24,1087.28 963.27,1082.65 967.32,1091.18 971.35,1082.65 978.39,1087.28 973.1,1094.19 "/>
   <path class="fil0" d="M1252.14 1192.79c-11.93,0 -21.6,10.07 -21.6,22.49l0 142.37c0,12.43 9.67,22.5 21.6,22.5l136.68 0c11.92,0 21.58,-10.07 21.58,-22.5l0 -142.37c0,-12.42 -9.66,-22.49 -21.58,-22.49l-136.68 0z"/>
   <path class="fil4 str0" d="M1319.81 1249l-25.12 27.3 16.94 0 2.03 0 0 2.11 0 44.87c0,0.52 0.41,0.96 0.91,0.96l11.82 0c0.51,0 0.92,-0.44 0.92,-0.96l0 -44.87 0 -2.11 2.03 0 16.92 0 -25.11 -27.3c0,0 0,0 0,0 -0.18,-0.19 -0.42,-0.29 -0.66,-0.29 -0.24,0 -0.48,0.09 -0.67,0.29 0,0 0,0 0,0z"/>
   <path class="fil0" d="M1468.83 1192.79c-11.92,0 -21.59,10.07 -21.59,22.49l0 142.37c0,12.43 9.67,22.5 21.59,22.5l136.67 0c11.92,0 21.59,-10.07 21.59,-22.5l0 -142.37c0,-12.42 -9.66,-22.49 -21.59,-22.49l-136.67 0z"/>
   <path class="fil4 str0" d="M1530.34 1294.52l0 2.11 -2.03 0 -16.93 0 25.12 27.3c0,0 0,0 0,0 0.37,0.4 0.97,0.39 1.32,0l0 0 0 -0 25.12 -27.3 -16.93 0 -2.02 0 0 -2.11 0 -44.86c0,-0.53 -0.42,-0.96 -0.92,-0.96l-11.81 0c-0.51,0 -0.92,0.44 -0.92,0.96l0 44.86z"/>
   <path class="fil0" d="M667.89 1345.45c0,18.45 21.84,33.41 48.77,33.41l428.69 0c26.93,0 48.77,-14.97 48.77,-33.41l0 -118.71c0,-18.46 -21.83,-33.41 -48.77,-33.41l-428.69 0c-26.93,0 -48.77,14.95 -48.77,33.41l0 118.71z"/>
   <path class="fil5" d="M976.68 1286.93c0,6.69 -3.72,12.11 -8.33,12.11l-241.78 0c-4.59,0 -10.16,-5.42 -10.16,-12.11 0,-6.69 5.56,-12.11 10.16,-12.11l241.78 0c4.61,0 8.33,5.42 8.33,12.11z"/>
   <line class="fil4 str4" x1="882.43" y1="1286.09" x2="1137.45" y2= "1286.09" />
   <path class="fil5" d="M880.55 1334.84c25.21,0 45.66,-21.29 45.66,-47.56 0,-26.27 -20.45,-47.57 -45.66,-47.57 -25.22,0 -45.66,21.3 -45.66,47.57 0,26.27 20.45,47.56 45.66,47.56z"/>
   <g style="clip-path:url(#id15)">
    <polygon class="fil6" points="834.88,1239.71 926.2,1239.71 926.2,1334.84 834.88,1334.84 "/>
   </g>
   <g style="clip-path:url(#id16)">
    <g>
     <path id="_1_0" class="fil7" d="M880.55 1330.62c22.98,0 41.61,-19.4 41.61,-43.34l8.09 0c0,28.6 -22.26,51.78 -49.71,51.78l0 -8.44zm41.61 -43.34c0,-23.94 -18.63,-43.35 -41.61,-43.35l0 -8.44c27.45,0 49.71,23.19 49.71,51.78l-8.09 0zm-41.61 -43.35c-22.98,0 -41.62,19.41 -41.62,43.35l-8.09 0c0,-28.6 22.26,-51.78 49.71,-51.78l0 8.44zm-41.62 43.35c0,23.94 18.63,43.34 41.62,43.34l0 8.44c-27.45,0 -49.71,-23.18 -49.71,-51.78l8.09 0z"/>
    </g>
   </g>
   <path class="fil4" d="M880.55 1334.84c25.21,0 45.66,-21.29 45.66,-47.56 0,-26.27 -20.45,-47.57 -45.66,-47.57 -25.22,0 -45.66,21.3 -45.66,47.57 0,26.27 20.45,47.56 45.66,47.56z"/>
  </g>
 </g>
</svg>
