<?xml version="1.0" encoding="UTF-8"?>
<!DOCTYPE svg PUBLIC "-//W3C//DTD SVG 1.1//EN" "http://www.w3.org/Graphics/SVG/1.1/DTD/svg11.dtd">
<!-- Creator: CorelDRAW -->
<svg xmlns="http://www.w3.org/2000/svg" xml:space="preserve" width="3.6658mm" height="2.0893mm" version="1.1" style="shape-rendering:geometricPrecision; text-rendering:geometricPrecision; image-rendering:optimizeQuality; fill-rule:evenodd; clip-rule:evenodd"
viewBox="0 0 61.06 34.8"
 xmlns:xlink="http://www.w3.org/1999/xlink"
 xmlns:xodm="http://www.corel.com/coreldraw/odm/2003">
 <defs>
  <style type="text/css">
   <![CDATA[
    .fil0 {fill:white}
   ]]>
  </style>
 </defs>
 <g id="Слой_x0020_1">
  <metadata id="CorelCorpID_0Corel-Layer"/>
  <path class="fil0" d="M20.35 2.29c0,0.2 0.26,0.2 0.45,0.23 0.34,0.05 0.25,0.06 0.53,0.15 0.17,0.05 0.36,0.08 0.5,0.17 0.2,0.13 0.39,0.15 0.65,0.36 0.02,0.01 0.02,0.01 0.04,0.03l0.04 0.03c0.14,0.12 0.34,0.24 0.46,0.41 0.25,0.37 0.31,0.42 0.5,0.87 0.04,0.1 0.08,0.14 0.11,0.22 0.09,0.26 0.13,0.54 0.2,0.81 0.09,0.35 0.08,0.84 0.15,1.19 0.07,0.34 0.04,0.29 0.05,0.62 0.01,0.11 0.02,0.16 0.02,0.31 0,0.1 -0.01,0.24 0,0.33l0.04 3.97 -0.2 2.14c-0.03,0.25 -0.05,0.57 -0.12,0.81 -0.11,0.37 -0.07,0.55 -0.25,0.9 -0.05,0.1 -0.08,0.25 -0.13,0.35l-0.26 0.43c-0.06,0.07 -0.17,0.19 -0.23,0.25 -0.15,0.14 -0.52,0.26 -0.77,0.26 -0.34,0 -0.66,-0.17 -0.9,-0.35 -0.09,-0.07 -0.17,-0.1 -0.26,-0.17l-0.58 -0.48c-0.04,-0.04 -0.06,-0.08 -0.1,-0.12l-1.34 -1.61c-0.06,-0.09 -0.1,-0.19 -0.17,-0.26 -0.1,-0.1 -0.17,-0.25 -0.26,-0.36 -0.04,-0.04 -0.06,-0.08 -0.09,-0.12 -0.05,-0.08 -0.13,-0.18 -0.17,-0.26 -0.02,-0.05 -0.03,-0.08 -0.06,-0.13l-1.31 -2.08c-0.04,-0.06 -0.05,-0.07 -0.09,-0.13l-0.24 -0.39c-0.03,-0.06 -0.03,-0.08 -0.07,-0.15 -0.06,-0.1 -0.12,-0.14 -0.18,-0.25l-0.52 -0.97c-0.04,-0.06 -0.05,-0.05 -0.08,-0.13 -0.13,-0.28 -0.18,-0.29 -0.23,-0.39 -0.03,-0.06 -0.02,-0.09 -0.06,-0.16 -0.06,-0.11 -0.11,-0.12 -0.16,-0.25 -0.06,-0.16 -0.03,-0.17 -0.14,-0.29 -0.08,-0.09 -0.09,-0.18 -0.13,-0.3 -0.04,-0.11 -0.1,-0.17 -0.15,-0.28 -0.05,-0.11 -0.06,-0.18 -0.12,-0.28l-0.28 -0.56c-0.05,-0.12 -0.06,-0.2 -0.12,-0.31 -0.06,-0.11 -0.08,-0.14 -0.13,-0.27 -0.07,-0.17 -0.16,-0.26 -0.21,-0.43 -0.06,-0.17 -0.16,-0.25 -0.22,-0.43 -0.1,-0.3 -0.22,-0.62 -0.36,-0.89 -0.08,-0.15 -0.07,-0.24 -0.25,-0.59 -0.05,-0.1 -0.05,-0.21 -0.11,-0.32 -0.07,-0.12 -0.1,-0.15 -0.13,-0.3 -0.03,-0.15 -0.07,-0.16 -0.15,-0.28 -0.12,-0.18 -0.07,-0.17 -0.24,-0.38 -0.59,-0.74 -0.98,-0.67 -1.48,-0.88 -0.11,-0.05 -0.2,-0.07 -0.36,-0.07l-8.56 0c-0.16,0 -0.41,0 -0.54,0.03l-0.82 0.21 -0.24 0.16c-0.3,0.18 -0.46,0.54 -0.46,0.88l0.08 0.4c0.02,0.06 0.04,0.13 0.06,0.18 0.06,0.18 0.08,0.38 0.17,0.55 0.07,0.12 0.1,0.23 0.16,0.35l0.45 1.02c0.09,0.15 0.1,0.16 0.16,0.34 0.04,0.13 0.11,0.2 0.16,0.32 0.06,0.13 0.06,0.21 0.14,0.33 0.05,0.07 0.05,0.06 0.08,0.16 0.11,0.3 0.19,0.39 0.23,0.51 0.06,0.18 0.15,0.32 0.22,0.5 0.04,0.12 0.13,0.22 0.18,0.33 0.03,0.06 0.04,0.11 0.06,0.18 0.06,0.14 0.13,0.17 0.18,0.33 0.05,0.16 0.08,0.19 0.15,0.32 0.06,0.12 0.07,0.21 0.15,0.33l0.16 0.32c0.05,0.11 0.15,0.18 0.19,0.31 0.02,0.08 0.02,0.1 0.06,0.18 0.04,0.07 0.05,0.09 0.09,0.15 0.07,0.12 0.06,0.25 0.15,0.35 0.13,0.14 0.13,0.32 0.24,0.48 0.07,0.09 0.11,0.23 0.17,0.33 0.04,0.07 0.06,0.05 0.1,0.14 0.05,0.1 0.09,0.23 0.16,0.33 0.09,0.13 0.08,0.2 0.15,0.33 0.06,0.13 0.11,0.16 0.18,0.33l0.51 0.95c0.12,0.18 0.35,0.7 0.42,0.8 0.16,0.24 0.3,0.53 0.44,0.78l0.16 0.32c0.12,0.18 0.14,0.31 0.27,0.48l0.02 0.03c0.02,0.02 0.01,0.02 0.03,0.04 0.1,0.15 0.03,0.1 0.23,0.4 0.11,0.16 0.24,0.48 0.33,0.63 0.03,0.06 0.06,0.09 0.09,0.15 0.04,0.07 0.04,0.1 0.07,0.17l0.11 0.13c0.06,0.07 0.06,0.07 0.11,0.16l0.44 0.78c0.04,0.06 0.07,0.09 0.1,0.14 0.06,0.09 0.11,0.23 0.18,0.32l0.65 1.03c0.04,0.06 0.05,0.1 0.09,0.17 0.06,0.12 0.13,0.17 0.19,0.29 0.1,0.19 0.25,0.44 0.38,0.6 0.04,0.05 0.06,0.09 0.1,0.14l0.3 0.44c0.04,0.05 0.06,0.09 0.09,0.14 0.03,0.06 0.05,0.11 0.08,0.16 0.04,0.06 0.06,0.07 0.1,0.14 0.14,0.23 0.42,0.69 0.59,0.88l2.55 3.34c0.05,0.05 0.06,0.08 0.1,0.14l0.56 0.67c0.35,0.39 0.69,0.78 1.06,1.15l0.59 0.61c0.06,0.06 0.09,0.06 0.14,0.12l1.03 0.94c0.07,0.06 0.04,0.06 0.12,0.12l0.98 0.77c0.05,0.04 0.01,0.01 0.04,0.03 0.17,0.17 0.41,0.28 0.59,0.44 0.01,0.01 0.04,0.03 0.04,0.03l1.18 0.77c0.06,0.04 0.09,0.06 0.14,0.1 0.19,0.13 0.46,0.2 0.64,0.34l0.32 0.19c0.1,0.05 0.2,0.11 0.31,0.16 0.08,0.04 0.08,0.03 0.16,0.08 0.14,0.09 0.49,0.24 0.66,0.32 0.06,0.03 0.11,0.05 0.17,0.07 0.12,0.05 0.21,0.11 0.33,0.15 0.13,0.05 0.24,0.08 0.35,0.15 0.14,0.08 0.3,0.11 0.5,0.22 0.08,0.04 0.1,0.05 0.19,0.07 0.13,0.04 0.25,0.05 0.37,0.11l0.38 0.13c0.25,0.05 0.17,0.13 0.74,0.23 0.13,0.02 0.23,0.08 0.35,0.13 0.14,0.05 0.26,0.06 0.41,0.1 0.34,0.08 0.43,0.14 0.79,0.19l0.84 0.15c0.16,0.03 0.25,0.07 0.38,0.1l0.46 0.05c0.28,0.04 0.59,0.11 0.88,0.11 0.42,-0 3.16,0.07 3.53,0.02 0.5,-0.07 0.82,0.01 1.33,-0.02 0.2,-0.01 0.37,-0.08 0.53,-0.17 0.24,-0.14 0.59,-0.18 0.79,-0.39 0.16,-0.16 0.32,-0.28 0.42,-0.52 0.05,-0.12 0.05,-0.24 0.12,-0.36 0.11,-0.21 0.14,-0.54 0.14,-0.8 0,-0.32 0.02,-0.58 0.02,-0.92 0,-0.1 0.01,-0.14 0.02,-0.2 0.01,-0.08 0,-0.15 0.01,-0.23l0.17 -1.25c0.03,-0.18 0.12,-0.45 0.19,-0.74 0.09,-0.39 0.12,-0.3 0.19,-0.51 0.11,-0.36 0.03,-0.17 0.21,-0.49 0.06,-0.11 0.07,-0.22 0.14,-0.34 0.03,-0.05 0.05,-0.07 0.08,-0.13 0.03,-0.06 0.05,-0.1 0.09,-0.15 0.1,-0.14 0.49,-0.48 0.61,-0.56 0.03,-0.02 0.04,-0.03 0.07,-0.05 0,-0 0.01,-0.01 0.01,-0.01 0.21,-0.18 0.57,-0.29 0.87,-0.29 0.36,0 0.95,0.25 1.21,0.45l0.39 0.28c0.04,0.03 0.05,0.04 0.09,0.08 0.33,0.24 0.49,0.47 0.71,0.64 0.22,0.18 0.6,0.66 0.8,0.85l1.5 1.7c0.11,0.11 0.24,0.22 0.34,0.34l1.15 1.26c0.02,0.03 0.02,0.02 0.04,0.05l0.29 0.28c0.17,0.14 0.31,0.31 0.5,0.44l0.37 0.3c0.19,0.15 0.59,0.44 0.8,0.55 0.08,0.05 0.15,0.06 0.22,0.11 0.09,0.06 0.07,0.08 0.2,0.13 0.42,0.17 0.23,0.14 0.71,0.27 0.1,0.03 0.14,0.06 0.23,0.11 0.19,0.12 0.32,0.08 0.52,0.15 0.27,0.1 0.3,0.07 0.57,0.1 0.46,0.07 1.4,0.01 1.96,0.01 0.14,0 0.21,-0.02 0.31,-0.02 0.1,0 0.17,0.02 0.31,0.02l6.16 0c0.1,0 0.21,0 0.31,0 0.11,-0.01 0.15,-0.03 0.29,-0.02 0.39,0 0.66,-0.14 1.02,-0.23l0.22 -0.09c0.07,-0.03 0.15,-0.05 0.24,-0.07 0.21,-0.05 0.25,-0.12 0.42,-0.21 0.14,-0.07 0.24,-0.17 0.34,-0.28 0.04,-0.04 0.03,-0.05 0.06,-0.08 0.16,-0.2 0.2,-0.25 0.3,-0.49 0.14,-0.32 0.08,-0.66 0.08,-1 0,-0.01 -0.09,-0.19 -0.1,-0.23 -0.06,-0.16 -0.09,-0.37 -0.18,-0.52l-1.37 -2.15c-0.06,-0.09 -0.07,-0.13 -0.15,-0.21 -0.11,-0.12 -0.22,-0.26 -0.33,-0.4 -0.05,-0.07 -0.09,-0.12 -0.14,-0.19l-0.28 -0.32c-0,-0 -0.04,-0.05 -0.04,-0.05 -0.06,-0.08 -0.12,-0.13 -0.16,-0.2 -0.05,-0.08 -0.08,-0.13 -0.14,-0.2l-0.17 -0.19c-0.11,-0.14 -0.26,-0.21 -0.37,-0.35l-0.66 -0.73c-0.07,-0.1 -0.09,-0.09 -0.17,-0.16l-0.31 -0.32c-0.03,-0.03 -0.02,-0.02 -0.05,-0.04l-0.26 -0.26c-0,-0 -0.01,-0.01 -0.01,-0.01l-0.07 -0.07c-0.12,-0.12 -0.22,-0.25 -0.34,-0.35l-0.54 -0.52c-0.12,-0.11 -0.26,-0.22 -0.37,-0.35 -0.23,-0.3 -0.73,-0.63 -1.08,-1.01l-0.38 -0.34c-0.22,-0.21 -0.84,-0.76 -1.06,-1.04 -0.17,-0.21 -0.38,-0.41 -0.49,-0.56 -0.07,-0.09 -0.1,-0.11 -0.17,-0.19 -0.07,-0.08 -0.24,-0.35 -0.27,-0.45 -0.06,-0.2 -0.18,-0.26 -0.23,-0.47 -0.14,-0.61 -0.15,-0.63 0.01,-1.31 0.01,-0.06 0.02,-0.1 0.03,-0.16 0.03,-0.12 0.13,-0.31 0.18,-0.44 0.05,-0.14 0.09,-0.16 0.15,-0.26 0.07,-0.12 0.18,-0.35 0.29,-0.53l0.52 -0.73c0.05,-0.05 0.04,-0.03 0.09,-0.1l0.25 -0.37c0.07,-0.11 0.12,-0.13 0.19,-0.22 0.06,-0.09 0.09,-0.16 0.16,-0.25l0.55 -0.7c0.15,-0.19 0.32,-0.37 0.44,-0.57 0.02,-0.02 0.01,-0.03 0.04,-0.06l0.22 -0.3c0.11,-0.15 0.27,-0.28 0.36,-0.46 0.07,-0.13 0.12,-0.14 0.19,-0.24 0.11,-0.15 0.22,-0.33 0.34,-0.47 0.04,-0.05 0.05,-0.05 0.09,-0.1l0.27 -0.36c0.24,-0.32 0.46,-0.64 0.71,-0.95l1.03 -1.42c0.1,-0.1 0.1,-0.11 0.18,-0.23l0.34 -0.5c0.06,-0.06 0.04,-0.04 0.08,-0.11 0.13,-0.21 0.31,-0.39 0.42,-0.61 0.05,-0.1 0.1,-0.16 0.16,-0.25l0.96 -1.52c0.04,-0.05 0.05,-0.06 0.08,-0.11 0.03,-0.05 0.04,-0.1 0.07,-0.14 0.05,-0.08 0.12,-0.15 0.17,-0.24 0.05,-0.11 0.07,-0.16 0.13,-0.27l0.68 -1.39c0.05,-0.1 0.06,-0.19 0.11,-0.3 0.09,-0.22 0.17,-0.33 0.21,-0.6 0.03,-0.17 0.18,-0.53 0.18,-0.66 0,-1.07 0.05,-0.56 -0.15,-1.03 -0.07,-0.16 -0.04,-0.15 -0.17,-0.26 -0.2,-0.15 -0.15,-0.15 -0.39,-0.26 -0.18,-0.08 -0.22,-0.15 -0.46,-0.19l-0.72 -0.15c-0.11,-0.03 -0.28,-0.04 -0.42,-0.04l-10.51 0c-0.3,0 -0.39,0.12 -0.63,0.18 -0.14,0.03 -0.18,0.04 -0.26,0.14 -0.23,0.28 -0.19,0.13 -0.45,0.56 -0.03,0.06 -0.06,0.07 -0.1,0.12l-0.25 0.59c-0.04,0.11 -0.06,0.21 -0.1,0.3 -0.05,0.1 -0.1,0.14 -0.13,0.27 -0.03,0.13 -0.05,0.2 -0.11,0.3 -0.1,0.17 -0.15,0.4 -0.25,0.59 -0.09,0.18 -0.14,0.39 -0.25,0.57 -0.06,0.1 -0.07,0.21 -0.12,0.32 -0.05,0.11 -0.09,0.13 -0.14,0.26 -0.09,0.22 -0.17,0.34 -0.24,0.57 -0.04,0.13 -0.08,0.17 -0.14,0.26 -0.06,0.1 -0.06,0.18 -0.12,0.29 -0.08,0.13 -0.09,0.08 -0.15,0.26l-0.52 1.14c-0.17,0.28 -0.45,0.78 -0.58,1.08 -0.06,0.15 -0.15,0.25 -0.22,0.4 -0.04,0.08 -0.04,0.07 -0.08,0.13 -0.06,0.09 -0.08,0.18 -0.14,0.27 -0.05,0.1 -0.12,0.13 -0.18,0.23l-0.76 1.29c-0.07,0.1 -0.1,0.16 -0.17,0.27l-0.67 0.99c-0.08,0.1 -0.1,0.12 -0.17,0.24 -0.05,0.1 -0.11,0.13 -0.17,0.24 -0.14,0.26 -0.27,0.38 -0.43,0.6 -0.17,0.24 -0.34,0.5 -0.53,0.72 -0.13,0.16 -0.55,0.69 -0.67,0.78 -0.03,0.02 -0.43,0.49 -0.61,0.64 -0.13,0.11 -0.32,0.3 -0.45,0.39 -0.1,0.07 -0.13,0.13 -0.23,0.18 -0.43,0.25 -0.73,0.44 -1.25,0.29 -0.19,-0.05 -0.39,-0.27 -0.55,-0.41 -0.08,-0.07 -0.07,-0.1 -0.12,-0.19 -0.05,-0.09 -0.1,-0.1 -0.14,-0.17 -0.06,-0.1 -0.07,-0.24 -0.14,-0.34 -0.09,-0.14 -0.08,-0.19 -0.12,-0.36 -0.07,-0.25 -0.14,-0.19 -0.2,-0.76 -0.09,-0.92 -0.1,-1.15 -0.1,-2.09 0,-0.95 0.07,-1.88 0.07,-2.82 0,-0.32 0,-0.64 0,-0.96 0,-0.95 0.08,-1.87 0.07,-2.81 -0,-0.31 0.05,-0.58 0.05,-0.91l0 -1.54 -0.09 -1.01c-0.02,-0.19 -0.05,-0.29 -0.11,-0.44 -0.06,-0.14 -0.08,-0.29 -0.14,-0.44 -0.04,-0.12 -0.15,-0.23 -0.22,-0.33 -0.04,-0.06 -0.07,-0.09 -0.11,-0.15 -0.3,-0.4 -0.29,-0.29 -0.62,-0.5 -0.21,-0.13 -0.38,-0.14 -0.6,-0.24 -0.25,-0.12 -0.65,-0.1 -0.91,-0.2 -0.38,-0.15 -1.07,-0.18 -1.49,-0.22 -0.32,-0.03 -0.73,-0.1 -1.03,-0.1l-3.9 0c-0.64,0 -1.25,0.11 -1.73,0.12l-0.73 0.06c-0.08,0.01 -0.19,0.02 -0.24,0.03l-0.42 0.1c-0.2,0.07 -0.46,0.06 -0.67,0.12 -0.06,0.02 -0.12,0.05 -0.18,0.08 -0.12,0.06 -0.27,0.08 -0.4,0.12 -0.15,0.04 -0.22,0.11 -0.37,0.16 -0.16,0.05 -0.26,0.16 -0.4,0.24l-0.49 0.37c-0.01,0.01 -0.02,0.03 -0.03,0.04 -0.05,0.06 -0.08,0.08 -0.13,0.13 -0.18,0.18 -0.37,0.42 -0.37,0.69z"/>
 </g>
</svg>
