<?xml version="1.0" encoding="UTF-8"?>
<!DOCTYPE svg PUBLIC "-//W3C//DTD SVG 1.1//EN" "http://www.w3.org/Graphics/SVG/1.1/DTD/svg11.dtd">
<!-- Creator: CorelDRAW -->
<svg xmlns="http://www.w3.org/2000/svg" xml:space="preserve" width="3.4142mm" height="2.3901mm" version="1.1" style="shape-rendering:geometricPrecision; text-rendering:geometricPrecision; image-rendering:optimizeQuality; fill-rule:evenodd; clip-rule:evenodd"
viewBox="0 0 29.26 20.48"
 xmlns:xlink="http://www.w3.org/1999/xlink"
 xmlns:xodm="http://www.corel.com/coreldraw/odm/2003">
 <defs>
  <style type="text/css">
   <![CDATA[
    .fil0 {fill:white}
   ]]>
  </style>
 </defs>
 <g id="Слой_x0020_1">
  <metadata id="CorelCorpID_0Corel-Layer"/>
  <path class="fil0" d="M11.73 5.85l2.85 1.64c0.32,0.18 0.63,0.36 0.95,0.55 0.63,0.37 1.27,0.73 1.9,1.1l1.88 1.09c0,-0 0.01,0.01 0.01,0.01l-7.58 4.37 0 -8.76zm-11.73 4.39l0.02 0.95c0,0.09 0.02,0.09 0.02,0.17 0,0.13 -0.01,0.26 0.01,0.38 0.03,0.22 0.02,0.52 0.03,0.74 0,0.08 0.02,0.08 0.02,0.17 0,0.06 -0.01,0.13 0,0.19 0.04,0.38 0.04,0.73 0.07,1.11 0.11,1.4 0.27,3.39 0.98,4.47 0.46,0.7 0.99,1.07 1.75,1.36 0.59,0.22 1.29,0.31 1.94,0.37l1.45 0.11c0.17,0.02 0.37,0.02 0.55,0.03 0.3,0.02 0.63,0.05 0.91,0.05 0.39,0 0.75,0.04 1.14,0.03 0.15,-0 0.22,0.02 0.37,0.02l1.14 0.02c0.13,0 0.22,0.02 0.37,0.02 0.25,0 0.55,-0.01 0.77,0.02l3.09 0.04c0.53,0 1,-0.02 1.53,-0.02 0.27,0 0.5,-0.02 0.76,-0.02 0.25,0 0.52,0.01 0.77,0 0.09,-0 0.09,-0.02 0.17,-0.02l0.58 0c0.5,0 1,-0.04 1.51,-0.03l0.37 -0.02c0.12,-0 0.27,0.01 0.39,0 0.59,-0.05 1.46,-0.04 2.02,-0.1 0.06,-0.01 0.13,0 0.19,-0l1.44 -0.1c0.11,-0.01 0.24,-0.03 0.35,-0.04 0.54,-0.05 1.15,-0.17 1.62,-0.33 1.7,-0.57 2.26,-1.89 2.56,-3.64 0.08,-0.46 0.13,-0.92 0.16,-1.38l0.06 -0.71c0.05,-0.33 0.05,-1.09 0.09,-1.45 0.03,-0.24 0,-0.52 0.03,-0.74 0.02,-0.12 -0,-0.26 0.01,-0.38 0,-0.08 0.02,-0.08 0.02,-0.17 0,-0.06 0,-0.13 -0,-0.19 0,-0.15 0.02,-0.24 0.02,-0.37l0 -1c0,-0.14 -0.02,-0.22 -0.02,-0.37l-0.02 -0.75c-0.02,-0.24 -0.03,-0.49 -0.03,-0.74 -0,-0.09 -0.02,-0.09 -0.02,-0.17l-0.07 -1.28c-0.15,-1.36 -0.21,-3.27 -0.99,-4.42 -0.06,-0.08 -0.1,-0.15 -0.16,-0.23 -0.03,-0.04 -0.05,-0.07 -0.09,-0.11 -0.69,-0.82 -1.73,-1.14 -2.78,-1.29 -0.22,-0.03 -0.47,-0.07 -0.69,-0.08 -0.41,-0.02 -0.84,-0.08 -1.26,-0.09l-0.72 -0.05c-0.06,-0.01 -0.13,0 -0.19,-0 -0.08,-0 -0.08,-0.02 -0.17,-0.02l-0.93 -0.03c-0.15,0 -0.22,-0.02 -0.37,-0.02 -0.27,0 -0.48,-0.02 -0.76,-0.02 -0.15,0 -0.24,-0.02 -0.37,-0.02 -0.13,0 -0.26,0 -0.39,0 -0.15,0 -0.23,-0.02 -0.37,-0.02 -0.13,0 -0.26,0 -0.39,0 -0.27,0 -0.48,-0.02 -0.76,-0.02 -1.27,0 -2.56,-0.04 -3.84,-0.04 -0.27,0 -0.49,0.02 -0.76,0.02 -0.54,0 -1.02,0.02 -1.54,0.02l-1.14 0.02c-0.15,-0 -0.22,0.02 -0.37,0.02 -0.13,-0 -0.26,0 -0.39,-0 -0.15,0 -0.22,0.02 -0.37,0.02 -0.28,-0 -0.5,0.02 -0.77,0.02l-1.48 0.07c-0.06,0.01 -0.13,-0 -0.19,0 -0.18,0.01 -0.37,0.04 -0.54,0.04l-1.46 0.11c-0.55,0.02 -1.52,0.22 -1.98,0.38 -0.38,0.13 -0.72,0.31 -1.01,0.53 -0.64,0.47 -0.97,1.14 -1.22,1.89 -0.07,0.2 -0.11,0.4 -0.16,0.61 -0.16,0.67 -0.22,1.35 -0.28,2.05 -0.02,0.21 -0.09,0.89 -0.09,1.07l-0.14 3.39z"/>
 </g>
</svg>
