<?xml version="1.0" encoding="UTF-8"?>
<!DOCTYPE svg PUBLIC "-//W3C//DTD SVG 1.1//EN" "http://www.w3.org/Graphics/SVG/1.1/DTD/svg11.dtd">
<!-- Creator: CorelDRAW -->
<svg xmlns="http://www.w3.org/2000/svg" xml:space="preserve" width="8.044mm" height="8.6241mm" version="1.1" style="shape-rendering:geometricPrecision; text-rendering:geometricPrecision; image-rendering:optimizeQuality; fill-rule:evenodd; clip-rule:evenodd"
viewBox="0 0 86.04 92.24"
 xmlns:xlink="http://www.w3.org/1999/xlink"
 xmlns:xodm="http://www.corel.com/coreldraw/odm/2003">
 <defs>
  <style type="text/css">
   <![CDATA[
    .fil0 {fill:#ffffff}
    .fil1 {fill:#ffffff;fill-rule:nonzero}
   ]]>
  </style>
 </defs>
 <g id="Слой_x0020_1">
  <metadata id="CorelCorpID_0Corel-Layer"/>
  <g id="_105553198699744">
   <g>
    <path class="fil0" d="M66.2 1.44c0,2.4 1.44,2.16 3.41,2.15 1.62,-0 3.23,0 4.85,0l-17.54 17.63 -6.5 -6.51c-1.96,-1.52 -2.74,-0.04 -4.63,1.85 -3.51,3.51 -6.9,6.9 -10.41,10.41l-15.62 15.61c-0.89,0.89 -4.89,4.48 -4.89,5.52 0,1.12 1,2.04 2.06,1.88 1.31,-0.2 5.65,-5.01 6.69,-6.05 1.94,-1.94 24.42,-24.64 25.35,-25.26 2.22,1.48 6,7 8.08,7 1.08,0 4.36,-3.73 5.25,-4.62 1.32,-1.32 14.04,-14.21 14.85,-14.76 0,1.13 -0.2,5.92 0.26,6.74 0.76,1.39 3.51,1.68 3.51,-1.54l0 -8.97c0,-1.36 -0.47,-2.51 -1.79,-2.51l-11.49 0c-0.53,0 -1.44,0.91 -1.44,1.44z"/>
    <path class="fil0" d="M12.54 54.38c0,-1.8 -2.73,-2.56 -3.54,-0.65 -0.6,1.42 0.73,3 2.39,2.39 0.47,-0.17 0.59,-0.28 0.8,-0.65 0.07,-0.13 0.35,-0.88 0.35,-1.08z"/>
   </g>
   <g>
    <path class="fil1" d="M19.47 71.5l-8.85 0 0 -3.51 8.85 0 0 0 0 3.51zm0 -3.51c0.97,0 1.75,0.79 1.75,1.75 0,0.97 -0.79,1.75 -1.75,1.75l0 -3.51zm4.56 4.56l-3.51 0 0 0 -0 -0.05 -0 -0.06 -0.01 -0.05 -0.01 -0.05 -0.01 -0.06 -0.01 -0.04 -0.02 -0.04 -0.02 -0.05 -0.02 -0.05 -0.02 -0.04 -0.03 -0.05 -0.03 -0.04 -0.03 -0.04 -0.03 -0.04 -0.03 -0.04 -0.04 -0.04 -0.04 -0.04 -0.04 -0.03 -0.04 -0.03 -0.04 -0.03 -0.05 -0.03 -0.04 -0.03 -0.04 -0.02 -0.04 -0.02 -0.05 -0.02 -0.05 -0.02 -0.05 -0.01 -0.05 -0.01 -0.04 -0.01 -0.06 -0.01 -0.06 -0 -0.05 -0 0 -3.51 0.24 0.01 0.23 0.02 0.22 0.03 0.24 0.04 0.22 0.05 0.22 0.06 0.21 0.07 0.2 0.08 0.2 0.09 0.2 0.1 0.19 0.11 0.18 0.11 0.18 0.13 0.17 0.14 0.17 0.14 0.16 0.15 0.15 0.16 0.14 0.16 0.13 0.17 0.13 0.18 0.12 0.19 0.11 0.19 0.1 0.2 0.09 0.2 0.08 0.2 0.07 0.21 0.06 0.22 0.05 0.21 0.04 0.23 0.03 0.23 0.02 0.23 0.01 0.24 0 0zm0 0c0,0.97 -0.79,1.75 -1.75,1.75 -0.97,0 -1.75,-0.79 -1.75,-1.75l3.51 0zm-3.51 16.92l0 -16.92 3.51 0 0 16.92 -1.75 1.75 -1.75 -1.75zm3.51 0c0,0.97 -0.79,1.75 -1.75,1.75 -0.97,0 -1.75,-0.79 -1.75,-1.75l3.51 0zm11.9 1.75l-13.66 0 0 -3.51 13.66 0 1.75 1.75 -1.75 1.75zm0 -3.51c0.97,0 1.75,0.79 1.75,1.75 0,0.97 -0.79,1.75 -1.75,1.75l0 -3.51zm1.75 -30.21l0 31.96 -3.51 0 0 -31.96 0 0 3.51 0zm-3.51 0c0,-0.97 0.79,-1.75 1.75,-1.75 0.97,0 1.75,0.79 1.75,1.75l-3.51 0zm4.56 -4.56l0 3.51 0 0 -0.05 0 -0.06 0 -0.05 0.01 -0.05 0.01 -0.06 0.01 -0.04 0.01 -0.05 0.02 -0.05 0.02 -0.05 0.02 -0.05 0.03 -0.04 0.02 -0.04 0.02 -0.04 0.03 -0.05 0.04 -0.04 0.03 -0.03 0.03 -0.03 0.03 -0.03 0.04 -0.04 0.05 -0.03 0.04 -0.02 0.04 -0.02 0.04 -0.03 0.05 -0.02 0.05 -0.02 0.05 -0.02 0.05 -0.01 0.04 -0.01 0.06 -0.01 0.05 -0.01 0.05 -0 0.06 -0 0.05 -3.51 0 0.01 -0.24 0.02 -0.23 0.03 -0.23 0.04 -0.23 0.05 -0.21 0.06 -0.22 0.07 -0.21 0.08 -0.21 0.09 -0.2 0.1 -0.19 0.11 -0.19 0.12 -0.19 0.13 -0.18 0.13 -0.16 0.14 -0.17 0.15 -0.16 0.16 -0.15 0.17 -0.14 0.16 -0.13 0.18 -0.13 0.19 -0.12 0.19 -0.11 0.19 -0.1 0.2 -0.09 0.21 -0.08 0.21 -0.07 0.22 -0.06 0.21 -0.05 0.23 -0.04 0.23 -0.03 0.23 -0.02 0.24 -0.01 0 0zm0 0c0.97,0 1.75,0.79 1.75,1.75 0,0.97 -0.79,1.75 -1.75,1.75l0 -3.51zm8.85 3.51l-8.85 0 0 -3.51 8.85 0 0 0 0 3.51zm0 -3.51c0.97,0 1.75,0.79 1.75,1.75 0,0.97 -0.79,1.75 -1.75,1.75l0 -3.51zm4.56 4.56l-3.51 0 0 0 -0 -0.05 -0 -0.06 -0.01 -0.05 -0.01 -0.05 -0.01 -0.06 -0.01 -0.04 -0.02 -0.05 -0.02 -0.05 -0.02 -0.05 -0.03 -0.05 -0.02 -0.04 -0.02 -0.04 -0.03 -0.04 -0.04 -0.05 -0.03 -0.04 -0.03 -0.03 -0.03 -0.03 -0.04 -0.03 -0.05 -0.04 -0.04 -0.03 -0.04 -0.02 -0.04 -0.02 -0.05 -0.03 -0.05 -0.02 -0.05 -0.02 -0.05 -0.02 -0.04 -0.01 -0.06 -0.01 -0.05 -0.01 -0.05 -0.01 -0.06 -0 -0.05 -0 0 -3.51 0.24 0.01 0.23 0.02 0.23 0.03 0.23 0.04 0.21 0.05 0.22 0.06 0.21 0.07 0.21 0.08 0.2 0.09 0.19 0.1 0.19 0.11 0.19 0.12 0.18 0.13 0.16 0.13 0.17 0.14 0.16 0.15 0.15 0.16 0.14 0.17 0.13 0.16 0.13 0.18 0.12 0.19 0.11 0.19 0.1 0.19 0.09 0.2 0.08 0.21 0.07 0.21 0.06 0.22 0.05 0.21 0.04 0.23 0.03 0.23 0.02 0.23 0.01 0.24 0 0zm0 0c0,0.97 -0.79,1.75 -1.75,1.75 -0.97,0 -1.75,-0.79 -1.75,-1.75l3.51 0zm-3.51 31.96l0 -31.96 3.51 0 0 31.96 -1.75 1.75 -1.75 -1.75zm3.51 0c0,0.97 -0.79,1.75 -1.75,1.75 -0.97,0 -1.75,-0.79 -1.75,-1.75l3.51 0zm12.27 1.75l-14.02 0 0 -3.51 14.02 0 1.75 1.75 -1.75 1.75zm0 -3.51c0.97,0 1.75,0.79 1.75,1.75 0,0.97 -0.79,1.75 -1.75,1.75l0 -3.51zm1.75 -56.36l0 58.11 -3.51 0 0 -58.11 0 0 3.51 0zm-3.51 0c0,-0.97 0.79,-1.75 1.75,-1.75 0.97,0 1.75,0.79 1.75,1.75l-3.51 0zm4.56 -4.56l0 3.51 0 0 -0.05 0 -0.06 0 -0.05 0.01 -0.05 0.01 -0.06 0.01 -0.04 0.01 -0.05 0.02 -0.05 0.02 -0.05 0.02 -0.05 0.03 -0.04 0.02 -0.04 0.02 -0.04 0.03 -0.04 0.03 -0.04 0.03 -0.04 0.04 -0.04 0.04 -0.03 0.04 -0.03 0.04 -0.03 0.04 -0.03 0.05 -0.03 0.04 -0.02 0.04 -0.02 0.04 -0.02 0.05 -0.02 0.05 -0.01 0.05 -0.01 0.05 -0.01 0.04 -0.01 0.06 -0 0.06 -0 0.05 -3.51 0 0.01 -0.24 0.02 -0.23 0.03 -0.22 0.04 -0.24 0.05 -0.22 0.06 -0.22 0.07 -0.21 0.08 -0.2 0.09 -0.2 0.1 -0.2 0.11 -0.19 0.11 -0.18 0.13 -0.18 0.14 -0.17 0.14 -0.17 0.15 -0.16 0.16 -0.15 0.16 -0.14 0.17 -0.13 0.18 -0.13 0.19 -0.12 0.19 -0.11 0.19 -0.1 0.2 -0.09 0.21 -0.08 0.21 -0.07 0.22 -0.06 0.21 -0.05 0.23 -0.04 0.23 -0.03 0.23 -0.02 0.24 -0.01 0 0zm0 0c0.97,0 1.75,0.79 1.75,1.75 0,0.97 -0.79,1.75 -1.75,1.75l0 -3.51zm8.85 3.51l-8.85 0 0 -3.51 8.85 0 0 0 0 3.51zm0 -3.51c0.97,0 1.75,0.79 1.75,1.75 0,0.97 -0.79,1.75 -1.75,1.75l0 -3.51zm4.56 4.56l-3.51 0 0 0 -0 -0.05 -0 -0.06 -0.01 -0.06 -0.01 -0.04 -0.01 -0.05 -0.01 -0.05 -0.02 -0.05 -0.02 -0.05 -0.02 -0.04 -0.02 -0.04 -0.03 -0.04 -0.03 -0.05 -0.03 -0.04 -0.03 -0.04 -0.03 -0.04 -0.04 -0.04 -0.04 -0.04 -0.04 -0.03 -0.04 -0.03 -0.04 -0.03 -0.04 -0.03 -0.05 -0.03 -0.04 -0.02 -0.05 -0.02 -0.05 -0.02 -0.04 -0.02 -0.04 -0.01 -0.06 -0.01 -0.05 -0.01 -0.05 -0.01 -0.06 -0 -0.05 -0 0 -3.51 0.24 0.01 0.23 0.02 0.23 0.03 0.23 0.04 0.21 0.05 0.22 0.06 0.21 0.07 0.2 0.08 0.2 0.09 0.2 0.1 0.19 0.11 0.19 0.12 0.18 0.13 0.17 0.13 0.16 0.14 0.16 0.15 0.15 0.16 0.14 0.17 0.14 0.17 0.13 0.18 0.11 0.18 0.11 0.19 0.1 0.2 0.09 0.2 0.08 0.2 0.07 0.21 0.06 0.22 0.05 0.22 0.04 0.24 0.03 0.22 0.02 0.23 0.01 0.24 0 0zm0 0c0,0.97 -0.79,1.75 -1.75,1.75 -0.97,0 -1.75,-0.79 -1.75,-1.75l3.51 0zm-3.51 58.11l0 -58.11 3.51 0 0 58.11 -1.75 1.75 -1.75 -1.75zm3.51 0c0,0.97 -0.79,1.75 -1.75,1.75 -0.97,0 -1.75,-0.79 -1.75,-1.75l3.51 0zm3.14 1.75l-4.9 0 0 -3.51 4.9 0 0 0 0 3.51zm0 -3.51c0.97,0 1.75,0.79 1.75,1.75 0,0.97 -0.79,1.75 -1.75,1.75l0 -3.51zm2.26 2.26l-3.51 0 0 0 0 0.04 0.01 0.08 0.01 0.09 0 0.02 0.01 0.05 0.02 0.09 0.04 0.1 0 0.01 0.02 0.05 0.04 0.07 0.02 0.04 0.04 0.07 0.03 0.04 0.02 0.03 0.05 0.06 0.04 0.04 0.04 0.04 0.06 0.05 0.03 0.02 0.04 0.03 0.07 0.04 0.04 0.02 0.07 0.04 0.05 0.02 0.01 0 0.1 0.04 0.09 0.02 0.05 0.01 0.02 0 0.09 0.01 0.08 0.01 0.04 0 0 -3.51 0.1 0 0.14 0.01 0.14 0.02 0.07 0.01 0.1 0.02 0.14 0.04 0.15 0.05 0.05 0.02 0.1 0.04 0.11 0.06 0.08 0.04 0.11 0.07 0.08 0.06 0.07 0.05 0.1 0.09 0.08 0.07 0.07 0.08 0.09 0.1 0.05 0.07 0.06 0.08 0.07 0.11 0.04 0.08 0.06 0.11 0.04 0.1 0.02 0.05 0.05 0.15 0.04 0.14 0.02 0.1 0.01 0.07 0.02 0.14 0.01 0.14 0 0.1 0 0zm0 0c0,0.97 -0.79,1.75 -1.75,1.75 -0.97,0 -1.75,-0.79 -1.75,-1.75l3.51 0zm-3.51 0l0 -0 3.51 0 0 0 0 0 -3.51 0zm3.51 0c0,0.97 -0.79,1.75 -1.75,1.75 -0.97,0 -1.75,-0.79 -1.75,-1.75l3.51 0zm-2.26 2.26l0 -3.51 0 0 -0.04 0 -0.08 0.01 -0.09 0.01 -0.02 0 -0.08 0.02 -0.05 0.01 -0.07 0.02 -0.04 0.02 -0.05 0.02 -0.07 0.04 -0.04 0.02 -0.07 0.04 -0.04 0.03 -0.05 0.04 -0.04 0.03 -0.04 0.04 -0.04 0.04 -0.04 0.04 -0.05 0.07 -0.03 0.04 -0.03 0.05 -0.02 0.04 -0.03 0.05 -0.03 0.07 -0.01 0.02 -0.03 0.09 -0.02 0.09 -0.01 0.05 -0 0.02 -0.01 0.09 -0.01 0.08 0 0.04 3.51 0 -0 0.1 -0.01 0.14 -0.02 0.14 -0.01 0.07 -0.02 0.1 -0.04 0.14 -0.05 0.13 -0.03 0.07 -0.05 0.11 -0.05 0.1 -0.04 0.08 -0.06 0.09 -0.06 0.08 -0.08 0.1 -0.07 0.08 -0.07 0.08 -0.08 0.07 -0.08 0.07 -0.09 0.07 -0.08 0.06 -0.11 0.07 -0.08 0.04 -0.11 0.06 -0.1 0.04 -0.09 0.04 -0.11 0.04 -0.1 0.03 -0.13 0.03 -0.07 0.01 -0.14 0.02 -0.14 0.01 -0.1 0 0 0zm0 0c-0.97,0 -1.75,-0.79 -1.75,-1.75 0,-0.97 0.79,-1.75 1.75,-1.75l0 3.51zm-4.9 -3.51l4.9 0 0 3.51 -4.9 0 0 0 0 -3.51zm0 3.51c-0.97,0 -1.75,-0.79 -1.75,-1.75 0,-0.97 0.79,-1.75 1.75,-1.75l0 3.51zm-14.46 -3.51l14.46 0 0 3.51 -14.46 0 0 0 0 -3.51zm0 3.51c-0.97,0 -1.75,-0.79 -1.75,-1.75 0,-0.97 0.79,-1.75 1.75,-1.75l0 3.51zm-14.02 -3.51l14.02 0 0 3.51 -14.02 0 0 0 0 -3.51zm0 3.51c-0.97,0 -1.75,-0.79 -1.75,-1.75 0,-0.97 0.79,-1.75 1.75,-1.75l0 3.51zm-14.46 -3.51l14.46 0 0 3.51 -14.46 0 0 0 0 -3.51zm0 3.51c-0.97,0 -1.75,-0.79 -1.75,-1.75 0,-0.97 0.79,-1.75 1.75,-1.75l0 3.51zm-13.66 -3.51l13.66 0 0 3.51 -13.66 0 0 0 0 -3.51zm0 3.51c-0.97,0 -1.75,-0.79 -1.75,-1.75 0,-0.97 0.79,-1.75 1.75,-1.75l0 3.51zm-14.46 -3.51l14.46 0 0 3.51 -14.46 0 0 0 0 -3.51zm0 3.51c-0.97,0 -1.75,-0.79 -1.75,-1.75 0,-0.97 0.79,-1.75 1.75,-1.75l0 3.51zm-5.55 -3.51l5.55 0 0 3.51 -5.55 0 0 0 0 -3.51zm0 3.51c-0.97,0 -1.75,-0.79 -1.75,-1.75 0,-0.97 0.79,-1.75 1.75,-1.75l0 3.51zm-2.26 -2.26l3.51 0 0 0 0 -0.04 -0.01 -0.08 -0.01 -0.09 -0 -0.02 -0.01 -0.05 -0.02 -0.09 -0.03 -0.09 -0.01 -0.02 -0.03 -0.07 -0.03 -0.05 -0.02 -0.04 -0.03 -0.05 -0.03 -0.04 -0.05 -0.07 -0.04 -0.04 -0.06 -0.06 -0.02 -0.02 -0.02 -0.02 -0.09 -0.07 -0.02 -0.02 -0.05 -0.03 -0.07 -0.04 -0.05 -0.03 -0.05 -0.02 -0.05 -0.02 -0.05 -0.02 -0.05 -0.01 -0.08 -0.02 -0.02 -0 -0.09 -0.01 -0.08 -0.01 -0.04 0 0 3.51 -0.1 -0 -0.14 -0.01 -0.14 -0.02 -0.07 -0.01 -0.13 -0.03 -0.1 -0.03 -0.1 -0.03 -0.1 -0.04 -0.1 -0.04 -0.1 -0.05 -0.11 -0.06 -0.09 -0.06 -0.06 -0.04 -0.13 -0.1 -0.06 -0.05 -0.06 -0.05 -0.09 -0.1 -0.07 -0.08 -0.08 -0.1 -0.06 -0.08 -0.06 -0.09 -0.04 -0.08 -0.05 -0.1 -0.05 -0.11 -0.03 -0.07 -0.05 -0.13 -0.04 -0.14 -0.02 -0.1 -0.01 -0.07 -0.02 -0.14 -0.01 -0.14 -0 -0.1 0 0zm0 0c0,-0.97 0.79,-1.75 1.75,-1.75 0.97,0 1.75,0.79 1.75,1.75l-3.51 0zm3.51 -0l0 0 -3.51 0 0 -0 0 0 3.51 0zm-3.51 0c0,-0.97 0.79,-1.75 1.75,-1.75 0.97,0 1.75,0.79 1.75,1.75l-3.51 0zm2.26 -2.26l0 3.51 0 0 0.04 0 0.08 -0.01 0.09 -0.01 0.02 -0 0.05 -0.01 0.09 -0.02 0.09 -0.03 0.02 -0.01 0.05 -0.02 0.05 -0.03 0.07 -0.04 0.05 -0.03 0.02 -0.02 0.07 -0.05 0.04 -0.04 0.02 -0.02 0.06 -0.06 0.05 -0.06 0.02 -0.03 0.03 -0.04 0.04 -0.07 0.02 -0.04 0.04 -0.07 0.02 -0.05 0 -0.01 0.04 -0.1 0.02 -0.09 0.01 -0.05 0 -0.02 0.01 -0.09 0.01 -0.08 0 -0.04 -3.51 0 0 -0.1 0.01 -0.14 0.02 -0.14 0.01 -0.07 0.02 -0.1 0.04 -0.14 0.05 -0.15 0.02 -0.05 0.04 -0.1 0.06 -0.11 0.04 -0.08 0.07 -0.11 0.06 -0.08 0.05 -0.07 0.09 -0.1 0.09 -0.1 0.06 -0.05 0.08 -0.07 0.1 -0.08 0.06 -0.04 0.09 -0.06 0.11 -0.06 0.1 -0.05 0.1 -0.04 0.07 -0.03 0.13 -0.05 0.14 -0.04 0.1 -0.02 0.07 -0.01 0.14 -0.02 0.14 -0.01 0.1 -0 0 0zm0 0c0.97,0 1.75,0.79 1.75,1.75 0,0.97 -0.79,1.75 -1.75,1.75l0 -3.51zm5.55 3.51l-5.55 0 0 -3.51 5.55 0 1.75 1.75 -1.75 1.75zm0 -3.51c0.97,0 1.75,0.79 1.75,1.75 0,0.97 -0.79,1.75 -1.75,1.75l0 -3.51zm1.75 -15.16l0 16.92 -3.51 0 0 -16.92 0 0 3.51 0zm-3.51 0c0,-0.97 0.79,-1.75 1.75,-1.75 0.97,0 1.75,0.79 1.75,1.75l-3.51 0zm4.56 -4.56l0 3.51 0 0 -0.05 0 -0.06 0 -0.06 0.01 -0.04 0.01 -0.05 0.01 -0.05 0.01 -0.05 0.02 -0.05 0.02 -0.04 0.02 -0.04 0.02 -0.04 0.03 -0.05 0.03 -0.04 0.03 -0.04 0.03 -0.04 0.03 -0.04 0.04 -0.04 0.04 -0.03 0.04 -0.03 0.04 -0.03 0.04 -0.03 0.04 -0.03 0.05 -0.02 0.04 -0.02 0.05 -0.02 0.05 -0.02 0.04 -0.01 0.04 -0.01 0.06 -0.01 0.05 -0.01 0.05 -0 0.06 -0 0.05 -3.51 0 0.01 -0.24 0.02 -0.23 0.03 -0.23 0.04 -0.23 0.05 -0.21 0.06 -0.22 0.07 -0.21 0.08 -0.2 0.09 -0.2 0.1 -0.2 0.11 -0.19 0.12 -0.19 0.13 -0.18 0.13 -0.17 0.14 -0.16 0.15 -0.16 0.16 -0.15 0.17 -0.14 0.17 -0.14 0.18 -0.13 0.18 -0.11 0.19 -0.11 0.2 -0.1 0.2 -0.09 0.2 -0.08 0.21 -0.07 0.22 -0.06 0.22 -0.05 0.24 -0.04 0.22 -0.03 0.23 -0.02 0.24 -0.01 0 0zm0 0c0.97,0 1.75,0.79 1.75,1.75 0,0.97 -0.79,1.75 -1.75,1.75l0 -3.51z"/>
   </g>
  </g>
 </g>
</svg>
