<?xml version="1.0" encoding="UTF-8"?>
<!DOCTYPE svg PUBLIC "-//W3C//DTD SVG 1.1//EN" "http://www.w3.org/Graphics/SVG/1.1/DTD/svg11.dtd">
<!-- Creator: CorelDRAW -->
<svg xmlns="http://www.w3.org/2000/svg" xml:space="preserve" width="11.5184mm" height="12.2767mm" version="1.1" style="shape-rendering:geometricPrecision; text-rendering:geometricPrecision; image-rendering:optimizeQuality; fill-rule:evenodd; clip-rule:evenodd"
viewBox="0 0 129.2 137.7"
 xmlns:xlink="http://www.w3.org/1999/xlink"
 xmlns:xodm="http://www.corel.com/coreldraw/odm/2003">
 <defs>
  <style type="text/css">
   <![CDATA[
    .fil0 {fill:white}
   ]]>
  </style>
 </defs>
 <g id="Слой_x0020_1">
  <metadata id="CorelCorpID_0Corel-Layer"/>
  <g id="_105553252841664">
   <path class="fil0" d="M53.85 122.91c-0.09,-0.57 0.72,-3.88 0.95,-4.43 2.87,-6.72 11.53,-8.81 17.21,-3.52 6.4,5.96 3.02,17.83 -7.19,18.35 -4.49,0.23 -8.06,-2.64 -9.84,-6.15 -0.3,-0.59 -0.52,-1.25 -0.69,-2 -0.14,-0.59 -0.09,-0.56 -0.18,-1.16 -0.12,-0.78 -0.21,-0.81 -0.26,-1.09zm-6.46 -34.7l34.43 0 0 8.61 -34.43 0 0 -8.61zm19.36 -9.14c0,-0.9 9.37,-9.77 10.69,-11.09 0.69,-0.69 2.96,-3.43 3.83,-3.43l19.9 0 0 55.94 -20.98 0c-1.45,0 -0.53,-4.17 -4.9,-8.55l-3.93 -2.79c-5.36,-2.82 -4.62,1.66 -4.62,-8.03l17.21 0c1.3,0 2.15,-0.85 2.15,-2.15l0 -12.91c0,-1.3 -0.85,-2.15 -2.15,-2.15l-17.21 0 0 -4.84zm-62.4 -16.41c-0.14,-0.91 0.69,-3.43 1.81,-4.65 1,-1.09 2.7,-1.9 4.43,-2 8.02,-0.47 9.17,12.25 0.43,12.76 -3.8,0.23 -6.17,-2.86 -6.67,-6.11zm48.34 -0.2l11.83 -11.97 11.97 11.83 -11.83 11.97 -11.97 -11.83zm-4.77 -2.22l-4.84 0 0 4.3c7.02,0 4.22,-1.02 12.3,7.06 8.08,8.08 7.06,5.29 7.06,12.3l-17.21 0c-2.81,0 -2.15,3.22 -2.15,6.45l-30.12 0 0 -17.48c2.52,-0.21 4.3,-1.73 5.72,-3.16 0.83,-0.84 1.36,-1.52 1.91,-2.66 1.32,-2.75 1.33,-6.39 0.09,-9.17 -1.2,-2.68 -4.5,-5.73 -7.72,-6l0 -17.48 30.12 0c0,3.23 -0.66,6.46 2.15,6.46l17.21 0c0,7.02 1.02,4.22 -7.06,12.3 -0.96,0.96 -6.65,7.06 -7.46,7.06zm-0.54 -32.27l34.43 0 0 8.61 -34.43 0 0 -8.61zm64.55 4.57c-0.14,-0.91 0.69,-3.43 1.81,-4.65 1,-1.09 2.7,-1.9 4.43,-2 8.02,-0.47 9.17,12.25 0.43,12.76 -1.7,0.1 -3.62,-0.83 -4.59,-1.74 -0.47,-0.43 -1.07,-1.25 -1.36,-1.87 -0.2,-0.44 -0.31,-0.89 -0.38,-1.23 -0.09,-0.38 -0.33,-1.24 -0.34,-1.28zm-68.85 -6.72l0 4.3 -12.91 0 0 -19.36 12.91 0c0,3.23 -0.66,6.45 2.15,6.45l17.21 0 0 6.46 -17.21 0c-1.3,0 -2.15,0.85 -2.15,2.15zm64.55 5.38c0,3.19 0.24,5.74 2.75,8.28 1.45,1.47 3.26,3.07 5.86,3.29l0 17.48 -34.96 0c-0.9,0 -9.77,-9.37 -11.09,-10.69 -4.1,-4.1 -3.43,-2 -3.43,-8.67l17.21 0c1.3,0 2.15,-0.85 2.15,-2.15l0 -12.91c0,-1.3 -0.85,-2.15 -2.15,-2.15l-17.21 0 0 -6.46 17.21 0c2.81,0 2.15,-3.22 2.15,-6.45l30.12 0 0 11.03c-4.24,0.35 -8.61,5.36 -8.61,9.41zm-60.25 -26.9l34.43 0 0 8.61 -34.43 0 0 -8.61zm-4.3 -2.15l0 4.3 -15.06 0c-1.3,0 -2.15,0.85 -2.15,2.15l0 21.52 -15.06 0c-3.04,0 -2.15,4.75 -2.15,9.68 0,4.03 0,8.07 0,12.1 -3.18,0.26 -6.38,3.22 -7.63,5.81 -3.26,6.78 1.7,14.67 7.63,15.16l-0 17.75c-0.01,2.26 -0.1,4.03 2.15,4.03l32.27 0c0,3.23 -0.66,6.45 2.15,6.45l17.21 0c0,9.05 1.01,5.46 -4.61,8.03 -1.38,0.63 -3.06,1.86 -4.07,2.92 -9.32,9.77 -2.1,25.62 10.03,25.62 4.62,0 8.02,-1.14 11.23,-4.1 1.03,-0.94 2.22,-2.51 2.89,-3.84 1.44,-2.83 1.21,-3.85 1.75,-4.98l20.98 0c2.49,0 4.84,0.38 4.84,-2.15l0 -58.09 12.91 0c3.04,0 2.15,-4.76 2.15,-9.68 0,-4.03 0,-8.07 0,-12.1 2.52,-0.21 4.3,-1.73 5.72,-3.15 3.79,-3.81 3.95,-10.67 0.14,-14.54 -1.45,-1.47 -3.26,-3.07 -5.86,-3.29 0,-2.87 0,-5.74 0,-8.61 0,-2.96 0.77,-6.72 -2.15,-6.72l-32.27 0c0,-3.23 0.66,-6.45 -2.15,-6.45l-38.73 0c-1.3,0 -2.15,0.85 -2.15,2.15z"/>
   <polygon class="fil0" points="34.49,64.55 38.79,64.55 38.79,60.24 34.49,60.24 "/>
   <polygon class="fil0" points="25.88,64.55 30.18,64.55 30.18,60.24 25.88,60.24 "/>
  </g>
 </g>
</svg>
