<?xml version="1.0" encoding="UTF-8"?>
<!DOCTYPE svg PUBLIC "-//W3C//DTD SVG 1.1//EN" "http://www.w3.org/Graphics/SVG/1.1/DTD/svg11.dtd">
<!-- Creator: CorelDRAW -->
<svg xmlns="http://www.w3.org/2000/svg" xml:space="preserve" width="6.597mm" height="5.9267mm" version="1.1" style="shape-rendering:geometricPrecision; text-rendering:geometricPrecision; image-rendering:optimizeQuality; fill-rule:evenodd; clip-rule:evenodd"
viewBox="0 0 40.05 35.98"
 xmlns:xlink="http://www.w3.org/1999/xlink"
 xmlns:xodm="http://www.corel.com/coreldraw/odm/2003">
 <defs>
  <style type="text/css">
   <![CDATA[
    .fil0 {fill:#031138}
   ]]>
  </style>
 </defs>
 <g id="Слой_x0020_1">
  <metadata id="CorelCorpID_0Corel-Layer"/>
  <g id="_105553184314656">
   <path class="fil0" d="M15.38 28.24l9.28 0 0 6.76 -9.28 0 0 -6.76zm-14.41 -3.42l0 -1.71 38.09 0c0,1.38 0.19,2.59 -0.63,3.44 -0.38,0.4 -0.9,0.71 -1.65,0.71l-33.54 0c-1.4,0 -2.28,-1.03 -2.28,-2.44zm31.17 -3.26c0.09,0.13 -0,-0.13 0.11,0.21 0.06,0.19 0.03,0.04 0.05,0.27l-0.16 0 0 -0.49zm-14.65 -8.55c0,-0.28 0.37,-0.65 0.65,-0.65 0.38,0 4.15,1.48 4.78,1.73 0.85,0.34 1.9,0.22 3.04,0.22 1.09,0 2.17,0 3.26,0 1.29,0 1.99,-0.11 2.8,0.45 0.72,0.49 0.98,1.08 1.22,2.04l1.01 3.87c0.11,0.35 0.3,1.01 0.34,1.37l-1.22 0c-0.04,-0.49 -0.32,-1.37 -0.46,-1.9 -0.26,-1.05 -0.21,-1.43 -1.17,-1.43 -0.26,0 -0.57,0.41 -0.57,0.73l0 2.6 -5.94 0 0 -5.7c0,-0.24 -0.04,-0.33 -0.2,-0.45 -0.31,-0.24 -1.15,0.02 -2.86,-0.64l-3.05 -1.1c-0.85,-0.34 -1.63,-0.34 -1.63,-1.14zm-0.98 -0.24c0,0.19 -0.14,0.6 0.16,1.14 0.38,0.68 1.07,0.87 1.82,1.11 1.54,0.5 4.24,1.74 5.67,1.74l0 5.29 -23.2 0 0 -18.64c0,-1.5 0.94,-2.44 2.44,-2.44l33.21 0c1.5,0 2.44,0.94 2.44,2.44l0 18.64 -3.42 0 -0.7 -2.8c-0.23,-0.8 -0.83,-3.44 -1.17,-4.04 -0.68,-1.19 -1.86,-1.94 -3.41,-1.96 -1.27,-0.01 -6.2,0.15 -6.94,-0.06 -0.43,-0.13 -0.79,-0.31 -1.24,-0.47 -0.47,-0.17 -0.84,-0.31 -1.29,-0.5 -0.44,-0.18 -2.3,-0.92 -2.66,-0.92 -0.39,0 -0.87,0.26 -1.14,0.41 -0.53,-0.35 -2.79,-3.21 -3.24,-3.35 -0.22,-0.07 -0.47,0.01 -0.59,0.27 -0.19,0.41 0.33,0.85 0.59,1.11l1.79 1.95c0.16,0.16 0.87,0.91 0.87,1.08zm-16.52 -9.85l0 22.38c0,1.43 1.44,2.93 2.93,2.93l11.4 0 0 6.76 -2.69 0c-0.54,0 -0.54,0.98 0,0.98l17.26 0c0.54,0 0.54,-0.98 0,-0.98l-3.17 0 0 -6.76 11.4 0c1.52,0 2.93,-1.52 2.93,-2.93l0 -22.38c0,-1.45 -1.48,-2.93 -2.93,-2.93l-34.19 0c-1.45,0 -2.93,1.48 -2.93,2.93z"/>
   <path class="fil0" d="M26.45 9.28c0,-2.51 2.69,-3.02 3.93,-1.81 1.53,1.49 0.36,4.01 -1.33,4.01l-0.57 0c-1.05,0 -2.03,-1.11 -2.03,-2.2zm-1.06 -0.16c0,1.88 1.46,3.42 3.42,3.42 3.47,0 4.69,-4.83 1.37,-6.42 -2.21,-1.06 -4.79,0.64 -4.79,3z"/>
   <path class="fil0" d="M8.22 18.48c0,0.38 0.19,0.57 0.57,0.57l7.33 0c0.82,0 0.75,-1.06 -0.08,-1.06l-7.16 0c-0.3,0 -0.65,0.22 -0.65,0.49z"/>
   <path class="fil0" d="M3.91 9.44c0,0.39 0.26,0.65 0.65,0.65l6.92 0c0.3,0 0.45,-0.07 0.65,-0.16 0.06,-0.25 0.26,-0.9 -0.49,-0.9l-7.24 0c-0.18,0 -0.49,0.33 -0.49,0.41z"/>
   <path class="fil0" d="M14.33 5.7l6.59 0c0.83,0 0.82,-1.06 0,-1.06l-6.59 0c-0.83,0 -0.83,1.06 0,1.06z"/>
   <path class="fil0" d="M6.67 13.84c-0.06,0.25 -0.3,0.9 0.49,0.9l4.88 0c0.47,0 0.85,-1.06 -0.33,-1.06 -0.93,0 -4.41,-0.15 -5.05,0.16z"/>
   <path class="fil0" d="M4.56 5.7l2.93 0c0.83,0 0.82,-1.06 0,-1.06l-2.93 0c-0.83,0 -0.83,1.06 0,1.06z"/>
   <path class="fil0" d="M16.28 9.44c0,0.91 0.68,0.65 2.77,0.65 0.9,0 0.73,-1.06 0.16,-1.06l-2.36 0c-0.27,0 -0.57,0.14 -0.57,0.41z"/>
   <path class="fil0" d="M3.91 18.56c0,0.2 0.29,0.49 0.49,0.49l2.36 0c0.79,0 0.77,-1.06 -0.08,-1.06 -1.18,0 -2.77,-0.26 -2.77,0.57z"/>
   <path class="fil0" d="M13.84 14.24c0,0.67 1.01,0.49 1.87,0.49 0.43,0 0.81,-1.06 -0.33,-1.06 -0.48,0 -1.55,-0.16 -1.55,0.57z"/>
   <path class="fil0" d="M19.29 18.48c0,0.75 0.75,0.57 1.79,0.57 0.53,0 0.72,-1.06 -0.16,-1.06 -0.4,0 -1.63,-0.14 -1.63,0.49z"/>
   <path class="fil0" d="M9.03 5.13c0,0.74 0.9,0.57 1.55,0.57 0.83,0 0.82,-1.06 0,-1.06 -0.4,0 -1.55,-0.13 -1.55,0.49z"/>
   <path class="fil0" d="M3.91 14.24c0,0.7 1.79,0.68 1.79,0.08 0,-0.58 -0.14,-0.65 -0.98,-0.65 -0.43,0 -0.81,0.16 -0.81,0.57z"/>
   <path class="fil0" d="M11.96 5.13c0,0.94 1.13,0.53 1.06,0 -0.07,-0.56 -1.06,-0.67 -1.06,0z"/>
   <path class="fil0" d="M17.42 18.48c0,0.38 0.19,0.57 0.57,0.57 0.18,0 0.49,-0.33 0.49,-0.41 0,-0.91 -1.06,-0.69 -1.06,-0.16z"/>
   <path class="fil0" d="M20.51 9.52c0,0.49 0.55,0.57 0.57,0.57 0.63,-0.08 0.59,-1.06 -0.08,-1.06 -0.2,0 -0.49,0.29 -0.49,0.49z"/>
  </g>
 </g>
</svg>
