<?xml version="1.0" encoding="UTF-8"?>
<!DOCTYPE svg PUBLIC "-//W3C//DTD SVG 1.1//EN" "http://www.w3.org/Graphics/SVG/1.1/DTD/svg11.dtd">
<!-- Creator: CorelDRAW -->
<svg xmlns="http://www.w3.org/2000/svg" xml:space="preserve" width="12.1246mm" height="12.2767mm" version="1.1" style="shape-rendering:geometricPrecision; text-rendering:geometricPrecision; image-rendering:optimizeQuality; fill-rule:evenodd; clip-rule:evenodd"
viewBox="0 0 142.18 143.96"
 xmlns:xlink="http://www.w3.org/1999/xlink"
 xmlns:xodm="http://www.corel.com/coreldraw/odm/2003">
 <defs>
  <style type="text/css">
   <![CDATA[
    .fil0 {fill:white}
   ]]>
  </style>
 </defs>
 <g id="Слой_x0020_1">
  <metadata id="CorelCorpID_0Corel-Layer"/>
  <g id="_105553252771840">
   <path class="fil0" d="M27.18 116.72l8.21 -2.97c1.15,-0.39 1.82,-0.77 2.97,-1.04 0.39,0.58 0.71,0.86 1.15,1.43 0.36,0.47 0.71,0.99 1.1,1.48 2.8,3.5 14.61,17.95 16.39,20.61 -1.24,0.1 -4.5,1.55 -5.77,1.97 -1.09,0.36 -1.63,0.63 -2.72,1.01 -1.01,0.35 -2.13,0.84 -2.98,1.04 -0.86,-1.63 -5.49,-7.12 -7.01,-9.05l-7.05 -9.01c0.96,-0.22 3.18,-1.03 4.01,-1.43 -0.09,-1.13 -0.59,-1.69 -0.86,-2.87 -1.34,0.11 -3.32,1.22 -5.45,1.72 -0.59,-1.11 -1.3,-1.81 -2.01,-2.87zm-24.09 -11.47c0,-3.79 3.42,-8.27 7.46,-8.6 0.09,1.09 2.24,6.73 2.78,8.11l2.95 8.23c-1.35,0.11 -6.74,2.61 -10.65,-1.68 -1.31,-1.43 -2.54,-4.14 -2.54,-6.07zm8.89 -13.77l20.65 -7.46 6.64 18.03c0.34,0.9 0.73,1.99 1.07,2.95 0.33,0.91 0.81,2.33 1.18,3.12l-15.53 5.69c-1.37,0.51 -3.97,1.64 -5.4,1.76l-8.6 -24.09zm24.38 -7.17c1.41,-0.38 7.12,-4.18 8.61,-5.16 1.32,-0.87 2.77,-1.91 4.02,-2.87l14.84 -12.98c0.99,-0.99 2.47,-3.01 3.8,-3.37 0.57,2.45 2.96,8.19 3.91,11 2.84,8.42 6.99,19.08 10.11,27.75 0.36,1.01 0.62,1.59 1,2.73 0.39,1.15 0.77,1.82 1.04,2.97 -8.47,-0.7 -9.65,-1.15 -18.93,-1.15 -4.96,0 -11.07,0.51 -15.98,1.23 -1.37,0.2 -3.43,0.78 -4.96,0.78 -0.19,-0.83 -0.59,-1.63 -0.9,-2.55 -0.3,-0.9 -0.57,-1.5 -0.93,-2.51 -0.69,-1.93 -5.45,-14.5 -5.63,-15.88zm39.29 -11.76c3.49,0 5.21,0.68 6.97,2.5 4.7,4.88 2.85,12.9 -1.23,13.85l-4.34 -12.01c-0.43,-1.19 -1.23,-3.03 -1.4,-4.34zm40.72 -57.93c0,-6.07 4.95,-11.18 9.75,-11.18l0 25.81 3.15 0 0 -25.81c5.37,0.12 9.75,5.51 9.75,12.04l0 39.86 -22.66 0 0 -40.72zm-72.27 96.07l1.42 -0.62c-0.15,-0.65 -0.29,-1.11 -0.56,-1.68 1.36,-0.11 3.23,-0.61 4.64,-0.81 1.67,-0.24 3.5,-0.5 5.12,-0.61 9.26,-0.62 18.78,-0.83 27.93,0.44 1.87,0.26 3.99,0.56 5.61,0.7 -0.11,-1.26 -2.19,-6.54 -2.76,-8.14l-2.98 -7.92c7.57,-4.01 7.55,-12.85 2.63,-18.98 -1.87,-2.33 -5.48,-3.68 -8.65,-3.68 -0.99,0 -1.11,0.21 -2.01,0.29l-5.74 -15.77c-1.07,0.29 -2.11,1.97 -3.8,3.66l-15.82 14.58 -13.93 9.3c-0.31,-0.59 -0.4,-0.68 -0.57,-1.43 -2.12,0.18 -10.57,4.13 -12.62,4.3l-0 -66.53c0,-6.27 0.93,-12.17 8.21,-14.16 3.66,-1 37.36,-0.47 43.98,-0.47 14.82,0 29.63,0 44.45,0 -6.02,5.24 -5.45,9.79 -5.45,17.21 0,28.24 -0.23,57.04 0.01,85.18 0.06,6.64 -5.11,5.16 -12.05,5.16 -19.02,0 -38.05,0 -57.07,0zm-25.24 -24.95l-5.36 1.8c-1.74,0.68 -3.75,1.51 -5.53,1.92 0.14,1.65 1.01,2.65 1.15,4.3 -8.87,2.07 -12.17,13.2 -5.81,19.58 2.77,2.78 5.13,3.65 9.25,3.65 2.03,0 3.22,-0.76 4.88,-1.15 0.3,1.29 1.02,2.2 1.15,3.73 1.26,-0.03 4.35,-1.19 5.45,-1.72l20.65 26.1 12.79 -4.7c1.44,-0.5 3.21,-1.03 4.41,-1.61 -0.28,-1.03 -1.39,-2.19 -2.1,-3.06 -0.84,-1.04 -1.45,-1.83 -2.29,-2.87l-12.81 -16.15c-0.58,-0.74 -0.9,-0.79 -1.15,-1.72l59.94 0c3.39,0 6.99,0.39 9.18,-0.86 1.99,-1.13 3.73,-3.19 3.73,-6.31l0 -48.18 25.81 0 0 -43.02c0,-8.87 -6.32,-15.49 -14.34,-15.49l-94.35 0c-7.35,0 -12.55,4.91 -14.16,10.79 -1.11,4.04 -0.47,19.17 -0.47,24.77 0,16.73 0,33.46 0,50.19z"/>
   <path class="fil0" d="M31.77 14.63l71.7 0 0 14.91 -71.7 0 0 -14.91zm-3.15 18.07l78 0 0 -21.22 -78 0 0 21.22z"/>
   <polygon class="fil0" points="51.27,42.73 104.9,42.73 104.9,39.58 51.27,39.58 "/>
   <path class="fil0" d="M38.37 22.94c0,0.66 0.2,0.86 0.86,0.86l33.55 0c1.17,0 0.86,-0.9 0.86,-3.15l-35.27 0 0 2.29z"/>
   <polygon class="fil0" points="10.55,53.05 13.7,53.05 13.7,20.07 10.55,20.07 "/>
   <path class="fil0" d="M66.18 74.28c0.27,1.15 0.65,1.82 1.04,2.97l7.85 21.69c1.43,-0.03 1.83,-0.55 3.15,-0.86l-9.18 -24.95c-0.98,0.52 -1.92,0.69 -2.87,1.15z"/>
   <polygon class="fil0" points="30.05,66.53 52.71,66.53 52.71,63.38 30.05,63.38 "/>
   <path class="fil0" d="M83.39 53.92c0,0.66 0.2,0.86 0.86,0.86l20.65 0 0 -3.15 -21.51 0 0 2.29z"/>
   <path class="fil0" d="M48.4 53.92c0,0.66 0.2,0.86 0.86,0.86l16.06 0 0 -3.15 -16.92 0 0 2.29z"/>
   <path class="fil0" d="M89.7 101.52c0,0.66 0.2,0.86 0.86,0.86l14.34 0 0 -3.15 -15.2 0 0 2.29z"/>
   <polygon class="fil0" points="30.05,42.73 44.96,42.73 44.96,39.58 30.05,39.58 "/>
   <path class="fil0" d="M22.31 107.26c0.46,0.95 0.63,1.89 1.15,2.87l12.33 -4.3c-0.1,-1.22 -0.59,-2.01 -0.86,-3.15 -1.23,0.29 -2.18,0.73 -3.2,1.11 -1.11,0.41 -2.18,0.78 -3.15,1.15 -1.95,0.73 -4.6,1.46 -6.27,2.34z"/>
   <path class="fil0" d="M17.43 94.07c0.51,0.97 0.69,1.91 1.15,2.87 2.88,-0.67 9.99,-3.76 12.33,-4.3 -0.03,-1.43 -0.55,-1.83 -0.86,-3.15 -0.79,0.38 -2.21,0.86 -3.12,1.18l-9.5 3.41z"/>
   <path class="fil0" d="M20.01 100.66c0.03,1.43 0.55,1.83 0.86,3.15l9.5 -3.41c1.05,-0.35 2.21,-0.74 3.12,-1.18 -0.42,-0.88 -0.73,-1.99 -1.15,-2.87l-9.07 3.26c-1.22,0.41 -1.96,0.93 -3.26,1.04z"/>
   <polygon class="fil0" points="30.05,54.78 43.24,54.78 43.24,51.62 30.05,51.62 "/>
   <polygon class="fil0" points="93.71,78.58 104.9,78.58 104.9,75.42 93.71,75.42 "/>
   <polygon class="fil0" points="93.71,90.34 104.9,90.34 104.9,87.18 93.71,87.18 "/>
   <polygon class="fil0" points="94.29,66.53 104.9,66.53 104.9,63.38 94.29,63.38 "/>
   <polygon class="fil0" points="80.52,23.8 91.13,23.8 91.13,20.65 80.52,20.65 "/>
   <path class="fil0" d="M126.12 45.89l2.29 0c0.66,0 0.86,-0.2 0.86,-0.86l0 -8.32 -3.15 0 0 9.18z"/>
   <path class="fil0" d="M80.24 66.53l8.89 0 0 -2.29c0,-0.66 -0.2,-0.86 -0.86,-0.86l-8.03 0 0 3.15z"/>
   <polygon class="fil0" points="10.55,67.39 13.7,67.39 13.7,59.65 10.55,59.65 "/>
   <polygon class="fil0" points="72.78,54.78 76.79,54.78 76.79,51.62 72.78,51.62 "/>
   <path class="fil0" d="M63.89 67.68c0.02,1.08 0.49,2.1 0.86,2.87l2.85 -0.9c-0.08,-1.09 -0.57,-1.65 -0.85,-2.83 -1.15,0.27 -1.47,0.74 -2.87,0.86z"/>
   <path class="fil0" d="M36.07 117.01c0.1,1.22 0.59,2.01 0.86,3.15l1.99 -0.61c-0.01,-1.08 -0.47,-2.34 -0.85,-3.11 -0.63,0.3 -1.13,0.5 -2.01,0.57z"/>
  </g>
 </g>
</svg>
