<?xml version="1.0" encoding="UTF-8"?>
<!DOCTYPE svg PUBLIC "-//W3C//DTD SVG 1.1//EN" "http://www.w3.org/Graphics/SVG/1.1/DTD/svg11.dtd">
<!-- Creator: CorelDRAW -->
<svg xmlns="http://www.w3.org/2000/svg" xml:space="preserve" width="6.1179mm" height="5.9267mm" version="1.1" style="shape-rendering:geometricPrecision; text-rendering:geometricPrecision; image-rendering:optimizeQuality; fill-rule:evenodd; clip-rule:evenodd"
viewBox="0 0 111.77 108.28"
 xmlns:xlink="http://www.w3.org/1999/xlink"
 xmlns:xodm="http://www.corel.com/coreldraw/odm/2003">
 <defs>
  <style type="text/css">
   <![CDATA[
    .fil0 {fill:#ffffff}
   ]]>
  </style>
 </defs>
 <g id="Слой_x0020_1">
  <metadata id="CorelCorpID_0Corel-Layer"/>
  <g id="_105553184298656">
   <path class="fil0" d="M3.49 96.05l104.79 0 0 8.73 -104.79 0 0 -8.73zm108.28 -1.59l0 12.07c0,1.06 -0.69,1.74 -1.75,1.74l-108.28 0c-1.06,0 -1.75,-0.69 -1.75,-1.74l0 -11.92c0.3,-2.63 1.45,-2.05 5.24,-2.05 -0.79,-1.19 -1.75,-2.6 -1.75,-4.58l0 -19.21c0,-2.72 0.94,-5.39 1.89,-7.28 1.17,-2.34 1.98,-3.47 3.73,-5.22 6.29,-6.29 11.91,-5.62 19.7,-5.62 0,-1.83 -0.03,-1.18 -1.14,-2.13 -2.63,-2.25 -5.55,-6.79 -5.63,-10.09 -4.27,0 -7.2,-3.29 -7.2,-6.33l0 -9.61c0,-4.62 1.98,-9.28 4.37,-12.66 1.12,-1.59 1.14,-1.34 1.9,-2.25 1.06,-1.27 2.3,-2.34 3.69,-3.3 4.77,-3.29 8.61,-4.28 14.72,-4.28 5.62,0 12.94,3.42 16.34,7.67 0.71,0.89 0.81,0.75 1.87,2.28 5.16,7.48 4.28,12.87 4.28,21.92 0,4.03 -3.47,6.55 -7.21,6.55 -0.07,3.06 -2.44,6.92 -4.64,9.11 -2.3,2.3 -2.13,1.19 -2.13,3.11 4.64,0 5.5,-0.21 9.92,0.36 1.29,0.17 1.27,-0.36 2.52,-0.36l41.26 0c3.37,0 6.55,3.18 6.55,6.55l0 32.53c0,0.97 -0.53,2.19 -0.87,2.84 3.07,0 4.08,-0.37 4.36,1.9zm-75.09 -10.42c2.25,0.52 3.95,1.21 5.63,2.88 1.13,1.13 2.72,3.63 2.88,5.63l-8.51 0 0 -8.51zm63.96 8.51l-43 0 0 -34.27c0,-2.75 1.4,-4.15 4.15,-4.15l38.86 0c2.68,0 4.15,1.47 4.15,4.15l0 30.13c0,2.68 -1.47,4.15 -4.15,4.15zm-53.48 -5.24l6.99 0 0 5.24 -5.24 0c-0.52,-2.25 -0.78,-3.41 -1.75,-5.24zm6.99 -30.34l0 26.85 -9.61 0c-0.35,0 -1.44,-0.9 -1.87,-1.18 -1.9,-1.25 -4.35,-2.31 -6.86,-2.31l-18.34 0c-2.34,0 -2.34,3.49 0,3.49l15.72 0 0 8.73 -20.52 0c-3.34,0 -5.68,-2.34 -5.68,-5.68l0 -16.15c0,-9.76 6.83,-16.59 16.59,-16.59l5.24 0c0.1,4.3 4.51,8.73 8.95,8.73 3.13,0 5.18,-0.52 7.37,-2.67 1.33,-1.3 2.83,-3.6 2.89,-6.06l6.77 0c-0.1,1.17 -0.65,1.59 -0.65,2.84zm-21.83 -5.67c3.11,0.73 5.16,1.81 9.87,0.7l2.35 -0.7c0,3.39 -0.43,5.79 -3.2,7.28 -2.66,1.43 -5.92,0.7 -7.6,-1.5 -1.32,-1.73 -1.43,-2.89 -1.43,-5.78zm-6.99 -16.59l0 -6.77c8.06,0 13.05,-1.63 19.15,-6.17 0.68,-0.51 1.23,-1.08 1.81,-1.47l3.99 4.96c0.31,0.41 1.25,1.43 1.25,1.81 0,6.83 0.88,13 -3.65,17.74 -7.64,8 -22.55,3.81 -22.55,-10.1zm29.69 0.22l0 -6.99c4.38,1.02 3.84,4.5 2.42,5.92 -0.63,0.63 -1.42,0.83 -2.42,1.07zm-33.18 -6.99l0 6.99c-4.17,-0.97 -3.98,-4.24 -2.44,-5.94 0.61,-0.67 1.46,-0.82 2.44,-1.05zm-3.49 -2.62c0,-5.92 1.47,-11.45 5.51,-15.45 12.41,-12.27 29.33,-4.85 33.21,6.41 1.05,3.04 1.44,5.02 1.44,9.04 -1.46,-0.77 -2.14,-0.87 -4.37,-0.87 -0.57,-0.84 -1.05,-1.4 -1.68,-2.24 -0.92,-1.23 -4.72,-6.49 -5.52,-6.49 -2.88,0 -3.06,4 -11.98,7.23 -7.83,2.84 -12.76,0.33 -16.62,2.37z"/>
   <path class="fil0" d="M81.21 68.11c4.22,0 7.13,5.44 3.66,8.9 -4.84,4.84 -12.13,-2.53 -7.33,-7.33 0.71,-0.71 2.35,-1.57 3.66,-1.57zm-8.73 4.59l0 1.31c0,4.03 4.05,8.08 8.08,8.08l1.31 0c4.03,0 8.08,-4.05 8.08,-8.08l0 -1.31c0,-4.03 -4.05,-8.08 -8.08,-8.08l-1.31 0c-4.03,0 -8.08,4.05 -8.08,8.08z"/>
  </g>
 </g>
</svg>
