<?xml version="1.0" encoding="UTF-8"?>
<!DOCTYPE svg PUBLIC "-//W3C//DTD SVG 1.1//EN" "http://www.w3.org/Graphics/SVG/1.1/DTD/svg11.dtd">
<!-- Creator: CorelDRAW -->
<svg xmlns="http://www.w3.org/2000/svg" xml:space="preserve" width="12.2744mm" height="12.2768mm" version="1.1" style="shape-rendering:geometricPrecision; text-rendering:geometricPrecision; image-rendering:optimizeQuality; fill-rule:evenodd; clip-rule:evenodd"
viewBox="0 0 146.4 146.43"
 xmlns:xlink="http://www.w3.org/1999/xlink"
 xmlns:xodm="http://www.corel.com/coreldraw/odm/2003">
 <defs>
  <style type="text/css">
   <![CDATA[
    .fil0 {fill:white}
   ]]>
  </style>
 </defs>
 <g id="Слой_x0020_1">
  <metadata id="CorelCorpID_0Corel-Layer"/>
  <g id="_105553252912832">
   <path class="fil0" d="M14.17 139.02l0 -18.3c0,-1.46 1.2,-2.66 2.66,-2.66l27.74 0c1.46,0 2.66,1.2 2.66,2.66l0 18.3c0,1.46 -1.2,2.66 -2.66,2.66l-27.74 0c-1.46,0 -2.66,-1.2 -2.66,-2.66zm100.36 -13.87l10.55 -10.7c1.28,0.88 11.51,11.39 13.58,13.43 8.4,8.33 -2.68,18.81 -10.49,11.07l-13.65 -13.8zm-1.11 -5.83l-5.46 -5.31 4.57 -4.43c0.57,-0.66 0.71,-1.08 1.41,-1.55l5.39 5.24 -5.9 6.05zm-66.19 -36.67c0,-13.53 8.65,-27.21 20.91,-32.22 2.31,-0.94 3.81,-1.48 6.65,-2.2 8.02,-2.03 14.99,-0.81 22.36,2.2 14.38,5.88 24.02,23.87 19.91,40.07 -3.53,13.92 -12.65,23.04 -26.56,26.56 -11.59,2.94 -24.71,-1.23 -32.87,-9.4 -4.74,-4.74 -7.73,-10.59 -9.4,-17.17 -0.53,-2.08 -1,-5.45 -1,-7.85zm-23.61 -47.52l0 -18.3c0,-1.46 1.2,-2.66 2.66,-2.66l27.75 0c1.46,0 2.66,1.2 2.66,2.66l0 18.3c0,1.46 -1.2,2.66 -2.66,2.66l-27.75 0c-1.46,0 -2.66,-1.2 -2.66,-2.66zm-4.72 -19.19l0 20.07c0,3.25 3.25,6.49 6.49,6.49l29.52 0c3.25,0 6.49,-3.25 6.49,-6.49l0 -7.68 8.26 0c0.43,1.83 8.11,12.51 8.56,14.46 -4.67,0 -11.03,2.53 -14.86,4.62 -7.54,4.12 -8.8,7.12 -11.11,8.66 -2.69,-1.8 -3.91,-7.68 -9.03,-1.05 -1.16,1.51 -2.3,2.31 -3.37,3.71l-8.49 9.22c-0.76,0.77 -0.91,1.17 -1.61,1.93l-10.26 11.29c1.46,0.98 1.76,2.01 3.54,2.95l21.04 -22.65c1.18,-1.22 1.71,-2.35 3.17,-3.33 0.84,0.56 1.5,1.51 2.07,2.36 -3.02,2.21 -6.79,14.18 -6.79,20.07 0,5.84 0.2,4.45 0.59,9.15l-28.93 0 0 -63.76 -4.72 0 0 66.12c0,3.12 3.67,2.36 6.79,2.36l28.04 0c0.34,1.45 1.15,3.54 1.77,4.72l-32.76 0c-3.6,0 -8.56,0.93 -8.56,-2.66l0 -89.14c0,-1.46 1.2,-2.66 2.66,-2.66l131.64 0c1.46,0 2.66,1.2 2.66,2.66l0 89.14c0,3.61 -5.17,2.66 -9.74,2.66 -4.23,0 -8.46,0 -12.69,0 2.92,-5.52 3.54,-11.81 3.54,-18.6 0,-4.44 -1.25,-8.56 -2.47,-11.99 -1.3,-3.66 -2.95,-6.54 -5.03,-9.43 -2.93,-4.06 -7,-8 -11.29,-10.55 -0.88,-0.52 -1.34,-0.79 -2.25,-1.29l-2.57 -1.27 11.73 -11.88 0.07 5.98 4.72 0 0 -11.81c0,-1.43 -0.93,-2.36 -2.36,-2.36l-11.81 0 0 4.72 5.9 0c-0.75,1.12 -13.02,13.28 -13.28,13.28 -1.18,0 -1.58,-0.31 -2.43,-0.52 -0.97,-0.24 -1.46,-0.29 -2.5,-0.46 -1.74,-0.28 -3.15,-0.5 -5.4,-0.5 -0.26,-1.12 -0.78,-1.55 -1.35,-2.49l-9.17 -14.74c-0.56,-0.95 -1.09,-1.67 -2.47,-1.67l-9.45 0 0 -7.68c0,-3.25 -3.25,-6.49 -6.49,-6.49l-29.52 0c-3.25,0 -6.49,3.25 -6.49,6.49zm-18.89 -9.44l0 90.91c0,3.27 2.97,6.48 7.07,6.51l41.63 -0.01c0.62,2.33 6.02,7.84 8.01,9.41 1.69,1.34 3.07,2.47 4.96,3.6 1.21,0.73 4.5,2.6 5.92,2.93 -0.37,1.39 -2.57,3.02 -3.62,4.06 -4.53,4.53 -1.71,3.62 -12.03,3.62l0 -7.67c0,-3.25 -3.25,-6.49 -6.49,-6.49l-29.52 0c-3.25,0 -6.49,3.25 -6.49,6.49l0 20.07c0,3.25 3.25,6.49 6.49,6.49l29.52 0c3.25,0 6.49,-3.25 6.49,-6.49l0 -7.67 9.45 0c1.64,0 4.31,-3.27 5.98,-4.94 1.43,-1.43 4.58,-4.25 5.53,-5.68 18.51,4.31 27.3,-3.74 30.99,-4.72l5.98 5.83c-1.76,2.53 -2.14,2.59 1.03,5.75l14.31 14.32c7.8,7.9 21.18,1.87 21.18,-7.9 0,-7.64 -3.32,-9.37 -9.22,-15.28l-8.56 -8.56c-3.25,-3.25 -3.22,-3 -5.83,-1.25l-5.98 -5.83c6.07,-0.07 12.08,-0.07 18.08,-0.07 3.38,0 5.72,0.39 7.97,-0.89 1.69,-0.96 3.55,-2.99 3.55,-5.61l0 -90.91c0,-3.25 -3.25,-6.5 -6.49,-6.5l-133.41 0c-3.25,0 -6.49,3.25 -6.49,6.5z"/>
   <path class="fil0" d="M82.65 108.62c-2.34,0 -5.85,-0.72 -7.85,-1.3 -6.45,-1.87 -12.08,-7.04 -15.17,-12.87l27.75 0 0 -4.72 -28.93 0c-1.08,0 -1.18,-1.9 -1.36,-3.07 -0.67,-4.35 -0.38,-8.18 1.02,-12.32 0.35,-1.04 0.65,-1.46 0.92,-2.62 1.25,0.33 0.88,0.59 1.7,1.54 0.56,0.65 1.05,0.98 1.59,1.66 3.06,3.83 3.88,3.96 6.82,1 2.71,-2.73 17.66,-17.39 18.52,-18.67 3.19,0.74 5.85,1.63 8.33,3.18 1.11,0.7 2.34,1.47 3.26,2.35l2.95 2.95c1.85,2.08 3.28,4.35 4.4,7.11 2.7,6.67 2.59,13.86 -0.34,20.41 -2.57,5.72 -7.27,10.42 -12.99,12.99 -2.79,1.25 -7.44,2.37 -10.62,2.37zm-16.46 -36.53c-0.47,-0.67 -1.51,-1.95 -2.06,-2.51 -1.08,-1.11 -1.29,-1.3 -2.15,-2.58 2.58,-2.97 4.31,-4.66 7.73,-6.74 2.74,-1.66 7.12,-3.3 11.46,-3.3l-14.98 15.13zm-14.24 8.78c0,5.99 0.28,9.62 2.95,15.06 4.79,9.75 15.31,17.41 25.98,17.41l2.95 0c15.46,0 29.52,-14.06 29.52,-29.52 0,-5.76 -0.47,-9.41 -2.95,-14.47 -4.79,-9.75 -15.3,-17.41 -25.98,-17.41l-2.95 0c-8.34,0 -16.23,4.54 -20.44,8.78 -4.85,4.88 -9.07,12.8 -9.07,20.15z"/>
   <polygon class="fil0" points="28.33,23.62 51.95,23.62 51.95,18.89 28.33,18.89 "/>
   <polygon class="fil0" points="28.33,33.06 51.95,33.06 51.95,28.34 28.33,28.34 "/>
   <polygon class="fil0" points="18.89,127.51 42.5,127.51 42.5,122.79 18.89,122.79 "/>
   <polygon class="fil0" points="18.89,136.96 42.5,136.96 42.5,132.23 18.89,132.23 "/>
  </g>
 </g>
</svg>
