<?xml version="1.0" encoding="UTF-8"?>
<!DOCTYPE svg PUBLIC "-//W3C//DTD SVG 1.1//EN" "http://www.w3.org/Graphics/SVG/1.1/DTD/svg11.dtd">
<!-- Creator: CorelDRAW -->
<svg xmlns="http://www.w3.org/2000/svg" xml:space="preserve" width="5.9267mm" height="5.9267mm" version="1.1" style="shape-rendering:geometricPrecision; text-rendering:geometricPrecision; image-rendering:optimizeQuality; fill-rule:evenodd; clip-rule:evenodd"
viewBox="0 0 594.87 594.87"
 xmlns:xlink="http://www.w3.org/1999/xlink"
 xmlns:xodm="http://www.corel.com/coreldraw/odm/2003">
 <defs>
  <style type="text/css">
   <![CDATA[
    .fil0 {fill:#031138}
   ]]>
  </style>
 </defs>
 <g id="Слой_x0020_1">
  <metadata id="CorelCorpID_0Corel-Layer"/>
  <g id="_105553254003392">
   <path class="fil0" d="M182.12 147.26c2.91,4.22 15.18,17.72 22.36,17.72 0.83,0 36.18,-19.09 54.71,-23.13 16.61,-3.61 13.84,-9.56 13.84,-32.64l48.79 0c0,9.96 -1.77,23.38 3.77,28.77 2.43,2.36 6.09,2.77 9.24,3.53 6.72,1.65 13.76,3.73 19.53,6.02 6.29,2.51 12,4.9 17.47,8.09 15.64,9.11 19.6,13.79 30.46,2.7 3.65,-3.74 7.36,-6.61 10.14,-10.77l34.59 33.98c-3.44,5.26 -17.15,14.72 -17.15,21.79 0,5.17 12.52,23.69 16.7,35.57 2.7,7.66 4.33,12.59 6.27,20.46 4.08,16.48 9.7,13.69 32.79,13.69l0 48.79c-24.26,0 -28.67,-3.15 -32.78,13.69 -3.7,15.11 -7.55,24.24 -14.45,37.84 -2.56,5.05 -8.53,12.35 -8.53,18.19 0,5.75 13.37,18.2 17.42,20.91l-34.57 35.15c-3,-4.35 -15.45,-17.72 -21.2,-17.72 -5.84,0 -13.14,5.97 -18.19,8.53 -53.32,27.05 -51.53,2.59 -51.53,47.23l-48.79 0c0,-22.41 2.88,-28.64 -12.76,-32.55 -16.27,-4.09 -24.13,-7.25 -38.77,-14.68 -5.05,-2.56 -12.34,-8.53 -18.19,-8.53 -7.07,0 -16.53,13.71 -22.07,17.42l-33.98 -34.58c4.27,-2.95 17.71,-15.19 17.71,-22.35 0,-2.68 -12.6,-24.24 -16.61,-34.51 -14.27,-36.51 -0.13,-34.05 -39.15,-34.05l0 -48.79c10.13,0 23.31,1.79 28.75,-3.78 2.37,-2.42 2.95,-5.58 3.7,-9.08 1.75,-8.13 3.72,-13.05 6.32,-20.41 2.37,-6.72 16.99,-33.52 16.99,-35.28 0,-7.28 -12.64,-18.87 -17.42,-22.07l34.57 -35.15zm66.52 -27.59l-22.41 7.79c-6.28,2.71 -14.58,8.24 -20.58,9.64 -7.49,-5.01 -14.24,-18.59 -24.4,-18.59 -6.95,0 -27.64,23.58 -33.4,29.34 -27.54,27.53 -37.79,30.34 -21.5,46.47 3.87,3.84 7.84,6.98 10.75,11.33 -1.45,6.19 -6.95,14.14 -9.65,20.56l-7.78 22.43c-11.12,0 -33.69,-3.65 -33.69,11.61l0 74.36c0,13.88 19.51,11.61 33.69,11.61l7.95 22.26c2.63,6.54 8.09,14.75 9.48,20.73 -5.01,7.49 -18.59,14.24 -18.59,24.4 0,6.55 9.65,13.72 13.65,17.72l31.38 31.38c13.12,13.12 16.27,20.46 30.78,5.81 3.84,-3.87 6.98,-7.84 11.33,-10.75 5.97,1.39 14.18,6.85 20.73,9.48 6.4,2.58 16.23,5.06 22.26,7.95 0,14.28 -2.45,33.69 11.61,33.69l74.36 0c14.06,0 11.61,-19.41 11.61,-33.69 6.03,-2.89 15.86,-5.37 22.26,-7.95 6.54,-2.63 14.75,-8.09 20.73,-9.48 6.05,4.05 15.42,18.59 23.24,18.59 8.57,0 24.97,-19.73 33.99,-28.76 9.05,-9.05 29.92,-26.62 29.92,-35.15 0,-7.96 -14.47,-17.08 -18.59,-23.24 1.39,-5.97 6.85,-14.18 9.48,-20.73 2.58,-6.4 5.06,-16.23 7.95,-22.26 14.18,0 33.69,2.27 33.69,-11.61l0 -74.36c0,-15.43 -23.28,-11.61 -33.69,-11.61 -1.39,-2.89 -2.31,-7.88 -3.64,-11.46l-13.78 -31.53c4.05,-6.05 18.59,-15.42 18.59,-23.24 0,-8.57 -19.73,-24.97 -28.76,-33.99 -9.05,-9.05 -26.62,-29.92 -35.15,-29.92 -7.96,0 -17.08,14.47 -23.24,18.59 -5.34,-1.24 -18.95,-9.59 -31.5,-13.81 -3.33,-1.12 -8.85,-2.35 -11.49,-3.61 0,-14.28 2.45,-33.69 -11.61,-33.69l-74.36 0c-14.06,0 -11.61,19.41 -11.61,33.69z"/>
   <path class="fil0" d="M490.3 111.54c-27.21,0 -35.06,-38.04 -10.29,-48.64 27.55,-11.79 49.13,25.48 24.96,43.55 -3.25,2.44 -9.68,5.09 -14.67,5.09zm-175.93 483.33l-34.28 0c-9.11,-0.54 -18.23,-1.53 -27.33,-2.96 -4.86,-0.77 -11.98,-1.6 -15.69,-2.91 -13.25,-4.71 -8.77,-23.18 3.42,-23.18 11.73,0 36.6,8.5 69.89,4.82 15.56,-1.73 16.09,-0.58 34.69,-3.64 37.44,-6.18 77.96,-22.61 108.55,-44.83 8.01,-5.82 14.26,-10.57 21.75,-16.59 3.91,-3.15 6.18,-6.34 10.28,-9.46 8.25,-6.29 20.28,-21.47 27.09,-29.85 11.32,-13.94 21.57,-30.32 29.84,-46.83 34.88,-69.59 36.99,-145.54 11.18,-218 -4.66,-13.1 -28.1,-62.42 -40.23,-71.3 -6.71,1.56 -11.51,4.65 -19.75,4.65 -16.12,0 -26.06,-2.25 -37.49,-13.63 -12.82,-12.77 -14.79,-21.98 -14.79,-38.65 0,-22.56 22.87,-45.32 45.32,-45.32l6.97 0c31.57,0 57.21,39.01 39.94,71.3 -0.78,1.46 -0.57,1.1 -1.27,2.22 -1.47,2.32 -0.42,0.78 -1.49,2 3.95,5.9 8.73,11.31 12.79,17.42 11.83,17.82 23.12,38.11 30.87,58.59 16.65,43.91 20.24,69.92 20.24,119.18 0,74.14 -36.8,150.07 -86.85,200.13 -50.68,50.68 -120.56,82.49 -193.65,86.85z"/>
   <path class="fil0" d="M104.57 483.34c2.26,0 8.41,1.69 10.36,2.42 4.89,1.84 10.94,7.89 12.78,12.78 10.8,28.7 -23.06,46.02 -40.92,28.14 -16.47,-16.47 -3.28,-43.34 17.79,-43.34zm175.47 -483.34l34.83 0c9.08,0.55 18.18,1.53 27.24,2.96 10.41,1.65 23.88,2.12 23.88,13.31 0,18.37 -16.64,11.9 -27.81,10.38 -4.85,-0.66 -11.61,-1.81 -16.4,-2.19 -6.87,-0.54 -12.85,-0.39 -18.7,-1.05 -7.86,-0.88 -44.38,2.62 -52.42,4.17 -21.4,4.1 -39.63,8.94 -59.27,17.41 -8.91,3.84 -17.85,7.63 -25.91,12.44 -8.29,4.95 -16.12,9.29 -23.56,14.77 -10.4,7.66 -33.98,25.85 -41.65,35.04l-9.36 10.39c-26.3,28.34 -49.33,73.94 -59.08,112.88 -14.16,56.61 -9.94,108.96 9.28,162.93 4.66,13.1 28.09,62.42 40.23,71.3 6.71,-1.56 11.51,-4.65 19.75,-4.65 9.74,0 17.21,-0.03 26.27,5.11 18.39,10.44 26.02,25.39 26.02,47.17 0,22.56 -22.75,45.32 -45.32,45.32l-6.97 0c-33.9,0 -57.87,-43.11 -38.66,-73.52 1.47,-2.32 0.42,-0.78 1.49,-2 -1.93,-2.87 -4.22,-5.47 -6.48,-8.63 -17.85,-24.82 -20.32,-31.44 -33.02,-57.59 -1.49,-3.06 -2.76,-6.1 -4.16,-9.79 -16.98,-44.81 -20.24,-70.51 -20.24,-120.34 0,-40.44 14.5,-88.49 28.26,-115.8 16.93,-33.58 33.19,-57.77 59.17,-83.75 50.76,-50.77 120.28,-81.92 192.6,-86.27z"/>
   <path class="fil0" d="M225.4 302.09l0 -9.3c0,-34.19 33.19,-67.38 67.38,-67.38l9.3 0c34.19,0 67.38,33.19 67.38,67.38l0 9.3c0,34.09 -33.29,67.38 -67.38,67.38l-9.3 0c-34.19,0 -67.38,-33.19 -67.38,-67.38zm-24.4 -4.65c0,52.96 43.5,96.43 96.44,96.43 52.96,0 96.43,-43.47 96.43,-96.43 0,-52.97 -43.47,-96.44 -96.43,-96.44 -52.97,0 -96.44,43.47 -96.44,96.44z"/>
   <path class="fil0" d="M178.92 563.5c0,4.01 3.82,8.59 7.4,10.12 18.66,8.03 22.31,-22.9 5.39,-22.9 -7.3,0 -12.79,5.49 -12.79,12.79z"/>
   <path class="fil0" d="M392.7 31.38c0,16.55 23.24,18.07 23.24,0 0,-14.04 -23.24,-14.04 -23.24,0z"/>
  </g>
 </g>
</svg>
