<?xml version="1.0" encoding="UTF-8"?>
<!DOCTYPE svg PUBLIC "-//W3C//DTD SVG 1.1//EN" "http://www.w3.org/Graphics/SVG/1.1/DTD/svg11.dtd">
<!-- Creator: CorelDRAW -->
<svg xmlns="http://www.w3.org/2000/svg" xml:space="preserve" width="9.4206mm" height="9.3133mm" version="1.1" style="shape-rendering:geometricPrecision; text-rendering:geometricPrecision; image-rendering:optimizeQuality; fill-rule:evenodd; clip-rule:evenodd"
viewBox="0 0 885.51 875.43"
 xmlns:xlink="http://www.w3.org/1999/xlink"
 xmlns:xodm="http://www.corel.com/coreldraw/odm/2003">
 <defs>
  <style type="text/css">
   <![CDATA[
    .fil0 {fill:#031138}
   ]]>
  </style>
 </defs>
 <g id="Слой_x0020_1">
  <metadata id="CorelCorpID_0Corel-Layer"/>
  <g id="_105553197083936">
   <path class="fil0" d="M127.99 702.18c0,-24.98 20.38,-44.97 50.16,-44.97l129.72 0c0.55,25.22 28.34,68.32 39.77,89.94 -43.81,0 -87.62,0 -131.44,0 -28.89,0 -63.34,5.4 -79.29,-19.31 -3.96,-6.13 -8.92,-16.19 -8.92,-25.66zm757.52 -138.3l0 36.52c-1.74,27.03 -7.35,54.26 -17.07,81.24 -20.14,55.88 -59.26,105.83 -107.44,139.9 -20.99,14.83 -45.51,28.34 -70.26,36.97 -60.65,21.13 -120.86,22.12 -182.64,4.89 -25.29,-7.04 -35.91,-12.6 -57.27,-24.01l-25.7 -15.82c-25.17,-17.13 -23.34,-18.12 -44.93,-38.09 -5.74,-5.31 -6.52,-3.93 -16.95,-3.8l-183.38 0.06c-29.71,0.07 -44.93,-6.22 -60.97,-20.33 -12.37,-10.88 -25.51,-32.93 -25.51,-55.77 0,-20.89 0.19,-23.19 9.76,-42.13 5.89,-11.66 12.13,-14.95 17.92,-23.59 -6.84,-10.23 -27.67,-28.03 -27.67,-55.35 0,-45.8 11.64,-45.23 27.67,-69.17 -6.84,-10.23 -27.67,-28.04 -27.67,-55.35 0,-45.8 11.64,-45.23 27.67,-69.18 -6.84,-10.23 -27.67,-28.03 -27.67,-55.35 0,-33.85 10.59,-58.47 36.38,-74.3 26.1,-16.04 46.37,-12.17 86.42,-12.17 -3.48,-14.9 -12.11,-18.08 -12.11,-41.5 0,-35.42 7.66,-29.34 12.11,-48.43l-146.8 -0.22c-38.46,-3.99 -69.4,-36.27 -69.4,-82.8 0,-40.05 36.05,-76.1 76.1,-76.1l430.65 0c40.05,0 76.09,36.05 76.09,76.1 0,35.42 -7.65,29.34 -12.1,48.43l146.8 0.21c73.57,7.66 95.17,108.56 33.01,146.74 -26.1,16.03 -46.37,12.16 -86.42,12.16 2.22,9.53 4.63,12.71 10.9,15.05 32.52,12.14 48.53,15.66 81.03,38.31 3.19,2.23 5.47,3.99 9.08,6.48 7.18,4.94 10.79,8.68 17.33,13.8 15.21,11.87 35.01,33.56 45.96,49.17 33.8,48.2 53.52,101.98 57.08,157.44zm-294.01 276.65c-38.57,0 -73.12,-9.67 -106.25,-23.46 -108.49,-45.18 -174.87,-175.18 -146.31,-293.07 34.75,-143.41 176.37,-228.04 309.65,-195.41 99.5,24.36 170.27,94.74 195.09,194.04 33.38,133.5 -49.72,274.68 -193.71,310.67 -14.84,3.71 -40.94,7.24 -58.48,7.24zm-294.02 -271.53l1.74 53.62 -121.07 0c-65.87,0 -66.59,-89.93 0,-89.93l122.79 0c-0.26,11.98 -3.46,21.63 -3.46,36.31zm12.11 -70.9c-37.47,0 -74.94,0 -112.41,0 -23.86,0 -33.14,1.49 -48.82,-8.26 -6.43,-4 -9.8,-8.06 -13.41,-14.26 -14.06,-24.16 -4.74,-51.21 20.07,-62.88 15.34,-7.21 41.67,-4.53 62.92,-4.53 44.96,0 89.94,0 134.9,0 -4.35,8.22 -18.32,27.5 -24.83,40.88 -4.79,9.83 -17.63,39.93 -18.4,49.06zm70.92 -124.53l-202.36 0c-65.87,0 -66.59,-89.94 0,-89.94l413.35 0c9.6,0 10.26,1.73 19.03,1.73l0 1.73c-61.91,0 -107.34,5.36 -160.93,36.24 -16.76,9.65 -43.79,27.17 -57.44,41.14 -2.94,3.02 -6.93,9.1 -11.65,9.1zm-141.82 -169.49c0,-24.44 19.98,-44.97 50.15,-44.97l413.35 0c15.34,0 26.28,4.64 34.93,11.77 27.1,22.32 17.48,78.16 -34.93,78.16l-413.35 0c-29.57,0 -50.15,-20.34 -50.15,-44.96zm-204.09 -124.53c0,-24.43 19.98,-44.97 50.16,-44.97l413.35 0c66.12,0 66.19,89.94 0,89.94l-413.35 0c-29.58,0 -50.16,-20.34 -50.16,-44.97z"/>
   <path class="fil0" d="M574.2 463.51c-14.41,3.36 -28.9,11.62 -37.66,21.14 -22.14,24.09 -24.66,62.4 -2.62,86.58l8.57 8.72c13.06,11.48 28.2,17.3 50.75,18.43 48.59,2.43 48.55,64.01 -5.21,64.01 -13.7,0 -26.63,-9.81 -31.1,-19.05 -3.37,-6.97 -2.48,-14.8 -5.09,-20.85 -4.39,-10.13 -17.8,-13.68 -27.11,-6.11 -14.2,11.55 -4.34,52.68 28.75,71.92 7.27,4.22 13.54,5.24 20.72,8.69 0,8.16 0.02,13.33 3.28,17.47 9.93,12.64 31.31,6.18 31.31,-10.56l0 -8.65c13.42,-0.3 28.02,-10.49 36.98,-20.1 40.27,-43.14 11.17,-105.4 -46.05,-112.66 -10.86,-1.37 -34.3,-0.1 -43.34,-20.65 -10.2,-23.19 10.95,-43.76 29.92,-43.76 27.88,0 37.93,6.27 43.39,34.44 3.92,20.26 34.44,22.03 34.44,-6.78 0,-26.46 -20.63,-49.25 -43.68,-58.35 -4.54,-1.8 -7.95,-2.12 -11.66,-3.9 0,-7.28 1.92,-25.94 -17.3,-25.94 -19.3,0 -17.3,18 -17.3,25.94z"/>
   <path class="fil0" d="M664.13 392.6c0,17.43 13.08,18.71 27.8,27.55 5.99,3.6 9.69,6.64 15.22,10.73 6.37,4.73 8.69,8.04 14.83,12.83l24.85 28.76c32.68,47.91 43.95,110.37 24.77,167.67 -2.42,7.22 -4.03,12.65 -7.13,18.82 -19.58,38.91 10.41,38.91 17.83,35.24 17.63,-8.72 34.04,-75.99 34.04,-102.72 0,-57.55 -11.7,-101.87 -41.75,-141.57 -19.53,-25.81 -16,-21.37 -39.12,-42.17 -9.73,-8.74 -40.12,-30.72 -55.76,-30.72 -8.54,0 -15.57,7.02 -15.57,15.57z"/>
   <path class="fil0" d="M366.66 570.73c0,63.9 14.49,109.02 49.88,152.46 13.8,16.94 15.75,17.57 31,31.27 9.72,8.74 40.11,30.73 55.75,30.73 11.06,0 15.57,-8.45 15.57,-19.03 0,-12.75 -18.69,-18.62 -27.8,-24.1 -5.98,-3.59 -9.69,-6.63 -15.21,-10.73l-20.98 -18.81c-2.52,-2.9 -3.41,-4.19 -6.5,-7.32 -10.96,-11.07 -24.83,-34.36 -30.83,-48.72 -14.19,-33.97 -19.76,-71.8 -12.37,-111.25 1.13,-6.07 3.15,-13.86 5.36,-20.59 6.67,-20.3 14.94,-31.47 14.94,-42.13 0,-12.09 -14.29,-20.12 -25.04,-14.79 -16.52,8.19 -33.76,75.45 -33.76,102.98z"/>
   <path class="fil0" d="M600.14 371.84c0,35.78 52.51,15.31 32.17,-9.69 -9.19,-11.32 -32.17,-6.4 -32.17,9.69z"/>
   <path class="fil0" d="M546.53 788.66c0,20.47 36.31,26.74 36.31,-1.74 0,-21.15 -36.31,-21.53 -36.31,1.74z"/>
  </g>
 </g>
</svg>
