<?xml version="1.0" encoding="UTF-8"?>
<!DOCTYPE svg PUBLIC "-//W3C//DTD SVG 1.1//EN" "http://www.w3.org/Graphics/SVG/1.1/DTD/svg11.dtd">
<!-- Creator: CorelDRAW -->
<svg xmlns="http://www.w3.org/2000/svg" xml:space="preserve" width="6.3618mm" height="5.8842mm" version="1.1" style="shape-rendering:geometricPrecision; text-rendering:geometricPrecision; image-rendering:optimizeQuality; fill-rule:evenodd; clip-rule:evenodd"
viewBox="0 0 236.56 218.8"
 xmlns:xlink="http://www.w3.org/1999/xlink"
 xmlns:xodm="http://www.corel.com/coreldraw/odm/2003">
 <defs>
  <style type="text/css">
   <![CDATA[
    .fil0 {fill:#031138;fill-rule:nonzero}
   ]]>
  </style>
 </defs>
 <g id="Слой_x0020_1">
  <metadata id="CorelCorpID_0Corel-Layer"/>
  <path class="fil0" d="M87.89 95.38l0 -95.38 -87.89 0 0 75.74c0,40.51 4.84,69.96 14.65,88.04 12.93,24.32 33.19,42.55 61.08,55.02l19.63 -31.95c-16.83,-7.01 -29.13,-17.31 -37.08,-31.16 -7.8,-13.87 -12.31,-33.98 -13.25,-60.31l42.86 0zm141.19 0l0 -95.38 -87.89 0 0 75.74c0,40.51 4.84,69.96 14.65,88.04 12.93,24.32 33.19,42.55 61.08,55.02l19.63 -31.95c-16.83,-7.01 -29.15,-17.31 -37.08,-31.16 -7.8,-13.87 -12.31,-33.98 -13.25,-60.31l42.86 0z"/>
 </g>
</svg>
