<?xml version="1.0" encoding="UTF-8"?>
<!DOCTYPE svg PUBLIC "-//W3C//DTD SVG 1.1//EN" "http://www.w3.org/Graphics/SVG/1.1/DTD/svg11.dtd">
<!-- Creator: CorelDRAW -->
<svg xmlns="http://www.w3.org/2000/svg" xml:space="preserve" width="8.8773mm" height="8.8772mm" version="1.1" style="shape-rendering:geometricPrecision; text-rendering:geometricPrecision; image-rendering:optimizeQuality; fill-rule:evenodd; clip-rule:evenodd"
viewBox="0 0 146.3 146.3"
 xmlns:xlink="http://www.w3.org/1999/xlink"
 xmlns:xodm="http://www.corel.com/coreldraw/odm/2003">
 <defs>
  <style type="text/css">
   <![CDATA[
    .fil0 {fill:#031138}
   ]]>
  </style>
 </defs>
 <g id="Слой_x0020_1">
  <metadata id="CorelCorpID_0Corel-Layer"/>
  <g id="_105553197494368">
   <path class="fil0" d="M34.57 15.72l9.43 -4.86c6.89,-3.48 14.86,-5.2 22.65,-6.21 3.93,-0.51 10.13,-0.38 13.73,0.12 12.07,1.67 21.54,4.62 31.75,11.69 1.5,1.04 2.68,1.93 4.08,3.06l4.02 3.4c7.6,7.52 13.48,15.7 17.25,25.89 8.58,23.16 4.55,48.25 -10.58,67.23 -3.71,4.66 -6.42,7.32 -10.86,10.86 -5.1,4.06 -12.2,8.29 -18.36,10.5 -7.73,2.78 -9.39,2.97 -17.56,4.16l-6.69 0.46c-1.64,0.03 -2.11,-0.24 -3.43,-0.3 -7.64,-0.4 -8.33,-0.59 -15.83,-2.45 -2.05,-0.51 -3.66,-1.16 -5.36,-1.79 -5.01,-1.85 -9.9,-4.46 -14.3,-7.41 -14.82,-9.93 -25.47,-26.02 -28.88,-43.7 -2.38,-12.34 -1.45,-26.04 3.26,-37.75 0.43,-1.07 0.9,-2.37 1.39,-3.47 3.16,-7.05 10.65,-18.22 16.53,-22.9 0.8,-0.64 2.33,-1.54 2.33,-2.81 0,-1.6 -0.99,-2.29 -2.29,-2.29 -1.35,0 -2.04,1.07 -3.02,1.83l-4.94 5.07c-2.66,3.33 -3.48,3.68 -6.67,8.47 -7.07,10.62 -12.23,24.97 -12.23,38.06 0,12.72 1.6,23.22 6.66,33.34 1.02,2.04 1.94,4 3.04,5.82 5.07,8.4 4.62,6.6 9.32,12.68 5.17,6.68 15.46,13.23 22.98,17.03 6.67,3.37 18.56,6.86 28.57,6.86l5.14 0c9.86,0 21.74,-3.41 28.39,-6.76 4.16,-2.1 7.57,-3.87 11.21,-6.5 11.26,-8.14 17.9,-16.41 24.12,-28.74 3.35,-6.64 6.86,-18.6 6.86,-28.57l0 -5.15c0,-9.86 -3.41,-21.74 -6.76,-28.38 -2.09,-4.14 -3.87,-7.6 -6.5,-11.21 -8.31,-11.42 -16.37,-17.89 -28.93,-24.22 -8.36,-4.21 -18.58,-6.48 -28.89,-6.76l-4.22 0c-8.35,0.22 -16.59,1.76 -23.77,4.65 -3.29,1.32 -6.72,2.71 -9.56,4.44l-4.45 2.69c-1.45,1.27 -0.9,3.94 1.37,3.94z"/>
   <path class="fil0" d="M9.14 71.43c0,13.73 2.49,23.19 8.56,33.73 3.08,5.35 5.69,8.67 10.23,13.2 6.25,6.25 10.4,8.92 18.26,12.88 12.14,6.12 28.57,7.5 42.27,4.07 1.88,-0.47 10.97,-2.76 10.97,-4.74 0,-1.33 -0.04,-2.11 -1.44,-2.57 -1.42,-0.46 -5.21,1.51 -8.17,2.39 -7.4,2.2 -9.65,1.84 -16.18,2.39 -0.94,0.08 -1.93,-0.22 -3.35,-0.21 -5.56,0.04 -13.68,-1.85 -18.5,-3.79 -16.83,-6.78 -30.38,-20.38 -35.61,-38.1 -3.87,-13.09 -3.47,-26.05 1,-38.07 1.32,-3.54 2.97,-6.92 4.83,-10.02 0.44,-0.74 0.92,-1.57 1.41,-2.31 4.3,-6.52 10.16,-12.39 16.69,-16.74 21.18,-14.12 50.23,-13.17 69.7,2.65 0.78,0.63 1.26,1.08 2.03,1.68 4.98,3.89 10.22,10.62 13.4,16.32 7.61,13.66 10.06,30.77 4.3,48.2 -1.93,5.85 -4.24,9.96 -7.48,14.81 -0.55,0.82 -0.97,1.35 -1.57,2.15 -4.54,6.1 -9.45,10.12 -15.53,14.18 -3.17,2.12 -0.72,4.47 0.75,4.47 2.04,0 10.24,-7.24 12.07,-9.07 13.26,-13.26 19.36,-28.19 19.36,-47.5 0,-8.92 -2.87,-19.23 -5.9,-25.24 -2.62,-5.2 -2.38,-4.87 -5.64,-9.79 -4.81,-7.24 -12.75,-14.1 -20.23,-18.63 -16.78,-10.18 -41.36,-11.71 -59.19,-2.72 -9.04,4.56 -15.23,8.82 -21.99,16.87 -1.25,1.49 -2.31,2.69 -3.4,4.31 -2.72,4.06 -3.53,5.55 -5.75,9.96 -3.06,6.06 -5.9,16.25 -5.9,25.24z"/>
   <path class="fil0" d="M73.15 42.29c0,1.97 3.05,2.39 4.86,2.86 7,1.83 7.33,2.79 8.63,-2.52 0.37,-1.51 0.57,-4.06 2.51,-4.06 3.3,0 0.29,6.49 0.29,8 0,3.12 3.56,1.32 8.2,5.22 5.4,4.54 6.24,14 0.3,19.85 -3.5,3.44 -1.74,3.12 0.71,7.15 5.54,9.15 -2.53,24.97 -16.74,20.74 -4.88,-1.45 -6.03,-2.37 -7.1,2.13 -0.17,0.7 -0.37,1.65 -0.67,2.47 -0.48,1.31 -0.49,1.02 -1.56,1.58 -3.74,-0.87 -0.86,-4.27 -0.86,-7.43 0,-2.12 -2.58,-2.27 -4.63,-2.8 -1.59,-0.41 -4.38,-1.49 -5.94,-1.49 -3.8,0 -1.99,7.14 -4.86,7.14 -3.19,0 -1.6,-3.31 -1.31,-4.45 1.25,-4.89 1.09,-4.41 -8.75,-6.91 -3.84,-0.98 -4.51,-0.92 -4.51,-3.2 0,-3.22 6.9,0.29 9.43,0.29 1.74,0 2.12,-2.72 2.4,-3.88l6.78 -25.8c0.48,-1.61 0.88,-3.6 1.36,-5.21 2.25,-7.58 1.42,-6.78 -3.43,-8.22 -1.7,-0.5 -4.54,-0.63 -4.54,-2.61 0,-3.57 4.59,-1.37 7.49,-0.63 8.93,2.27 7.33,3.44 9.71,-4.46 0.41,-1.34 0.62,-1.77 2.23,-1.77 2.89,0 0,6.01 0,8zm-7.14 -5.14c-1.82,-0.15 -8.58,-2.57 -10.57,-2.57 -2.94,0 -6,2.71 -6,5.72 0,5.96 2.98,6.7 8.57,8l-7.72 29.43c-0.3,1.14 -0.7,3.38 -1.14,4.29 -6.35,-3.05 -12,-0.44 -12,4.86 0,5.96 5.35,6.43 8.82,7.46 0.98,0.29 3.51,1.08 4.61,1.11 -0.15,1.8 -0.57,1.18 -0.57,4.57 0,3.21 3.83,7.19 8.75,5.04 2.05,-0.9 3.6,-3.55 3.82,-6.18 1.5,0.35 2.79,0.79 4.28,1.14 -0.18,2.21 -1.74,5.19 1.06,8.09 2.74,2.84 6.94,2.43 9.16,-0.16 0.94,-1.1 1.64,-2.71 1.79,-4.5 3.22,0.27 2.12,1.14 8.86,1.14 4.02,0 9.67,-2.78 12.01,-5.71 1.47,-1.83 2.45,-2.92 3.51,-5.35 4.5,-10.37 -1.42,-17.3 -1.8,-18.94 1.18,-1.76 1.96,-1.78 3.47,-5.1 2.87,-6.32 1.92,-12.95 -1.88,-18.21 -1.7,-2.36 -5.59,-5.86 -8.74,-6.12 0.71,-3.05 1.89,-6.2 -0.77,-8.94 -2.8,-2.9 -7.2,-2.55 -9.57,0.6 -0.87,1.15 -1.29,3.31 -1.66,4.91 -0.45,-0.22 -3.66,-1.09 -4.29,-1.14 0.71,-3.03 0.86,-1.78 0.86,-5.14 0,-5.57 -7.76,-7.65 -10.87,-3.44 -1.01,1.36 -1.53,3.22 -1.99,5.16z"/>
   <path class="fil0" d="M64.29 73.72l15.59 4.12c2.7,0.76 5.26,1.39 7.84,2.16 7.62,2.28 4.79,12.01 -1.15,12.01 -1.28,0 -16.05,-4.3 -18.74,-4.97 -1.83,-0.46 -4.67,-1.56 -6.4,-1.6 0,-1.95 2.22,-9 2.86,-11.71zm-8 13.14c0,1.42 1.34,1.98 2.53,2.33 1.18,0.35 2.63,0.74 3.82,1.04 2.56,0.65 5.11,1.35 7.62,2.09 2.42,0.72 5.04,1.43 7.63,2.08 4.05,1.01 5.34,1.89 9.26,1.89 9.16,0 13.42,-13.16 5.44,-18.87 -2.5,-1.79 -6.11,-2.32 -9.54,-3.32l-20.47 -5.53c-1.78,0 -2.04,2.02 -2.47,3.53l-2.55 9.73c-0.32,1.27 -1.26,3.92 -1.26,5.02z"/>
   <path class="fil0" d="M70.01 51.72c1.49,0.03 17.97,4.77 20.07,5.36 5.91,1.68 4.95,9.78 -0.92,9.78 -2.69,0 -19.22,-5.38 -21.43,-5.43 0,-1.74 0.73,-3.48 1.08,-4.91l1.2 -4.8zm-7.43 11.14c0,2.28 3.78,2.61 5.68,3.18 3.45,1.02 18.63,5.4 21.18,5.4 10.04,0 13.34,-15.43 1.59,-18.74 -4.54,-1.28 -8.71,-2.37 -13.25,-3.61 -13.32,-3.63 -10.08,-4.43 -13.46,6.95 -0.29,0.98 -1.75,6.16 -1.75,6.82z"/>
  </g>
 </g>
</svg>
