<?xml version="1.0" encoding="UTF-8"?>
<!DOCTYPE svg PUBLIC "-//W3C//DTD SVG 1.1//EN" "http://www.w3.org/Graphics/SVG/1.1/DTD/svg11.dtd">
<!-- Creator: CorelDRAW -->
<svg xmlns="http://www.w3.org/2000/svg" xml:space="preserve" width="6.0961mm" height="6.1179mm" version="1.1" style="shape-rendering:geometricPrecision; text-rendering:geometricPrecision; image-rendering:optimizeQuality; fill-rule:evenodd; clip-rule:evenodd"
viewBox="0 0 82.66 82.96"
 xmlns:xlink="http://www.w3.org/1999/xlink"
 xmlns:xodm="http://www.corel.com/coreldraw/odm/2003">
 <defs>
  <style type="text/css">
   <![CDATA[
    .fil0 {fill:#031138}
   ]]>
  </style>
 </defs>
 <g id="Слой_x0020_1">
  <metadata id="CorelCorpID_0Corel-Layer"/>
  <g id="_105553256333536">
   <path class="fil0" d="M54.76 74.69c0,-1.58 0.81,-2.03 2.07,-3.28 0.49,-0.49 0.69,-0.72 1.27,-1.16l3.01 -2.99c0.27,-0.21 0.41,-0.37 0.67,-0.63l10.93 -10.94c2.09,-2.15 3.85,0.55 5.84,2.51 2.02,1.98 -0.16,3.48 -1.22,4.54 -1.68,1.68 -16.01,16.18 -16.57,16.49 -0.97,0.53 -1.94,0.26 -2.64,-0.44 -0.66,-0.66 -1.2,-1.21 -1.86,-1.87 -0.55,-0.55 -1.5,-1.25 -1.5,-2.23zm-37.27 -32.08c0,-2.38 2.38,-2.79 3.6,-1.98 5.4,3.62 1.4,7.25 -1.15,5.36 -0.4,-0.3 -0.66,-0.55 -1.03,-0.92 -0.65,-0.66 -1.42,-1.23 -1.42,-2.47zm5.02 -10.86c1.85,0 2.65,1.43 4.09,2.88 0.82,0.82 2.88,2.41 2.88,3.77 0,1.59 -1.03,2.43 -2.59,2.43 -1.19,0 -3.91,-3.18 -4.82,-4.09 -0.73,-0.73 -1.79,-1.42 -1.79,-2.71 0,-1.27 0.88,-2.27 2.23,-2.27zm2.11 -4.54c0,-1.91 0.69,-2.59 2.59,-2.59 1.16,0 3.48,2.75 4.33,3.61 0.69,0.69 1.26,1.26 1.94,1.94 1.14,1.14 1.66,1.28 1.66,2.88 0,1.08 -1.15,2.11 -2.27,2.11 -1.57,0 -3.05,-1.99 -4.58,-3.52 -0.87,-0.87 -3.69,-3.24 -3.69,-4.41zm23.17 -0.16c0,0.45 0.28,1.02 0.53,1.26 2.32,2.26 3.95,-3.82 6.86,-2 0.49,0.31 1.2,1.19 1.2,1.88 0,1.47 -1.19,2.25 -1.99,3.04 -1.56,1.56 -2.23,1.66 -2.23,3.44 0,0.56 1.02,1.3 1.62,1.3 1.13,0 2.36,-2.07 3.41,-2.59 1.47,-0.73 3.4,0.08 3.4,2.27 0,1.75 -4.05,3.77 -4.05,5.51 0,1.07 0.91,1.62 2.11,1.62 0.81,0 2.06,-2.01 2.98,-2.37 1.4,-0.55 3.17,0.04 3.17,2.53 0,2 -4.7,4.04 -4.7,6.32 0,1.04 0.79,1.46 1.78,1.46 0.95,0 1.41,-0.99 2.11,-1.46l5.15 5.06 -14.99 15.07 -5.26 -5.35c0.82,-0.56 1.03,-0.79 1.7,-1.46 0.83,-0.82 1.26,-0.92 1.26,-2.15 0,-1.04 -0.79,-1.46 -1.78,-1.46 -1.52,0 -2.12,2.92 -5.35,2.92 -4.71,0 -8.28,-0.91 -10.74,1.58l-5.79 5.71 -14.95 -14.87 5.27 -5.19c3.33,1.67 6.64,0.46 8.07,-2.46 1.04,-2.13 -0.3,-2.23 1.63,-2.59 2.65,-0.49 4.63,-2.9 4.69,-5.52 3.04,-0.07 5.67,-2.56 5.67,-5.67 1.77,-0.15 3.05,-0.78 4.04,-1.8 0.03,-0.03 0.12,-0.13 0.15,-0.17 1.81,-2.01 1.91,-4.44 0.67,-6.78 2.76,-1.85 4.26,-5.52 6.54,-5.23 1.8,0.23 2.05,1.39 2.05,2.64 0,1.8 -4.21,3.95 -4.21,5.51zm-18.96 -7.29c0,-2.17 3.21,-3.19 3.84,-1.41 1.06,3.03 4.2,6.12 7.19,7.23 0.96,0.36 0.97,0.54 0.97,1.79 0,1.08 -1.15,2.11 -2.27,2.11 -1.53,0 -4.03,-2.98 -5.39,-4.33 -1.53,-1.53 -4.33,-3.79 -4.33,-5.39zm6.8 -3.08c2.23,0 6.87,0.95 9.07,1.46l-4.01 4.09c-0.68,-0.19 -1.25,-0.58 -1.7,-0.97 -1.15,-1.02 -2.36,-2.05 -2.99,-3.49 -0.2,-0.45 -0.19,-0.71 -0.37,-1.09zm-4.21 -2.59c-3.6,0 -5.99,2.7 -5.99,5.51 0,0.82 0.16,0.88 0.16,1.78 -1.97,0.16 -4.38,2.74 -4.38,5.19 0,1.5 0.09,1.06 0.16,1.94 -2.01,0.17 -4.37,2.57 -4.37,5.02 0,3.18 0.44,2.12 0.81,3.73 -2.51,0.58 -4.84,4.38 -3.14,7.84 0.37,0.74 0.79,1.11 1.19,1.72l-5.22 5.31c-0.75,-0.15 -1.24,-0.45 -2.23,-0.45 -2.75,0 -3.83,1.48 -5.23,2.88 -2.11,2.11 -3.2,2.61 -3.2,5.87 0,2.97 5.2,7.62 6.48,7.62 1.23,0 1.46,-1.22 1.46,-2.11 0,-1.17 -4.33,-3.84 -4.62,-5.6 -0.24,-1.44 1.07,-2.28 1.82,-3.03 2.73,-2.73 3.23,-3.18 6.08,-0.32 0.85,0.85 1.58,1.58 2.43,2.43 1.66,1.66 3.2,3.2 4.86,4.86l8.42 8.59c0.79,0.84 0.93,0.61 0.93,1.98 0,1.1 -1.49,2.23 -2.15,2.88 -0.94,0.94 -1.59,2.05 -3.1,1.87 -1.09,-0.13 -1.81,-1.19 -2.9,-2.28 -1.9,-1.9 -1.81,-2.31 -3.52,-2.31 -0.56,0 -1.3,0.88 -1.3,1.46 0,1.07 0.76,1.49 1.34,2.07 3.08,3.08 3.52,4.41 7.25,4.41 2.11,0 3.62,-1.92 4.82,-3.12 1.6,-1.6 2.96,-2.47 2.96,-5.31 0,-1.13 -0.42,-2.02 -0.81,-2.75 0.43,-0.64 5.59,-5.94 6.59,-6.38 0.96,-0.42 2.79,-0.36 4.01,-0.17 1.1,0.17 3.45,-0.12 4.27,0.11 0.79,0.22 5.12,5.4 6.68,6.44 -0.28,1.2 -0.65,1.1 -0.65,2.92 0,2.48 1.67,3.7 2.96,4.98 2.09,2.09 2.56,3.12 5.79,3.12 2.72,0 4.91,-2.88 6.6,-4.58l14.1 -14.09c2.09,-2.11 2.52,-5.36 0.71,-7.61 -0.53,-0.66 -1.38,-1.4 -2.01,-2.04 -1.27,-1.28 -2.67,-2.96 -5.14,-2.96 -1.31,0 -1.83,0.43 -2.75,0.65l-5.22 -5.31c0.44,-0.64 0.79,-0.89 1.18,-1.65 1.05,-2.06 0.86,-4.64 -0.69,-6.29 -0.69,-0.74 -1.73,-1.79 -3.04,-1.82 0.23,-1.9 0.32,-3.54 -1.18,-5.3 -0.67,-0.79 -1.84,-1.8 -3.2,-1.83 0.82,-3.54 -1.36,-6.89 -4.21,-7.13 0.17,-2.04 0.66,-4.11 -2.17,-6.26 -1.63,-1.24 -3.18,-0.88 -5.32,-1.32 -1.92,-0.39 -3.68,-0.68 -5.59,-1.05 -2.62,-0.5 -6.57,-1.7 -8.56,-0.2 -0.52,0.39 -0.3,0.41 -0.9,0.29 -0.66,-0.13 -0.42,-0.21 -1.27,-0.21z"/>
   <path class="fil0" d="M61.57 9.72c1.16,0 2.97,-2.24 4.17,-3.44 0.69,-0.69 1.26,-1.26 1.94,-1.94 0.92,-0.92 2.23,-1.76 1.34,-3.2 -0.17,-0.28 -0.55,-0.52 -0.85,-0.62 -1.52,-0.53 -2.96,1.59 -4.62,3.26 -1.43,1.43 -3.81,3.24 -3.52,4.56 0.15,0.71 0.84,1.39 1.54,1.39z"/>
   <path class="fil0" d="M20.58 9.72c0.87,0 1.78,-0.83 1.78,-1.62 0,-1.19 -2.6,-3.33 -3.85,-4.58 -0.74,-0.74 -1.37,-1.36 -2.11,-2.11 -0.67,-0.68 -1.65,-1.59 -2.77,-0.58 -1.01,0.9 -0.65,1.88 0.17,2.7l4.3 4.29c0.52,0.52 1.64,1.9 2.47,1.9z"/>
   <path class="fil0" d="M39.53 1.46l0 7.62c0,1.96 3.24,1.96 3.24,0l0 -7.62c0,-0.9 -0.69,-1.39 -1.43,-1.46l-0.39 0c-0.74,0.07 -1.43,0.56 -1.43,1.46z"/>
   <path class="fil0" d="M53.63 55.41c0,0.25 0.3,0.99 0.45,1.17 0.79,0.96 2.95,0.59 2.95,-1.17 0,-2.13 -3.4,-2.08 -3.4,0z"/>
   <path class="fil0" d="M9.56 71.13c0,2.57 3.24,2.57 3.24,0 0,-1.92 -3.24,-1.92 -3.24,0z"/>
  </g>
 </g>
</svg>
