<?xml version="1.0" encoding="UTF-8"?>
<!DOCTYPE svg PUBLIC "-//W3C//DTD SVG 1.1//EN" "http://www.w3.org/Graphics/SVG/1.1/DTD/svg11.dtd">
<!-- Creator: CorelDRAW -->
<svg xmlns="http://www.w3.org/2000/svg" xml:space="preserve" width="11.0067mm" height="11.3113mm" version="1.1" style="shape-rendering:geometricPrecision; text-rendering:geometricPrecision; image-rendering:optimizeQuality; fill-rule:evenodd; clip-rule:evenodd"
viewBox="0 0 160.34 164.77"
 xmlns:xlink="http://www.w3.org/1999/xlink"
 xmlns:xodm="http://www.corel.com/coreldraw/odm/2003">
 <defs>
  <style type="text/css">
   <![CDATA[
    .fil0 {fill:#031138}
   ]]>
  </style>
 </defs>
 <g id="Слой_x0020_1">
  <metadata id="CorelCorpID_0Corel-Layer"/>
  <g id="_105553254971968">
   <path class="fil0" d="M147.78 23.49l-0.64 0c-0.25,-0.94 -1.17,-1.88 -1.79,-2.72 -2.91,-3.92 -3.82,-2.09 -9.8,2.39l-12.5 9.38c-8.03,5.9 -6.35,5.32 -10.3,2.15 -11.76,-9.43 -8.02,-10.63 -16.37,-4.37 -2.05,1.54 -3.91,2.93 -5.89,4.41l-23.22 17.33c-2.02,1.52 -3.81,2.86 -5.88,4.41 -7.42,5.56 -5.82,5.24 -13.24,-0.32 -7.6,-5.7 -5.2,-6.17 -14.9,1.15l-24.18 17.98c-0.77,-0.56 -2.4,-2.92 -2.9,-3.86 0.6,-0.82 4.68,-3.68 5.79,-4.51l26.89 -20.09c3.41,-2.61 3.85,-1.09 9.79,3.36 7.31,5.48 5.36,5.47 12.41,0.18l35.35 -26.43c6.02,-4.51 6,-5.21 9.28,-2.15l7.41 6.43c3.54,3.44 2.96,3.19 10.9,-2.76l13.06 -9.79c4.09,-2.98 0.43,-4.6 -1.52,-8.28 1.54,-0.03 3.63,-0.49 5.41,-0.7l10.82 -1.41c5.03,-0.76 4.06,-0.4 1.56,5.42l-3.77 8.46c-0.54,1.3 -1.51,3.11 -1.79,4.32zm-19.31 -18.67c0,3.19 1.82,3.71 4.51,7.72 -2.77,1.86 -5.4,3.97 -8.14,6.02 -1.44,1.08 -2.64,1.98 -4.05,3.04 -1.03,0.77 -3.31,2.28 -3.91,3.17 -5.79,-3.88 -9.72,-11.12 -16.02,-9.59 -3.16,0.77 -12.84,8.78 -15.57,10.83l-22.67 16.92c-1.33,1 -2.43,1.83 -3.68,2.76 -1.24,0.93 -2.6,2.05 -3.86,2.9 -4.82,-2.55 -8.21,-8.05 -14.16,-8.05 -2.99,0 -8.07,4.52 -10.99,6.71l-28 20.92c-2.51,1.83 -2.55,2.75 -0.37,5.62 7.24,9.51 4.86,9.93 15.4,2.02l20.23 -15.17c1.4,-1.05 2.71,-2.14 4.05,-3.03 1.2,0.32 2.14,1.28 3.13,2.02 11.27,8.46 10.14,8.32 22.99,-1.33 3.92,-2.94 7.67,-5.75 11.59,-8.69l23.12 -17.42c2.55,1.71 6.61,5.89 8.96,7.78 6.38,5.13 11.86,-1.1 18.67,-6.22l12.28 -8.96c1.63,1.19 3.98,6.44 6.11,6.44 2.5,0 5.16,-8.25 6.87,-11.8 0.51,-1.07 0.9,-2.03 1.36,-3.14 0.57,-1.38 0.94,-2.05 1.47,-3.36 1.22,-3 2.53,-4.32 2.53,-7.77 0,-2.32 -2.83,-5.15 -5.15,-5.15 -3.56,0 -16.44,1.96 -20.98,2.52 -2.08,0.25 -5.73,0.22 -5.73,2.31z"/>
   <path class="fil0" d="M115.28 57.28l0 98.15c0,5.17 4.41,9.33 8.37,9.33l24.46 0c5.43,0 9.01,-4.76 9.01,-10.3l0 -66.94c0,-1.43 -1.3,-2.9 -2.57,-2.9 -3.45,0 -2.57,4.25 -2.57,7.72l0.01 61.8c0.02,3.22 -1,5.78 -4.83,5.78l-21.88 0c-2.38,0 -4.83,-1.57 -4.83,-3.86l0 -99.44c0,-2.54 2.76,-3.86 5.47,-3.86l20.6 0c3.38,0 5.42,1.43 5.49,4.81 0.05,2.83 -0.24,19.27 0.11,20.49 0.78,2.73 5.03,2.85 5.03,-1.49l0 -18.34c0,-5.54 -3.58,-10.3 -9.01,-10.3l-23.81 0c-4.95,0 -9.01,4.37 -9.01,9.33z"/>
   <path class="fil0" d="M70.55 155.12l0 -74.02c0,-2.2 1.42,-4.51 3.54,-4.51l24.46 0c1.83,0 3.54,1.78 3.54,3.54l0 75.95c0,2.59 -2.43,3.86 -5.15,3.86l-20.92 0c-3.32,0 -5.47,-1.55 -5.47,-4.83zm-4.83 -75.63l0 77.24c0,3.91 4.43,8.05 8.37,8.05l24.78 0c4.16,0 8.37,-4.51 8.37,-8.69l0 -75.95c0,-4.29 -4.15,-8.69 -9.01,-8.69l-23.49 0c-4.83,0 -9.01,4.22 -9.01,8.05z"/>
   <path class="fil0" d="M15.84 103.95l0 31.54c0,0.9 1.42,2.67 3.27,2.02 1.83,-0.64 1.57,-2.3 1.56,-4.6 -0.03,-4.36 -0.43,-27.46 0.46,-30.11 0.45,-1.35 1.77,-2.71 3.4,-2.71l24.14 0c2.24,0 3.86,2.19 3.86,4.51l0 50.53c0,3.28 -2.15,4.83 -5.47,4.83l-20.92 0c-10.76,0 -1.51,-17.7 -7.72,-17.7 -1.56,0 -2.58,1.02 -2.58,2.57 0,6.63 -1.06,13.3 2.49,17.15 1.1,1.19 3.71,2.81 5.88,2.81l24.78 0c4.11,0 8.37,-4.26 8.37,-8.37l0 -53.1c0,-4.16 -4.51,-8.37 -8.69,-8.37l-23.49 0c-5.03,0 -9.33,4.02 -9.33,9.01z"/>
  </g>
 </g>
</svg>
