<?xml version="1.0" encoding="UTF-8"?>
<!DOCTYPE svg PUBLIC "-//W3C//DTD SVG 1.1//EN" "http://www.w3.org/Graphics/SVG/1.1/DTD/svg11.dtd">
<!-- Creator: CorelDRAW -->
<svg xmlns="http://www.w3.org/2000/svg" xml:space="preserve" width="121.607mm" height="34.5138mm" version="1.1" style="shape-rendering:geometricPrecision; text-rendering:geometricPrecision; image-rendering:optimizeQuality; fill-rule:evenodd; clip-rule:evenodd"
viewBox="0 0 13073.93 3710.57"
 xmlns:xlink="http://www.w3.org/1999/xlink"
 xmlns:xodm="http://www.corel.com/coreldraw/odm/2003">
 <defs>
  <style type="text/css">
   <![CDATA[
    .fil0 {fill:#031138;fill-rule:nonzero}
   ]]>
  </style>
 </defs>
 <g id="Слой_x0020_1">
  <metadata id="CorelCorpID_0Corel-Layer"/>
  <g>
   <path class="fil0" d="M9965.28 1238.59l-20.08 -150.36 0 0 106.77 -11.63 104.85 -6.6 102.95 -2.23 101.11 1.46 99.35 4.46 97.68 6.79 96.11 8.44 94.65 9.43 93.29 9.77 92.02 9.45 90.87 8.51 89.81 6.96 88.87 4.78 88.04 2.01 87.35 -1.33 86.79 -5.26 86.43 -9.75 86.23 -14.83 86.29 -20.48 86.57 -26.76 87.13 -33.67 87.91 -41.26 88.93 -49.57 90.18 -58.58 91.57 -68.33 93.11 -78.78 94.75 -89.96 96.5 -101.83 98.33 -114.39 100.25 -127.59 102.23 -141.45 104.31 -156 127.51 82.2 -107.21 160.32 -105.63 146.16 -104.19 132.6 -102.91 119.7 -101.77 107.4 -100.81 95.71 -99.95 84.59 -99.24 74.05 -98.61 64.07 -98.05 54.65 -97.5 45.78 -96.97 37.5 -96.44 29.81 -95.86 22.76 -95.26 16.4 -94.71 10.7 -94.15 5.71 -93.67 1.44 -93.29 -2.12 -93 -5 -92.8 -7.17 -92.78 -8.69 -92.83 -9.54 -93.05 -9.75 -93.38 -9.3 -93.86 -8.25 -94.46 -6.58 -95.18 -4.29 -96.06 -1.4 -97.08 2.1 -98.27 6.17 -99.69 10.86 0 0zm-4053.69 1025.46l90.46 -121.79 0 0 192.58 135.03 182.84 112.4 173.53 91.04 164.59 70.96 156.09 52.19 148.11 34.75 140.72 18.64 134.03 3.83 128.11 -9.77 122.97 -22.3 118.54 -33.8 114.72 -44.37 111.47 -54.01 108.66 -62.67 106.24 -70.33 104.18 -76.96 102.52 -82.48 101.21 -86.9 100.31 -90.18 99.79 -92.32 99.73 -93.33 100.1 -93.17 100.95 -91.85 102.28 -89.36 104.13 -85.73 106.51 -80.89 109.46 -74.84 112.92 -67.53 116.92 -58.9 121.4 -48.94 126.26 -37.53 131.28 -24.72 20.08 150.36 -115.69 21.81 -111.9 33.3 -108.86 43.91 -106.34 53.62 -104.25 62.37 -102.51 70.13 -101.13 76.83 -100.13 82.44 -99.45 86.91 -99.19 90.25 -99.33 92.44 -99.9 93.48 -100.91 93.35 -102.39 92.05 -104.37 89.61 -106.84 85.94 -109.85 81.13 -113.4 75.04 -117.45 67.72 -122.02 59.09 -127.02 49.08 -132.41 37.74 -138.06 25.01 -143.87 10.96 -149.84 -4.3 -155.92 -20.66 -162.21 -38.06 -168.78 -56.42 -175.77 -75.77 -183.19 -96.09 -191.12 -117.5 -199.57 -139.91 0 0zm-1182.84 324.82l-134.09 -70.98 0 0 32.39 -58.83 33.31 -55.92 34.25 -53 35.19 -50.07 36.12 -47.16 37.07 -44.24 38.02 -41.31 38.96 -38.35 39.93 -35.39 40.89 -32.39 41.8 -29.35 42.74 -26.29 43.63 -23.17 44.46 -20.02 45.25 -16.8 45.97 -13.59 46.61 -10.32 47.14 -7.07 47.65 -3.8 48.01 -0.56 48.31 2.67 48.56 5.84 48.74 8.98 48.87 12.07 48.98 15.09 49.07 18.09 49.12 21.04 49.16 23.94 49.24 26.82 49.26 29.67 49.33 32.48 49.36 35.3 -90.46 121.79 -44.8 -32.03 -44.34 -29.21 -43.84 -26.4 -43.3 -23.6 -42.76 -20.82 -42.15 -18.05 -41.54 -15.32 -40.92 -12.62 -40.27 -9.94 -39.61 -7.3 -38.99 -4.7 -38.36 -2.11 -37.8 0.43 -37.24 2.98 -36.78 5.5 -36.33 8.04 -35.93 10.62 -35.6 13.23 -35.3 15.89 -35.01 18.59 -34.71 21.36 -34.45 24.19 -34.16 27.06 -33.82 30 -33.48 32.95 -33.09 35.95 -32.66 38.99 -32.21 42.05 -31.7 45.12 -31.16 48.21 -30.58 51.31 -29.96 54.44 0 0zm-3100.88 -164.88l121.06 -91.45 -0.31 -0.4 120.82 153.87 118.39 143.02 115.97 132.27 113.55 121.62 111.14 111.06 108.74 100.63 106.32 90.29 103.87 80.08 101.41 70.03 98.94 60.1 96.44 50.36 93.93 40.83 91.44 31.5 89.02 22.43 86.72 13.62 84.6 5.03 82.72 -3.34 81.11 -11.6 79.78 -19.78 78.7 -27.97 77.79 -36.2 77.01 -44.48 76.28 -52.81 75.57 -61.18 74.85 -69.51 74.06 -77.8 73.28 -86.04 72.45 -94.2 71.59 -102.23 70.74 -110.17 69.85 -117.98 68.99 -125.69 134.09 70.98 -71.27 129.82 -72.52 122.48 -73.86 115.02 -75.29 107.5 -76.82 99.86 -78.44 92.1 -80.19 84.21 -82.03 76.19 -84 67.98 -86.08 59.58 -88.19 50.93 -90.35 42.03 -92.48 32.85 -94.49 23.42 -96.35 13.77 -98.01 3.97 -99.48 -5.91 -100.78 -15.81 -101.98 -25.69 -103.13 -35.52 -104.34 -45.33 -105.57 -55.13 -106.9 -64.94 -108.34 -74.78 -109.86 -84.71 -111.5 -94.69 -113.23 -104.78 -115.06 -114.97 -116.97 -125.25 -118.94 -135.67 -121.01 -146.18 -123.12 -156.81 -0.31 -0.4zm0.31 0.4l-0.31 -0.4 -0.51 -0.68 0.82 1.08zm-1507.12 -2246.72l1627.86 2154.87 -121.06 91.45 -1627.86 -2154.87 121.06 -91.45z"/>
  </g>
 </g>
</svg>
